<svg width="15" height="10" viewBox="0 0 15 10" fill="none" xmlns="http://www.w3.org/2000/svg">
<path d="M0.750452 10L14.2508 10C14.3875 9.99962 14.5215 9.96605 14.6384 9.90291C14.7552 9.83977 14.8505 9.74944 14.914 9.64166C14.9775 9.53387 15.0068 9.41271 14.9987 9.29121C14.9906 9.16971 14.9454 9.05248 14.8681 8.95213L8.11791 0.269981C7.83815 -0.0899938 7.16463 -0.0899938 6.88413 0.269981L0.133934 8.95213C0.0558005 9.05227 0.0099812 9.16956 0.00145423 9.29127C-0.00707273 9.41297 0.0220188 9.53442 0.0855682 9.64243C0.149118 9.75045 0.244694 9.84088 0.361914 9.90392C0.479133 9.96696 0.613513 10.0002 0.750452 10Z" fill="#2C3E50"/>
</svg>
