<svg width="9" height="9" viewBox="0 0 9 9" fill="none" xmlns="http://www.w3.org/2000/svg">
<path d="M1.22258 0.201258L4.09983 3.07851L6.96217 0.216166C7.02539 0.14887 7.10156 0.0950346 7.18609 0.0578895C7.27063 0.0207444 7.3618 0.00105425 7.45413 0C7.65182 0 7.84142 0.0785331 7.98121 0.218323C8.121 0.358113 8.19953 0.547708 8.19953 0.745401C8.20127 0.836789 8.18432 0.927567 8.14971 1.01217C8.1151 1.09677 8.06357 1.1734 7.99827 1.23737L5.09866 4.09971L7.99827 6.99932C8.12113 7.1195 8.19317 7.28226 8.19953 7.45401C8.19953 7.6517 8.121 7.8413 7.98121 7.98109C7.84142 8.12088 7.65182 8.19941 7.45413 8.19941C7.35913 8.20335 7.26435 8.1875 7.17581 8.15285C7.08727 8.1182 7.0069 8.06552 6.93981 7.99815L4.09983 5.1209L1.23003 7.9907C1.16705 8.05575 1.09181 8.10769 1.00865 8.14351C0.925492 8.17933 0.836062 8.19833 0.745522 8.19941C0.54783 8.19941 0.358234 8.12088 0.218444 7.98109C0.0786544 7.8413 0.000121282 7.6517 0.000121282 7.45401C-0.00161662 7.36262 0.015339 7.27184 0.0499476 7.18724C0.0845562 7.10265 0.136088 7.02601 0.20138 6.96205L3.10099 4.09971L0.20138 1.2001C0.0785262 1.07991 0.00648672 0.91715 0.000121282 0.745401C0.000121282 0.547708 0.0786544 0.358113 0.218444 0.218323C0.358234 0.0785331 0.54783 0 0.745522 0C0.924419 0.0022362 1.09586 0.0745401 1.22258 0.201258Z" fill="black"/>
</svg>
