<svg width="14" height="14" viewBox="0 0 14 14" fill="none" xmlns="http://www.w3.org/2000/svg">
<path d="M1.9682 0.324L6.6002 4.956L11.2082 0.348C11.31 0.239661 11.4326 0.152994 11.5687 0.0931947C11.7048 0.0333958 11.8516 0.00169721 12.0002 0C12.3185 0 12.6237 0.126428 12.8487 0.351472C13.0738 0.576515 13.2002 0.88174 13.2002 1.2C13.203 1.34712 13.1757 1.49326 13.12 1.62946C13.0643 1.76565 12.9813 1.88902 12.8762 1.992L8.2082 6.6L12.8762 11.268C13.074 11.4615 13.1899 11.7235 13.2002 12C13.2002 12.3183 13.0738 12.6235 12.8487 12.8485C12.6237 13.0736 12.3185 13.2 12.0002 13.2C11.8473 13.2063 11.6947 13.1808 11.5521 13.125C11.4096 13.0693 11.2802 12.9845 11.1722 12.876L6.6002 8.244L1.9802 12.864C1.8788 12.9687 1.75767 13.0523 1.6238 13.11C1.48992 13.1677 1.34595 13.1983 1.2002 13.2C0.881936 13.2 0.576711 13.0736 0.351667 12.8485C0.126623 12.6235 0.000195248 12.3183 0.000195248 12C-0.00260255 11.8529 0.0246937 11.7067 0.0804092 11.5705C0.136125 11.4343 0.219084 11.311 0.324195 11.208L4.9922 6.6L0.324195 1.932C0.126417 1.73851 0.0104428 1.47649 0.000195248 1.2C0.000195248 0.88174 0.126623 0.576515 0.351667 0.351472C0.576711 0.126428 0.881936 0 1.2002 0C1.4882 0.0036 1.7642 0.12 1.9682 0.324Z" fill="#F24E1E"/>
</svg>
