<svg width="16" height="16" viewBox="0 0 16 16" fill="none" xmlns="http://www.w3.org/2000/svg">
<path d="M2.189 6.5C2.06301 6.99003 1.9995 7.49403 2 8C2 8.5175 2.066 9.02 2.189 9.5H4.325C4.22475 8.50251 4.22475 7.49749 4.325 6.5H2.189ZM2.8025 5H4.562C4.7615 4.08725 5.0495 3.26975 5.40275 2.5895C4.31402 3.11426 3.40809 3.95407 2.8025 5ZM13.811 6.5H11.675C11.7753 7.49749 11.7753 8.50251 11.675 9.5H13.811C14.0634 8.51593 14.0634 7.48407 13.811 6.5ZM13.1975 5C12.5919 3.95407 11.686 3.11426 10.5973 2.5895C10.9513 3.26975 11.2385 4.08725 11.438 5H13.1975ZM5.834 6.5C5.77818 6.99805 5.75014 7.49883 5.75 8C5.75 8.51375 5.7785 9.01625 5.834 9.5H10.166C10.2787 8.50318 10.2787 7.49682 10.166 6.5H5.834ZM6.1025 5H9.8975C9.76078 4.43629 9.5639 3.8889 9.31025 3.36725C8.83925 2.426 8.33525 2 8 2C7.66475 2 7.16075 2.426 6.68975 3.36725C6.4535 3.84125 6.25475 4.3925 6.1025 5ZM2.8025 11C3.40809 12.0459 4.31402 12.8857 5.40275 13.4105C5.04875 12.7303 4.7615 11.9128 4.562 11H2.8025ZM13.1975 11H11.438C11.2385 11.9128 10.9505 12.7303 10.5973 13.4105C11.686 12.8857 12.5919 12.0459 13.1975 11ZM6.1025 11C6.25475 11.6075 6.4535 12.1588 6.68975 12.6328C7.16075 13.574 7.66475 14 8 14C8.33525 14 8.83925 13.574 9.31025 12.6328C9.5465 12.1588 9.74525 11.6075 9.8975 11H6.1025ZM8 15.5C3.85775 15.5 0.5 12.1422 0.5 8C0.5 3.85775 3.85775 0.5 8 0.5C12.1422 0.5 15.5 3.85775 15.5 8C15.5 12.1422 12.1422 15.5 8 15.5Z" fill="#BBBBBB"/>
</svg>
