<svg width="282" height="99" viewBox="0 0 282 99" fill="none" xmlns="http://www.w3.org/2000/svg">
<rect width="282" height="97.9394" transform="translate(0 0.606018)" fill="white"/>
<g clip-path="url(#clip0_233_114)">
<path d="M164.832 17.606V11.966H165.544V14.43H168.848V11.966H169.56V17.606H168.848V15.062H165.544V17.606H164.832ZM172.463 17.678C172.18 17.678 171.927 17.6274 171.703 17.526C171.479 17.4194 171.303 17.2754 171.175 17.094C171.047 16.9127 170.983 16.71 170.983 16.486C170.983 16.182 171.068 15.9447 171.239 15.774C171.409 15.598 171.671 15.4727 172.023 15.398C172.38 15.3234 172.836 15.286 173.391 15.286H173.959V15.774H173.423C173.113 15.774 172.849 15.7847 172.631 15.806C172.412 15.822 172.233 15.8567 172.095 15.91C171.956 15.958 171.855 16.0247 171.791 16.11C171.727 16.1954 171.695 16.3074 171.695 16.446C171.695 16.6594 171.777 16.8247 171.943 16.942C172.113 17.0594 172.329 17.118 172.591 17.118C172.82 17.118 173.028 17.0674 173.215 16.966C173.407 16.8594 173.559 16.718 173.671 16.542C173.788 16.366 173.847 16.1714 173.847 15.958V15.054C173.847 14.7394 173.759 14.5127 173.583 14.374C173.407 14.23 173.145 14.158 172.799 14.158C172.564 14.158 172.329 14.19 172.095 14.254C171.865 14.318 171.628 14.4247 171.383 14.574L171.151 14.046C171.316 13.9447 171.492 13.862 171.679 13.798C171.865 13.7287 172.06 13.6754 172.263 13.638C172.465 13.6007 172.668 13.582 172.871 13.582C173.212 13.582 173.505 13.6354 173.751 13.742C174.001 13.8487 174.193 14.014 174.327 14.238C174.465 14.462 174.535 14.7554 174.535 15.118V17.606H173.911V16.742C173.836 16.9074 173.732 17.062 173.599 17.206C173.465 17.35 173.303 17.4647 173.111 17.55C172.924 17.6354 172.708 17.678 172.463 17.678ZM177.417 17.678C177.055 17.678 176.713 17.6354 176.393 17.55C176.073 17.4594 175.82 17.3367 175.633 17.182L175.857 16.686C176.049 16.8354 176.281 16.942 176.553 17.006C176.831 17.07 177.113 17.102 177.401 17.102C177.801 17.102 178.089 17.0514 178.265 16.95C178.441 16.8487 178.529 16.6887 178.529 16.47C178.529 16.262 178.457 16.11 178.313 16.014C178.169 15.918 177.964 15.87 177.697 15.87H176.633V15.334H177.625C177.86 15.334 178.047 15.286 178.185 15.19C178.324 15.0887 178.393 14.9447 178.393 14.758C178.393 14.5607 178.316 14.4114 178.161 14.31C178.007 14.2034 177.764 14.15 177.433 14.15C177.145 14.15 176.873 14.1847 176.617 14.254C176.361 14.318 176.127 14.4247 175.913 14.574L175.681 14.054C175.911 13.894 176.18 13.7767 176.489 13.702C176.804 13.622 177.137 13.582 177.489 13.582C178.017 13.582 178.412 13.6807 178.673 13.878C178.935 14.0754 179.065 14.3474 179.065 14.694C179.065 14.9074 179.001 15.0914 178.873 15.246C178.745 15.4007 178.561 15.51 178.321 15.574V15.566C178.519 15.6034 178.681 15.6647 178.809 15.75C178.943 15.8354 179.044 15.942 179.113 16.07C179.183 16.198 179.217 16.3447 179.217 16.51C179.217 16.8674 179.065 17.1527 178.761 17.366C178.457 17.574 178.009 17.678 177.417 17.678ZM180.447 17.606V13.654H182.543C182.869 13.654 183.135 13.694 183.343 13.774C183.557 13.854 183.714 13.9714 183.815 14.126C183.917 14.2754 183.967 14.4647 183.967 14.694C183.967 14.9074 183.903 15.0914 183.775 15.246C183.647 15.4007 183.471 15.5074 183.247 15.566V15.558C183.434 15.59 183.591 15.6514 183.719 15.742C183.847 15.8274 183.943 15.9367 184.007 16.07C184.077 16.198 184.111 16.3447 184.111 16.51C184.111 16.8514 183.981 17.1207 183.719 17.318C183.458 17.51 183.09 17.606 182.615 17.606H180.447ZM181.135 17.11H182.567C182.839 17.11 183.05 17.0594 183.199 16.958C183.349 16.8567 183.423 16.6994 183.423 16.486C183.423 16.2727 183.346 16.1127 183.191 16.006C183.042 15.8994 182.834 15.846 182.567 15.846H181.135V17.11ZM181.135 15.358H182.495C182.741 15.358 182.933 15.3047 183.071 15.198C183.215 15.086 183.287 14.9314 183.287 14.734C183.287 14.5367 183.215 14.39 183.071 14.294C182.933 14.1927 182.741 14.142 182.495 14.142H181.135V15.358ZM186.666 17.678C186.383 17.678 186.13 17.6274 185.906 17.526C185.682 17.4194 185.506 17.2754 185.378 17.094C185.25 16.9127 185.186 16.71 185.186 16.486C185.186 16.182 185.271 15.9447 185.442 15.774C185.612 15.598 185.874 15.4727 186.226 15.398C186.583 15.3234 187.039 15.286 187.594 15.286H188.162V15.774H187.626C187.316 15.774 187.052 15.7847 186.834 15.806C186.615 15.822 186.436 15.8567 186.298 15.91C186.159 15.958 186.058 16.0247 185.994 16.11C185.93 16.1954 185.898 16.3074 185.898 16.446C185.898 16.6594 185.98 16.8247 186.146 16.942C186.316 17.0594 186.532 17.118 186.794 17.118C187.023 17.118 187.231 17.0674 187.418 16.966C187.61 16.8594 187.762 16.718 187.874 16.542C187.991 16.366 188.05 16.1714 188.05 15.958V15.054C188.05 14.7394 187.962 14.5127 187.786 14.374C187.61 14.23 187.348 14.158 187.002 14.158C186.767 14.158 186.532 14.19 186.298 14.254C186.068 14.318 185.831 14.4247 185.586 14.574L185.354 14.046C185.519 13.9447 185.695 13.862 185.882 13.798C186.068 13.7287 186.263 13.6754 186.466 13.638C186.668 13.6007 186.871 13.582 187.074 13.582C187.415 13.582 187.708 13.6354 187.954 13.742C188.204 13.8487 188.396 14.014 188.53 14.238C188.668 14.462 188.738 14.7554 188.738 15.118V17.606H188.114V16.742C188.039 16.9074 187.935 17.062 187.802 17.206C187.668 17.35 187.506 17.4647 187.314 17.55C187.127 17.6354 186.911 17.678 186.666 17.678ZM190.229 17.606V13.654H190.941V15.27H193.173V13.654H193.885V17.606H193.173V15.862H190.941V17.606H190.229ZM195.377 17.606V13.654H196.049V16.726H196.009L198.313 13.654H198.985V17.606H198.313V14.526H198.353L196.049 17.606H195.377ZM202.39 17.678C201.948 17.678 201.564 17.598 201.238 17.438C200.918 17.2727 200.673 17.038 200.502 16.734C200.332 16.4247 200.246 16.0567 200.246 15.63C200.246 15.23 200.326 14.878 200.486 14.574C200.646 14.2647 200.873 14.022 201.166 13.846C201.46 13.67 201.809 13.582 202.214 13.582C202.598 13.582 202.924 13.6647 203.19 13.83C203.462 13.9954 203.668 14.2274 203.806 14.526C203.95 14.8247 204.022 15.1794 204.022 15.59V15.822H200.782V15.326H203.558L203.406 15.486C203.406 15.0487 203.302 14.7127 203.094 14.478C202.892 14.2434 202.598 14.126 202.214 14.126C201.964 14.126 201.74 14.1847 201.542 14.302C201.35 14.414 201.201 14.574 201.094 14.782C200.988 14.99 200.934 15.2434 200.934 15.542V15.622C200.934 15.942 200.993 16.2114 201.11 16.43C201.228 16.6487 201.396 16.814 201.614 16.926C201.833 17.038 202.094 17.094 202.398 17.094C202.617 17.094 202.838 17.0647 203.062 17.006C203.292 16.942 203.505 16.83 203.702 16.67L203.942 17.182C203.74 17.3527 203.497 17.478 203.214 17.558C202.937 17.638 202.662 17.678 202.39 17.678ZM208.374 17.606V14.246H206.878V13.654H210.582V14.246H209.086V17.606H208.374ZM213.167 17.678C212.767 17.678 212.421 17.5927 212.127 17.422C211.834 17.2514 211.607 17.014 211.447 16.71C211.287 16.4007 211.207 16.038 211.207 15.622C211.207 15.2114 211.287 14.854 211.447 14.55C211.607 14.2407 211.834 14.0034 212.127 13.838C212.421 13.6674 212.767 13.582 213.167 13.582C213.567 13.582 213.911 13.6674 214.199 13.838C214.493 14.0034 214.719 14.2407 214.879 14.55C215.039 14.854 215.119 15.2114 215.119 15.622C215.119 16.038 215.039 16.4007 214.879 16.71C214.725 17.014 214.501 17.2514 214.207 17.422C213.914 17.5927 213.567 17.678 213.167 17.678ZM213.159 17.078C213.549 17.078 213.855 16.9474 214.079 16.686C214.303 16.4247 214.415 16.07 214.415 15.622C214.415 15.174 214.303 14.822 214.079 14.566C213.861 14.31 213.557 14.182 213.167 14.182C212.778 14.182 212.471 14.31 212.247 14.566C212.023 14.822 211.911 15.174 211.911 15.622C211.911 16.07 212.023 16.4247 212.247 16.686C212.477 16.9474 212.781 17.078 213.159 17.078ZM216.385 17.606V13.654H218.481C218.806 13.654 219.073 13.694 219.281 13.774C219.494 13.854 219.651 13.9714 219.753 14.126C219.854 14.2754 219.905 14.4647 219.905 14.694C219.905 14.9074 219.841 15.0914 219.713 15.246C219.585 15.4007 219.409 15.5074 219.185 15.566V15.558C219.371 15.59 219.529 15.6514 219.657 15.742C219.785 15.8274 219.881 15.9367 219.945 16.07C220.014 16.198 220.049 16.3447 220.049 16.51C220.049 16.8514 219.918 17.1207 219.657 17.318C219.395 17.51 219.027 17.606 218.553 17.606H216.385ZM217.073 17.11H218.505C218.777 17.11 218.987 17.0594 219.137 16.958C219.286 16.8567 219.361 16.6994 219.361 16.486C219.361 16.2727 219.283 16.1127 219.129 16.006C218.979 15.8994 218.771 15.846 218.505 15.846H217.073V17.11ZM217.073 15.358H218.433C218.678 15.358 218.87 15.3047 219.009 15.198C219.153 15.086 219.225 14.9314 219.225 14.734C219.225 14.5367 219.153 14.39 219.009 14.294C218.87 14.1927 218.678 14.142 218.433 14.142H217.073V15.358ZM222.603 17.678C222.321 17.678 222.067 17.6274 221.843 17.526C221.619 17.4194 221.443 17.2754 221.315 17.094C221.187 16.9127 221.123 16.71 221.123 16.486C221.123 16.182 221.209 15.9447 221.379 15.774C221.55 15.598 221.811 15.4727 222.163 15.398C222.521 15.3234 222.977 15.286 223.531 15.286H224.099V15.774H223.563C223.254 15.774 222.99 15.7847 222.771 15.806C222.553 15.822 222.374 15.8567 222.235 15.91C222.097 15.958 221.995 16.0247 221.931 16.11C221.867 16.1954 221.835 16.3074 221.835 16.446C221.835 16.6594 221.918 16.8247 222.083 16.942C222.254 17.0594 222.47 17.118 222.731 17.118C222.961 17.118 223.169 17.0674 223.355 16.966C223.547 16.8594 223.699 16.718 223.811 16.542C223.929 16.366 223.987 16.1714 223.987 15.958V15.054C223.987 14.7394 223.899 14.5127 223.723 14.374C223.547 14.23 223.286 14.158 222.939 14.158C222.705 14.158 222.47 14.19 222.235 14.254C222.006 14.318 221.769 14.4247 221.523 14.574L221.291 14.046C221.457 13.9447 221.633 13.862 221.819 13.798C222.006 13.7287 222.201 13.6754 222.403 13.638C222.606 13.6007 222.809 13.582 223.011 13.582C223.353 13.582 223.646 13.6354 223.891 13.742C224.142 13.8487 224.334 14.014 224.467 14.238C224.606 14.462 224.675 14.7554 224.675 15.118V17.606H224.051V16.742C223.977 16.9074 223.873 17.062 223.739 17.206C223.606 17.35 223.443 17.4647 223.251 17.55C223.065 17.6354 222.849 17.678 222.603 17.678ZM226.166 19.046V13.646H226.822V14.518C226.939 14.2194 227.123 13.99 227.374 13.83C227.63 13.6647 227.929 13.582 228.27 13.582C228.638 13.582 228.958 13.6674 229.23 13.838C229.502 14.0087 229.713 14.246 229.862 14.55C230.011 14.854 230.086 15.214 230.086 15.63C230.086 16.03 230.011 16.3847 229.862 16.694C229.718 17.0034 229.51 17.246 229.238 17.422C228.966 17.5927 228.646 17.678 228.278 17.678C227.942 17.678 227.651 17.598 227.406 17.438C227.166 17.2727 226.99 17.054 226.878 16.782V19.046H226.166ZM228.118 17.094C228.507 17.094 228.814 16.9634 229.038 16.702C229.262 16.4354 229.374 16.0754 229.374 15.622C229.374 15.1687 229.262 14.814 229.038 14.558C228.814 14.2967 228.507 14.166 228.118 14.166C227.734 14.166 227.43 14.2967 227.206 14.558C226.982 14.814 226.87 15.1687 226.87 15.622C226.87 16.0754 226.982 16.4354 227.206 16.702C227.43 16.9634 227.734 17.094 228.118 17.094ZM232.674 17.678C232.391 17.678 232.138 17.6274 231.914 17.526C231.69 17.4194 231.514 17.2754 231.386 17.094C231.258 16.9127 231.194 16.71 231.194 16.486C231.194 16.182 231.279 15.9447 231.45 15.774C231.62 15.598 231.882 15.4727 232.234 15.398C232.591 15.3234 233.047 15.286 233.602 15.286H234.17V15.774H233.634C233.324 15.774 233.06 15.7847 232.842 15.806C232.623 15.822 232.444 15.8567 232.306 15.91C232.167 15.958 232.066 16.0247 232.002 16.11C231.938 16.1954 231.906 16.3074 231.906 16.446C231.906 16.6594 231.988 16.8247 232.154 16.942C232.324 17.0594 232.54 17.118 232.802 17.118C233.031 17.118 233.239 17.0674 233.426 16.966C233.618 16.8594 233.77 16.718 233.882 16.542C233.999 16.366 234.058 16.1714 234.058 15.958V15.054C234.058 14.7394 233.97 14.5127 233.794 14.374C233.618 14.23 233.356 14.158 233.01 14.158C232.775 14.158 232.54 14.19 232.306 14.254C232.076 14.318 231.839 14.4247 231.594 14.574L231.362 14.046C231.527 13.9447 231.703 13.862 231.89 13.798C232.076 13.7287 232.271 13.6754 232.474 13.638C232.676 13.6007 232.879 13.582 233.082 13.582C233.423 13.582 233.716 13.6354 233.962 13.742C234.212 13.8487 234.404 14.014 234.538 14.238C234.676 14.462 234.746 14.7554 234.746 15.118V17.606H234.122V16.742C234.047 16.9074 233.943 17.062 233.81 17.206C233.676 17.35 233.514 17.4647 233.322 17.55C233.135 17.6354 232.919 17.678 232.674 17.678ZM237.404 18.11L235.364 11.742L235.924 11.59L237.956 17.958L237.404 18.11ZM239.076 19.046L239.828 17.35V17.854L238.052 13.654H238.812L240.1 16.91H240.06L241.348 13.654H242.092L239.828 19.046H239.076ZM244.754 17.678C244.349 17.678 243.997 17.5927 243.698 17.422C243.4 17.2514 243.168 17.014 243.002 16.71C242.837 16.4007 242.754 16.038 242.754 15.622C242.754 15.206 242.837 14.846 243.002 14.542C243.168 14.2327 243.4 13.9954 243.698 13.83C244.002 13.6647 244.357 13.582 244.762 13.582C245.034 13.582 245.293 13.6274 245.538 13.718C245.784 13.8087 245.986 13.9314 246.146 14.086L245.898 14.614C245.744 14.4754 245.57 14.3714 245.378 14.302C245.186 14.2274 245 14.19 244.818 14.19C244.402 14.19 244.074 14.3154 243.834 14.566C243.594 14.8167 243.474 15.1714 243.474 15.63C243.474 16.0834 243.594 16.438 243.834 16.694C244.074 16.9447 244.4 17.07 244.81 17.07C244.997 17.07 245.184 17.0354 245.37 16.966C245.562 16.8914 245.733 16.7874 245.882 16.654L246.13 17.182C245.976 17.3367 245.776 17.4594 245.53 17.55C245.285 17.6354 245.026 17.678 244.754 17.678ZM246.895 17.694L246.631 17.15C246.828 17.0647 246.991 16.958 247.119 16.83C247.252 16.702 247.354 16.542 247.423 16.35C247.498 16.158 247.548 15.926 247.575 15.654C247.607 15.3767 247.623 15.054 247.623 14.686V13.654H250.639V17.606H249.927V14.246H248.287V14.702C248.287 15.1287 248.263 15.5074 248.215 15.838C248.172 16.1687 248.098 16.4567 247.991 16.702C247.89 16.942 247.748 17.1447 247.567 17.31C247.386 17.4754 247.162 17.6034 246.895 17.694ZM252.615 19.046L253.367 17.35V17.854L251.591 13.654H252.351L253.639 16.91H253.599L254.887 13.654H255.631L253.367 19.046H252.615ZM256.58 17.606V13.654H259.476V14.246H257.292V17.606H256.58ZM260.408 17.606V13.654H261.08V16.726H261.04L263.344 13.654H264.016V17.606H263.344V14.526H263.384L261.08 17.606H260.408Z" fill="black"/>
<path d="M157.2 33.602V32.606H153.606V28.376H154.44V31.886H156.504V28.376H157.338V31.91H157.968V33.602H157.2ZM160.399 32.666C160.011 32.666 159.683 32.604 159.415 32.48C159.147 32.352 158.945 32.17 158.809 31.934C158.673 31.698 158.605 31.418 158.605 31.094C158.605 30.798 158.667 30.532 158.791 30.296C158.919 30.06 159.103 29.874 159.343 29.738C159.583 29.598 159.871 29.528 160.207 29.528C160.507 29.528 160.769 29.592 160.993 29.72C161.217 29.844 161.389 30.024 161.509 30.26C161.633 30.492 161.695 30.774 161.695 31.106V31.358H159.253V30.836H161.089L160.999 30.95C160.999 30.666 160.929 30.458 160.789 30.326C160.653 30.194 160.461 30.128 160.213 30.128C160.053 30.128 159.911 30.16 159.787 30.224C159.663 30.288 159.565 30.384 159.493 30.512C159.421 30.636 159.385 30.794 159.385 30.986V31.082C159.385 31.302 159.425 31.48 159.505 31.616C159.585 31.752 159.703 31.852 159.859 31.916C160.015 31.98 160.207 32.012 160.435 32.012C160.591 32.012 160.751 31.994 160.915 31.958C161.083 31.922 161.235 31.856 161.371 31.76L161.605 32.336C161.437 32.456 161.245 32.542 161.029 32.594C160.813 32.642 160.603 32.666 160.399 32.666ZM162.61 32.606V29.588H163.444V30.728H164.896V29.588H165.73V32.606H164.896V31.412H163.444V32.606H162.61ZM167.897 32.666C167.673 32.666 167.471 32.624 167.291 32.54C167.115 32.456 166.975 32.342 166.871 32.198C166.771 32.054 166.721 31.892 166.721 31.712C166.721 31.492 166.787 31.312 166.919 31.172C167.055 31.028 167.259 30.922 167.531 30.854C167.807 30.786 168.155 30.752 168.575 30.752H169.037V31.262H168.629C168.445 31.262 168.285 31.268 168.149 31.28C168.013 31.292 167.899 31.314 167.807 31.346C167.719 31.374 167.651 31.414 167.603 31.466C167.559 31.518 167.537 31.586 167.537 31.67C167.537 31.806 167.589 31.904 167.693 31.964C167.801 32.024 167.939 32.054 168.107 32.054C168.251 32.054 168.385 32.02 168.509 31.952C168.633 31.884 168.733 31.794 168.809 31.682C168.885 31.57 168.923 31.45 168.923 31.322V30.686C168.923 30.486 168.857 30.35 168.725 30.278C168.593 30.202 168.401 30.164 168.149 30.164C167.985 30.164 167.815 30.186 167.639 30.23C167.463 30.274 167.273 30.35 167.069 30.458L166.847 29.876C166.995 29.796 167.147 29.732 167.303 29.684C167.459 29.632 167.621 29.594 167.789 29.57C167.961 29.542 168.135 29.528 168.311 29.528C168.595 29.528 168.843 29.572 169.055 29.66C169.271 29.744 169.437 29.878 169.553 30.062C169.673 30.246 169.733 30.488 169.733 30.788V32.606H169.061V31.994H169.019C168.951 32.118 168.865 32.232 168.761 32.336C168.661 32.436 168.539 32.516 168.395 32.576C168.255 32.636 168.089 32.666 167.897 32.666ZM170.663 30.464V29.588H171.665V30.464H170.663ZM170.663 32.606V31.736H171.665V32.606H170.663ZM174.245 32.606V32.132H175.505V28.802L175.799 28.862L174.461 29.726L174.215 29.294L175.643 28.376H176.051V32.132H177.197V32.606H174.245ZM179.193 32.66C178.865 32.66 178.589 32.578 178.365 32.414C178.141 32.246 177.971 32.002 177.855 31.682C177.743 31.358 177.687 30.962 177.687 30.494C177.687 30.018 177.743 29.62 177.855 29.3C177.971 28.98 178.141 28.738 178.365 28.574C178.593 28.406 178.871 28.322 179.199 28.322C179.527 28.322 179.803 28.406 180.027 28.574C180.251 28.738 180.419 28.98 180.531 29.3C180.643 29.616 180.699 30.008 180.699 30.476C180.699 30.952 180.641 31.352 180.525 31.676C180.413 32 180.245 32.246 180.021 32.414C179.797 32.578 179.521 32.66 179.193 32.66ZM179.193 32.174C179.517 32.174 179.759 32.038 179.919 31.766C180.079 31.49 180.159 31.062 180.159 30.482C180.159 29.91 180.079 29.488 179.919 29.216C179.763 28.944 179.523 28.808 179.199 28.808C178.871 28.808 178.627 28.944 178.467 29.216C178.307 29.488 178.227 29.912 178.227 30.488C178.227 31.06 178.305 31.484 178.461 31.76C178.621 32.036 178.865 32.174 179.193 32.174ZM184.356 33.296V32.408L184.476 32.516C184.192 32.512 183.92 32.472 183.66 32.396C183.404 32.32 183.18 32.2 182.988 32.036L183.186 31.598C183.31 31.702 183.44 31.788 183.576 31.856C183.712 31.92 183.858 31.968 184.014 32C184.17 32.032 184.342 32.048 184.53 32.048C184.866 32.048 185.116 31.986 185.28 31.862C185.444 31.738 185.526 31.584 185.526 31.4C185.526 31.204 185.46 31.058 185.328 30.962C185.196 30.862 185.008 30.798 184.764 30.77L184.158 30.68C183.81 30.632 183.542 30.524 183.354 30.356C183.17 30.188 183.078 29.948 183.078 29.636C183.078 29.416 183.134 29.222 183.246 29.054C183.362 28.886 183.522 28.75 183.726 28.646C183.934 28.542 184.174 28.484 184.446 28.472L184.356 28.556V27.686H184.812V28.556L184.722 28.472C184.946 28.48 185.168 28.526 185.388 28.61C185.608 28.694 185.794 28.812 185.946 28.964L185.754 29.384C185.598 29.232 185.422 29.12 185.226 29.048C185.034 28.972 184.816 28.934 184.572 28.934C184.276 28.934 184.04 29.002 183.864 29.138C183.688 29.27 183.6 29.438 183.6 29.642C183.6 29.826 183.654 29.966 183.762 30.062C183.87 30.154 184.05 30.216 184.302 30.248L184.908 30.338C185.304 30.394 185.594 30.514 185.778 30.698C185.962 30.878 186.054 31.112 186.054 31.4C186.054 31.612 185.996 31.798 185.88 31.958C185.764 32.118 185.606 32.246 185.406 32.342C185.206 32.434 184.974 32.49 184.71 32.51L184.812 32.402V33.296H184.356Z" fill="black"/>
<path d="M153.606 45.606V41.376H154.44V43.11H155.166L155.016 43.26L156.198 41.376H157.146L155.814 43.41L155.436 43.146C155.612 43.174 155.772 43.23 155.916 43.314C156.064 43.394 156.198 43.5 156.318 43.632C156.438 43.764 156.54 43.918 156.624 44.094L157.362 45.606H156.426L155.862 44.394C155.77 44.202 155.66 44.06 155.532 43.968C155.408 43.876 155.242 43.83 155.034 43.83H154.44V45.606H153.606ZM159.108 45.666C158.884 45.666 158.682 45.624 158.502 45.54C158.326 45.456 158.186 45.342 158.082 45.198C157.982 45.054 157.932 44.892 157.932 44.712C157.932 44.492 157.998 44.312 158.13 44.172C158.266 44.028 158.47 43.922 158.742 43.854C159.018 43.786 159.366 43.752 159.786 43.752H160.248V44.262H159.84C159.656 44.262 159.496 44.268 159.36 44.28C159.224 44.292 159.11 44.314 159.018 44.346C158.93 44.374 158.862 44.414 158.814 44.466C158.77 44.518 158.748 44.586 158.748 44.67C158.748 44.806 158.8 44.904 158.904 44.964C159.012 45.024 159.15 45.054 159.318 45.054C159.462 45.054 159.596 45.02 159.72 44.952C159.844 44.884 159.944 44.794 160.02 44.682C160.096 44.57 160.134 44.45 160.134 44.322V43.686C160.134 43.486 160.068 43.35 159.936 43.278C159.804 43.202 159.612 43.164 159.36 43.164C159.196 43.164 159.026 43.186 158.85 43.23C158.674 43.274 158.484 43.35 158.28 43.458L158.058 42.876C158.206 42.796 158.358 42.732 158.514 42.684C158.67 42.632 158.832 42.594 159 42.57C159.172 42.542 159.346 42.528 159.522 42.528C159.806 42.528 160.054 42.572 160.266 42.66C160.482 42.744 160.648 42.878 160.764 43.062C160.884 43.246 160.944 43.488 160.944 43.788V45.606H160.272V44.994H160.23C160.162 45.118 160.076 45.232 159.972 45.336C159.872 45.436 159.75 45.516 159.606 45.576C159.466 45.636 159.3 45.666 159.108 45.666ZM162.714 45.606V43.272H161.616V42.588H164.646V43.272H163.548V45.606H162.714ZM166.926 45.666C166.538 45.666 166.21 45.604 165.942 45.48C165.674 45.352 165.472 45.17 165.336 44.934C165.2 44.698 165.132 44.418 165.132 44.094C165.132 43.798 165.194 43.532 165.318 43.296C165.446 43.06 165.63 42.874 165.87 42.738C166.11 42.598 166.398 42.528 166.734 42.528C167.034 42.528 167.296 42.592 167.52 42.72C167.744 42.844 167.916 43.024 168.036 43.26C168.16 43.492 168.222 43.774 168.222 44.106V44.358H165.78V43.836H167.616L167.526 43.95C167.526 43.666 167.456 43.458 167.316 43.326C167.18 43.194 166.988 43.128 166.74 43.128C166.58 43.128 166.438 43.16 166.314 43.224C166.19 43.288 166.092 43.384 166.02 43.512C165.948 43.636 165.912 43.794 165.912 43.986V44.082C165.912 44.302 165.952 44.48 166.032 44.616C166.112 44.752 166.23 44.852 166.386 44.916C166.542 44.98 166.734 45.012 166.962 45.012C167.118 45.012 167.278 44.994 167.442 44.958C167.61 44.922 167.762 44.856 167.898 44.76L168.132 45.336C167.964 45.456 167.772 45.542 167.556 45.594C167.34 45.642 167.13 45.666 166.926 45.666ZM169.138 45.606V42.588H171.574V43.272H169.972V45.606H169.138ZM173.724 45.666C173.396 45.666 173.11 45.6 172.866 45.468C172.626 45.336 172.44 45.152 172.308 44.916C172.18 44.68 172.116 44.406 172.116 44.094C172.116 43.778 172.18 43.504 172.308 43.272C172.44 43.036 172.626 42.854 172.866 42.726C173.11 42.594 173.396 42.528 173.724 42.528C174.056 42.528 174.34 42.594 174.576 42.726C174.816 42.854 175 43.036 175.128 43.272C175.26 43.504 175.326 43.778 175.326 44.094C175.326 44.406 175.26 44.68 175.128 44.916C175 45.152 174.816 45.336 174.576 45.468C174.34 45.6 174.056 45.666 173.724 45.666ZM173.724 44.97C173.976 44.97 174.172 44.89 174.312 44.73C174.452 44.57 174.522 44.356 174.522 44.088C174.522 43.82 174.452 43.61 174.312 43.458C174.176 43.302 173.98 43.224 173.724 43.224C173.468 43.224 173.27 43.302 173.13 43.458C172.99 43.61 172.92 43.82 172.92 44.088C172.92 44.356 172.99 44.57 173.13 44.73C173.274 44.89 173.472 44.97 173.724 44.97ZM176.257 46.686V42.582H176.983V43.182H177.025C177.129 42.966 177.273 42.804 177.457 42.696C177.645 42.584 177.863 42.528 178.111 42.528C178.399 42.528 178.647 42.596 178.855 42.732C179.063 42.864 179.223 43.048 179.335 43.284C179.447 43.516 179.503 43.786 179.503 44.094C179.503 44.39 179.449 44.658 179.341 44.898C179.233 45.134 179.075 45.322 178.867 45.462C178.663 45.598 178.413 45.666 178.117 45.666C177.881 45.666 177.679 45.614 177.511 45.51C177.347 45.402 177.219 45.262 177.127 45.09H177.091V46.686H176.257ZM177.883 45.018C178.135 45.018 178.331 44.934 178.471 44.766C178.611 44.598 178.681 44.372 178.681 44.088C178.681 43.804 178.611 43.582 178.471 43.422C178.335 43.258 178.139 43.176 177.883 43.176C177.627 43.176 177.429 43.258 177.289 43.422C177.149 43.582 177.079 43.804 177.079 44.088C177.079 44.372 177.149 44.598 177.289 44.766C177.433 44.934 177.631 45.018 177.883 45.018ZM180.429 45.606V42.588H181.233V44.526H181.269L182.661 42.588H183.477V45.606H182.673V43.662H182.637L181.245 45.606H180.429ZM184.302 45.606L184.776 44.832C184.856 44.704 184.94 44.606 185.028 44.538C185.12 44.47 185.212 44.436 185.304 44.436H185.328V44.4C185.188 44.388 185.05 44.35 184.914 44.286C184.778 44.222 184.666 44.128 184.578 44.004C184.49 43.88 184.446 43.724 184.446 43.536C184.446 43.24 184.552 43.008 184.764 42.84C184.98 42.672 185.294 42.588 185.706 42.588H187.41V45.606H186.6V44.61H186.204C186.08 44.61 185.97 44.636 185.874 44.688C185.778 44.74 185.7 44.816 185.64 44.916L185.22 45.606H184.302ZM185.874 44.034H186.606V43.176H185.874C185.666 43.176 185.508 43.216 185.4 43.296C185.296 43.376 185.244 43.482 185.244 43.614C185.244 43.746 185.296 43.85 185.4 43.926C185.504 43.998 185.662 44.034 185.874 44.034ZM188.341 43.464V42.588H189.343V43.464H188.341ZM188.341 45.606V44.736H189.343V45.606H188.341ZM193.429 45.66C193.121 45.66 192.851 45.594 192.619 45.462C192.391 45.33 192.213 45.138 192.085 44.886C191.961 44.634 191.899 44.33 191.899 43.974V43.518C191.899 43.366 191.907 43.21 191.923 43.05C191.939 42.886 191.975 42.728 192.031 42.576C192.087 42.42 192.169 42.274 192.277 42.138C192.389 42.002 192.539 41.88 192.727 41.772C192.915 41.66 193.151 41.57 193.435 41.502L194.533 41.22L194.701 41.676L193.471 41.976C193.107 42.064 192.837 42.214 192.661 42.426C192.485 42.638 192.397 42.902 192.397 43.218V43.332H192.427C192.491 43.188 192.575 43.064 192.679 42.96C192.783 42.856 192.907 42.778 193.051 42.726C193.195 42.67 193.357 42.642 193.537 42.642C193.741 42.642 193.927 42.676 194.095 42.744C194.267 42.812 194.415 42.912 194.539 43.044C194.663 43.172 194.759 43.328 194.827 43.512C194.899 43.696 194.935 43.902 194.935 44.13C194.935 44.438 194.871 44.708 194.743 44.94C194.619 45.168 194.443 45.346 194.215 45.474C193.991 45.598 193.729 45.66 193.429 45.66ZM193.417 45.198C193.713 45.198 193.947 45.11 194.119 44.934C194.291 44.758 194.377 44.5 194.377 44.16C194.377 43.828 194.289 43.568 194.113 43.38C193.941 43.192 193.709 43.098 193.417 43.098C193.125 43.098 192.891 43.19 192.715 43.374C192.543 43.558 192.457 43.806 192.457 44.118C192.457 44.474 192.543 44.744 192.715 44.928C192.887 45.108 193.121 45.198 193.417 45.198ZM197.445 45.66C197.101 45.66 196.805 45.6 196.557 45.48C196.309 45.356 196.119 45.178 195.987 44.946C195.855 44.714 195.789 44.434 195.789 44.106C195.789 43.81 195.847 43.546 195.963 43.314C196.083 43.082 196.255 42.9 196.479 42.768C196.707 42.632 196.979 42.564 197.295 42.564C197.599 42.564 197.855 42.628 198.063 42.756C198.275 42.884 198.433 43.064 198.537 43.296C198.645 43.524 198.699 43.796 198.699 44.112V44.274H196.203V43.878H198.339L198.219 44.016C198.219 43.684 198.137 43.432 197.973 43.26C197.813 43.084 197.587 42.996 197.295 42.996C197.111 42.996 196.945 43.038 196.797 43.122C196.653 43.202 196.537 43.318 196.449 43.47C196.365 43.622 196.323 43.808 196.323 44.028V44.1C196.323 44.344 196.369 44.548 196.461 44.712C196.553 44.872 196.683 44.994 196.851 45.078C197.023 45.158 197.225 45.198 197.457 45.198C197.617 45.198 197.783 45.178 197.955 45.138C198.131 45.098 198.293 45.018 198.441 44.898L198.633 45.3C198.473 45.428 198.285 45.52 198.069 45.576C197.857 45.632 197.649 45.66 197.445 45.66ZM200.817 45.66C200.533 45.66 200.265 45.628 200.013 45.564C199.765 45.496 199.569 45.404 199.425 45.288L199.599 44.904C199.747 45.016 199.927 45.094 200.139 45.138C200.355 45.182 200.577 45.204 200.805 45.204C201.109 45.204 201.329 45.168 201.465 45.096C201.601 45.02 201.669 44.902 201.669 44.742C201.669 44.586 201.613 44.474 201.501 44.406C201.393 44.334 201.237 44.298 201.033 44.298H200.181V43.878H200.979C201.159 43.878 201.301 43.844 201.405 43.776C201.513 43.708 201.567 43.602 201.567 43.458C201.567 43.31 201.507 43.2 201.387 43.128C201.271 43.056 201.087 43.02 200.835 43.02C200.615 43.02 200.403 43.044 200.199 43.092C199.995 43.14 199.809 43.22 199.641 43.332L199.467 42.918C199.643 42.798 199.853 42.71 200.097 42.654C200.341 42.594 200.599 42.564 200.871 42.564C201.279 42.564 201.583 42.638 201.783 42.786C201.987 42.934 202.089 43.14 202.089 43.404C202.089 43.548 202.049 43.676 201.969 43.788C201.889 43.9 201.769 43.986 201.609 44.046V44.076C201.745 44.116 201.857 44.168 201.945 44.232C202.033 44.296 202.097 44.374 202.137 44.466C202.181 44.558 202.203 44.662 202.203 44.778C202.203 45.046 202.087 45.26 201.855 45.42C201.623 45.58 201.277 45.66 200.817 45.66ZM204.958 45.606V42.618H205.51V43.848H206.086L207.106 42.618H207.718L206.512 44.076L206.428 43.938C206.552 43.954 206.658 43.986 206.746 44.034C206.834 44.078 206.916 44.144 206.992 44.232C207.068 44.316 207.148 44.426 207.232 44.562L207.886 45.606H207.28L206.728 44.73C206.668 44.634 206.608 44.554 206.548 44.49C206.488 44.422 206.416 44.372 206.332 44.34C206.252 44.308 206.146 44.292 206.014 44.292H205.51V45.606H204.958ZM209.616 45.66C209.4 45.66 209.206 45.622 209.034 45.546C208.862 45.466 208.726 45.358 208.626 45.222C208.53 45.086 208.482 44.932 208.482 44.76C208.482 44.532 208.55 44.352 208.686 44.22C208.826 44.084 209.032 43.988 209.304 43.932C209.576 43.872 209.912 43.842 210.312 43.842H210.816V44.232H210.348C210.124 44.232 209.928 44.24 209.76 44.256C209.596 44.268 209.46 44.292 209.352 44.328C209.248 44.364 209.168 44.414 209.112 44.478C209.06 44.542 209.034 44.626 209.034 44.73C209.034 44.894 209.1 45.016 209.232 45.096C209.364 45.176 209.528 45.216 209.724 45.216C209.904 45.216 210.068 45.176 210.216 45.096C210.368 45.016 210.49 44.91 210.582 44.778C210.678 44.646 210.726 44.504 210.726 44.352V43.674C210.726 43.442 210.652 43.276 210.504 43.176C210.356 43.072 210.146 43.02 209.874 43.02C209.694 43.02 209.514 43.044 209.334 43.092C209.158 43.136 208.974 43.214 208.782 43.326L208.608 42.912C208.74 42.836 208.878 42.772 209.022 42.72C209.17 42.668 209.322 42.63 209.478 42.606C209.634 42.578 209.79 42.564 209.946 42.564C210.206 42.564 210.436 42.604 210.636 42.684C210.836 42.764 210.992 42.89 211.104 43.062C211.216 43.23 211.272 43.45 211.272 43.722V45.606H210.798V44.97H210.762C210.698 45.086 210.614 45.198 210.51 45.306C210.406 45.41 210.28 45.496 210.132 45.564C209.984 45.628 209.812 45.66 209.616 45.66ZM213.153 45.606V43.086H212.001V42.618H214.863V43.086H213.711V45.606H213.153ZM217.068 45.66C216.724 45.66 216.428 45.6 216.18 45.48C215.932 45.356 215.742 45.178 215.61 44.946C215.478 44.714 215.412 44.434 215.412 44.106C215.412 43.81 215.47 43.546 215.586 43.314C215.706 43.082 215.878 42.9 216.102 42.768C216.33 42.632 216.602 42.564 216.918 42.564C217.222 42.564 217.478 42.628 217.686 42.756C217.898 42.884 218.056 43.064 218.16 43.296C218.268 43.524 218.322 43.796 218.322 44.112V44.274H215.826V43.878H217.962L217.842 44.016C217.842 43.684 217.76 43.432 217.596 43.26C217.436 43.084 217.21 42.996 216.918 42.996C216.734 42.996 216.568 43.038 216.42 43.122C216.276 43.202 216.16 43.318 216.072 43.47C215.988 43.622 215.946 43.808 215.946 44.028V44.1C215.946 44.344 215.992 44.548 216.084 44.712C216.176 44.872 216.306 44.994 216.474 45.078C216.646 45.158 216.848 45.198 217.08 45.198C217.24 45.198 217.406 45.178 217.578 45.138C217.754 45.098 217.916 45.018 218.064 44.898L218.256 45.3C218.096 45.428 217.908 45.52 217.692 45.576C217.48 45.632 217.272 45.66 217.068 45.66ZM219.354 45.606V42.618H221.592V43.086H219.906V45.606H219.354ZM223.686 45.66C223.378 45.66 223.11 45.596 222.882 45.468C222.658 45.336 222.484 45.154 222.36 44.922C222.24 44.69 222.18 44.418 222.18 44.106C222.18 43.798 222.24 43.528 222.36 43.296C222.484 43.064 222.658 42.884 222.882 42.756C223.11 42.628 223.378 42.564 223.686 42.564C223.998 42.564 224.264 42.628 224.484 42.756C224.708 42.884 224.882 43.064 225.006 43.296C225.13 43.528 225.192 43.798 225.192 44.106C225.192 44.418 225.13 44.69 225.006 44.922C224.886 45.154 224.714 45.336 224.49 45.468C224.266 45.596 223.998 45.66 223.686 45.66ZM223.68 45.174C223.98 45.174 224.216 45.076 224.388 44.88C224.56 44.684 224.646 44.426 224.646 44.106C224.646 43.782 224.56 43.524 224.388 43.332C224.22 43.14 223.986 43.044 223.686 43.044C223.386 43.044 223.15 43.14 222.978 43.332C222.81 43.524 222.726 43.782 222.726 44.106C222.726 44.426 222.81 44.684 222.978 44.88C223.15 45.076 223.384 45.174 223.68 45.174ZM226.215 46.686V42.612H226.707V43.248H226.743C226.843 43.028 226.987 42.86 227.175 42.744C227.367 42.624 227.591 42.564 227.847 42.564C228.127 42.564 228.371 42.63 228.579 42.762C228.787 42.89 228.949 43.07 229.065 43.302C229.181 43.534 229.239 43.804 229.239 44.112C229.239 44.412 229.181 44.68 229.065 44.916C228.953 45.148 228.793 45.33 228.585 45.462C228.377 45.594 228.131 45.66 227.847 45.66C227.599 45.66 227.385 45.604 227.205 45.492C227.029 45.376 226.895 45.218 226.803 45.018H226.773V46.686H226.215ZM227.721 45.198C228.021 45.198 228.255 45.098 228.423 44.898C228.595 44.698 228.681 44.434 228.681 44.106C228.681 43.778 228.597 43.516 228.429 43.32C228.261 43.124 228.027 43.026 227.727 43.026C227.423 43.026 227.187 43.124 227.019 43.32C226.851 43.516 226.767 43.778 226.767 44.106C226.767 44.434 226.851 44.698 227.019 44.898C227.191 45.098 227.425 45.198 227.721 45.198ZM230.264 45.606V42.618H230.798V44.85H230.828L232.502 42.618H233.054V45.606H232.514V43.368H232.484L230.81 45.606H230.264ZM234.26 45.606V42.618H234.794V44.85H234.824L236.498 42.618H237.05V45.606H236.51V43.368H236.48L234.806 45.606H234.26Z" fill="black"/>
<path d="M155.532 59.666C155.216 59.666 154.93 59.616 154.674 59.516C154.418 59.416 154.198 59.272 154.014 59.084C153.83 58.892 153.688 58.662 153.588 58.394C153.492 58.126 153.444 57.824 153.444 57.488C153.444 57.152 153.492 56.852 153.588 56.588C153.688 56.32 153.83 56.092 154.014 55.904C154.198 55.712 154.418 55.566 154.674 55.466C154.93 55.366 155.216 55.316 155.532 55.316C155.848 55.316 156.134 55.366 156.39 55.466C156.646 55.566 156.864 55.71 157.044 55.898C157.228 56.086 157.368 56.314 157.464 56.582C157.564 56.85 157.614 57.15 157.614 57.482C157.614 57.818 157.564 58.12 157.464 58.388C157.368 58.656 157.228 58.886 157.044 59.078C156.864 59.27 156.646 59.416 156.39 59.516C156.134 59.616 155.848 59.666 155.532 59.666ZM155.532 58.94C155.792 58.94 156.012 58.884 156.192 58.772C156.376 58.66 156.516 58.496 156.612 58.28C156.712 58.064 156.762 57.8 156.762 57.488C156.762 57.172 156.714 56.908 156.618 56.696C156.522 56.48 156.382 56.318 156.198 56.21C156.014 56.098 155.792 56.042 155.532 56.042C155.272 56.042 155.05 56.098 154.866 56.21C154.682 56.318 154.54 56.48 154.44 56.696C154.344 56.908 154.296 57.172 154.296 57.488C154.296 57.8 154.344 58.064 154.44 58.28C154.54 58.496 154.682 58.66 154.866 58.772C155.05 58.884 155.272 58.94 155.532 58.94ZM158.603 59.606V56.588H161.645V59.606H160.811V57.272H159.437V59.606H158.603ZM162.722 59.606V56.588H163.526V58.526H163.562L164.954 56.588H165.77V59.606H164.966V57.662H164.93L163.538 59.606H162.722ZM168.305 59.666C167.981 59.666 167.699 59.602 167.459 59.474C167.219 59.342 167.031 59.16 166.895 58.928C166.763 58.692 166.697 58.416 166.697 58.1C166.697 57.78 166.763 57.502 166.895 57.266C167.031 57.03 167.219 56.848 167.459 56.72C167.703 56.592 167.987 56.528 168.311 56.528C168.543 56.528 168.759 56.562 168.959 56.63C169.159 56.694 169.321 56.778 169.445 56.882L169.193 57.506C169.081 57.422 168.957 57.356 168.821 57.308C168.685 57.26 168.549 57.236 168.413 57.236C168.133 57.236 167.915 57.31 167.759 57.458C167.607 57.602 167.531 57.816 167.531 58.1C167.531 58.384 167.607 58.598 167.759 58.742C167.915 58.886 168.131 58.958 168.407 58.958C168.547 58.958 168.683 58.934 168.815 58.886C168.951 58.838 169.071 58.776 169.175 58.7L169.433 59.318C169.309 59.422 169.149 59.506 168.953 59.57C168.757 59.634 168.541 59.666 168.305 59.666ZM171.255 59.666C171.031 59.666 170.829 59.624 170.649 59.54C170.473 59.456 170.333 59.342 170.229 59.198C170.129 59.054 170.079 58.892 170.079 58.712C170.079 58.492 170.145 58.312 170.277 58.172C170.413 58.028 170.617 57.922 170.889 57.854C171.165 57.786 171.513 57.752 171.933 57.752H172.395V58.262H171.987C171.803 58.262 171.643 58.268 171.507 58.28C171.371 58.292 171.257 58.314 171.165 58.346C171.077 58.374 171.009 58.414 170.961 58.466C170.917 58.518 170.895 58.586 170.895 58.67C170.895 58.806 170.947 58.904 171.051 58.964C171.159 59.024 171.297 59.054 171.465 59.054C171.609 59.054 171.743 59.02 171.867 58.952C171.991 58.884 172.091 58.794 172.167 58.682C172.243 58.57 172.281 58.45 172.281 58.322V57.686C172.281 57.486 172.215 57.35 172.083 57.278C171.951 57.202 171.759 57.164 171.507 57.164C171.343 57.164 171.173 57.186 170.997 57.23C170.821 57.274 170.631 57.35 170.427 57.458L170.205 56.876C170.353 56.796 170.505 56.732 170.661 56.684C170.817 56.632 170.979 56.594 171.147 56.57C171.319 56.542 171.493 56.528 171.669 56.528C171.953 56.528 172.201 56.572 172.413 56.66C172.629 56.744 172.795 56.878 172.911 57.062C173.031 57.246 173.091 57.488 173.091 57.788V59.606H172.419V58.994H172.377C172.309 59.118 172.223 59.232 172.119 59.336C172.019 59.436 171.897 59.516 171.753 59.576C171.613 59.636 171.447 59.666 171.255 59.666ZM174.171 59.606V56.588H175.005V57.728H176.457V56.588H177.291V59.606H176.457V58.412H175.005V59.606H174.171ZM178.372 59.606V56.588H179.176V58.526H179.212L180.604 56.588H181.42V59.606H180.616V57.662H180.58L179.188 59.606H178.372ZM184.141 59.666C183.753 59.666 183.425 59.604 183.157 59.48C182.889 59.352 182.687 59.17 182.551 58.934C182.415 58.698 182.347 58.418 182.347 58.094C182.347 57.798 182.409 57.532 182.533 57.296C182.661 57.06 182.845 56.874 183.085 56.738C183.325 56.598 183.613 56.528 183.949 56.528C184.249 56.528 184.511 56.592 184.735 56.72C184.959 56.844 185.131 57.024 185.251 57.26C185.375 57.492 185.437 57.774 185.437 58.106V58.358H182.995V57.836H184.831L184.741 57.95C184.741 57.666 184.671 57.458 184.531 57.326C184.395 57.194 184.203 57.128 183.955 57.128C183.795 57.128 183.653 57.16 183.529 57.224C183.405 57.288 183.307 57.384 183.235 57.512C183.163 57.636 183.127 57.794 183.127 57.986V58.082C183.127 58.302 183.167 58.48 183.247 58.616C183.327 58.752 183.445 58.852 183.601 58.916C183.757 58.98 183.949 59.012 184.177 59.012C184.333 59.012 184.493 58.994 184.657 58.958C184.825 58.922 184.977 58.856 185.113 58.76L185.347 59.336C185.179 59.456 184.987 59.542 184.771 59.594C184.555 59.642 184.345 59.666 184.141 59.666ZM186.203 57.464V56.588H187.205V57.464H186.203ZM186.203 59.606V58.736H187.205V59.606H186.203ZM191.266 59.66C190.958 59.66 190.69 59.596 190.462 59.468C190.238 59.336 190.064 59.154 189.94 58.922C189.82 58.69 189.76 58.418 189.76 58.106C189.76 57.798 189.82 57.528 189.94 57.296C190.064 57.064 190.238 56.884 190.462 56.756C190.69 56.628 190.958 56.564 191.266 56.564C191.578 56.564 191.844 56.628 192.064 56.756C192.288 56.884 192.462 57.064 192.586 57.296C192.71 57.528 192.772 57.798 192.772 58.106C192.772 58.418 192.71 58.69 192.586 58.922C192.466 59.154 192.294 59.336 192.07 59.468C191.846 59.596 191.578 59.66 191.266 59.66ZM191.26 59.174C191.56 59.174 191.796 59.076 191.968 58.88C192.14 58.684 192.226 58.426 192.226 58.106C192.226 57.782 192.14 57.524 191.968 57.332C191.8 57.14 191.566 57.044 191.266 57.044C190.966 57.044 190.73 57.14 190.558 57.332C190.39 57.524 190.306 57.782 190.306 58.106C190.306 58.426 190.39 58.684 190.558 58.88C190.73 59.076 190.964 59.174 191.26 59.174ZM193.795 59.606V56.618H196.579V59.606H196.021V57.086H194.347V59.606H193.795ZM197.786 59.606V56.618H198.32V58.85H198.35L200.024 56.618H200.576V59.606H200.036V57.368H200.006L198.332 59.606H197.786ZM203.144 59.66C202.832 59.66 202.56 59.598 202.328 59.474C202.1 59.346 201.922 59.166 201.794 58.934C201.666 58.702 201.602 58.43 201.602 58.118C201.602 57.798 201.666 57.522 201.794 57.29C201.922 57.058 202.102 56.88 202.334 56.756C202.566 56.628 202.838 56.564 203.15 56.564C203.366 56.564 203.568 56.6 203.756 56.672C203.944 56.74 204.098 56.832 204.218 56.948L204.026 57.368C203.91 57.268 203.778 57.19 203.63 57.134C203.486 57.078 203.342 57.05 203.198 57.05C202.878 57.05 202.624 57.144 202.436 57.332C202.252 57.516 202.16 57.778 202.16 58.118C202.16 58.454 202.252 58.714 202.436 58.898C202.624 59.082 202.876 59.174 203.192 59.174C203.336 59.174 203.48 59.146 203.624 59.09C203.768 59.034 203.894 58.962 204.002 58.874L204.2 59.288C204.084 59.4 203.934 59.49 203.75 59.558C203.566 59.626 203.364 59.66 203.144 59.66ZM206.042 59.66C205.826 59.66 205.632 59.622 205.46 59.546C205.288 59.466 205.152 59.358 205.052 59.222C204.956 59.086 204.908 58.932 204.908 58.76C204.908 58.532 204.976 58.352 205.112 58.22C205.252 58.084 205.458 57.988 205.73 57.932C206.002 57.872 206.338 57.842 206.738 57.842H207.242V58.232H206.774C206.55 58.232 206.354 58.24 206.186 58.256C206.022 58.268 205.886 58.292 205.778 58.328C205.674 58.364 205.594 58.414 205.538 58.478C205.486 58.542 205.46 58.626 205.46 58.73C205.46 58.894 205.526 59.016 205.658 59.096C205.79 59.176 205.954 59.216 206.15 59.216C206.33 59.216 206.494 59.176 206.642 59.096C206.794 59.016 206.916 58.91 207.008 58.778C207.104 58.646 207.152 58.504 207.152 58.352V57.674C207.152 57.442 207.078 57.276 206.93 57.176C206.782 57.072 206.572 57.02 206.3 57.02C206.12 57.02 205.94 57.044 205.76 57.092C205.584 57.136 205.4 57.214 205.208 57.326L205.034 56.912C205.166 56.836 205.304 56.772 205.448 56.72C205.596 56.668 205.748 56.63 205.904 56.606C206.06 56.578 206.216 56.564 206.372 56.564C206.632 56.564 206.862 56.604 207.062 56.684C207.262 56.764 207.418 56.89 207.53 57.062C207.642 57.23 207.698 57.45 207.698 57.722V59.606H207.224V58.97H207.188C207.124 59.086 207.04 59.198 206.936 59.306C206.832 59.41 206.706 59.496 206.558 59.564C206.41 59.628 206.238 59.66 206.042 59.66ZM208.901 59.606V56.618H209.453V57.83H211.169V56.618H211.727V59.606H211.169V58.298H209.453V59.606H208.901ZM212.938 59.606V56.618H213.472V58.85H213.502L215.176 56.618H215.728V59.606H215.188V57.368H215.158L213.484 59.606H212.938ZM218.41 59.66C218.066 59.66 217.77 59.6 217.522 59.48C217.274 59.356 217.084 59.178 216.952 58.946C216.82 58.714 216.754 58.434 216.754 58.106C216.754 57.81 216.812 57.546 216.928 57.314C217.048 57.082 217.22 56.9 217.444 56.768C217.672 56.632 217.944 56.564 218.26 56.564C218.564 56.564 218.82 56.628 219.028 56.756C219.24 56.884 219.398 57.064 219.502 57.296C219.61 57.524 219.664 57.796 219.664 58.112V58.274H217.168V57.878H219.304L219.184 58.016C219.184 57.684 219.102 57.432 218.938 57.26C218.778 57.084 218.552 56.996 218.26 56.996C218.076 56.996 217.91 57.038 217.762 57.122C217.618 57.202 217.502 57.318 217.414 57.47C217.33 57.622 217.288 57.808 217.288 58.028V58.1C217.288 58.344 217.334 58.548 217.426 58.712C217.518 58.872 217.648 58.994 217.816 59.078C217.988 59.158 218.19 59.198 218.422 59.198C218.582 59.198 218.748 59.178 218.92 59.138C219.096 59.098 219.258 59.018 219.406 58.898L219.598 59.3C219.438 59.428 219.25 59.52 219.034 59.576C218.822 59.632 218.614 59.66 218.41 59.66ZM154.284 67.606V65.086H153.132V64.618H155.994V65.086H154.842V67.606H154.284ZM158.049 67.66C157.741 67.66 157.473 67.596 157.245 67.468C157.021 67.336 156.847 67.154 156.723 66.922C156.603 66.69 156.543 66.418 156.543 66.106C156.543 65.798 156.603 65.528 156.723 65.296C156.847 65.064 157.021 64.884 157.245 64.756C157.473 64.628 157.741 64.564 158.049 64.564C158.361 64.564 158.627 64.628 158.847 64.756C159.071 64.884 159.245 65.064 159.369 65.296C159.493 65.528 159.555 65.798 159.555 66.106C159.555 66.418 159.493 66.69 159.369 66.922C159.249 67.154 159.077 67.336 158.853 67.468C158.629 67.596 158.361 67.66 158.049 67.66ZM158.043 67.174C158.343 67.174 158.579 67.076 158.751 66.88C158.923 66.684 159.009 66.426 159.009 66.106C159.009 65.782 158.923 65.524 158.751 65.332C158.583 65.14 158.349 65.044 158.049 65.044C157.749 65.044 157.513 65.14 157.341 65.332C157.173 65.524 157.089 65.782 157.089 66.106C157.089 66.426 157.173 66.684 157.341 66.88C157.513 67.076 157.747 67.174 158.043 67.174ZM160.579 67.606V64.618H162.229C162.477 64.618 162.683 64.648 162.847 64.708C163.011 64.768 163.131 64.856 163.207 64.972C163.287 65.088 163.327 65.232 163.327 65.404C163.327 65.552 163.287 65.682 163.207 65.794C163.127 65.902 163.015 65.984 162.871 66.04V66.07C162.995 66.106 163.099 66.158 163.183 66.226C163.267 66.29 163.329 66.37 163.369 66.466C163.413 66.558 163.435 66.662 163.435 66.778C163.435 67.034 163.333 67.236 163.129 67.384C162.929 67.532 162.647 67.606 162.283 67.606H160.579ZM161.119 67.216H162.235C162.443 67.216 162.603 67.18 162.715 67.108C162.831 67.032 162.889 66.914 162.889 66.754C162.889 66.594 162.831 66.478 162.715 66.406C162.599 66.33 162.439 66.292 162.235 66.292H161.119V67.216ZM161.119 65.902H162.181C162.369 65.902 162.517 65.862 162.625 65.782C162.733 65.702 162.787 65.588 162.787 65.44C162.787 65.292 162.733 65.184 162.625 65.116C162.517 65.044 162.369 65.008 162.181 65.008H161.119V65.902ZM165.46 67.66C165.244 67.66 165.05 67.622 164.878 67.546C164.706 67.466 164.57 67.358 164.47 67.222C164.374 67.086 164.326 66.932 164.326 66.76C164.326 66.532 164.394 66.352 164.53 66.22C164.67 66.084 164.876 65.988 165.148 65.932C165.42 65.872 165.756 65.842 166.156 65.842H166.66V66.232H166.192C165.968 66.232 165.772 66.24 165.604 66.256C165.44 66.268 165.304 66.292 165.196 66.328C165.092 66.364 165.012 66.414 164.956 66.478C164.904 66.542 164.878 66.626 164.878 66.73C164.878 66.894 164.944 67.016 165.076 67.096C165.208 67.176 165.372 67.216 165.568 67.216C165.748 67.216 165.912 67.176 166.06 67.096C166.212 67.016 166.334 66.91 166.426 66.778C166.522 66.646 166.57 66.504 166.57 66.352V65.674C166.57 65.442 166.496 65.276 166.348 65.176C166.2 65.072 165.99 65.02 165.718 65.02C165.538 65.02 165.358 65.044 165.178 65.092C165.002 65.136 164.818 65.214 164.626 65.326L164.452 64.912C164.584 64.836 164.722 64.772 164.866 64.72C165.014 64.668 165.166 64.63 165.322 64.606C165.478 64.578 165.634 64.564 165.79 64.564C166.05 64.564 166.28 64.604 166.48 64.684C166.68 64.764 166.836 64.89 166.948 65.062C167.06 65.23 167.116 65.45 167.116 65.722V67.606H166.642V66.97H166.606C166.542 67.086 166.458 67.198 166.354 67.306C166.25 67.41 166.124 67.496 165.976 67.564C165.828 67.628 165.656 67.66 165.46 67.66ZM168.319 68.686V64.612H168.811V65.248H168.847C168.947 65.028 169.091 64.86 169.279 64.744C169.471 64.624 169.695 64.564 169.951 64.564C170.231 64.564 170.475 64.63 170.683 64.762C170.891 64.89 171.053 65.07 171.169 65.302C171.285 65.534 171.343 65.804 171.343 66.112C171.343 66.412 171.285 66.68 171.169 66.916C171.057 67.148 170.897 67.33 170.689 67.462C170.481 67.594 170.235 67.66 169.951 67.66C169.703 67.66 169.489 67.604 169.309 67.492C169.133 67.376 168.999 67.218 168.907 67.018H168.877V68.686H168.319ZM169.825 67.198C170.125 67.198 170.359 67.098 170.527 66.898C170.699 66.698 170.785 66.434 170.785 66.106C170.785 65.778 170.701 65.516 170.533 65.32C170.365 65.124 170.131 65.026 169.831 65.026C169.527 65.026 169.291 65.124 169.123 65.32C168.955 65.516 168.871 65.778 168.871 66.106C168.871 66.434 168.955 66.698 169.123 66.898C169.295 67.098 169.529 67.198 169.825 67.198ZM173.388 67.66C173.172 67.66 172.978 67.622 172.806 67.546C172.634 67.466 172.498 67.358 172.398 67.222C172.302 67.086 172.254 66.932 172.254 66.76C172.254 66.532 172.322 66.352 172.458 66.22C172.598 66.084 172.804 65.988 173.076 65.932C173.348 65.872 173.684 65.842 174.084 65.842H174.588V66.232H174.12C173.896 66.232 173.7 66.24 173.532 66.256C173.368 66.268 173.232 66.292 173.124 66.328C173.02 66.364 172.94 66.414 172.884 66.478C172.832 66.542 172.806 66.626 172.806 66.73C172.806 66.894 172.872 67.016 173.004 67.096C173.136 67.176 173.3 67.216 173.496 67.216C173.676 67.216 173.84 67.176 173.988 67.096C174.14 67.016 174.262 66.91 174.354 66.778C174.45 66.646 174.498 66.504 174.498 66.352V65.674C174.498 65.442 174.424 65.276 174.276 65.176C174.128 65.072 173.918 65.02 173.646 65.02C173.466 65.02 173.286 65.044 173.106 65.092C172.93 65.136 172.746 65.214 172.554 65.326L172.38 64.912C172.512 64.836 172.65 64.772 172.794 64.72C172.942 64.668 173.094 64.63 173.25 64.606C173.406 64.578 173.562 64.564 173.718 64.564C173.978 64.564 174.208 64.604 174.408 64.684C174.608 64.764 174.764 64.89 174.876 65.062C174.988 65.23 175.044 65.45 175.044 65.722V67.606H174.57V66.97H174.534C174.47 67.086 174.386 67.198 174.282 67.306C174.178 67.41 174.052 67.496 173.904 67.564C173.756 67.628 173.584 67.66 173.388 67.66ZM177.087 67.984L175.563 63.208L175.995 63.094L177.519 67.876L177.087 67.984ZM178.417 68.686L178.981 67.396V67.858L177.625 64.618H178.219L179.143 67.006H179.185L180.103 64.618H180.679L178.999 68.686H178.417ZM182.806 67.66C182.494 67.66 182.222 67.598 181.99 67.474C181.762 67.346 181.584 67.166 181.456 66.934C181.328 66.702 181.264 66.43 181.264 66.118C181.264 65.798 181.328 65.522 181.456 65.29C181.584 65.058 181.764 64.88 181.996 64.756C182.228 64.628 182.5 64.564 182.812 64.564C183.028 64.564 183.23 64.6 183.418 64.672C183.606 64.74 183.76 64.832 183.88 64.948L183.688 65.368C183.572 65.268 183.44 65.19 183.292 65.134C183.148 65.078 183.004 65.05 182.86 65.05C182.54 65.05 182.286 65.144 182.098 65.332C181.914 65.516 181.822 65.778 181.822 66.118C181.822 66.454 181.914 66.714 182.098 66.898C182.286 67.082 182.538 67.174 182.854 67.174C182.998 67.174 183.142 67.146 183.286 67.09C183.43 67.034 183.556 66.962 183.664 66.874L183.862 67.288C183.746 67.4 183.596 67.49 183.412 67.558C183.228 67.626 183.026 67.66 182.806 67.66ZM184.498 67.672L184.294 67.246C184.454 67.186 184.584 67.106 184.684 67.006C184.784 66.906 184.86 66.784 184.912 66.64C184.968 66.492 185.006 66.316 185.026 66.112C185.05 65.908 185.062 65.672 185.062 65.404V64.618H187.39V67.606H186.832V65.086H185.578V65.416C185.578 65.728 185.562 66.008 185.53 66.256C185.498 66.5 185.442 66.716 185.362 66.904C185.282 67.088 185.172 67.244 185.032 67.372C184.892 67.5 184.714 67.6 184.498 67.672ZM188.97 68.686L189.534 67.396V67.858L188.178 64.618H188.772L189.696 67.006H189.738L190.656 64.618H191.232L189.552 68.686H188.97ZM192.032 67.606V64.618H194.27V65.086H192.584V67.606H192.032ZM195.038 67.606V64.618H195.572V66.85H195.602L197.276 64.618H197.828V67.606H197.288V65.368H197.258L195.584 67.606H195.038Z" fill="black"/>
<rect x="185" y="76.606" width="50" height="17" rx="8.5" fill="#BBBBBB"/>
<path d="M193.224 87.678C192.819 87.678 192.453 87.6114 192.128 87.478C191.808 87.3447 191.533 87.1527 191.304 86.902C191.08 86.6514 190.907 86.3474 190.784 85.99C190.661 85.6327 190.6 85.23 190.6 84.782C190.6 84.334 190.659 83.934 190.776 83.582C190.899 83.2247 191.075 82.9207 191.304 82.67C191.533 82.4194 191.808 82.2274 192.128 82.094C192.453 81.9607 192.819 81.894 193.224 81.894C193.629 81.894 193.992 81.9607 194.312 82.094C194.637 82.2274 194.915 82.4194 195.144 82.67C195.373 82.9154 195.547 83.2167 195.664 83.574C195.787 83.9314 195.848 84.3314 195.848 84.774C195.848 85.2274 195.787 85.6327 195.664 85.99C195.541 86.3474 195.365 86.6514 195.136 86.902C194.912 87.1527 194.637 87.3447 194.312 87.478C193.992 87.6114 193.629 87.678 193.224 87.678ZM193.224 87.038C193.624 87.038 193.963 86.9527 194.24 86.782C194.517 86.606 194.731 86.35 194.88 86.014C195.029 85.678 195.104 85.2674 195.104 84.782C195.104 84.2914 195.029 83.8807 194.88 83.55C194.736 83.2194 194.523 82.9687 194.24 82.798C193.963 82.622 193.624 82.534 193.224 82.534C192.829 82.534 192.491 82.622 192.208 82.798C191.931 82.9687 191.717 83.2194 191.568 83.55C191.419 83.8807 191.344 84.2914 191.344 84.782C191.344 85.2674 191.419 85.678 191.568 86.014C191.717 86.3447 191.931 86.598 192.208 86.774C192.491 86.95 192.829 87.038 193.224 87.038ZM197.197 87.606V83.654H200.797V87.606H200.085V84.246H197.909V87.606H197.197ZM202.067 87.694L201.803 87.15C202 87.0647 202.163 86.958 202.291 86.83C202.424 86.702 202.526 86.542 202.595 86.35C202.67 86.158 202.72 85.926 202.747 85.654C202.779 85.3767 202.795 85.054 202.795 84.686V83.654H205.811V87.606H205.099V84.246H203.459V84.702C203.459 85.1287 203.435 85.5074 203.387 85.838C203.344 86.1687 203.27 86.4567 203.163 86.702C203.062 86.942 202.92 87.1447 202.739 87.31C202.558 87.4754 202.334 87.6034 202.067 87.694ZM208.627 87.678C208.344 87.678 208.091 87.6274 207.867 87.526C207.643 87.4194 207.467 87.2754 207.339 87.094C207.211 86.9127 207.147 86.71 207.147 86.486C207.147 86.182 207.232 85.9447 207.403 85.774C207.573 85.598 207.835 85.4727 208.187 85.398C208.544 85.3234 209 85.286 209.555 85.286H210.123V85.774H209.587C209.277 85.774 209.013 85.7847 208.795 85.806C208.576 85.822 208.397 85.8567 208.259 85.91C208.12 85.958 208.019 86.0247 207.955 86.11C207.891 86.1954 207.859 86.3074 207.859 86.446C207.859 86.6594 207.941 86.8247 208.107 86.942C208.277 87.0594 208.493 87.118 208.755 87.118C208.984 87.118 209.192 87.0674 209.379 86.966C209.571 86.8594 209.723 86.718 209.835 86.542C209.952 86.366 210.011 86.1714 210.011 85.958V85.054C210.011 84.7394 209.923 84.5127 209.747 84.374C209.571 84.23 209.309 84.158 208.963 84.158C208.728 84.158 208.493 84.19 208.259 84.254C208.029 84.318 207.792 84.4247 207.547 84.574L207.315 84.046C207.48 83.9447 207.656 83.862 207.843 83.798C208.029 83.7287 208.224 83.6754 208.427 83.638C208.629 83.6007 208.832 83.582 209.035 83.582C209.376 83.582 209.669 83.6354 209.915 83.742C210.165 83.8487 210.357 84.014 210.491 84.238C210.629 84.462 210.699 84.7554 210.699 85.118V87.606H210.075V86.742C210 86.9074 209.896 87.062 209.763 87.206C209.629 87.35 209.467 87.4647 209.275 87.55C209.088 87.6354 208.872 87.678 208.627 87.678ZM213.062 87.606V84.246H211.566V83.654H215.27V84.246H213.774V87.606H213.062ZM216.15 87.606V83.654H216.822V86.726H216.782L219.086 83.654H219.758V87.606H219.086V84.526H219.126L216.822 87.606H216.15ZM222.132 87.606V84.246H220.636V83.654H224.34V84.246H222.844V87.606H222.132ZM225.221 87.606V83.654H225.933V85.014H227.269C227.791 85.014 228.189 85.126 228.461 85.35C228.733 85.574 228.869 85.8914 228.869 86.302C228.869 86.5634 228.805 86.7927 228.677 86.99C228.554 87.1874 228.373 87.3394 228.133 87.446C227.893 87.5527 227.605 87.606 227.269 87.606H225.221ZM225.933 87.07H227.173C227.482 87.07 227.725 87.0114 227.901 86.894C228.077 86.7714 228.165 86.574 228.165 86.302C228.165 86.03 228.077 85.8354 227.901 85.718C227.725 85.6007 227.482 85.542 227.173 85.542H225.933V87.07Z" fill="black"/>
</g>
<rect x="7.5" y="9.10602" width="136" height="84" rx="9.5" fill="white" stroke="#BBBBBB"/>
<path d="M136 52.4848L138.75 49.8181L136 47.1515" stroke="#BBBBBB" stroke-width="1.5" stroke-linecap="round" stroke-linejoin="round"/>
<path d="M13.75 47.1515L11 49.8181L13.75 52.4848" stroke="#BBBBBB" stroke-width="1.5" stroke-linecap="round" stroke-linejoin="round"/>
<circle cx="67.5" cy="87.106" r="2.5" fill="#D9D9D9"/>
<circle cx="83.5" cy="87.106" r="2.5" fill="#D9D9D9"/>
<circle cx="75.5" cy="87.106" r="2.5" fill="#D9D9D9"/>
<path d="M81.5 43.2727H69.125C68.8266 43.2727 68.5405 43.3876 68.3295 43.5922C68.1185 43.7968 68 44.0743 68 44.3636V54.1818C68 54.4711 68.1185 54.7486 68.3295 54.9532C68.5405 55.1577 68.8266 55.2727 69.125 55.2727H81.5C81.7984 55.2727 82.0845 55.1577 82.2955 54.9532C82.5065 54.7486 82.625 54.4711 82.625 54.1818V44.3636C82.625 44.0743 82.5065 43.7968 82.2955 43.5922C82.0845 43.3876 81.7984 43.2727 81.5 43.2727ZM81.5 44.3636V51.3693L79.667 49.5924C79.5625 49.4911 79.4385 49.4107 79.3019 49.3559C79.1654 49.3011 79.0191 49.2728 78.8714 49.2728C78.7236 49.2728 78.5773 49.3011 78.4408 49.3559C78.3043 49.4107 78.1803 49.4911 78.0758 49.5924L76.6695 50.9561L73.5758 47.9561C73.3648 47.7517 73.0788 47.6368 72.7805 47.6368C72.4823 47.6368 72.1963 47.7517 71.9853 47.9561L69.125 50.7297V44.3636H81.5ZM69.125 52.2727L72.7812 48.7272L78.4062 54.1818H69.125V52.2727ZM81.5 54.1818H79.9974L77.4662 51.7272L78.8724 50.3636L81.5 52.9122V54.1818ZM76.4375 47.3636C76.4375 47.2018 76.487 47.0436 76.5797 46.909C76.6724 46.7745 76.8042 46.6696 76.9584 46.6077C77.1125 46.5458 77.2822 46.5296 77.4459 46.5611C77.6095 46.5927 77.7599 46.6706 77.8779 46.785C77.9959 46.8995 78.0762 47.0453 78.1088 47.204C78.1413 47.3627 78.1246 47.5272 78.0608 47.6767C77.9969 47.8262 77.8888 47.954 77.75 48.0439C77.6113 48.1338 77.4481 48.1818 77.2812 48.1818C77.0575 48.1818 76.8429 48.0956 76.6846 47.9421C76.5264 47.7887 76.4375 47.5806 76.4375 47.3636Z" fill="#BBBBBB"/>
<defs>
<clipPath id="clip0_233_114">
<rect width="119" height="85" fill="white" transform="translate(153 8.60602)"/>
</clipPath>
</defs>
</svg>
