<svg width="282" height="143" viewBox="0 0 282 143" fill="none" xmlns="http://www.w3.org/2000/svg">
<rect width="282" height="143" fill="white"/>
<g clip-path="url(#clip0_234_184)">
<path d="M92.832 76V70.36H93.544V72.824H96.848V70.36H97.56V76H96.848V73.456H93.544V76H92.832ZM100.463 76.072C100.18 76.072 99.9266 76.0213 99.7026 75.92C99.4786 75.8133 99.3026 75.6693 99.1746 75.488C99.0466 75.3067 98.9826 75.104 98.9826 74.88C98.9826 74.576 99.068 74.3387 99.2386 74.168C99.4093 73.992 99.6706 73.8667 100.023 73.792C100.38 73.7173 100.836 73.68 101.391 73.68H101.959V74.168H101.423C101.113 74.168 100.849 74.1787 100.631 74.2C100.412 74.216 100.233 74.2507 100.095 74.304C99.956 74.352 99.8546 74.4187 99.7906 74.504C99.7266 74.5893 99.6946 74.7013 99.6946 74.84C99.6946 75.0533 99.7773 75.2187 99.9426 75.336C100.113 75.4533 100.329 75.512 100.591 75.512C100.82 75.512 101.028 75.4613 101.215 75.36C101.407 75.2533 101.559 75.112 101.671 74.936C101.788 74.76 101.847 74.5653 101.847 74.352V73.448C101.847 73.1333 101.759 72.9067 101.583 72.768C101.407 72.624 101.145 72.552 100.799 72.552C100.564 72.552 100.329 72.584 100.095 72.648C99.8653 72.712 99.628 72.8187 99.3826 72.968L99.1506 72.44C99.316 72.3387 99.492 72.256 99.6786 72.192C99.8653 72.1227 100.06 72.0693 100.263 72.032C100.465 71.9947 100.668 71.976 100.871 71.976C101.212 71.976 101.505 72.0293 101.751 72.136C102.001 72.2427 102.193 72.408 102.327 72.632C102.465 72.856 102.535 73.1493 102.535 73.512V76H101.911V75.136C101.836 75.3013 101.732 75.456 101.599 75.6C101.465 75.744 101.303 75.8587 101.111 75.944C100.924 76.0293 100.708 76.072 100.463 76.072ZM105.417 76.072C105.055 76.072 104.713 76.0293 104.393 75.944C104.073 75.8533 103.82 75.7307 103.633 75.576L103.857 75.08C104.049 75.2293 104.281 75.336 104.553 75.4C104.831 75.464 105.113 75.496 105.401 75.496C105.801 75.496 106.089 75.4453 106.265 75.344C106.441 75.2427 106.529 75.0827 106.529 74.864C106.529 74.656 106.457 74.504 106.313 74.408C106.169 74.312 105.964 74.264 105.697 74.264H104.633V73.728H105.625C105.86 73.728 106.047 73.68 106.185 73.584C106.324 73.4827 106.393 73.3387 106.393 73.152C106.393 72.9547 106.316 72.8053 106.161 72.704C106.007 72.5973 105.764 72.544 105.433 72.544C105.145 72.544 104.873 72.5787 104.617 72.648C104.361 72.712 104.127 72.8187 103.913 72.968L103.681 72.448C103.911 72.288 104.18 72.1707 104.489 72.096C104.804 72.016 105.137 71.976 105.489 71.976C106.017 71.976 106.412 72.0747 106.673 72.272C106.935 72.4693 107.065 72.7413 107.065 73.088C107.065 73.3013 107.001 73.4853 106.873 73.64C106.745 73.7947 106.561 73.904 106.321 73.968V73.96C106.519 73.9973 106.681 74.0587 106.809 74.144C106.943 74.2293 107.044 74.336 107.113 74.464C107.183 74.592 107.217 74.7387 107.217 74.904C107.217 75.2613 107.065 75.5467 106.761 75.76C106.457 75.968 106.009 76.072 105.417 76.072ZM108.447 76V72.048H110.543C110.869 72.048 111.135 72.088 111.343 72.168C111.557 72.248 111.714 72.3653 111.815 72.52C111.917 72.6693 111.967 72.8587 111.967 73.088C111.967 73.3013 111.903 73.4853 111.775 73.64C111.647 73.7947 111.471 73.9013 111.247 73.96V73.952C111.434 73.984 111.591 74.0453 111.719 74.136C111.847 74.2213 111.943 74.3307 112.007 74.464C112.077 74.592 112.111 74.7387 112.111 74.904C112.111 75.2453 111.981 75.5147 111.719 75.712C111.458 75.904 111.09 76 110.615 76H108.447ZM109.135 75.504H110.567C110.839 75.504 111.05 75.4533 111.199 75.352C111.349 75.2507 111.423 75.0933 111.423 74.88C111.423 74.6667 111.346 74.5067 111.191 74.4C111.042 74.2933 110.834 74.24 110.567 74.24H109.135V75.504ZM109.135 73.752H110.495C110.741 73.752 110.933 73.6987 111.071 73.592C111.215 73.48 111.287 73.3253 111.287 73.128C111.287 72.9307 111.215 72.784 111.071 72.688C110.933 72.5867 110.741 72.536 110.495 72.536H109.135V73.752ZM114.666 76.072C114.383 76.072 114.13 76.0213 113.906 75.92C113.682 75.8133 113.506 75.6693 113.378 75.488C113.25 75.3067 113.186 75.104 113.186 74.88C113.186 74.576 113.271 74.3387 113.442 74.168C113.612 73.992 113.874 73.8667 114.226 73.792C114.583 73.7173 115.039 73.68 115.594 73.68H116.162V74.168H115.626C115.316 74.168 115.052 74.1787 114.834 74.2C114.615 74.216 114.436 74.2507 114.298 74.304C114.159 74.352 114.058 74.4187 113.994 74.504C113.93 74.5893 113.898 74.7013 113.898 74.84C113.898 75.0533 113.98 75.2187 114.146 75.336C114.316 75.4533 114.532 75.512 114.794 75.512C115.023 75.512 115.231 75.4613 115.418 75.36C115.61 75.2533 115.762 75.112 115.874 74.936C115.991 74.76 116.05 74.5653 116.05 74.352V73.448C116.05 73.1333 115.962 72.9067 115.786 72.768C115.61 72.624 115.348 72.552 115.002 72.552C114.767 72.552 114.532 72.584 114.298 72.648C114.068 72.712 113.831 72.8187 113.586 72.968L113.354 72.44C113.519 72.3387 113.695 72.256 113.882 72.192C114.068 72.1227 114.263 72.0693 114.466 72.032C114.668 71.9947 114.871 71.976 115.074 71.976C115.415 71.976 115.708 72.0293 115.954 72.136C116.204 72.2427 116.396 72.408 116.53 72.632C116.668 72.856 116.738 73.1493 116.738 73.512V76H116.114V75.136C116.039 75.3013 115.935 75.456 115.802 75.6C115.668 75.744 115.506 75.8587 115.314 75.944C115.127 76.0293 114.911 76.072 114.666 76.072ZM118.229 76V72.048H118.941V73.664H121.173V72.048H121.885V76H121.173V74.256H118.941V76H118.229ZM123.377 76V72.048H124.049V75.12H124.009L126.313 72.048H126.985V76H126.313V72.92H126.353L124.049 76H123.377ZM130.39 76.072C129.948 76.072 129.564 75.992 129.238 75.832C128.918 75.6667 128.673 75.432 128.502 75.128C128.332 74.8187 128.246 74.4507 128.246 74.024C128.246 73.624 128.326 73.272 128.486 72.968C128.646 72.6587 128.873 72.416 129.166 72.24C129.46 72.064 129.809 71.976 130.214 71.976C130.598 71.976 130.924 72.0587 131.19 72.224C131.462 72.3893 131.668 72.6213 131.806 72.92C131.95 73.2187 132.022 73.5733 132.022 73.984V74.216H128.782V73.72H131.558L131.406 73.88C131.406 73.4427 131.302 73.1067 131.094 72.872C130.892 72.6373 130.598 72.52 130.214 72.52C129.964 72.52 129.74 72.5787 129.542 72.696C129.35 72.808 129.201 72.968 129.094 73.176C128.988 73.384 128.934 73.6373 128.934 73.936V74.016C128.934 74.336 128.993 74.6053 129.11 74.824C129.228 75.0427 129.396 75.208 129.614 75.32C129.833 75.432 130.094 75.488 130.398 75.488C130.617 75.488 130.838 75.4587 131.062 75.4C131.292 75.336 131.505 75.224 131.702 75.064L131.942 75.576C131.74 75.7467 131.497 75.872 131.214 75.952C130.937 76.032 130.662 76.072 130.39 76.072ZM136.374 76V72.64H134.878V72.048H138.582V72.64H137.086V76H136.374ZM141.167 76.072C140.767 76.072 140.421 75.9867 140.127 75.816C139.834 75.6453 139.607 75.408 139.447 75.104C139.287 74.7947 139.207 74.432 139.207 74.016C139.207 73.6053 139.287 73.248 139.447 72.944C139.607 72.6347 139.834 72.3973 140.127 72.232C140.421 72.0613 140.767 71.976 141.167 71.976C141.567 71.976 141.911 72.0613 142.199 72.232C142.493 72.3973 142.719 72.6347 142.879 72.944C143.039 73.248 143.119 73.6053 143.119 74.016C143.119 74.432 143.039 74.7947 142.879 75.104C142.725 75.408 142.501 75.6453 142.207 75.816C141.914 75.9867 141.567 76.072 141.167 76.072ZM141.159 75.472C141.549 75.472 141.855 75.3413 142.079 75.08C142.303 74.8187 142.415 74.464 142.415 74.016C142.415 73.568 142.303 73.216 142.079 72.96C141.861 72.704 141.557 72.576 141.167 72.576C140.778 72.576 140.471 72.704 140.247 72.96C140.023 73.216 139.911 73.568 139.911 74.016C139.911 74.464 140.023 74.8187 140.247 75.08C140.477 75.3413 140.781 75.472 141.159 75.472ZM144.385 76V72.048H146.481C146.806 72.048 147.073 72.088 147.281 72.168C147.494 72.248 147.651 72.3653 147.753 72.52C147.854 72.6693 147.905 72.8587 147.905 73.088C147.905 73.3013 147.841 73.4853 147.713 73.64C147.585 73.7947 147.409 73.9013 147.185 73.96V73.952C147.371 73.984 147.529 74.0453 147.657 74.136C147.785 74.2213 147.881 74.3307 147.945 74.464C148.014 74.592 148.049 74.7387 148.049 74.904C148.049 75.2453 147.918 75.5147 147.657 75.712C147.395 75.904 147.027 76 146.553 76H144.385ZM145.073 75.504H146.505C146.777 75.504 146.987 75.4533 147.137 75.352C147.286 75.2507 147.361 75.0933 147.361 74.88C147.361 74.6667 147.283 74.5067 147.129 74.4C146.979 74.2933 146.771 74.24 146.505 74.24H145.073V75.504ZM145.073 73.752H146.433C146.678 73.752 146.87 73.6987 147.009 73.592C147.153 73.48 147.225 73.3253 147.225 73.128C147.225 72.9307 147.153 72.784 147.009 72.688C146.87 72.5867 146.678 72.536 146.433 72.536H145.073V73.752ZM150.603 76.072C150.321 76.072 150.067 76.0213 149.843 75.92C149.619 75.8133 149.443 75.6693 149.315 75.488C149.187 75.3067 149.123 75.104 149.123 74.88C149.123 74.576 149.209 74.3387 149.379 74.168C149.55 73.992 149.811 73.8667 150.163 73.792C150.521 73.7173 150.977 73.68 151.531 73.68H152.099V74.168H151.563C151.254 74.168 150.99 74.1787 150.771 74.2C150.553 74.216 150.374 74.2507 150.235 74.304C150.097 74.352 149.995 74.4187 149.931 74.504C149.867 74.5893 149.835 74.7013 149.835 74.84C149.835 75.0533 149.918 75.2187 150.083 75.336C150.254 75.4533 150.47 75.512 150.731 75.512C150.961 75.512 151.169 75.4613 151.355 75.36C151.547 75.2533 151.699 75.112 151.811 74.936C151.929 74.76 151.987 74.5653 151.987 74.352V73.448C151.987 73.1333 151.899 72.9067 151.723 72.768C151.547 72.624 151.286 72.552 150.939 72.552C150.705 72.552 150.47 72.584 150.235 72.648C150.006 72.712 149.769 72.8187 149.523 72.968L149.291 72.44C149.457 72.3387 149.633 72.256 149.819 72.192C150.006 72.1227 150.201 72.0693 150.403 72.032C150.606 71.9947 150.809 71.976 151.011 71.976C151.353 71.976 151.646 72.0293 151.891 72.136C152.142 72.2427 152.334 72.408 152.467 72.632C152.606 72.856 152.675 73.1493 152.675 73.512V76H152.051V75.136C151.977 75.3013 151.873 75.456 151.739 75.6C151.606 75.744 151.443 75.8587 151.251 75.944C151.065 76.0293 150.849 76.072 150.603 76.072ZM154.166 77.44V72.04H154.822V72.912C154.939 72.6133 155.123 72.384 155.374 72.224C155.63 72.0587 155.929 71.976 156.27 71.976C156.638 71.976 156.958 72.0613 157.23 72.232C157.502 72.4027 157.713 72.64 157.862 72.944C158.011 73.248 158.086 73.608 158.086 74.024C158.086 74.424 158.011 74.7787 157.862 75.088C157.718 75.3973 157.51 75.64 157.238 75.816C156.966 75.9867 156.646 76.072 156.278 76.072C155.942 76.072 155.651 75.992 155.406 75.832C155.166 75.6667 154.99 75.448 154.878 75.176V77.44H154.166ZM156.118 75.488C156.507 75.488 156.814 75.3573 157.038 75.096C157.262 74.8293 157.374 74.4693 157.374 74.016C157.374 73.5627 157.262 73.208 157.038 72.952C156.814 72.6907 156.507 72.56 156.118 72.56C155.734 72.56 155.43 72.6907 155.206 72.952C154.982 73.208 154.87 73.5627 154.87 74.016C154.87 74.4693 154.982 74.8293 155.206 75.096C155.43 75.3573 155.734 75.488 156.118 75.488ZM160.674 76.072C160.391 76.072 160.138 76.0213 159.914 75.92C159.69 75.8133 159.514 75.6693 159.386 75.488C159.258 75.3067 159.194 75.104 159.194 74.88C159.194 74.576 159.279 74.3387 159.45 74.168C159.62 73.992 159.882 73.8667 160.234 73.792C160.591 73.7173 161.047 73.68 161.602 73.68H162.17V74.168H161.634C161.324 74.168 161.06 74.1787 160.842 74.2C160.623 74.216 160.444 74.2507 160.306 74.304C160.167 74.352 160.066 74.4187 160.002 74.504C159.938 74.5893 159.906 74.7013 159.906 74.84C159.906 75.0533 159.988 75.2187 160.154 75.336C160.324 75.4533 160.54 75.512 160.802 75.512C161.031 75.512 161.239 75.4613 161.426 75.36C161.618 75.2533 161.77 75.112 161.882 74.936C161.999 74.76 162.058 74.5653 162.058 74.352V73.448C162.058 73.1333 161.97 72.9067 161.794 72.768C161.618 72.624 161.356 72.552 161.01 72.552C160.775 72.552 160.54 72.584 160.306 72.648C160.076 72.712 159.839 72.8187 159.594 72.968L159.362 72.44C159.527 72.3387 159.703 72.256 159.89 72.192C160.076 72.1227 160.271 72.0693 160.474 72.032C160.676 71.9947 160.879 71.976 161.082 71.976C161.423 71.976 161.716 72.0293 161.962 72.136C162.212 72.2427 162.404 72.408 162.538 72.632C162.676 72.856 162.746 73.1493 162.746 73.512V76H162.122V75.136C162.047 75.3013 161.943 75.456 161.81 75.6C161.676 75.744 161.514 75.8587 161.322 75.944C161.135 76.0293 160.919 76.072 160.674 76.072ZM165.404 76.504L163.364 70.136L163.924 69.984L165.956 76.352L165.404 76.504ZM167.076 77.44L167.828 75.744V76.248L166.052 72.048H166.812L168.1 75.304H168.06L169.348 72.048H170.092L167.828 77.44H167.076ZM172.754 76.072C172.349 76.072 171.997 75.9867 171.698 75.816C171.4 75.6453 171.168 75.408 171.002 75.104C170.837 74.7947 170.754 74.432 170.754 74.016C170.754 73.6 170.837 73.24 171.002 72.936C171.168 72.6267 171.4 72.3893 171.698 72.224C172.002 72.0587 172.357 71.976 172.762 71.976C173.034 71.976 173.293 72.0213 173.538 72.112C173.784 72.2027 173.986 72.3253 174.146 72.48L173.898 73.008C173.744 72.8693 173.57 72.7653 173.378 72.696C173.186 72.6213 173 72.584 172.818 72.584C172.402 72.584 172.074 72.7093 171.834 72.96C171.594 73.2107 171.474 73.5653 171.474 74.024C171.474 74.4773 171.594 74.832 171.834 75.088C172.074 75.3387 172.4 75.464 172.81 75.464C172.997 75.464 173.184 75.4293 173.37 75.36C173.562 75.2853 173.733 75.1813 173.882 75.048L174.13 75.576C173.976 75.7307 173.776 75.8533 173.53 75.944C173.285 76.0293 173.026 76.072 172.754 76.072ZM174.895 76.088L174.631 75.544C174.828 75.4587 174.991 75.352 175.119 75.224C175.252 75.096 175.354 74.936 175.423 74.744C175.498 74.552 175.548 74.32 175.575 74.048C175.607 73.7707 175.623 73.448 175.623 73.08V72.048H178.639V76H177.927V72.64H176.287V73.096C176.287 73.5227 176.263 73.9013 176.215 74.232C176.172 74.5627 176.098 74.8507 175.991 75.096C175.89 75.336 175.748 75.5387 175.567 75.704C175.386 75.8693 175.162 75.9973 174.895 76.088ZM180.615 77.44L181.367 75.744V76.248L179.591 72.048H180.351L181.639 75.304H181.599L182.887 72.048H183.631L181.367 77.44H180.615ZM184.58 76V72.048H187.476V72.64H185.292V76H184.58ZM188.408 76V72.048H189.08V75.12H189.04L191.344 72.048H192.016V76H191.344V72.92H191.384L189.08 76H188.408Z" fill="black"/>
<path d="M73.5 90.83V90H70.505V86.475H71.2V89.4H72.92V86.475H73.615V89.42H74.14V90.83H73.5ZM76.1656 90.05C75.8423 90.05 75.5689 89.9983 75.3456 89.895C75.1223 89.7883 74.9539 89.6367 74.8406 89.44C74.7273 89.2433 74.6706 89.01 74.6706 88.74C74.6706 88.4933 74.7223 88.2717 74.8256 88.075C74.9323 87.8783 75.0856 87.7233 75.2856 87.61C75.4856 87.4933 75.7256 87.435 76.0056 87.435C76.2556 87.435 76.4739 87.4883 76.6606 87.595C76.8473 87.6983 76.9906 87.8483 77.0906 88.045C77.1939 88.2383 77.2456 88.4733 77.2456 88.75V88.96H75.2106V88.525H76.7406L76.6656 88.62C76.6656 88.3833 76.6073 88.21 76.4906 88.1C76.3773 87.99 76.2173 87.935 76.0106 87.935C75.8773 87.935 75.7589 87.9617 75.6556 88.015C75.5523 88.0683 75.4706 88.1483 75.4106 88.255C75.3506 88.3583 75.3206 88.49 75.3206 88.65V88.73C75.3206 88.9133 75.3539 89.0617 75.4206 89.175C75.4873 89.2883 75.5856 89.3717 75.7156 89.425C75.8456 89.4783 76.0056 89.505 76.1956 89.505C76.3256 89.505 76.4589 89.49 76.5956 89.46C76.7356 89.43 76.8623 89.375 76.9756 89.295L77.1706 89.775C77.0306 89.875 76.8706 89.9467 76.6906 89.99C76.5106 90.03 76.3356 90.05 76.1656 90.05ZM78.0086 90V87.485H78.7036V88.435H79.9136V87.485H80.6086V90H79.9136V89.005H78.7036V90H78.0086ZM82.4146 90.05C82.2279 90.05 82.0596 90.015 81.9096 89.945C81.7629 89.875 81.6462 89.78 81.5596 89.66C81.4762 89.54 81.4346 89.405 81.4346 89.255C81.4346 89.0717 81.4896 88.9217 81.5996 88.805C81.7129 88.685 81.8829 88.5967 82.1096 88.54C82.3396 88.4833 82.6296 88.455 82.9796 88.455H83.3646V88.88H83.0246C82.8712 88.88 82.7379 88.885 82.6246 88.895C82.5112 88.905 82.4162 88.9233 82.3396 88.95C82.2662 88.9733 82.2096 89.0067 82.1696 89.05C82.1329 89.0933 82.1146 89.15 82.1146 89.22C82.1146 89.3333 82.1579 89.415 82.2446 89.465C82.3346 89.515 82.4496 89.54 82.5896 89.54C82.7096 89.54 82.8212 89.5117 82.9246 89.455C83.0279 89.3983 83.1112 89.3233 83.1746 89.23C83.2379 89.1367 83.2696 89.0367 83.2696 88.93V88.4C83.2696 88.2333 83.2146 88.12 83.1046 88.06C82.9946 87.9967 82.8346 87.965 82.6246 87.965C82.4879 87.965 82.3462 87.9833 82.1996 88.02C82.0529 88.0567 81.8946 88.12 81.7246 88.21L81.5396 87.725C81.6629 87.6583 81.7896 87.605 81.9196 87.565C82.0496 87.5217 82.1846 87.49 82.3246 87.47C82.4679 87.4467 82.6129 87.435 82.7596 87.435C82.9962 87.435 83.2029 87.4717 83.3796 87.545C83.5596 87.615 83.6979 87.7267 83.7946 87.88C83.8946 88.0333 83.9446 88.235 83.9446 88.485V90H83.3846V89.49H83.3496C83.2929 89.5933 83.2212 89.6883 83.1346 89.775C83.0512 89.8583 82.9496 89.925 82.8296 89.975C82.7129 90.025 82.5746 90.05 82.4146 90.05ZM84.7195 88.215V87.485H85.5545V88.215H84.7195ZM84.7195 90V89.275H85.5545V90H84.7195ZM87.7041 90V89.605H88.7541V86.83L88.9991 86.88L87.8841 87.6L87.6791 87.24L88.8691 86.475H89.2091V89.605H90.1641V90H87.7041ZM91.8271 90.045C91.5538 90.045 91.3238 89.9767 91.1371 89.84C90.9505 89.7 90.8088 89.4967 90.7121 89.23C90.6188 88.96 90.5721 88.63 90.5721 88.24C90.5721 87.8433 90.6188 87.5117 90.7121 87.245C90.8088 86.9783 90.9505 86.7767 91.1371 86.64C91.3271 86.5 91.5588 86.43 91.8321 86.43C92.1055 86.43 92.3355 86.5 92.5221 86.64C92.7088 86.7767 92.8488 86.9783 92.9421 87.245C93.0355 87.5083 93.0821 87.835 93.0821 88.225C93.0821 88.6217 93.0338 88.955 92.9371 89.225C92.8438 89.495 92.7038 89.7 92.5171 89.84C92.3305 89.9767 92.1005 90.045 91.8271 90.045ZM91.8271 89.64C92.0971 89.64 92.2988 89.5267 92.4321 89.3C92.5655 89.07 92.6321 88.7133 92.6321 88.23C92.6321 87.7533 92.5655 87.4017 92.4321 87.175C92.3021 86.9483 92.1021 86.835 91.8321 86.835C91.5588 86.835 91.3555 86.9483 91.2221 87.175C91.0888 87.4017 91.0221 87.755 91.0221 88.235C91.0221 88.7117 91.0871 89.065 91.2171 89.295C91.3505 89.525 91.5538 89.64 91.8271 89.64ZM96.1304 90.575V89.835L96.2304 89.925C95.9937 89.9217 95.7671 89.8883 95.5504 89.825C95.3371 89.7617 95.1504 89.6617 94.9904 89.525L95.1554 89.16C95.2587 89.2467 95.3671 89.3183 95.4804 89.375C95.5937 89.4283 95.7154 89.4683 95.8454 89.495C95.9754 89.5217 96.1187 89.535 96.2754 89.535C96.5554 89.535 96.7637 89.4833 96.9004 89.38C97.0371 89.2767 97.1054 89.1483 97.1054 88.995C97.1054 88.8317 97.0504 88.71 96.9404 88.63C96.8304 88.5467 96.6737 88.4933 96.4704 88.47L95.9654 88.395C95.6754 88.355 95.4521 88.265 95.2954 88.125C95.1421 87.985 95.0654 87.785 95.0654 87.525C95.0654 87.3417 95.1121 87.18 95.2054 87.04C95.3021 86.9 95.4354 86.7867 95.6054 86.7C95.7787 86.6133 95.9787 86.565 96.2054 86.555L96.1304 86.625V85.9H96.5104V86.625L96.4354 86.555C96.6221 86.5617 96.8071 86.6 96.9904 86.67C97.1737 86.74 97.3287 86.8383 97.4554 86.965L97.2954 87.315C97.1654 87.1883 97.0187 87.095 96.8554 87.035C96.6954 86.9717 96.5137 86.94 96.3104 86.94C96.0637 86.94 95.8671 86.9967 95.7204 87.11C95.5737 87.22 95.5004 87.36 95.5004 87.53C95.5004 87.6833 95.5454 87.8 95.6354 87.88C95.7254 87.9567 95.8754 88.0083 96.0854 88.035L96.5904 88.11C96.9204 88.1567 97.1621 88.2567 97.3154 88.41C97.4687 88.56 97.5454 88.755 97.5454 88.995C97.5454 89.1717 97.4971 89.3267 97.4004 89.46C97.3037 89.5933 97.1721 89.7 97.0054 89.78C96.8387 89.8567 96.6454 89.9033 96.4254 89.92L96.5104 89.83V90.575H96.1304Z" fill="black"/>
<path d="M168.505 90V86.475H169.2V87.92H169.805L169.68 88.045L170.665 86.475H171.455L170.345 88.17L170.03 87.95C170.177 87.9733 170.31 88.02 170.43 88.09C170.553 88.1567 170.665 88.245 170.765 88.355C170.865 88.465 170.95 88.5933 171.02 88.74L171.635 90H170.855L170.385 88.99C170.308 88.83 170.217 88.7117 170.11 88.635C170.007 88.5583 169.868 88.52 169.695 88.52H169.2V90H168.505ZM173.09 90.05C172.904 90.05 172.735 90.015 172.585 89.945C172.439 89.875 172.322 89.78 172.235 89.66C172.152 89.54 172.11 89.405 172.11 89.255C172.11 89.0717 172.165 88.9217 172.275 88.805C172.389 88.685 172.559 88.5967 172.785 88.54C173.015 88.4833 173.305 88.455 173.655 88.455H174.04V88.88H173.7C173.547 88.88 173.414 88.885 173.3 88.895C173.187 88.905 173.092 88.9233 173.015 88.95C172.942 88.9733 172.885 89.0067 172.845 89.05C172.809 89.0933 172.79 89.15 172.79 89.22C172.79 89.3333 172.834 89.415 172.92 89.465C173.01 89.515 173.125 89.54 173.265 89.54C173.385 89.54 173.497 89.5117 173.6 89.455C173.704 89.3983 173.787 89.3233 173.85 89.23C173.914 89.1367 173.945 89.0367 173.945 88.93V88.4C173.945 88.2333 173.89 88.12 173.78 88.06C173.67 87.9967 173.51 87.965 173.3 87.965C173.164 87.965 173.022 87.9833 172.875 88.02C172.729 88.0567 172.57 88.12 172.4 88.21L172.215 87.725C172.339 87.6583 172.465 87.605 172.595 87.565C172.725 87.5217 172.86 87.49 173 87.47C173.144 87.4467 173.289 87.435 173.435 87.435C173.672 87.435 173.879 87.4717 174.055 87.545C174.235 87.615 174.374 87.7267 174.47 87.88C174.57 88.0333 174.62 88.235 174.62 88.485V90H174.06V89.49H174.025C173.969 89.5933 173.897 89.6883 173.81 89.775C173.727 89.8583 173.625 89.925 173.505 89.975C173.389 90.025 173.25 90.05 173.09 90.05ZM176.095 90V88.055H175.18V87.485H177.705V88.055H176.79V90H176.095ZM179.605 90.05C179.282 90.05 179.008 89.9983 178.785 89.895C178.562 89.7883 178.393 89.6367 178.28 89.44C178.167 89.2433 178.11 89.01 178.11 88.74C178.11 88.4933 178.162 88.2717 178.265 88.075C178.372 87.8783 178.525 87.7233 178.725 87.61C178.925 87.4933 179.165 87.435 179.445 87.435C179.695 87.435 179.913 87.4883 180.1 87.595C180.287 87.6983 180.43 87.8483 180.53 88.045C180.633 88.2383 180.685 88.4733 180.685 88.75V88.96H178.65V88.525H180.18L180.105 88.62C180.105 88.3833 180.047 88.21 179.93 88.1C179.817 87.99 179.657 87.935 179.45 87.935C179.317 87.935 179.198 87.9617 179.095 88.015C178.992 88.0683 178.91 88.1483 178.85 88.255C178.79 88.3583 178.76 88.49 178.76 88.65V88.73C178.76 88.9133 178.793 89.0617 178.86 89.175C178.927 89.2883 179.025 89.3717 179.155 89.425C179.285 89.4783 179.445 89.505 179.635 89.505C179.765 89.505 179.898 89.49 180.035 89.46C180.175 89.43 180.302 89.375 180.415 89.295L180.61 89.775C180.47 89.875 180.31 89.9467 180.13 89.99C179.95 90.03 179.775 90.05 179.605 90.05ZM181.448 90V87.485H183.478V88.055H182.143V90H181.448ZM185.27 90.05C184.997 90.05 184.759 89.995 184.555 89.885C184.355 89.775 184.2 89.6217 184.09 89.425C183.984 89.2283 183.93 89 183.93 88.74C183.93 88.4767 183.984 88.2483 184.09 88.055C184.2 87.8583 184.355 87.7067 184.555 87.6C184.759 87.49 184.997 87.435 185.27 87.435C185.547 87.435 185.784 87.49 185.98 87.6C186.18 87.7067 186.334 87.8583 186.44 88.055C186.55 88.2483 186.605 88.4767 186.605 88.74C186.605 89 186.55 89.2283 186.44 89.425C186.334 89.6217 186.18 89.775 185.98 89.885C185.784 89.995 185.547 90.05 185.27 90.05ZM185.27 89.47C185.48 89.47 185.644 89.4033 185.76 89.27C185.877 89.1367 185.935 88.9583 185.935 88.735C185.935 88.5117 185.877 88.3367 185.76 88.21C185.647 88.08 185.484 88.015 185.27 88.015C185.057 88.015 184.892 88.08 184.775 88.21C184.659 88.3367 184.6 88.5117 184.6 88.735C184.6 88.9583 184.659 89.1367 184.775 89.27C184.895 89.4033 185.06 89.47 185.27 89.47ZM187.381 90.9V87.48H187.986V87.98H188.021C188.107 87.8 188.227 87.665 188.381 87.575C188.537 87.4817 188.719 87.435 188.926 87.435C189.166 87.435 189.372 87.4917 189.546 87.605C189.719 87.715 189.852 87.8683 189.946 88.065C190.039 88.2583 190.086 88.4833 190.086 88.74C190.086 88.9867 190.041 89.21 189.951 89.41C189.861 89.6067 189.729 89.7633 189.556 89.88C189.386 89.9933 189.177 90.05 188.931 90.05C188.734 90.05 188.566 90.0067 188.426 89.92C188.289 89.83 188.182 89.7133 188.106 89.57H188.076V90.9H187.381ZM188.736 89.51C188.946 89.51 189.109 89.44 189.226 89.3C189.342 89.16 189.401 88.9717 189.401 88.735C189.401 88.4983 189.342 88.3133 189.226 88.18C189.112 88.0433 188.949 87.975 188.736 87.975C188.522 87.975 188.357 88.0433 188.241 88.18C188.124 88.3133 188.066 88.4983 188.066 88.735C188.066 88.9717 188.124 89.16 188.241 89.3C188.361 89.44 188.526 89.51 188.736 89.51ZM190.857 90V87.485H191.527V89.1H191.557L192.717 87.485H193.397V90H192.727V88.38H192.697L191.537 90H190.857ZM194.085 90L194.48 89.355C194.546 89.2483 194.616 89.1667 194.69 89.11C194.766 89.0533 194.843 89.025 194.92 89.025H194.94V88.995C194.823 88.985 194.708 88.9533 194.595 88.9C194.481 88.8467 194.388 88.7683 194.315 88.665C194.241 88.5617 194.205 88.4317 194.205 88.275C194.205 88.0283 194.293 87.835 194.47 87.695C194.65 87.555 194.911 87.485 195.255 87.485H196.675V90H196V89.17H195.67C195.566 89.17 195.475 89.1917 195.395 89.235C195.315 89.2783 195.25 89.3417 195.2 89.425L194.85 90H194.085ZM195.395 88.69H196.005V87.975H195.395C195.221 87.975 195.09 88.0083 195 88.075C194.913 88.1417 194.87 88.23 194.87 88.34C194.87 88.45 194.913 88.5367 195 88.6C195.086 88.66 195.218 88.69 195.395 88.69ZM197.451 88.215V87.485H198.286V88.215H197.451ZM197.451 90V89.275H198.286V90H197.451ZM201.691 90.045C201.434 90.045 201.209 89.99 201.016 89.88C200.826 89.77 200.677 89.61 200.571 89.4C200.467 89.19 200.416 88.9367 200.416 88.64V88.26C200.416 88.1333 200.422 88.0033 200.436 87.87C200.449 87.7333 200.479 87.6017 200.526 87.475C200.572 87.345 200.641 87.2233 200.731 87.11C200.824 86.9967 200.949 86.895 201.106 86.805C201.262 86.7117 201.459 86.6367 201.696 86.58L202.611 86.345L202.751 86.725L201.726 86.975C201.422 87.0483 201.197 87.1733 201.051 87.35C200.904 87.5267 200.831 87.7467 200.831 88.01V88.105H200.856C200.909 87.985 200.979 87.8817 201.066 87.795C201.152 87.7083 201.256 87.6433 201.376 87.6C201.496 87.5533 201.631 87.53 201.781 87.53C201.951 87.53 202.106 87.5583 202.246 87.615C202.389 87.6717 202.512 87.755 202.616 87.865C202.719 87.9717 202.799 88.1017 202.856 88.255C202.916 88.4083 202.946 88.58 202.946 88.77C202.946 89.0267 202.892 89.2517 202.786 89.445C202.682 89.635 202.536 89.7833 202.346 89.89C202.159 89.9933 201.941 90.045 201.691 90.045ZM201.681 89.66C201.927 89.66 202.122 89.5867 202.266 89.44C202.409 89.2933 202.481 89.0783 202.481 88.795C202.481 88.5183 202.407 88.3017 202.261 88.145C202.117 87.9883 201.924 87.91 201.681 87.91C201.437 87.91 201.242 87.9867 201.096 88.14C200.952 88.2933 200.881 88.5 200.881 88.76C200.881 89.0567 200.952 89.2817 201.096 89.435C201.239 89.585 201.434 89.66 201.681 89.66ZM205.038 90.045C204.751 90.045 204.504 89.995 204.298 89.895C204.091 89.7917 203.933 89.6433 203.823 89.45C203.713 89.2567 203.658 89.0233 203.658 88.75C203.658 88.5033 203.706 88.2833 203.803 88.09C203.903 87.8967 204.046 87.745 204.233 87.635C204.423 87.5217 204.649 87.465 204.913 87.465C205.166 87.465 205.379 87.5183 205.553 87.625C205.729 87.7317 205.861 87.8817 205.948 88.075C206.038 88.265 206.083 88.4917 206.083 88.755V88.89H204.003V88.56H205.783L205.683 88.675C205.683 88.3983 205.614 88.1883 205.478 88.045C205.344 87.8983 205.156 87.825 204.913 87.825C204.759 87.825 204.621 87.86 204.498 87.93C204.378 87.9967 204.281 88.0933 204.208 88.22C204.138 88.3467 204.103 88.5017 204.103 88.685V88.745C204.103 88.9483 204.141 89.1183 204.218 89.255C204.294 89.3883 204.403 89.49 204.543 89.56C204.686 89.6267 204.854 89.66 205.048 89.66C205.181 89.66 205.319 89.6433 205.463 89.61C205.609 89.5767 205.744 89.51 205.868 89.41L206.028 89.745C205.894 89.8517 205.738 89.9283 205.558 89.975C205.381 90.0217 205.208 90.045 205.038 90.045ZM207.848 90.045C207.611 90.045 207.388 90.0183 207.178 89.965C206.971 89.9083 206.808 89.8317 206.688 89.735L206.833 89.415C206.956 89.5083 207.106 89.5733 207.283 89.61C207.463 89.6467 207.648 89.665 207.838 89.665C208.091 89.665 208.274 89.635 208.388 89.575C208.501 89.5117 208.558 89.4133 208.558 89.28C208.558 89.15 208.511 89.0567 208.418 89C208.328 88.94 208.198 88.91 208.028 88.91H207.318V88.56H207.983C208.133 88.56 208.251 88.5317 208.338 88.475C208.428 88.4183 208.473 88.33 208.473 88.21C208.473 88.0867 208.423 87.995 208.323 87.935C208.226 87.875 208.073 87.845 207.863 87.845C207.679 87.845 207.503 87.865 207.333 87.905C207.163 87.945 207.008 88.0117 206.868 88.105L206.723 87.76C206.869 87.66 207.044 87.5867 207.248 87.54C207.451 87.49 207.666 87.465 207.893 87.465C208.233 87.465 208.486 87.5267 208.653 87.65C208.823 87.7733 208.908 87.945 208.908 88.165C208.908 88.285 208.874 88.3917 208.808 88.485C208.741 88.5783 208.641 88.65 208.508 88.7V88.725C208.621 88.7583 208.714 88.8017 208.788 88.855C208.861 88.9083 208.914 88.9733 208.948 89.05C208.984 89.1267 209.003 89.2133 209.003 89.31C209.003 89.5333 208.906 89.7117 208.713 89.845C208.519 89.9783 208.231 90.045 207.848 90.045ZM168.505 97V94.51H168.965V95.535H169.445L170.295 94.51H170.805L169.8 95.725L169.73 95.61C169.833 95.6233 169.922 95.65 169.995 95.69C170.068 95.7267 170.137 95.7817 170.2 95.855C170.263 95.925 170.33 96.0167 170.4 96.13L170.945 97H170.44L169.98 96.27C169.93 96.19 169.88 96.1233 169.83 96.07C169.78 96.0133 169.72 95.9717 169.65 95.945C169.583 95.9183 169.495 95.905 169.385 95.905H168.965V97H168.505ZM172.387 97.045C172.207 97.045 172.046 97.0133 171.902 96.95C171.759 96.8833 171.646 96.7933 171.562 96.68C171.482 96.5667 171.442 96.4383 171.442 96.295C171.442 96.105 171.499 95.955 171.612 95.845C171.729 95.7317 171.901 95.6517 172.127 95.605C172.354 95.555 172.634 95.53 172.967 95.53H173.387V95.855H172.997C172.811 95.855 172.647 95.8617 172.507 95.875C172.371 95.885 172.257 95.905 172.167 95.935C172.081 95.965 172.014 96.0067 171.967 96.06C171.924 96.1133 171.902 96.1833 171.902 96.27C171.902 96.4067 171.957 96.5083 172.067 96.575C172.177 96.6417 172.314 96.675 172.477 96.675C172.627 96.675 172.764 96.6417 172.887 96.575C173.014 96.5083 173.116 96.42 173.192 96.31C173.272 96.2 173.312 96.0817 173.312 95.955V95.39C173.312 95.1967 173.251 95.0583 173.127 94.975C173.004 94.8883 172.829 94.845 172.602 94.845C172.452 94.845 172.302 94.865 172.152 94.905C172.006 94.9417 171.852 95.0067 171.692 95.1L171.547 94.755C171.657 94.6917 171.772 94.6383 171.892 94.595C172.016 94.5517 172.142 94.52 172.272 94.5C172.402 94.4767 172.532 94.465 172.662 94.465C172.879 94.465 173.071 94.4983 173.237 94.565C173.404 94.6317 173.534 94.7367 173.627 94.88C173.721 95.02 173.767 95.2033 173.767 95.43V97H173.372V96.47H173.342C173.289 96.5667 173.219 96.66 173.132 96.75C173.046 96.8367 172.941 96.9083 172.817 96.965C172.694 97.0183 172.551 97.045 172.387 97.045ZM175.335 97V94.9H174.375V94.51H176.76V94.9H175.8V97H175.335ZM178.597 97.045C178.311 97.045 178.064 96.995 177.857 96.895C177.651 96.7917 177.492 96.6433 177.382 96.45C177.272 96.2567 177.217 96.0233 177.217 95.75C177.217 95.5033 177.266 95.2833 177.362 95.09C177.462 94.8967 177.606 94.745 177.792 94.635C177.982 94.5217 178.209 94.465 178.472 94.465C178.726 94.465 178.939 94.5183 179.112 94.625C179.289 94.7317 179.421 94.8817 179.507 95.075C179.597 95.265 179.642 95.4917 179.642 95.755V95.89H177.562V95.56H179.342L179.242 95.675C179.242 95.3983 179.174 95.1883 179.037 95.045C178.904 94.8983 178.716 94.825 178.472 94.825C178.319 94.825 178.181 94.86 178.057 94.93C177.937 94.9967 177.841 95.0933 177.767 95.22C177.697 95.3467 177.662 95.5017 177.662 95.685V95.745C177.662 95.9483 177.701 96.1183 177.777 96.255C177.854 96.3883 177.962 96.49 178.102 96.56C178.246 96.6267 178.414 96.66 178.607 96.66C178.741 96.66 178.879 96.6433 179.022 96.61C179.169 96.5767 179.304 96.51 179.427 96.41L179.587 96.745C179.454 96.8517 179.297 96.9283 179.117 96.975C178.941 97.0217 178.767 97.045 178.597 97.045ZM180.502 97V94.51H182.367V94.9H180.962V97H180.502ZM184.112 97.045C183.855 97.045 183.632 96.9917 183.442 96.885C183.255 96.775 183.11 96.6233 183.007 96.43C182.907 96.2367 182.857 96.01 182.857 95.75C182.857 95.4933 182.907 95.2683 183.007 95.075C183.11 94.8817 183.255 94.7317 183.442 94.625C183.632 94.5183 183.855 94.465 184.112 94.465C184.372 94.465 184.594 94.5183 184.777 94.625C184.964 94.7317 185.109 94.8817 185.212 95.075C185.315 95.2683 185.367 95.4933 185.367 95.75C185.367 96.01 185.315 96.2367 185.212 96.43C185.112 96.6233 184.969 96.775 184.782 96.885C184.595 96.9917 184.372 97.045 184.112 97.045ZM184.107 96.64C184.357 96.64 184.554 96.5583 184.697 96.395C184.84 96.2317 184.912 96.0167 184.912 95.75C184.912 95.48 184.84 95.265 184.697 95.105C184.557 94.945 184.362 94.865 184.112 94.865C183.862 94.865 183.665 94.945 183.522 95.105C183.382 95.265 183.312 95.48 183.312 95.75C183.312 96.0167 183.382 96.2317 183.522 96.395C183.665 96.5583 183.86 96.64 184.107 96.64ZM186.22 97.9V94.505H186.63V95.035H186.66C186.743 94.8517 186.863 94.7117 187.02 94.615C187.18 94.515 187.367 94.465 187.58 94.465C187.813 94.465 188.017 94.52 188.19 94.63C188.363 94.7367 188.498 94.8867 188.595 95.08C188.692 95.2733 188.74 95.4983 188.74 95.755C188.74 96.005 188.692 96.2283 188.595 96.425C188.502 96.6183 188.368 96.77 188.195 96.88C188.022 96.99 187.817 97.045 187.58 97.045C187.373 97.045 187.195 96.9983 187.045 96.905C186.898 96.8083 186.787 96.6767 186.71 96.51H186.685V97.9H186.22ZM187.475 96.66C187.725 96.66 187.92 96.5767 188.06 96.41C188.203 96.2433 188.275 96.0233 188.275 95.75C188.275 95.4767 188.205 95.2583 188.065 95.095C187.925 94.9317 187.73 94.85 187.48 94.85C187.227 94.85 187.03 94.9317 186.89 95.095C186.75 95.2583 186.68 95.4767 186.68 95.75C186.68 96.0233 186.75 96.2433 186.89 96.41C187.033 96.5767 187.228 96.66 187.475 96.66ZM189.594 97V94.51H190.039V96.37H190.064L191.459 94.51H191.919V97H191.469V95.135H191.444L190.049 97H189.594ZM192.924 97V94.51H193.369V96.37H193.394L194.789 94.51H195.249V97H194.799V95.135H194.774L193.379 97H192.924Z" fill="black"/>
<path d="M72.11 102.05C71.8467 102.05 71.6083 102.008 71.395 101.925C71.1817 101.842 70.9983 101.722 70.845 101.565C70.6917 101.405 70.5733 101.213 70.49 100.99C70.41 100.767 70.37 100.515 70.37 100.235C70.37 99.955 70.41 99.705 70.49 99.485C70.5733 99.2617 70.6917 99.0717 70.845 98.915C70.9983 98.755 71.1817 98.6333 71.395 98.55C71.6083 98.4667 71.8467 98.425 72.11 98.425C72.3733 98.425 72.6117 98.4667 72.825 98.55C73.0383 98.6333 73.22 98.7533 73.37 98.91C73.5233 99.0667 73.64 99.2567 73.72 99.48C73.8033 99.7033 73.845 99.9533 73.845 100.23C73.845 100.51 73.8033 100.762 73.72 100.985C73.64 101.208 73.5233 101.4 73.37 101.56C73.22 101.72 73.0383 101.842 72.825 101.925C72.6117 102.008 72.3733 102.05 72.11 102.05ZM72.11 101.445C72.3267 101.445 72.51 101.398 72.66 101.305C72.8133 101.212 72.93 101.075 73.01 100.895C73.0933 100.715 73.135 100.495 73.135 100.235C73.135 99.9717 73.095 99.7517 73.015 99.575C72.935 99.395 72.8183 99.26 72.665 99.17C72.5117 99.0767 72.3267 99.03 72.11 99.03C71.8933 99.03 71.7083 99.0767 71.555 99.17C71.4017 99.26 71.2833 99.395 71.2 99.575C71.12 99.7517 71.08 99.9717 71.08 100.235C71.08 100.495 71.12 100.715 71.2 100.895C71.2833 101.075 71.4017 101.212 71.555 101.305C71.7083 101.398 71.8933 101.445 72.11 101.445ZM74.6688 102V99.485H77.2038V102H76.5088V100.055H75.3638V102H74.6688ZM78.1014 102V99.485H78.7714V101.1H78.8014L79.9614 99.485H80.6414V102H79.9714V100.38H79.9414L78.7814 102H78.1014ZM82.7538 102.05C82.4838 102.05 82.2488 101.997 82.0488 101.89C81.8488 101.78 81.6921 101.628 81.5788 101.435C81.4688 101.238 81.4138 101.008 81.4138 100.745C81.4138 100.478 81.4688 100.247 81.5788 100.05C81.6921 99.8533 81.8488 99.7017 82.0488 99.595C82.2521 99.4883 82.4888 99.435 82.7588 99.435C82.9521 99.435 83.1321 99.4633 83.2988 99.52C83.4654 99.5733 83.6004 99.6433 83.7038 99.73L83.4938 100.25C83.4004 100.18 83.2971 100.125 83.1838 100.085C83.0704 100.045 82.9571 100.025 82.8438 100.025C82.6104 100.025 82.4288 100.087 82.2988 100.21C82.1721 100.33 82.1088 100.508 82.1088 100.745C82.1088 100.982 82.1721 101.16 82.2988 101.28C82.4288 101.4 82.6088 101.46 82.8388 101.46C82.9554 101.46 83.0688 101.44 83.1788 101.4C83.2921 101.36 83.3921 101.308 83.4788 101.245L83.6938 101.76C83.5904 101.847 83.4571 101.917 83.2938 101.97C83.1304 102.023 82.9504 102.05 82.7538 102.05ZM85.2124 102.05C85.0258 102.05 84.8574 102.015 84.7074 101.945C84.5608 101.875 84.4441 101.78 84.3574 101.66C84.2741 101.54 84.2324 101.405 84.2324 101.255C84.2324 101.072 84.2874 100.922 84.3974 100.805C84.5108 100.685 84.6808 100.597 84.9074 100.54C85.1374 100.483 85.4274 100.455 85.7774 100.455H86.1624V100.88H85.8224C85.6691 100.88 85.5358 100.885 85.4224 100.895C85.3091 100.905 85.2141 100.923 85.1374 100.95C85.0641 100.973 85.0074 101.007 84.9674 101.05C84.9308 101.093 84.9124 101.15 84.9124 101.22C84.9124 101.333 84.9558 101.415 85.0424 101.465C85.1324 101.515 85.2474 101.54 85.3874 101.54C85.5074 101.54 85.6191 101.512 85.7224 101.455C85.8258 101.398 85.9091 101.323 85.9724 101.23C86.0358 101.137 86.0674 101.037 86.0674 100.93V100.4C86.0674 100.233 86.0124 100.12 85.9024 100.06C85.7924 99.9967 85.6324 99.965 85.4224 99.965C85.2858 99.965 85.1441 99.9833 84.9974 100.02C84.8508 100.057 84.6924 100.12 84.5224 100.21L84.3374 99.725C84.4608 99.6583 84.5874 99.605 84.7174 99.565C84.8474 99.5217 84.9824 99.49 85.1224 99.47C85.2658 99.4467 85.4108 99.435 85.5574 99.435C85.7941 99.435 86.0008 99.4717 86.1774 99.545C86.3574 99.615 86.4958 99.7267 86.5924 99.88C86.6924 100.033 86.7424 100.235 86.7424 100.485V102H86.1824V101.49H86.1474C86.0908 101.593 86.0191 101.688 85.9324 101.775C85.8491 101.858 85.7474 101.925 85.6274 101.975C85.5108 102.025 85.3724 102.05 85.2124 102.05ZM87.6424 102V99.485H88.3374V100.435H89.5474V99.485H90.2424V102H89.5474V101.005H88.3374V102H87.6424ZM91.1434 102V99.485H91.8134V101.1H91.8434L93.0034 99.485H93.6834V102H93.0134V100.38H92.9834L91.8234 102H91.1434ZM95.9507 102.05C95.6274 102.05 95.3541 101.998 95.1307 101.895C94.9074 101.788 94.7391 101.637 94.6257 101.44C94.5124 101.243 94.4557 101.01 94.4557 100.74C94.4557 100.493 94.5074 100.272 94.6107 100.075C94.7174 99.8783 94.8707 99.7233 95.0707 99.61C95.2707 99.4933 95.5107 99.435 95.7907 99.435C96.0407 99.435 96.2591 99.4883 96.4457 99.595C96.6324 99.6983 96.7757 99.8483 96.8757 100.045C96.9791 100.238 97.0307 100.473 97.0307 100.75V100.96H94.9957V100.525H96.5257L96.4507 100.62C96.4507 100.383 96.3924 100.21 96.2757 100.1C96.1624 99.99 96.0024 99.935 95.7957 99.935C95.6624 99.935 95.5441 99.9617 95.4407 100.015C95.3374 100.068 95.2557 100.148 95.1957 100.255C95.1357 100.358 95.1057 100.49 95.1057 100.65V100.73C95.1057 100.913 95.1391 101.062 95.2057 101.175C95.2724 101.288 95.3707 101.372 95.5007 101.425C95.6307 101.478 95.7907 101.505 95.9807 101.505C96.1107 101.505 96.2441 101.49 96.3807 101.46C96.5207 101.43 96.6474 101.375 96.7607 101.295L96.9557 101.775C96.8157 101.875 96.6557 101.947 96.4757 101.99C96.2957 102.03 96.1207 102.05 95.9507 102.05ZM97.6688 100.215V99.485H98.5038V100.215H97.6688ZM97.6688 102V101.275H98.5038V102H97.6688ZM101.888 102.045C101.632 102.045 101.408 101.992 101.218 101.885C101.032 101.775 100.887 101.623 100.783 101.43C100.683 101.237 100.633 101.01 100.633 100.75C100.633 100.493 100.683 100.268 100.783 100.075C100.887 99.8817 101.032 99.7317 101.218 99.625C101.408 99.5183 101.632 99.465 101.888 99.465C102.148 99.465 102.37 99.5183 102.553 99.625C102.74 99.7317 102.885 99.8817 102.988 100.075C103.092 100.268 103.143 100.493 103.143 100.75C103.143 101.01 103.092 101.237 102.988 101.43C102.888 101.623 102.745 101.775 102.558 101.885C102.372 101.992 102.148 102.045 101.888 102.045ZM101.883 101.64C102.133 101.64 102.33 101.558 102.473 101.395C102.617 101.232 102.688 101.017 102.688 100.75C102.688 100.48 102.617 100.265 102.473 100.105C102.333 99.945 102.138 99.865 101.888 99.865C101.638 99.865 101.442 99.945 101.298 100.105C101.158 100.265 101.088 100.48 101.088 100.75C101.088 101.017 101.158 101.232 101.298 101.395C101.442 101.558 101.637 101.64 101.883 101.64ZM103.996 102V99.51H106.316V102H105.851V99.9H104.456V102H103.996ZM107.321 102V99.51H107.766V101.37H107.791L109.186 99.51H109.646V102H109.196V100.135H109.171L107.776 102H107.321ZM111.786 102.045C111.526 102.045 111.3 101.993 111.106 101.89C110.916 101.783 110.768 101.633 110.661 101.44C110.555 101.247 110.501 101.02 110.501 100.76C110.501 100.493 110.555 100.263 110.661 100.07C110.768 99.8767 110.918 99.7283 111.111 99.625C111.305 99.5183 111.531 99.465 111.791 99.465C111.971 99.465 112.14 99.495 112.296 99.555C112.453 99.6117 112.581 99.6883 112.681 99.785L112.521 100.135C112.425 100.052 112.315 99.9867 112.191 99.94C112.071 99.8933 111.951 99.87 111.831 99.87C111.565 99.87 111.353 99.9483 111.196 100.105C111.043 100.258 110.966 100.477 110.966 100.76C110.966 101.04 111.043 101.257 111.196 101.41C111.353 101.563 111.563 101.64 111.826 101.64C111.946 101.64 112.066 101.617 112.186 101.57C112.306 101.523 112.411 101.463 112.501 101.39L112.666 101.735C112.57 101.828 112.445 101.903 112.291 101.96C112.138 102.017 111.97 102.045 111.786 102.045ZM114.202 102.045C114.022 102.045 113.86 102.013 113.717 101.95C113.573 101.883 113.46 101.793 113.377 101.68C113.297 101.567 113.257 101.438 113.257 101.295C113.257 101.105 113.313 100.955 113.427 100.845C113.543 100.732 113.715 100.652 113.942 100.605C114.168 100.555 114.448 100.53 114.782 100.53H115.202V100.855H114.812C114.625 100.855 114.462 100.862 114.322 100.875C114.185 100.885 114.072 100.905 113.982 100.935C113.895 100.965 113.828 101.007 113.782 101.06C113.738 101.113 113.717 101.183 113.717 101.27C113.717 101.407 113.772 101.508 113.882 101.575C113.992 101.642 114.128 101.675 114.292 101.675C114.442 101.675 114.578 101.642 114.702 101.575C114.828 101.508 114.93 101.42 115.007 101.31C115.087 101.2 115.127 101.082 115.127 100.955V100.39C115.127 100.197 115.065 100.058 114.942 99.975C114.818 99.8883 114.643 99.845 114.417 99.845C114.267 99.845 114.117 99.865 113.967 99.905C113.82 99.9417 113.667 100.007 113.507 100.1L113.362 99.755C113.472 99.6917 113.587 99.6383 113.707 99.595C113.83 99.5517 113.957 99.52 114.087 99.5C114.217 99.4767 114.347 99.465 114.477 99.465C114.693 99.465 114.885 99.4983 115.052 99.565C115.218 99.6317 115.348 99.7367 115.442 99.88C115.535 100.02 115.582 100.203 115.582 100.43V102H115.187V101.47H115.157C115.103 101.567 115.033 101.66 114.947 101.75C114.86 101.837 114.755 101.908 114.632 101.965C114.508 102.018 114.365 102.045 114.202 102.045ZM116.584 102V99.51H117.044V100.52H118.474V99.51H118.939V102H118.474V100.91H117.044V102H116.584ZM119.948 102V99.51H120.393V101.37H120.418L121.813 99.51H122.273V102H121.823V100.135H121.798L120.403 102H119.948ZM124.508 102.045C124.222 102.045 123.975 101.995 123.768 101.895C123.562 101.792 123.403 101.643 123.293 101.45C123.183 101.257 123.128 101.023 123.128 100.75C123.128 100.503 123.177 100.283 123.273 100.09C123.373 99.8967 123.517 99.745 123.703 99.635C123.893 99.5217 124.12 99.465 124.383 99.465C124.637 99.465 124.85 99.5183 125.023 99.625C125.2 99.7317 125.332 99.8817 125.418 100.075C125.508 100.265 125.553 100.492 125.553 100.755V100.89H123.473V100.56H125.253L125.153 100.675C125.153 100.398 125.085 100.188 124.948 100.045C124.815 99.8983 124.627 99.825 124.383 99.825C124.23 99.825 124.092 99.86 123.968 99.93C123.848 99.9967 123.752 100.093 123.678 100.22C123.608 100.347 123.573 100.502 123.573 100.685V100.745C123.573 100.948 123.612 101.118 123.688 101.255C123.765 101.388 123.873 101.49 124.013 101.56C124.157 101.627 124.325 101.66 124.518 101.66C124.652 101.66 124.79 101.643 124.933 101.61C125.08 101.577 125.215 101.51 125.338 101.41L125.498 101.745C125.365 101.852 125.208 101.928 125.028 101.975C124.852 102.022 124.678 102.045 124.508 102.045ZM71.07 109V106.9H70.11V106.51H72.495V106.9H71.535V109H71.07ZM74.2077 109.045C73.951 109.045 73.7277 108.992 73.5377 108.885C73.351 108.775 73.206 108.623 73.1027 108.43C73.0027 108.237 72.9527 108.01 72.9527 107.75C72.9527 107.493 73.0027 107.268 73.1027 107.075C73.206 106.882 73.351 106.732 73.5377 106.625C73.7277 106.518 73.951 106.465 74.2077 106.465C74.4677 106.465 74.6893 106.518 74.8727 106.625C75.0593 106.732 75.2043 106.882 75.3077 107.075C75.411 107.268 75.4627 107.493 75.4627 107.75C75.4627 108.01 75.411 108.237 75.3077 108.43C75.2077 108.623 75.0643 108.775 74.8777 108.885C74.691 108.992 74.4677 109.045 74.2077 109.045ZM74.2027 108.64C74.4527 108.64 74.6493 108.558 74.7927 108.395C74.936 108.232 75.0077 108.017 75.0077 107.75C75.0077 107.48 74.936 107.265 74.7927 107.105C74.6527 106.945 74.4577 106.865 74.2077 106.865C73.9577 106.865 73.761 106.945 73.6177 107.105C73.4777 107.265 73.4077 107.48 73.4077 107.75C73.4077 108.017 73.4777 108.232 73.6177 108.395C73.761 108.558 73.956 108.64 74.2027 108.64ZM76.3155 109V106.51H77.6905C77.8972 106.51 78.0689 106.535 78.2055 106.585C78.3422 106.635 78.4422 106.708 78.5055 106.805C78.5722 106.902 78.6055 107.022 78.6055 107.165C78.6055 107.288 78.5722 107.397 78.5055 107.49C78.4389 107.58 78.3455 107.648 78.2255 107.695V107.72C78.3289 107.75 78.4155 107.793 78.4855 107.85C78.5555 107.903 78.6072 107.97 78.6405 108.05C78.6772 108.127 78.6955 108.213 78.6955 108.31C78.6955 108.523 78.6105 108.692 78.4405 108.815C78.2739 108.938 78.0389 109 77.7355 109H76.3155ZM76.7655 108.675H77.6955C77.8689 108.675 78.0022 108.645 78.0955 108.585C78.1922 108.522 78.2405 108.423 78.2405 108.29C78.2405 108.157 78.1922 108.06 78.0955 108C77.9989 107.937 77.8655 107.905 77.6955 107.905H76.7655V108.675ZM76.7655 107.58H77.6505C77.8072 107.58 77.9305 107.547 78.0205 107.48C78.1105 107.413 78.1555 107.318 78.1555 107.195C78.1555 107.072 78.1105 106.982 78.0205 106.925C77.9305 106.865 77.8072 106.835 77.6505 106.835H76.7655V107.58ZM80.3833 109.045C80.2033 109.045 80.0417 109.013 79.8983 108.95C79.755 108.883 79.6417 108.793 79.5583 108.68C79.4783 108.567 79.4383 108.438 79.4383 108.295C79.4383 108.105 79.495 107.955 79.6083 107.845C79.725 107.732 79.8967 107.652 80.1233 107.605C80.35 107.555 80.63 107.53 80.9633 107.53H81.3833V107.855H80.9933C80.8067 107.855 80.6433 107.862 80.5033 107.875C80.3667 107.885 80.2533 107.905 80.1633 107.935C80.0767 107.965 80.01 108.007 79.9633 108.06C79.92 108.113 79.8983 108.183 79.8983 108.27C79.8983 108.407 79.9533 108.508 80.0633 108.575C80.1733 108.642 80.31 108.675 80.4733 108.675C80.6233 108.675 80.76 108.642 80.8833 108.575C81.01 108.508 81.1117 108.42 81.1883 108.31C81.2683 108.2 81.3083 108.082 81.3083 107.955V107.39C81.3083 107.197 81.2467 107.058 81.1233 106.975C81 106.888 80.825 106.845 80.5983 106.845C80.4483 106.845 80.2983 106.865 80.1483 106.905C80.0017 106.942 79.8483 107.007 79.6883 107.1L79.5433 106.755C79.6533 106.692 79.7683 106.638 79.8883 106.595C80.0117 106.552 80.1383 106.52 80.2683 106.5C80.3983 106.477 80.5283 106.465 80.6583 106.465C80.875 106.465 81.0667 106.498 81.2333 106.565C81.4 106.632 81.53 106.737 81.6233 106.88C81.7167 107.02 81.7633 107.203 81.7633 107.43V109H81.3683V108.47H81.3383C81.285 108.567 81.215 108.66 81.1283 108.75C81.0417 108.837 80.9367 108.908 80.8133 108.965C80.69 109.018 80.5467 109.045 80.3833 109.045ZM82.7657 109.9V106.505H83.1757V107.035H83.2057C83.2891 106.852 83.4091 106.712 83.5657 106.615C83.7257 106.515 83.9124 106.465 84.1257 106.465C84.3591 106.465 84.5624 106.52 84.7357 106.63C84.9091 106.737 85.0441 106.887 85.1407 107.08C85.2374 107.273 85.2857 107.498 85.2857 107.755C85.2857 108.005 85.2374 108.228 85.1407 108.425C85.0474 108.618 84.9141 108.77 84.7407 108.88C84.5674 108.99 84.3624 109.045 84.1257 109.045C83.9191 109.045 83.7407 108.998 83.5907 108.905C83.4441 108.808 83.3324 108.677 83.2557 108.51H83.2307V109.9H82.7657ZM84.0207 108.66C84.2707 108.66 84.4657 108.577 84.6057 108.41C84.7491 108.243 84.8207 108.023 84.8207 107.75C84.8207 107.477 84.7507 107.258 84.6107 107.095C84.4707 106.932 84.2757 106.85 84.0257 106.85C83.7724 106.85 83.5757 106.932 83.4357 107.095C83.2957 107.258 83.2257 107.477 83.2257 107.75C83.2257 108.023 83.2957 108.243 83.4357 108.41C83.5791 108.577 83.7741 108.66 84.0207 108.66ZM86.9898 109.045C86.8098 109.045 86.6481 109.013 86.5048 108.95C86.3614 108.883 86.2481 108.793 86.1648 108.68C86.0848 108.567 86.0448 108.438 86.0448 108.295C86.0448 108.105 86.1014 107.955 86.2148 107.845C86.3314 107.732 86.5031 107.652 86.7298 107.605C86.9564 107.555 87.2364 107.53 87.5698 107.53H87.9898V107.855H87.5998C87.4131 107.855 87.2498 107.862 87.1098 107.875C86.9731 107.885 86.8598 107.905 86.7698 107.935C86.6831 107.965 86.6164 108.007 86.5698 108.06C86.5264 108.113 86.5048 108.183 86.5048 108.27C86.5048 108.407 86.5598 108.508 86.6698 108.575C86.7798 108.642 86.9164 108.675 87.0798 108.675C87.2298 108.675 87.3664 108.642 87.4898 108.575C87.6164 108.508 87.7181 108.42 87.7948 108.31C87.8748 108.2 87.9148 108.082 87.9148 107.955V107.39C87.9148 107.197 87.8531 107.058 87.7298 106.975C87.6064 106.888 87.4314 106.845 87.2048 106.845C87.0548 106.845 86.9048 106.865 86.7548 106.905C86.6081 106.942 86.4548 107.007 86.2948 107.1L86.1498 106.755C86.2598 106.692 86.3748 106.638 86.4948 106.595C86.6181 106.552 86.7448 106.52 86.8748 106.5C87.0048 106.477 87.1348 106.465 87.2648 106.465C87.4814 106.465 87.6731 106.498 87.8398 106.565C88.0064 106.632 88.1364 106.737 88.2298 106.88C88.3231 107.02 88.3698 107.203 88.3698 107.43V109H87.9748V108.47H87.9448C87.8914 108.567 87.8214 108.66 87.7348 108.75C87.6481 108.837 87.5431 108.908 87.4198 108.965C87.2964 109.018 87.1531 109.045 86.9898 109.045ZM90.0722 109.315L88.8022 105.335L89.1622 105.24L90.4322 109.225L90.0722 109.315ZM91.1812 109.9L91.6512 108.825V109.21L90.5212 106.51H91.0162L91.7862 108.5H91.8212L92.5862 106.51H93.0662L91.6662 109.9H91.1812ZM94.8382 109.045C94.5782 109.045 94.3516 108.993 94.1582 108.89C93.9682 108.783 93.8199 108.633 93.7132 108.44C93.6066 108.247 93.5532 108.02 93.5532 107.76C93.5532 107.493 93.6066 107.263 93.7132 107.07C93.8199 106.877 93.9699 106.728 94.1632 106.625C94.3566 106.518 94.5832 106.465 94.8432 106.465C95.0232 106.465 95.1916 106.495 95.3482 106.555C95.5049 106.612 95.6332 106.688 95.7332 106.785L95.5732 107.135C95.4766 107.052 95.3666 106.987 95.2432 106.94C95.1232 106.893 95.0032 106.87 94.8832 106.87C94.6166 106.87 94.4049 106.948 94.2482 107.105C94.0949 107.258 94.0182 107.477 94.0182 107.76C94.0182 108.04 94.0949 108.257 94.2482 108.41C94.4049 108.563 94.6149 108.64 94.8782 108.64C94.9982 108.64 95.1182 108.617 95.2382 108.57C95.3582 108.523 95.4632 108.463 95.5532 108.39L95.7182 108.735C95.6216 108.828 95.4966 108.903 95.3432 108.96C95.1899 109.017 95.0216 109.045 94.8382 109.045ZM96.2484 109.055L96.0784 108.7C96.2118 108.65 96.3201 108.583 96.4034 108.5C96.4868 108.417 96.5501 108.315 96.5934 108.195C96.6401 108.072 96.6718 107.925 96.6884 107.755C96.7084 107.585 96.7184 107.388 96.7184 107.165V106.51H98.6584V109H98.1934V106.9H97.1484V107.175C97.1484 107.435 97.1351 107.668 97.1084 107.875C97.0818 108.078 97.0351 108.258 96.9684 108.415C96.9018 108.568 96.8101 108.698 96.6934 108.805C96.5768 108.912 96.4284 108.995 96.2484 109.055ZM99.9752 109.9L100.445 108.825V109.21L99.3152 106.51H99.8102L100.58 108.5H100.615L101.38 106.51H101.86L100.46 109.9H99.9752ZM102.526 109V106.51H104.391V106.9H102.986V109H102.526ZM105.031 109V106.51H105.476V108.37H105.501L106.896 106.51H107.356V109H106.906V107.135H106.881L105.486 109H105.031Z" fill="black"/>
<rect x="116" y="116" width="50" height="17" rx="8.5" fill="#BBBBBB"/>
<path d="M124.224 127.072C123.819 127.072 123.453 127.005 123.128 126.872C122.808 126.739 122.533 126.547 122.304 126.296C122.08 126.045 121.907 125.741 121.784 125.384C121.661 125.027 121.6 124.624 121.6 124.176C121.6 123.728 121.659 123.328 121.776 122.976C121.899 122.619 122.075 122.315 122.304 122.064C122.533 121.813 122.808 121.621 123.128 121.488C123.453 121.355 123.819 121.288 124.224 121.288C124.629 121.288 124.992 121.355 125.312 121.488C125.637 121.621 125.915 121.813 126.144 122.064C126.373 122.309 126.547 122.611 126.664 122.968C126.787 123.325 126.848 123.725 126.848 124.168C126.848 124.621 126.787 125.027 126.664 125.384C126.541 125.741 126.365 126.045 126.136 126.296C125.912 126.547 125.637 126.739 125.312 126.872C124.992 127.005 124.629 127.072 124.224 127.072ZM124.224 126.432C124.624 126.432 124.963 126.347 125.24 126.176C125.517 126 125.731 125.744 125.88 125.408C126.029 125.072 126.104 124.661 126.104 124.176C126.104 123.685 126.029 123.275 125.88 122.944C125.736 122.613 125.523 122.363 125.24 122.192C124.963 122.016 124.624 121.928 124.224 121.928C123.829 121.928 123.491 122.016 123.208 122.192C122.931 122.363 122.717 122.613 122.568 122.944C122.419 123.275 122.344 123.685 122.344 124.176C122.344 124.661 122.419 125.072 122.568 125.408C122.717 125.739 122.931 125.992 123.208 126.168C123.491 126.344 123.829 126.432 124.224 126.432ZM128.197 127V123.048H131.797V127H131.085V123.64H128.909V127H128.197ZM133.067 127.088L132.803 126.544C133 126.459 133.163 126.352 133.291 126.224C133.424 126.096 133.526 125.936 133.595 125.744C133.67 125.552 133.72 125.32 133.747 125.048C133.779 124.771 133.795 124.448 133.795 124.08V123.048H136.811V127H136.099V123.64H134.459V124.096C134.459 124.523 134.435 124.901 134.387 125.232C134.344 125.563 134.27 125.851 134.163 126.096C134.062 126.336 133.92 126.539 133.739 126.704C133.558 126.869 133.334 126.997 133.067 127.088ZM139.627 127.072C139.344 127.072 139.091 127.021 138.867 126.92C138.643 126.813 138.467 126.669 138.339 126.488C138.211 126.307 138.147 126.104 138.147 125.88C138.147 125.576 138.232 125.339 138.403 125.168C138.573 124.992 138.835 124.867 139.187 124.792C139.544 124.717 140 124.68 140.555 124.68H141.123V125.168H140.587C140.277 125.168 140.013 125.179 139.795 125.2C139.576 125.216 139.397 125.251 139.259 125.304C139.12 125.352 139.019 125.419 138.955 125.504C138.891 125.589 138.859 125.701 138.859 125.84C138.859 126.053 138.941 126.219 139.107 126.336C139.277 126.453 139.493 126.512 139.755 126.512C139.984 126.512 140.192 126.461 140.379 126.36C140.571 126.253 140.723 126.112 140.835 125.936C140.952 125.76 141.011 125.565 141.011 125.352V124.448C141.011 124.133 140.923 123.907 140.747 123.768C140.571 123.624 140.309 123.552 139.963 123.552C139.728 123.552 139.493 123.584 139.259 123.648C139.029 123.712 138.792 123.819 138.547 123.968L138.315 123.44C138.48 123.339 138.656 123.256 138.843 123.192C139.029 123.123 139.224 123.069 139.427 123.032C139.629 122.995 139.832 122.976 140.035 122.976C140.376 122.976 140.669 123.029 140.915 123.136C141.165 123.243 141.357 123.408 141.491 123.632C141.629 123.856 141.699 124.149 141.699 124.512V127H141.075V126.136C141 126.301 140.896 126.456 140.763 126.6C140.629 126.744 140.467 126.859 140.275 126.944C140.088 127.029 139.872 127.072 139.627 127.072ZM144.062 127V123.64H142.566V123.048H146.27V123.64H144.774V127H144.062ZM147.15 127V123.048H147.822V126.12H147.782L150.086 123.048H150.758V127H150.086V123.92H150.126L147.822 127H147.15ZM153.132 127V123.64H151.636V123.048H155.34V123.64H153.844V127H153.132ZM156.221 127V123.048H156.933V124.408H158.269C158.791 124.408 159.189 124.52 159.461 124.744C159.733 124.968 159.869 125.285 159.869 125.696C159.869 125.957 159.805 126.187 159.677 126.384C159.554 126.581 159.373 126.733 159.133 126.84C158.893 126.947 158.605 127 158.269 127H156.221ZM156.933 126.464H158.173C158.482 126.464 158.725 126.405 158.901 126.288C159.077 126.165 159.165 125.968 159.165 125.696C159.165 125.424 159.077 125.229 158.901 125.112C158.725 124.995 158.482 124.936 158.173 124.936H156.933V126.464Z" fill="black"/>
</g>
<rect x="99.3038" y="10.3037" width="82.6254" height="51.0333" rx="5.77163" fill="white" stroke="#BBBBBB" stroke-width="0.607539"/>
<path d="M177.372 37.9082L179.043 36.2257L177.372 34.5432" stroke="#BBBBBB" stroke-width="0.911309" stroke-linecap="round" stroke-linejoin="round"/>
<path d="M103.101 34.5432L101.43 36.2257L103.101 37.9082" stroke="#BBBBBB" stroke-width="0.911309" stroke-linecap="round" stroke-linejoin="round"/>
<circle cx="135.756" cy="57.6918" r="1.51885" fill="#D9D9D9"/>
<circle cx="145.477" cy="57.6918" r="1.51885" fill="#D9D9D9"/>
<circle cx="140.617" cy="57.6918" r="1.51885" fill="#D9D9D9"/>
<path d="M144.262 32.0958H136.744C136.562 32.0958 136.388 32.1683 136.26 32.2974C136.132 32.4265 136.06 32.6016 136.06 32.7841V38.9788C136.06 39.1613 136.132 39.3364 136.26 39.4655C136.388 39.5946 136.562 39.6671 136.744 39.6671H144.262C144.443 39.6671 144.617 39.5946 144.745 39.4655C144.873 39.3364 144.945 39.1613 144.945 38.9788V32.7841C144.945 32.6016 144.873 32.4265 144.745 32.2974C144.617 32.1683 144.443 32.0958 144.262 32.0958ZM144.262 32.7841V37.2043L143.148 36.0832C143.085 36.0193 143.009 35.9686 142.926 35.934C142.844 35.8994 142.755 35.8816 142.665 35.8816C142.575 35.8816 142.486 35.8994 142.403 35.934C142.32 35.9686 142.245 36.0193 142.181 36.0832L141.327 36.9436L139.448 35.0508C139.319 34.9218 139.146 34.8493 138.964 34.8493C138.783 34.8493 138.609 34.9218 138.481 35.0508L136.744 36.8008V32.7841H144.262ZM136.744 37.7743L138.965 35.5373L142.382 38.9788H136.744V37.7743ZM144.262 38.9788H143.349L141.811 37.4301L142.665 36.5697L144.262 38.1778V38.9788ZM141.186 34.6769C141.186 34.5748 141.216 34.475 141.273 34.3901C141.329 34.3052 141.409 34.2391 141.503 34.2C141.596 34.1609 141.699 34.1507 141.799 34.1706C141.898 34.1905 141.99 34.2397 142.061 34.3119C142.133 34.3841 142.182 34.4761 142.202 34.5762C142.221 34.6764 142.211 34.7802 142.172 34.8745C142.134 34.9688 142.068 35.0494 141.984 35.1062C141.899 35.1629 141.8 35.1932 141.699 35.1932C141.563 35.1932 141.432 35.1388 141.336 35.042C141.24 34.9451 141.186 34.8138 141.186 34.6769Z" fill="#BBBBBB"/>
<defs>
<clipPath id="clip0_234_184">
<rect width="142" height="66" fill="white" transform="translate(70 67)"/>
</clipPath>
</defs>
</svg>
