<svg width="25" height="25" viewBox="0 0 25 25" fill="none" xmlns="http://www.w3.org/2000/svg">
<path d="M12.5285 0H12.4715C5.5837 0 0 5.5837 0 12.4715V12.5285C0 19.4163 5.5837 25 12.4715 25H12.5285C19.4163 25 25 19.4163 25 12.5285V12.4715C25 5.5837 19.4163 0 12.5285 0Z" fill="url(#paint0_linear_322_529)"/>
<path d="M19.9427 12.4996V12.5425C19.9226 16.1204 17.3633 19.1098 13.978 19.7947C13.7486 19.8402 13.5164 19.8762 13.28 19.9016C13.0242 19.9278 12.7632 19.9427 12.5004 19.9427C11.4669 19.9427 10.4824 19.7316 9.58728 19.3489L6.13372 19.7168C5.54426 19.7798 5.10896 19.1781 5.35332 18.6385L6.28175 16.5829C5.50835 15.4101 5.05728 14.0061 5.05728 12.4996C5.05728 8.39699 8.39698 5.05728 12.5004 5.05728C16.3805 5.05728 19.5766 8.04226 19.9129 11.8365C19.9331 12.0537 19.9427 12.2771 19.9427 12.4996Z" fill="white"/>
<path d="M16.0784 10.3265C16.4121 10.0533 16.8702 10.4623 16.6354 10.824L14.246 14.5097C14.07 14.7812 13.7004 14.846 13.442 14.6507L11.226 12.9708C11.1577 12.9191 11.0622 12.9209 10.9957 12.9752L8.92162 14.6673C8.58791 14.9397 8.13071 14.5307 8.36544 14.169L10.6558 10.6375C10.8319 10.3659 11.2015 10.3011 11.4599 10.4964L13.6347 12.144C13.7039 12.1956 13.7993 12.1939 13.8659 12.1396L16.0784 10.3257V10.3265Z" fill="url(#paint1_linear_322_529)"/>
<defs>
<linearGradient id="paint0_linear_322_529" x1="3.65238" y1="21.3476" x2="21.3467" y2="3.65326" gradientUnits="userSpaceOnUse">
<stop stop-color="#0498FA"/>
<stop offset="0.34" stop-color="#5C5EFE"/>
<stop offset="0.73" stop-color="#F44E90"/>
<stop offset="1" stop-color="#FA8679"/>
</linearGradient>
<linearGradient id="paint1_linear_322_529" x1="9.3981" y1="15.6256" x2="15.6282" y2="9.39461" gradientUnits="userSpaceOnUse">
<stop stop-color="#0498FA"/>
<stop offset="0.34" stop-color="#5C5EFE"/>
<stop offset="0.73" stop-color="#F44E90"/>
<stop offset="1" stop-color="#FA8679"/>
</linearGradient>
</defs>
</svg>
