<svg width="279" height="75" viewBox="0 0 279 75" fill="none" xmlns="http://www.w3.org/2000/svg">
<mask id="path-1-inside-1_11_262" fill="white">
<path d="M0 0H279V75H0V0Z"/>
</mask>
<path d="M0 0H279V75H0V0Z" fill="white"/>
<path d="M0 1H279V-1H0V1Z" fill="#BFBFBF" mask="url(#path-1-inside-1_11_262)"/>
<path d="M125.56 34.15L125.17 33.5C125.437 33.36 125.673 33.19 125.88 32.99C126.087 32.79 126.263 32.5267 126.41 32.2C126.557 31.8733 126.67 31.46 126.75 30.96C126.83 30.4533 126.87 29.8233 126.87 29.07V26.95H131.54V34H130.71V27.66H127.63V29.28C127.63 30.26 127.55 31.07 127.39 31.71C127.23 32.3433 126.993 32.8533 126.68 33.24C126.373 33.6267 126 33.93 125.56 34.15ZM135.242 34.09C134.769 34.09 134.359 33.9867 134.012 33.78C133.665 33.5733 133.395 33.2833 133.202 32.91C133.015 32.53 132.922 32.0833 132.922 31.57C132.922 31.0567 133.015 30.6133 133.202 30.24C133.395 29.86 133.665 29.5667 134.012 29.36C134.359 29.1533 134.769 29.05 135.242 29.05C135.709 29.05 136.115 29.1533 136.462 29.36C136.815 29.5667 137.085 29.86 137.272 30.24C137.465 30.6133 137.562 31.0567 137.562 31.57C137.562 32.0833 137.465 32.53 137.272 32.91C137.085 33.2833 136.815 33.5733 136.462 33.78C136.115 33.9867 135.709 34.09 135.242 34.09ZM135.242 33.44C135.695 33.44 136.059 33.28 136.332 32.96C136.605 32.6333 136.742 32.17 136.742 31.57C136.742 30.9633 136.605 30.5 136.332 30.18C136.059 29.86 135.695 29.7 135.242 29.7C134.782 29.7 134.415 29.86 134.142 30.18C133.875 30.5 133.742 30.9633 133.742 31.57C133.742 32.17 133.875 32.6333 134.142 32.96C134.415 33.28 134.782 33.44 135.242 33.44ZM138.876 34V29.14H142.286V29.79H139.686V34H138.876ZM145.252 34.09C144.779 34.09 144.369 33.9867 144.022 33.78C143.675 33.5733 143.405 33.2833 143.212 32.91C143.025 32.53 142.932 32.0833 142.932 31.57C142.932 31.0567 143.025 30.6133 143.212 30.24C143.405 29.86 143.675 29.5667 144.022 29.36C144.369 29.1533 144.779 29.05 145.252 29.05C145.719 29.05 146.125 29.1533 146.472 29.36C146.825 29.5667 147.095 29.86 147.282 30.24C147.475 30.6133 147.572 31.0567 147.572 31.57C147.572 32.0833 147.475 32.53 147.282 32.91C147.095 33.2833 146.825 33.5733 146.472 33.78C146.125 33.9867 145.719 34.09 145.252 34.09ZM145.252 33.44C145.705 33.44 146.069 33.28 146.342 32.96C146.615 32.6333 146.752 32.17 146.752 31.57C146.752 30.9633 146.615 30.5 146.342 30.18C146.069 29.86 145.705 29.7 145.252 29.7C144.792 29.7 144.425 29.86 144.152 30.18C143.885 30.5 143.752 30.9633 143.752 31.57C143.752 32.17 143.885 32.6333 144.152 32.96C144.425 33.28 144.792 33.44 145.252 33.44ZM149.896 34V29.79H148.136V29.14H152.476V29.79H150.706V34H149.896ZM153.329 34V29.14H154.069V32.9L156.879 29.14H157.569V34H156.829V30.24L154.019 34H153.329ZM159.169 34V29.14H163.409V34H162.599V29.79H159.979V34H159.169Z" fill="#333333"/>
<path d="M10.696 19V13.36H14.224V13.928H11.352V19H10.696ZM13.6193 19.088L13.3793 18.576C13.6193 18.4747 13.8086 18.3333 13.9473 18.152C14.086 17.9653 14.182 17.7093 14.2353 17.384C14.294 17.0587 14.3233 16.632 14.3233 16.104V15.112H17.1473V19H16.4993V15.632H14.9313V16.128C14.9313 16.736 14.886 17.2373 14.7953 17.632C14.71 18.0267 14.5713 18.3387 14.3793 18.568C14.1873 18.7973 13.934 18.9707 13.6193 19.088ZM19.6611 19.072C19.3944 19.072 19.1544 19.0213 18.9411 18.92C18.7331 18.8133 18.5677 18.6693 18.4451 18.488C18.3224 18.3067 18.2611 18.104 18.2611 17.88C18.2611 17.5973 18.3331 17.3733 18.4771 17.208C18.6264 17.0427 18.8691 16.9253 19.2051 16.856C19.5464 16.7813 20.0104 16.744 20.5971 16.744H20.8531V16.496C20.8531 16.1653 20.7837 15.928 20.6451 15.784C20.5117 15.6347 20.2957 15.56 19.9971 15.56C19.7624 15.56 19.5357 15.5947 19.3171 15.664C19.0984 15.728 18.8744 15.8347 18.6451 15.984L18.4211 15.512C18.6237 15.368 18.8691 15.2533 19.1571 15.168C19.4504 15.0827 19.7304 15.04 19.9971 15.04C20.4984 15.04 20.8691 15.1627 21.1091 15.408C21.3544 15.6533 21.4771 16.0347 21.4771 16.552V19H20.8691V18.328C20.7677 18.5573 20.6104 18.7387 20.3971 18.872C20.1891 19.0053 19.9437 19.072 19.6611 19.072ZM19.7651 18.584C20.0851 18.584 20.3464 18.4747 20.5491 18.256C20.7517 18.032 20.8531 17.7493 20.8531 17.408V17.168H20.6051C20.1731 17.168 19.8317 17.1893 19.5811 17.232C19.3357 17.2693 19.1624 17.3387 19.0611 17.44C18.9651 17.536 18.9171 17.6693 18.9171 17.84C18.9171 18.0587 18.9917 18.2373 19.1411 18.376C19.2957 18.5147 19.5037 18.584 19.7651 18.584ZM22.7416 19V15.112H24.6376C25.0962 15.112 25.4349 15.2 25.6536 15.376C25.8722 15.5467 25.9816 15.8 25.9816 16.136C25.9816 16.3387 25.9229 16.5147 25.8056 16.664C25.6936 16.8133 25.5389 16.9227 25.3416 16.992C25.5816 17.0507 25.7682 17.1627 25.9016 17.328C26.0402 17.4933 26.1096 17.6933 26.1096 17.928C26.1096 18.2587 25.9869 18.52 25.7416 18.712C25.4962 18.904 25.1496 19 24.7016 19H22.7416ZM23.3576 16.8H24.6056C24.8509 16.8 25.0402 16.7467 25.1736 16.64C25.3069 16.528 25.3736 16.3707 25.3736 16.168C25.3736 15.9707 25.3069 15.8187 25.1736 15.712C25.0402 15.6053 24.8509 15.552 24.6056 15.552H23.3576V16.8ZM23.3576 18.56H24.6776C24.9442 18.56 25.1469 18.504 25.2856 18.392C25.4242 18.28 25.4936 18.1147 25.4936 17.896C25.4936 17.6827 25.4242 17.52 25.2856 17.408C25.1469 17.296 24.9442 17.24 24.6776 17.24H23.3576V18.56ZM27.1166 19V15.112H27.7646V16.728H29.8846V15.112H30.5326V19H29.8846V17.256H27.7646V19H27.1166ZM33.0439 19.072C32.7772 19.072 32.5372 19.0213 32.3239 18.92C32.1159 18.8133 31.9505 18.6693 31.8279 18.488C31.7052 18.3067 31.6439 18.104 31.6439 17.88C31.6439 17.5973 31.7159 17.3733 31.8599 17.208C32.0092 17.0427 32.2519 16.9253 32.5879 16.856C32.9292 16.7813 33.3932 16.744 33.9799 16.744H34.2359V16.496C34.2359 16.1653 34.1665 15.928 34.0279 15.784C33.8945 15.6347 33.6785 15.56 33.3799 15.56C33.1452 15.56 32.9185 15.5947 32.6999 15.664C32.4812 15.728 32.2572 15.8347 32.0279 15.984L31.8039 15.512C32.0065 15.368 32.2519 15.2533 32.5399 15.168C32.8332 15.0827 33.1132 15.04 33.3799 15.04C33.8812 15.04 34.2519 15.1627 34.4919 15.408C34.7372 15.6533 34.8599 16.0347 34.8599 16.552V19H34.2519V18.328C34.1505 18.5573 33.9932 18.7387 33.7799 18.872C33.5719 19.0053 33.3265 19.072 33.0439 19.072ZM33.1479 18.584C33.4679 18.584 33.7292 18.4747 33.9319 18.256C34.1345 18.032 34.2359 17.7493 34.2359 17.408V17.168H33.9879C33.5559 17.168 33.2145 17.1893 32.9639 17.232C32.7185 17.2693 32.5452 17.3387 32.4439 17.44C32.3479 17.536 32.2999 17.6693 32.2999 17.84C32.2999 18.0587 32.3745 18.2373 32.5239 18.376C32.6785 18.5147 32.8865 18.584 33.1479 18.584ZM35.8044 19L36.4044 17.96C36.5644 17.6773 36.7697 17.4933 37.0204 17.408C36.6897 17.36 36.4337 17.24 36.2524 17.048C36.071 16.8507 35.9804 16.5947 35.9804 16.28C35.9804 15.9227 36.0977 15.64 36.3324 15.432C36.5724 15.2187 36.9297 15.112 37.4044 15.112H39.1564V19H38.5404V17.52H37.9724C37.759 17.52 37.5777 17.5733 37.4284 17.68C37.2844 17.7867 37.167 17.9173 37.0764 18.072L36.5484 19H35.8044ZM37.5244 17.048H38.5404V15.568H37.5244C37.2097 15.568 36.9777 15.6347 36.8284 15.768C36.679 15.896 36.6044 16.0747 36.6044 16.304C36.6044 16.5387 36.679 16.7227 36.8284 16.856C36.9777 16.984 37.2097 17.048 37.5244 17.048Z" fill="black"/>
<path d="M10.696 29V23.36H11.352V25.872H12.344L14 23.36H14.744L12.992 25.968C13.2267 26.048 13.432 26.1787 13.608 26.36C13.7893 26.536 13.9493 26.7627 14.088 27.04L15.04 29H14.32L13.544 27.344C13.3893 27.0187 13.2107 26.7867 13.008 26.648C12.8053 26.5093 12.5573 26.44 12.264 26.44H11.352V29H10.696ZM16.997 29.072C16.7303 29.072 16.4903 29.0213 16.277 28.92C16.069 28.8133 15.9037 28.6693 15.781 28.488C15.6583 28.3067 15.597 28.104 15.597 27.88C15.597 27.5973 15.669 27.3733 15.813 27.208C15.9623 27.0427 16.205 26.9253 16.541 26.856C16.8823 26.7813 17.3463 26.744 17.933 26.744H18.189V26.496C18.189 26.1653 18.1197 25.928 17.981 25.784C17.8477 25.6347 17.6317 25.56 17.333 25.56C17.0983 25.56 16.8717 25.5947 16.653 25.664C16.4343 25.728 16.2103 25.8347 15.981 25.984L15.757 25.512C15.9597 25.368 16.205 25.2533 16.493 25.168C16.7863 25.0827 17.0663 25.04 17.333 25.04C17.8343 25.04 18.205 25.1627 18.445 25.408C18.6903 25.6533 18.813 26.0347 18.813 26.552V29H18.205V28.328C18.1037 28.5573 17.9463 28.7387 17.733 28.872C17.525 29.0053 17.2797 29.072 16.997 29.072ZM17.101 28.584C17.421 28.584 17.6823 28.4747 17.885 28.256C18.0877 28.032 18.189 27.7493 18.189 27.408V27.168H17.941C17.509 27.168 17.1677 27.1893 16.917 27.232C16.6717 27.2693 16.4983 27.3387 16.397 27.44C16.301 27.536 16.253 27.6693 16.253 27.84C16.253 28.0587 16.3277 28.2373 16.477 28.376C16.6317 28.5147 16.8397 28.584 17.101 28.584ZM20.8855 29V25.632H19.4775V25.112H22.9495V25.632H21.5335V29H20.8855ZM24.8642 29.072C24.5975 29.072 24.3575 29.0213 24.1442 28.92C23.9362 28.8133 23.7709 28.6693 23.6482 28.488C23.5255 28.3067 23.4642 28.104 23.4642 27.88C23.4642 27.5973 23.5362 27.3733 23.6802 27.208C23.8295 27.0427 24.0722 26.9253 24.4082 26.856C24.7495 26.7813 25.2135 26.744 25.8002 26.744H26.0562V26.496C26.0562 26.1653 25.9869 25.928 25.8482 25.784C25.7149 25.6347 25.4989 25.56 25.2002 25.56C24.9655 25.56 24.7389 25.5947 24.5202 25.664C24.3015 25.728 24.0775 25.8347 23.8482 25.984L23.6242 25.512C23.8269 25.368 24.0722 25.2533 24.3602 25.168C24.6535 25.0827 24.9335 25.04 25.2002 25.04C25.7015 25.04 26.0722 25.1627 26.3122 25.408C26.5575 25.6533 26.6802 26.0347 26.6802 26.552V29H26.0722V28.328C25.9709 28.5573 25.8135 28.7387 25.6002 28.872C25.3922 29.0053 25.1469 29.072 24.8642 29.072ZM24.9682 28.584C25.2882 28.584 25.5495 28.4747 25.7522 28.256C25.9549 28.032 26.0562 27.7493 26.0562 27.408V27.168H25.8082C25.3762 27.168 25.0349 27.1893 24.7842 27.232C24.5389 27.2693 24.3655 27.3387 24.2642 27.44C24.1682 27.536 24.1202 27.6693 24.1202 27.84C24.1202 28.0587 24.1949 28.2373 24.3442 28.376C24.4989 28.5147 24.7069 28.584 24.9682 28.584ZM27.7287 29.088L27.4887 28.576C27.7287 28.4747 27.918 28.3333 28.0567 28.152C28.1954 27.9653 28.2914 27.7093 28.3447 27.384C28.4034 27.0587 28.4327 26.632 28.4327 26.104V25.112H31.2567V29H30.6087V25.632H29.0407V26.128C29.0407 26.736 28.9954 27.2373 28.9047 27.632C28.8194 28.0267 28.6807 28.3387 28.4887 28.568C28.2967 28.7973 28.0434 28.9707 27.7287 29.088ZM34.1624 29.072C33.7838 29.072 33.4558 28.9893 33.1784 28.824C32.9011 28.6587 32.6851 28.4267 32.5304 28.128C32.3811 27.824 32.3064 27.4667 32.3064 27.056C32.3064 26.6453 32.3811 26.2907 32.5304 25.992C32.6851 25.688 32.9011 25.4533 33.1784 25.288C33.4558 25.1227 33.7838 25.04 34.1624 25.04C34.5358 25.04 34.8611 25.1227 35.1384 25.288C35.4211 25.4533 35.6371 25.688 35.7864 25.992C35.9411 26.2907 36.0184 26.6453 36.0184 27.056C36.0184 27.4667 35.9411 27.824 35.7864 28.128C35.6371 28.4267 35.4211 28.6587 35.1384 28.824C34.8611 28.9893 34.5358 29.072 34.1624 29.072ZM34.1624 28.552C34.5251 28.552 34.8158 28.424 35.0344 28.168C35.2531 27.9067 35.3624 27.536 35.3624 27.056C35.3624 26.5707 35.2531 26.2 35.0344 25.944C34.8158 25.688 34.5251 25.56 34.1624 25.56C33.7944 25.56 33.5011 25.688 33.2824 25.944C33.0691 26.2 32.9624 26.5707 32.9624 27.056C32.9624 27.536 33.0691 27.9067 33.2824 28.168C33.5011 28.424 33.7944 28.552 34.1624 28.552ZM37.0697 29V25.112H39.7977V25.632H37.7177V29H37.0697Z" fill="black"/>
<path d="M13.064 39.072C12.5413 39.072 12.0853 38.9547 11.696 38.72C11.312 38.48 11.0133 38.144 10.8 37.712C10.592 37.28 10.488 36.768 10.488 36.176C10.488 35.584 10.592 35.072 10.8 34.64C11.008 34.208 11.304 33.8747 11.688 33.64C12.0773 33.4053 12.536 33.288 13.064 33.288C13.5973 33.288 14.056 33.4053 14.44 33.64C14.8293 33.8747 15.128 34.208 15.336 34.64C15.5493 35.0667 15.656 35.576 15.656 36.168C15.656 36.76 15.5493 37.2747 15.336 37.712C15.1227 38.144 14.8213 38.48 14.432 38.72C14.048 38.9547 13.592 39.072 13.064 39.072ZM13.064 38.488C13.6667 38.488 14.1333 38.2853 14.464 37.88C14.7947 37.4747 14.96 36.9067 14.96 36.176C14.96 35.4453 14.7947 34.88 14.464 34.48C14.1333 34.0747 13.6667 33.872 13.064 33.872C12.472 33.872 12.0107 34.0747 11.68 34.48C11.3493 34.88 11.184 35.4453 11.184 36.176C11.184 36.9013 11.3493 37.4693 11.68 37.88C12.0107 38.2853 12.472 38.488 13.064 38.488ZM18.8275 39V35.112H19.4755V36.728H21.5955V35.112H22.2435V39H21.5955V37.256H19.4755V39H18.8275ZM24.7548 39.072C24.4881 39.072 24.2481 39.0213 24.0348 38.92C23.8268 38.8133 23.6615 38.6693 23.5388 38.488C23.4161 38.3067 23.3548 38.104 23.3548 37.88C23.3548 37.5973 23.4268 37.3733 23.5708 37.208C23.7201 37.0427 23.9628 36.9253 24.2988 36.856C24.6401 36.7813 25.1041 36.744 25.6908 36.744H25.9468V36.496C25.9468 36.1653 25.8775 35.928 25.7388 35.784C25.6055 35.6347 25.3895 35.56 25.0908 35.56C24.8561 35.56 24.6295 35.5947 24.4108 35.664C24.1921 35.728 23.9681 35.8347 23.7388 35.984L23.5148 35.512C23.7175 35.368 23.9628 35.2533 24.2508 35.168C24.5441 35.0827 24.8241 35.04 25.0908 35.04C25.5921 35.04 25.9628 35.1627 26.2028 35.408C26.4481 35.6533 26.5708 36.0347 26.5708 36.552V39H25.9628V38.328C25.8615 38.5573 25.7041 38.7387 25.4908 38.872C25.2828 39.0053 25.0375 39.072 24.7548 39.072ZM24.8588 38.584C25.1788 38.584 25.4401 38.4747 25.6428 38.256C25.8455 38.032 25.9468 37.7493 25.9468 37.408V37.168H25.6988C25.2668 37.168 24.9255 37.1893 24.6748 37.232C24.4295 37.2693 24.2561 37.3387 24.1548 37.44C24.0588 37.536 24.0108 37.6693 24.0108 37.84C24.0108 38.0587 24.0855 38.2373 24.2348 38.376C24.3895 38.5147 24.5975 38.584 24.8588 38.584ZM29.4913 39.072C29.102 39.072 28.766 38.9893 28.4833 38.824C28.2006 38.6533 27.982 38.416 27.8273 38.112C27.678 37.8027 27.6033 37.4427 27.6033 37.032C27.6033 36.4133 27.7713 35.928 28.1073 35.576C28.4433 35.2187 28.9046 35.04 29.4913 35.04C29.7313 35.04 29.9686 35.0827 30.2033 35.168C30.438 35.2533 30.6326 35.3733 30.7873 35.528L30.5633 36C30.4086 35.8507 30.238 35.7413 30.0513 35.672C29.87 35.6027 29.6966 35.568 29.5313 35.568C29.126 35.568 28.814 35.696 28.5953 35.952C28.3766 36.2027 28.2673 36.5653 28.2673 37.04C28.2673 37.504 28.3766 37.872 28.5953 38.144C28.814 38.4107 29.126 38.544 29.5313 38.544C29.6966 38.544 29.87 38.5093 30.0513 38.44C30.238 38.3707 30.4086 38.2587 30.5633 38.104L30.7873 38.576C30.6326 38.7307 30.4353 38.8533 30.1953 38.944C29.9606 39.0293 29.726 39.072 29.4913 39.072Z" fill="black"/>
<path d="M10.696 49V43.36H11.352V45.872H12.344L14 43.36H14.744L12.992 45.968C13.2267 46.048 13.432 46.1787 13.608 46.36C13.7893 46.536 13.9493 46.7627 14.088 47.04L15.04 49H14.32L13.544 47.344C13.3893 47.0187 13.2107 46.7867 13.008 46.648C12.8053 46.5093 12.5573 46.44 12.264 46.44H11.352V49H10.696ZM17.3421 49.072C16.9635 49.072 16.6355 48.9893 16.3581 48.824C16.0808 48.6587 15.8648 48.4267 15.7101 48.128C15.5608 47.824 15.4861 47.4667 15.4861 47.056C15.4861 46.6453 15.5608 46.2907 15.7101 45.992C15.8648 45.688 16.0808 45.4533 16.3581 45.288C16.6355 45.1227 16.9635 45.04 17.3421 45.04C17.7155 45.04 18.0408 45.1227 18.3181 45.288C18.6008 45.4533 18.8168 45.688 18.9661 45.992C19.1208 46.2907 19.1981 46.6453 19.1981 47.056C19.1981 47.4667 19.1208 47.824 18.9661 48.128C18.8168 48.4267 18.6008 48.6587 18.3181 48.824C18.0408 48.9893 17.7155 49.072 17.3421 49.072ZM17.3421 48.552C17.7048 48.552 17.9955 48.424 18.2141 48.168C18.4328 47.9067 18.5421 47.536 18.5421 47.056C18.5421 46.5707 18.4328 46.2 18.2141 45.944C17.9955 45.688 17.7048 45.56 17.3421 45.56C16.9741 45.56 16.6808 45.688 16.4621 45.944C16.2488 46.2 16.1421 46.5707 16.1421 47.056C16.1421 47.536 16.2488 47.9067 16.4621 48.168C16.6808 48.424 16.9741 48.552 17.3421 48.552ZM20.2494 49V45.112H20.8974V46.728H23.0174V45.112H23.6654V49H23.0174V47.256H20.8974V49H20.2494ZM25.7527 49V45.632H24.3447V45.112H27.8167V45.632H26.4007V49H25.7527ZM29.7314 49.072C29.4647 49.072 29.2247 49.0213 29.0114 48.92C28.8034 48.8133 28.638 48.6693 28.5154 48.488C28.3927 48.3067 28.3314 48.104 28.3314 47.88C28.3314 47.5973 28.4034 47.3733 28.5474 47.208C28.6967 47.0427 28.9394 46.9253 29.2754 46.856C29.6167 46.7813 30.0807 46.744 30.6674 46.744H30.9234V46.496C30.9234 46.1653 30.854 45.928 30.7154 45.784C30.582 45.6347 30.366 45.56 30.0674 45.56C29.8327 45.56 29.606 45.5947 29.3874 45.664C29.1687 45.728 28.9447 45.8347 28.7154 45.984L28.4914 45.512C28.694 45.368 28.9394 45.2533 29.2274 45.168C29.5207 45.0827 29.8007 45.04 30.0674 45.04C30.5687 45.04 30.9394 45.1627 31.1794 45.408C31.4247 45.6533 31.5474 46.0347 31.5474 46.552V49H30.9394V48.328C30.838 48.5573 30.6807 48.7387 30.4674 48.872C30.2594 49.0053 30.014 49.072 29.7314 49.072ZM29.8354 48.584C30.1554 48.584 30.4167 48.4747 30.6194 48.256C30.822 48.032 30.9234 47.7493 30.9234 47.408V47.168H30.6754C30.2434 47.168 29.902 47.1893 29.6514 47.232C29.406 47.2693 29.2327 47.3387 29.1314 47.44C29.0354 47.536 28.9874 47.6693 28.9874 47.84C28.9874 48.0587 29.062 48.2373 29.2114 48.376C29.366 48.5147 29.574 48.584 29.8354 48.584ZM32.8119 49V45.112H33.4599V46.736H34.1879L35.4599 45.112H36.1719L34.8199 46.864C34.9585 46.9173 35.0839 47.0053 35.1959 47.128C35.3079 47.2507 35.4332 47.4267 35.5719 47.656L36.3719 49H35.6759L34.9719 47.824C34.8385 47.5947 34.7105 47.4427 34.5879 47.368C34.4652 47.2933 34.2919 47.256 34.0679 47.256H33.4599V49H32.8119ZM37.8308 49V45.632H36.4228V45.112H39.8948V45.632H38.4788V49H37.8308ZM40.5775 49V45.112H41.2255V46.496H42.4015C42.8975 46.496 43.2735 46.6053 43.5295 46.824C43.7855 47.0373 43.9135 47.3413 43.9135 47.736C43.9135 48.1253 43.7802 48.4347 43.5135 48.664C43.2522 48.888 42.8815 49 42.4015 49H40.5775ZM44.4895 49V45.112H45.1375V49H44.4895ZM41.2255 48.536H42.3375C42.6362 48.536 42.8682 48.472 43.0335 48.344C43.2042 48.216 43.2895 48.016 43.2895 47.744C43.2895 47.4773 43.2068 47.28 43.0415 47.152C42.8762 47.024 42.6415 46.96 42.3375 46.96H41.2255V48.536Z" fill="black"/>
<path d="M239.522 22V17.77H242.192V18.184H240.002V19.648H242.066V20.062H240.002V21.586H242.192V22H239.522ZM242.966 22V19.084H243.44V19.576C243.528 19.4 243.65 19.266 243.806 19.174C243.962 19.078 244.144 19.03 244.352 19.03C244.808 19.03 245.1 19.228 245.228 19.624C245.316 19.44 245.446 19.296 245.618 19.192C245.79 19.084 245.988 19.03 246.212 19.03C246.86 19.03 247.184 19.414 247.184 20.182V22H246.698V20.206C246.698 19.938 246.65 19.742 246.554 19.618C246.462 19.49 246.308 19.426 246.092 19.426C245.856 19.426 245.668 19.51 245.528 19.678C245.388 19.846 245.318 20.07 245.318 20.35V22H244.832V20.206C244.832 19.938 244.784 19.742 244.688 19.618C244.596 19.49 244.442 19.426 244.226 19.426C243.986 19.426 243.796 19.51 243.656 19.678C243.52 19.846 243.452 20.07 243.452 20.35V22H242.966ZM249.011 22.054C248.811 22.054 248.631 22.016 248.471 21.94C248.315 21.86 248.191 21.752 248.099 21.616C248.007 21.48 247.961 21.328 247.961 21.16C247.961 20.948 248.015 20.78 248.123 20.656C248.235 20.532 248.417 20.444 248.669 20.392C248.925 20.336 249.273 20.308 249.713 20.308H249.905V20.122C249.905 19.874 249.853 19.696 249.749 19.588C249.649 19.476 249.487 19.42 249.263 19.42C249.087 19.42 248.917 19.446 248.753 19.498C248.589 19.546 248.421 19.626 248.249 19.738L248.081 19.384C248.233 19.276 248.417 19.19 248.633 19.126C248.853 19.062 249.063 19.03 249.263 19.03C249.639 19.03 249.917 19.122 250.097 19.306C250.281 19.49 250.373 19.776 250.373 20.164V22H249.917V21.496C249.841 21.668 249.723 21.804 249.563 21.904C249.407 22.004 249.223 22.054 249.011 22.054ZM249.089 21.688C249.329 21.688 249.525 21.606 249.677 21.442C249.829 21.274 249.905 21.062 249.905 20.806V20.626H249.719C249.395 20.626 249.139 20.642 248.951 20.674C248.767 20.702 248.637 20.754 248.561 20.83C248.489 20.902 248.453 21.002 248.453 21.13C248.453 21.294 248.509 21.428 248.621 21.532C248.737 21.636 248.893 21.688 249.089 21.688ZM251.214 18.358V17.812H251.814V18.358H251.214ZM251.274 22V19.084H251.76V22H251.274ZM253.563 22.054C253.267 22.054 253.043 21.968 252.891 21.796C252.743 21.62 252.669 21.366 252.669 21.034V17.77H253.155V20.998C253.155 21.426 253.325 21.64 253.665 21.64C253.765 21.64 253.855 21.628 253.935 21.604L253.923 22.012C253.799 22.04 253.679 22.054 253.563 22.054Z" fill="black"/>
<path d="M239.114 33L240.98 28.77H241.4L243.266 33H242.756L242.288 31.92H240.086L239.624 33H239.114ZM241.184 29.346L240.266 31.506H242.114L241.196 29.346H241.184ZM243.533 33.78V32.61H243.839C243.979 32.406 244.079 32.172 244.139 31.908C244.199 31.64 244.229 31.318 244.229 30.942V30.084H246.293V32.61H246.755V33.78H246.335V33H243.947V33.78H243.533ZM244.307 32.61H245.831V30.468H244.661V31.026C244.661 31.326 244.631 31.616 244.571 31.896C244.511 32.176 244.423 32.414 244.307 32.61ZM247.408 34.08V30.084H247.882V30.606C247.97 30.426 248.1 30.286 248.272 30.186C248.448 30.082 248.652 30.03 248.884 30.03C249.144 30.03 249.37 30.092 249.562 30.216C249.758 30.336 249.908 30.51 250.012 30.738C250.12 30.962 250.174 31.23 250.174 31.542C250.174 31.85 250.12 32.118 250.012 32.346C249.908 32.57 249.758 32.744 249.562 32.868C249.37 32.992 249.144 33.054 248.884 33.054C248.66 33.054 248.46 33.004 248.284 32.904C248.108 32.804 247.978 32.666 247.894 32.49V34.08H247.408ZM248.782 32.664C249.054 32.664 249.272 32.568 249.436 32.376C249.6 32.18 249.682 31.902 249.682 31.542C249.682 31.178 249.6 30.9 249.436 30.708C249.272 30.516 249.054 30.42 248.782 30.42C248.51 30.42 248.292 30.516 248.128 30.708C247.964 30.9 247.882 31.178 247.882 31.542C247.882 31.902 247.964 32.18 248.128 32.376C248.292 32.568 248.51 32.664 248.782 32.664ZM252.279 33.054C251.819 33.054 251.455 32.92 251.187 32.652C250.919 32.38 250.785 32.012 250.785 31.548C250.785 31.248 250.845 30.984 250.965 30.756C251.085 30.524 251.249 30.346 251.457 30.222C251.669 30.094 251.913 30.03 252.189 30.03C252.585 30.03 252.895 30.158 253.119 30.414C253.343 30.666 253.455 31.014 253.455 31.458V31.644H251.259C251.275 31.976 251.371 32.23 251.547 32.406C251.723 32.578 251.967 32.664 252.279 32.664C252.455 32.664 252.623 32.638 252.783 32.586C252.943 32.53 253.095 32.44 253.239 32.316L253.407 32.658C253.275 32.782 253.107 32.88 252.903 32.952C252.699 33.02 252.491 33.054 252.279 33.054ZM252.201 30.39C251.925 30.39 251.707 30.476 251.547 30.648C251.387 30.82 251.293 31.046 251.265 31.326H253.035C253.023 31.03 252.945 30.8 252.801 30.636C252.661 30.472 252.461 30.39 252.201 30.39ZM255.452 33.054C255.16 33.054 254.908 32.992 254.696 32.868C254.484 32.74 254.32 32.562 254.204 32.334C254.092 32.102 254.036 31.832 254.036 31.524C254.036 31.06 254.162 30.696 254.414 30.432C254.666 30.164 255.012 30.03 255.452 30.03C255.632 30.03 255.81 30.062 255.986 30.126C256.162 30.19 256.308 30.28 256.424 30.396L256.256 30.75C256.14 30.638 256.012 30.556 255.872 30.504C255.736 30.452 255.606 30.426 255.482 30.426C255.178 30.426 254.944 30.522 254.78 30.714C254.616 30.902 254.534 31.174 254.534 31.53C254.534 31.878 254.616 32.154 254.78 32.358C254.944 32.558 255.178 32.658 255.482 32.658C255.606 32.658 255.736 32.632 255.872 32.58C256.012 32.528 256.14 32.444 256.256 32.328L256.424 32.682C256.308 32.798 256.16 32.89 255.98 32.958C255.804 33.022 255.628 33.054 255.452 33.054Z" fill="black"/>
<path d="M240.56 44V40.196H239.024V39.77H242.594V40.196H241.058V44H240.56ZM243.952 44.054C243.492 44.054 243.128 43.92 242.86 43.652C242.592 43.38 242.458 43.012 242.458 42.548C242.458 42.248 242.518 41.984 242.638 41.756C242.758 41.524 242.922 41.346 243.13 41.222C243.342 41.094 243.586 41.03 243.862 41.03C244.258 41.03 244.568 41.158 244.792 41.414C245.016 41.666 245.128 42.014 245.128 42.458V42.644H242.932C242.948 42.976 243.044 43.23 243.22 43.406C243.396 43.578 243.64 43.664 243.952 43.664C244.128 43.664 244.296 43.638 244.456 43.586C244.616 43.53 244.768 43.44 244.912 43.316L245.08 43.658C244.948 43.782 244.78 43.88 244.576 43.952C244.372 44.02 244.164 44.054 243.952 44.054ZM243.874 41.39C243.598 41.39 243.38 41.476 243.22 41.648C243.06 41.82 242.966 42.046 242.938 42.326H244.708C244.696 42.03 244.618 41.8 244.474 41.636C244.334 41.472 244.134 41.39 243.874 41.39ZM245.722 44.066L245.542 43.682C245.722 43.606 245.864 43.5 245.968 43.364C246.072 43.224 246.144 43.032 246.184 42.788C246.228 42.544 246.25 42.224 246.25 41.828V41.084H248.368V44H247.882V41.474H246.706V41.846C246.706 42.302 246.672 42.678 246.604 42.974C246.54 43.27 246.436 43.504 246.292 43.676C246.148 43.848 245.958 43.978 245.722 44.066ZM250.65 44.054C250.19 44.054 249.826 43.92 249.558 43.652C249.29 43.38 249.156 43.012 249.156 42.548C249.156 42.248 249.216 41.984 249.336 41.756C249.456 41.524 249.62 41.346 249.828 41.222C250.04 41.094 250.284 41.03 250.56 41.03C250.956 41.03 251.266 41.158 251.49 41.414C251.714 41.666 251.826 42.014 251.826 42.458V42.644H249.63C249.646 42.976 249.742 43.23 249.918 43.406C250.094 43.578 250.338 43.664 250.65 43.664C250.826 43.664 250.994 43.638 251.154 43.586C251.314 43.53 251.466 43.44 251.61 43.316L251.778 43.658C251.646 43.782 251.478 43.88 251.274 43.952C251.07 44.02 250.862 44.054 250.65 44.054ZM250.572 41.39C250.296 41.39 250.078 41.476 249.918 41.648C249.758 41.82 249.664 42.046 249.636 42.326H251.406C251.394 42.03 251.316 41.8 251.172 41.636C251.032 41.472 250.832 41.39 250.572 41.39ZM254.244 45.08V43.526C254.172 43.694 254.07 43.824 253.938 43.916C253.806 44.008 253.648 44.054 253.464 44.054C253.252 44.054 253.066 43.992 252.906 43.868C252.75 43.744 252.628 43.57 252.54 43.346C252.452 43.118 252.408 42.85 252.408 42.542C252.408 42.078 252.504 41.71 252.696 41.438C252.888 41.166 253.144 41.03 253.464 41.03C253.648 41.03 253.806 41.076 253.938 41.168C254.07 41.26 254.172 41.39 254.244 41.558V39.77H254.73V41.552C254.802 41.384 254.904 41.256 255.036 41.168C255.168 41.076 255.326 41.03 255.51 41.03C255.826 41.03 256.08 41.166 256.272 41.438C256.468 41.71 256.566 42.078 256.566 42.542C256.566 43.002 256.47 43.37 256.278 43.646C256.086 43.918 255.83 44.054 255.51 44.054C255.326 44.054 255.168 44.008 255.036 43.916C254.904 43.824 254.802 43.696 254.73 43.532V45.08H254.244ZM253.572 43.67C253.784 43.67 253.95 43.574 254.07 43.382C254.19 43.19 254.25 42.91 254.25 42.542C254.25 42.174 254.188 41.894 254.064 41.702C253.944 41.51 253.78 41.414 253.572 41.414C253.364 41.414 253.198 41.51 253.074 41.702C252.954 41.894 252.894 42.174 252.894 42.542C252.894 42.91 252.954 43.19 253.074 43.382C253.198 43.574 253.364 43.67 253.572 43.67ZM255.396 43.67C255.604 43.67 255.77 43.574 255.894 43.382C256.018 43.19 256.08 42.91 256.08 42.542C256.08 42.174 256.018 41.894 255.894 41.702C255.77 41.51 255.604 41.414 255.396 41.414C255.188 41.414 255.024 41.51 254.904 41.702C254.784 41.894 254.724 42.174 254.724 42.542C254.724 42.91 254.782 43.19 254.898 43.382C255.018 43.574 255.184 43.67 255.396 43.67ZM258.569 44.054C258.285 44.054 258.039 43.992 257.831 43.868C257.623 43.744 257.461 43.57 257.345 43.346C257.233 43.118 257.177 42.85 257.177 42.542C257.177 42.234 257.233 41.968 257.345 41.744C257.461 41.516 257.623 41.34 257.831 41.216C258.039 41.092 258.285 41.03 258.569 41.03C258.849 41.03 259.093 41.092 259.301 41.216C259.513 41.34 259.675 41.516 259.787 41.744C259.903 41.968 259.961 42.234 259.961 42.542C259.961 42.85 259.903 43.118 259.787 43.346C259.675 43.57 259.513 43.744 259.301 43.868C259.093 43.992 258.849 44.054 258.569 44.054ZM258.569 43.664C258.841 43.664 259.059 43.568 259.223 43.376C259.387 43.18 259.469 42.902 259.469 42.542C259.469 42.178 259.387 41.9 259.223 41.708C259.059 41.516 258.841 41.42 258.569 41.42C258.293 41.42 258.073 41.516 257.909 41.708C257.749 41.9 257.669 42.178 257.669 42.542C257.669 42.902 257.749 43.18 257.909 43.376C258.073 43.568 258.293 43.664 258.569 43.664ZM260.75 44V41.084H261.236V42.296H262.826V41.084H263.312V44H262.826V42.692H261.236V44H260.75Z" fill="black"/>
<path d="M254.009 57H253.991C251.79 57 250 55.2095 250 53.0088V52.9912C250 50.7905 251.79 49 253.991 49H254.009C256.21 49 258 50.7905 258 52.9912V53.0088C258 55.2095 256.21 57 254.009 57ZM253.991 49.2708C251.94 49.2708 250.271 50.9397 250.271 52.9912V53.0088C250.271 55.0603 251.94 56.7292 253.991 56.7292H254.009C256.06 56.7292 257.729 55.0603 257.729 53.0088V52.9912C257.729 50.9397 256.06 49.2708 254.009 49.2708H253.991Z" fill="#333333"/>
<path d="M255.196 50.7079H252.804C252.144 50.7079 251.606 51.2454 251.606 51.9061V54.0941C251.606 54.7549 252.144 55.2924 252.804 55.2924H255.196C255.857 55.2924 256.394 54.7549 256.394 54.0941V51.9061C256.394 51.2454 255.857 50.7079 255.196 50.7079ZM252.029 51.9061C252.029 51.4785 252.377 51.1306 252.804 51.1306H255.196C255.624 51.1306 255.972 51.4785 255.972 51.9061V54.0941C255.972 54.5217 255.624 54.8697 255.196 54.8697H252.804C252.377 54.8697 252.029 54.5217 252.029 54.0941V51.9061Z" fill="#333333"/>
<path d="M254 54.1144C254.615 54.1144 255.115 53.6146 255.115 52.9999C255.115 52.3852 254.615 51.8853 254 51.8853C253.385 51.8853 252.886 52.3852 252.886 52.9999C252.886 53.6146 253.385 54.1144 254 54.1144ZM254 52.3083C254.382 52.3083 254.692 52.6186 254.692 53.0001C254.692 53.3817 254.382 53.692 254 53.692C253.619 53.692 253.308 53.3817 253.308 53.0001C253.308 52.6186 253.619 52.3083 254 52.3083Z" fill="#333333"/>
<path d="M255.218 52.0654C255.383 52.0654 255.518 51.9308 255.518 51.765C255.518 51.5993 255.384 51.4647 255.218 51.4647C255.052 51.4647 254.918 51.5993 254.918 51.765C254.918 51.9308 255.052 52.0654 255.218 52.0654Z" fill="#333333"/>
<path d="M243 56.9995C242.785 56.9995 242.569 56.9822 242.359 56.9484C241.431 56.7991 240.581 56.3222 239.965 55.6057C239.343 54.8814 239 53.9559 239 52.9997C239 50.7942 240.794 49 243 49C245.206 49 247 50.7942 247 52.9997C247 53.9707 246.648 54.9072 246.008 55.6364C245.374 56.3588 244.504 56.8292 243.557 56.9613C243.374 56.9868 243.187 56.9997 243 56.9997L243 56.9995ZM243 49.3225C240.972 49.3225 239.322 50.972 239.322 52.9995C239.322 54.815 240.621 56.3416 242.41 56.6296C242.771 56.6877 243.149 56.6918 243.512 56.6412C245.316 56.3897 246.677 54.8241 246.677 52.9995C246.677 50.972 245.027 49.3225 243 49.3225Z" fill="#333333"/>
<path d="M243.534 52.2431V53.0793H244.569L244.405 54.2058H243.534V56.801C243.36 56.8252 243.181 56.8378 243 56.8378C242.79 56.8378 242.585 56.8211 242.385 56.7889V54.2058H241.431V53.0793H242.385V52.0562C242.385 51.4215 242.899 50.9067 243.534 50.9067V50.9072C243.536 50.9072 243.538 50.9067 243.54 50.9067H244.569V51.8809H243.896C243.697 51.8809 243.534 52.043 243.534 52.2429L243.534 52.2431Z" fill="#333333"/>
<path d="M265.009 57H264.991C262.79 57 261 55.2095 261 53.0088V52.9912C261 50.7905 262.79 49 264.991 49H265.009C267.21 49 269 50.7905 269 52.9912V53.0088C269 55.2095 267.21 57 265.009 57ZM264.991 49.2708C262.94 49.2708 261.271 50.9397 261.271 52.9912V53.0088C261.271 55.0603 262.94 56.7292 264.991 56.7292H265.009C267.06 56.7292 268.729 55.0603 268.729 53.0088V52.9912C268.729 50.9397 267.06 49.2708 265.009 49.2708H264.991Z" fill="#333333"/>
<path d="M266.868 51.9313V52.6611C266.741 52.6486 266.575 52.6197 266.392 52.5525C266.152 52.4648 265.974 52.3448 265.857 52.2519V53.7269L265.854 53.7223C265.856 53.7516 265.857 53.7814 265.857 53.8114C265.857 54.5439 265.261 55.1402 264.529 55.1402C263.796 55.1402 263.2 54.5439 263.2 53.8114C263.2 53.0789 263.796 52.4824 264.529 52.4824C264.6 52.4824 264.671 52.4881 264.74 52.4992V53.2184C264.674 53.1948 264.603 53.1821 264.529 53.1821C264.182 53.1821 263.899 53.4643 263.899 53.8114C263.899 54.1586 264.182 54.4407 264.529 54.4407C264.876 54.4407 265.158 54.1583 265.158 53.8114C265.158 53.7984 265.158 53.7854 265.157 53.7724V50.9061H265.886C265.889 50.9678 265.891 51.0301 265.894 51.0919C265.899 51.2134 265.942 51.3302 266.018 51.4257C266.106 51.5381 266.237 51.6686 266.421 51.7729C266.593 51.8701 266.754 51.9121 266.868 51.9319V51.9313Z" fill="#333333"/>
<line x1="10" y1="60.75" x2="269" y2="60.75" stroke="#BFBFBF" stroke-width="0.5"/>
<path d="M127.448 70.054C127.14 70.054 126.854 70 126.59 69.892C126.326 69.78 126.096 69.626 125.9 69.43C125.704 69.23 125.55 69 125.438 68.74C125.33 68.476 125.276 68.19 125.276 67.882C125.276 67.574 125.33 67.29 125.438 67.03C125.55 66.766 125.704 66.536 125.9 66.34C126.096 66.144 126.326 65.992 126.59 65.884C126.854 65.772 127.14 65.716 127.448 65.716C127.756 65.716 128.04 65.772 128.3 65.884C128.564 65.992 128.794 66.144 128.99 66.34C129.186 66.536 129.338 66.766 129.446 67.03C129.558 67.29 129.614 67.574 129.614 67.882C129.614 68.19 129.558 68.476 129.446 68.74C129.338 69 129.186 69.23 128.99 69.43C128.794 69.626 128.564 69.78 128.3 69.892C128.04 70 127.756 70.054 127.448 70.054ZM127.448 69.79C127.716 69.79 127.964 69.742 128.192 69.646C128.424 69.55 128.624 69.416 128.792 69.244C128.964 69.068 129.098 68.866 129.194 68.638C129.29 68.406 129.338 68.154 129.338 67.882C129.338 67.61 129.29 67.36 129.194 67.132C129.098 66.9 128.964 66.698 128.792 66.526C128.624 66.354 128.424 66.22 128.192 66.124C127.964 66.028 127.716 65.98 127.448 65.98C127.18 65.98 126.93 66.028 126.698 66.124C126.466 66.22 126.264 66.354 126.092 66.526C125.924 66.698 125.792 66.9 125.696 67.132C125.6 67.36 125.552 67.61 125.552 67.882C125.552 68.154 125.6 68.406 125.696 68.638C125.792 68.866 125.924 69.068 126.092 69.244C126.264 69.416 126.466 69.55 126.698 69.646C126.93 69.742 127.18 69.79 127.448 69.79ZM127.526 69.178C127.142 69.178 126.838 69.06 126.614 68.824C126.39 68.584 126.278 68.266 126.278 67.87C126.278 67.474 126.39 67.162 126.614 66.934C126.838 66.706 127.142 66.592 127.526 66.592C127.686 66.592 127.842 66.62 127.994 66.676C128.15 66.732 128.28 66.81 128.384 66.91L128.24 67.222C128.132 67.13 128.018 67.062 127.898 67.018C127.778 66.974 127.66 66.952 127.544 66.952C127.284 66.952 127.08 67.032 126.932 67.192C126.784 67.352 126.71 67.578 126.71 67.87C126.71 68.162 126.784 68.394 126.932 68.566C127.08 68.734 127.284 68.818 127.544 68.818C127.66 68.818 127.778 68.796 127.898 68.752C128.018 68.708 128.132 68.638 128.24 68.542L128.384 68.86C128.28 68.956 128.15 69.034 127.994 69.094C127.838 69.15 127.682 69.178 127.526 69.178ZM133.786 70.054C133.37 70.054 133.014 69.966 132.718 69.79C132.422 69.614 132.194 69.364 132.034 69.04C131.878 68.716 131.8 68.33 131.8 67.882C131.8 67.438 131.878 67.054 132.034 66.73C132.194 66.406 132.422 66.156 132.718 65.98C133.014 65.804 133.37 65.716 133.786 65.716C134.078 65.716 134.346 65.762 134.59 65.854C134.838 65.946 135.048 66.08 135.22 66.256L135.028 66.658C134.844 66.486 134.652 66.362 134.452 66.286C134.256 66.206 134.038 66.166 133.798 66.166C133.322 66.166 132.958 66.316 132.706 66.616C132.454 66.916 132.328 67.338 132.328 67.882C132.328 68.43 132.454 68.854 132.706 69.154C132.958 69.454 133.322 69.604 133.798 69.604C134.038 69.604 134.256 69.566 134.452 69.49C134.652 69.41 134.844 69.284 135.028 69.112L135.22 69.514C135.048 69.686 134.838 69.82 134.59 69.916C134.346 70.008 134.078 70.054 133.786 70.054ZM136.928 70.054C136.644 70.054 136.398 69.992 136.19 69.868C135.982 69.744 135.82 69.57 135.704 69.346C135.592 69.118 135.536 68.85 135.536 68.542C135.536 68.234 135.592 67.968 135.704 67.744C135.82 67.516 135.982 67.34 136.19 67.216C136.398 67.092 136.644 67.03 136.928 67.03C137.208 67.03 137.452 67.092 137.66 67.216C137.872 67.34 138.034 67.516 138.146 67.744C138.262 67.968 138.32 68.234 138.32 68.542C138.32 68.85 138.262 69.118 138.146 69.346C138.034 69.57 137.872 69.744 137.66 69.868C137.452 69.992 137.208 70.054 136.928 70.054ZM136.928 69.664C137.2 69.664 137.418 69.568 137.582 69.376C137.746 69.18 137.828 68.902 137.828 68.542C137.828 68.178 137.746 67.9 137.582 67.708C137.418 67.516 137.2 67.42 136.928 67.42C136.652 67.42 136.432 67.516 136.268 67.708C136.108 67.9 136.028 68.178 136.028 68.542C136.028 68.902 136.108 69.18 136.268 69.376C136.432 69.568 136.652 69.664 136.928 69.664ZM139.05 71.08V67.084H139.524V67.606C139.612 67.426 139.742 67.286 139.914 67.186C140.09 67.082 140.294 67.03 140.526 67.03C140.786 67.03 141.012 67.092 141.204 67.216C141.4 67.336 141.55 67.51 141.654 67.738C141.762 67.962 141.816 68.23 141.816 68.542C141.816 68.85 141.762 69.118 141.654 69.346C141.55 69.57 141.4 69.744 141.204 69.868C141.012 69.992 140.786 70.054 140.526 70.054C140.302 70.054 140.102 70.004 139.926 69.904C139.75 69.804 139.62 69.666 139.536 69.49V71.08H139.05ZM140.424 69.664C140.696 69.664 140.914 69.568 141.078 69.376C141.242 69.18 141.324 68.902 141.324 68.542C141.324 68.178 141.242 67.9 141.078 67.708C140.914 67.516 140.696 67.42 140.424 67.42C140.152 67.42 139.934 67.516 139.77 67.708C139.606 67.9 139.524 68.178 139.524 68.542C139.524 68.902 139.606 69.18 139.77 69.376C139.934 69.568 140.152 69.664 140.424 69.664ZM142.843 71.08L143.341 69.952L142.111 67.084H142.639L143.605 69.448L144.577 67.084H145.087L143.353 71.08H142.843ZM145.589 70V67.084H146.063V67.606C146.219 67.254 146.539 67.06 147.023 67.024L147.197 67.006L147.233 67.426L146.927 67.462C146.651 67.486 146.441 67.574 146.297 67.726C146.153 67.874 146.081 68.078 146.081 68.338V70H145.589ZM147.679 66.358V65.812H148.279V66.358H147.679ZM147.739 70V67.084H148.225V70H147.739ZM150.424 71.134C150.172 71.134 149.934 71.1 149.71 71.032C149.49 70.968 149.294 70.87 149.122 70.738L149.284 70.384C149.464 70.512 149.642 70.604 149.818 70.66C149.998 70.716 150.192 70.744 150.4 70.744C150.976 70.744 151.264 70.448 151.264 69.856V69.34C151.18 69.524 151.048 69.67 150.868 69.778C150.692 69.882 150.49 69.934 150.262 69.934C149.994 69.934 149.762 69.872 149.566 69.748C149.37 69.624 149.218 69.454 149.11 69.238C149.006 69.018 148.954 68.764 148.954 68.476C148.954 68.188 149.006 67.936 149.11 67.72C149.218 67.5 149.37 67.33 149.566 67.21C149.762 67.09 149.994 67.03 150.262 67.03C150.49 67.03 150.692 67.082 150.868 67.186C151.048 67.29 151.18 67.432 151.264 67.612V67.084H151.738V69.79C151.738 70.238 151.626 70.574 151.402 70.798C151.182 71.022 150.856 71.134 150.424 71.134ZM150.352 69.538C150.632 69.538 150.854 69.442 151.018 69.25C151.182 69.058 151.264 68.8 151.264 68.476C151.264 68.152 151.182 67.896 151.018 67.708C150.854 67.516 150.632 67.42 150.352 67.42C150.076 67.42 149.856 67.516 149.692 67.708C149.528 67.896 149.446 68.152 149.446 68.476C149.446 68.8 149.528 69.058 149.692 69.25C149.856 69.442 150.076 69.538 150.352 69.538ZM152.649 70V65.77H153.135V67.564C153.231 67.388 153.365 67.256 153.537 67.168C153.713 67.076 153.909 67.03 154.125 67.03C154.817 67.03 155.163 67.414 155.163 68.182V70H154.677V68.212C154.677 67.94 154.623 67.742 154.515 67.618C154.411 67.49 154.243 67.426 154.011 67.426C153.743 67.426 153.529 67.51 153.369 67.678C153.213 67.842 153.135 68.062 153.135 68.338V70H152.649ZM157.23 70.054C156.886 70.054 156.628 69.964 156.456 69.784C156.284 69.6 156.198 69.336 156.198 68.992V67.462H155.628V67.084H156.198V66.19H156.684V67.084H157.608V67.462H156.684V68.944C156.684 69.172 156.732 69.346 156.828 69.466C156.924 69.582 157.08 69.64 157.296 69.64C157.36 69.64 157.424 69.632 157.488 69.616C157.552 69.6 157.61 69.584 157.662 69.568L157.746 69.94C157.694 69.968 157.618 69.994 157.518 70.018C157.418 70.042 157.322 70.054 157.23 70.054ZM159.141 70.054C158.913 70.054 158.697 70.022 158.493 69.958C158.289 69.894 158.121 69.804 157.989 69.688L158.145 69.346C158.289 69.462 158.447 69.548 158.619 69.604C158.795 69.656 158.973 69.682 159.153 69.682C159.381 69.682 159.553 69.64 159.669 69.556C159.785 69.472 159.843 69.358 159.843 69.214C159.843 69.102 159.805 69.014 159.729 68.95C159.653 68.882 159.533 68.83 159.369 68.794L158.823 68.674C158.327 68.566 158.079 68.31 158.079 67.906C158.079 67.642 158.183 67.43 158.391 67.27C158.603 67.11 158.879 67.03 159.219 67.03C159.419 67.03 159.609 67.062 159.789 67.126C159.973 67.186 160.125 67.276 160.245 67.396L160.083 67.738C159.967 67.63 159.831 67.548 159.675 67.492C159.523 67.432 159.371 67.402 159.219 67.402C158.995 67.402 158.825 67.446 158.709 67.534C158.593 67.622 158.535 67.738 158.535 67.882C158.535 68.106 158.683 68.25 158.979 68.314L159.525 68.428C159.781 68.484 159.975 68.574 160.107 68.698C160.239 68.818 160.305 68.982 160.305 69.19C160.305 69.458 160.199 69.67 159.987 69.826C159.775 69.978 159.493 70.054 159.141 70.054Z" fill="#333333"/>
</svg>
