<svg width="280" height="39" viewBox="0 0 280 39" fill="none" xmlns="http://www.w3.org/2000/svg">
<mask id="path-1-inside-1_13_305" fill="white">
<path d="M0 0H280V39H0V0Z"/>
</mask>
<path d="M0 0H280V39H0V0Z" fill="white"/>
<path d="M0 1H280V-1H0V1Z" fill="#BFBFBF" mask="url(#path-1-inside-1_13_305)"/>
<path d="M93.522 14V9.77H96.168V10.196H94.014V14H93.522ZM95.7145 14.066L95.5345 13.682C95.7145 13.606 95.8565 13.5 95.9605 13.364C96.0645 13.224 96.1365 13.032 96.1765 12.788C96.2205 12.544 96.2425 12.224 96.2425 11.828V11.084H98.3605V14H97.8745V11.474H96.6985V11.846C96.6985 12.302 96.6645 12.678 96.5965 12.974C96.5325 13.27 96.4285 13.504 96.2845 13.676C96.1405 13.848 95.9505 13.978 95.7145 14.066ZM100.246 14.054C100.046 14.054 99.8658 14.016 99.7058 13.94C99.5498 13.86 99.4258 13.752 99.3338 13.616C99.2418 13.48 99.1958 13.328 99.1958 13.16C99.1958 12.948 99.2498 12.78 99.3578 12.656C99.4698 12.532 99.6518 12.444 99.9038 12.392C100.16 12.336 100.508 12.308 100.948 12.308H101.14V12.122C101.14 11.874 101.088 11.696 100.984 11.588C100.884 11.476 100.722 11.42 100.498 11.42C100.322 11.42 100.152 11.446 99.9878 11.498C99.8238 11.546 99.6558 11.626 99.4838 11.738L99.3158 11.384C99.4678 11.276 99.6518 11.19 99.8678 11.126C100.088 11.062 100.298 11.03 100.498 11.03C100.874 11.03 101.152 11.122 101.332 11.306C101.516 11.49 101.608 11.776 101.608 12.164V14H101.152V13.496C101.076 13.668 100.958 13.804 100.798 13.904C100.642 14.004 100.458 14.054 100.246 14.054ZM100.324 13.688C100.564 13.688 100.76 13.606 100.912 13.442C101.064 13.274 101.14 13.062 101.14 12.806V12.626H100.954C100.63 12.626 100.374 12.642 100.186 12.674C100.002 12.702 99.8718 12.754 99.7958 12.83C99.7238 12.902 99.6878 13.002 99.6878 13.13C99.6878 13.294 99.7438 13.428 99.8558 13.532C99.9718 13.636 100.128 13.688 100.324 13.688ZM102.556 14V11.084H103.978C104.322 11.084 104.576 11.15 104.74 11.282C104.904 11.41 104.986 11.6 104.986 11.852C104.986 12.004 104.942 12.136 104.854 12.248C104.77 12.36 104.654 12.442 104.506 12.494C104.686 12.538 104.826 12.622 104.926 12.746C105.03 12.87 105.082 13.02 105.082 13.196C105.082 13.444 104.99 13.64 104.806 13.784C104.622 13.928 104.362 14 104.026 14H102.556ZM103.018 12.35H103.954C104.138 12.35 104.28 12.31 104.38 12.23C104.48 12.146 104.53 12.028 104.53 11.876C104.53 11.728 104.48 11.614 104.38 11.534C104.28 11.454 104.138 11.414 103.954 11.414H103.018V12.35ZM103.018 13.67H104.008C104.208 13.67 104.36 13.628 104.464 13.544C104.568 13.46 104.62 13.336 104.62 13.172C104.62 13.012 104.568 12.89 104.464 12.806C104.36 12.722 104.208 12.68 104.008 12.68H103.018V13.67ZM105.837 14V11.084H106.323V12.296H107.913V11.084H108.399V14H107.913V12.692H106.323V14H105.837ZM110.283 14.054C110.083 14.054 109.903 14.016 109.743 13.94C109.587 13.86 109.463 13.752 109.371 13.616C109.279 13.48 109.233 13.328 109.233 13.16C109.233 12.948 109.287 12.78 109.395 12.656C109.507 12.532 109.689 12.444 109.941 12.392C110.197 12.336 110.545 12.308 110.985 12.308H111.177V12.122C111.177 11.874 111.125 11.696 111.021 11.588C110.921 11.476 110.759 11.42 110.535 11.42C110.359 11.42 110.189 11.446 110.025 11.498C109.861 11.546 109.693 11.626 109.521 11.738L109.353 11.384C109.505 11.276 109.689 11.19 109.905 11.126C110.125 11.062 110.335 11.03 110.535 11.03C110.911 11.03 111.189 11.122 111.369 11.306C111.553 11.49 111.645 11.776 111.645 12.164V14H111.189V13.496C111.113 13.668 110.995 13.804 110.835 13.904C110.679 14.004 110.495 14.054 110.283 14.054ZM110.361 13.688C110.601 13.688 110.797 13.606 110.949 13.442C111.101 13.274 111.177 13.062 111.177 12.806V12.626H110.991C110.667 12.626 110.411 12.642 110.223 12.674C110.039 12.702 109.909 12.754 109.833 12.83C109.761 12.902 109.725 13.002 109.725 13.13C109.725 13.294 109.781 13.428 109.893 13.532C110.009 13.636 110.165 13.688 110.361 13.688ZM112.353 14L112.803 13.22C112.923 13.008 113.077 12.87 113.265 12.806C113.017 12.77 112.825 12.68 112.689 12.536C112.553 12.388 112.485 12.196 112.485 11.96C112.485 11.692 112.573 11.48 112.749 11.324C112.929 11.164 113.197 11.084 113.553 11.084H114.867V14H114.405V12.89H113.979C113.819 12.89 113.683 12.93 113.571 13.01C113.463 13.09 113.375 13.188 113.307 13.304L112.911 14H112.353ZM113.643 12.536H114.405V11.426H113.643C113.407 11.426 113.233 11.476 113.121 11.576C113.009 11.672 112.953 11.806 112.953 11.978C112.953 12.154 113.009 12.292 113.121 12.392C113.233 12.488 113.407 12.536 113.643 12.536Z" fill="black"/>
<path d="M119.522 14V9.77H120.014V11.654H120.758L122 9.77H122.558L121.244 11.726C121.42 11.786 121.574 11.884 121.706 12.02C121.842 12.152 121.962 12.322 122.066 12.53L122.78 14H122.24L121.658 12.758C121.542 12.514 121.408 12.34 121.256 12.236C121.104 12.132 120.918 12.08 120.698 12.08H120.014V14H119.522ZM124.248 14.054C124.048 14.054 123.868 14.016 123.708 13.94C123.552 13.86 123.428 13.752 123.336 13.616C123.244 13.48 123.198 13.328 123.198 13.16C123.198 12.948 123.252 12.78 123.36 12.656C123.472 12.532 123.654 12.444 123.906 12.392C124.162 12.336 124.51 12.308 124.95 12.308H125.142V12.122C125.142 11.874 125.09 11.696 124.986 11.588C124.886 11.476 124.724 11.42 124.5 11.42C124.324 11.42 124.154 11.446 123.99 11.498C123.826 11.546 123.658 11.626 123.486 11.738L123.318 11.384C123.47 11.276 123.654 11.19 123.87 11.126C124.09 11.062 124.3 11.03 124.5 11.03C124.876 11.03 125.154 11.122 125.334 11.306C125.518 11.49 125.61 11.776 125.61 12.164V14H125.154V13.496C125.078 13.668 124.96 13.804 124.8 13.904C124.644 14.004 124.46 14.054 124.248 14.054ZM124.326 13.688C124.566 13.688 124.762 13.606 124.914 13.442C125.066 13.274 125.142 13.062 125.142 12.806V12.626H124.956C124.632 12.626 124.376 12.642 124.188 12.674C124.004 12.702 123.874 12.754 123.798 12.83C123.726 12.902 123.69 13.002 123.69 13.13C123.69 13.294 123.746 13.428 123.858 13.532C123.974 13.636 124.13 13.688 124.326 13.688ZM127.164 14V11.474H126.108V11.084H128.712V11.474H127.65V14H127.164ZM130.148 14.054C129.948 14.054 129.768 14.016 129.608 13.94C129.452 13.86 129.328 13.752 129.236 13.616C129.144 13.48 129.098 13.328 129.098 13.16C129.098 12.948 129.152 12.78 129.26 12.656C129.372 12.532 129.554 12.444 129.806 12.392C130.062 12.336 130.41 12.308 130.85 12.308H131.042V12.122C131.042 11.874 130.99 11.696 130.886 11.588C130.786 11.476 130.624 11.42 130.4 11.42C130.224 11.42 130.054 11.446 129.89 11.498C129.726 11.546 129.558 11.626 129.386 11.738L129.218 11.384C129.37 11.276 129.554 11.19 129.77 11.126C129.99 11.062 130.2 11.03 130.4 11.03C130.776 11.03 131.054 11.122 131.234 11.306C131.418 11.49 131.51 11.776 131.51 12.164V14H131.054V13.496C130.978 13.668 130.86 13.804 130.7 13.904C130.544 14.004 130.36 14.054 130.148 14.054ZM130.226 13.688C130.466 13.688 130.662 13.606 130.814 13.442C130.966 13.274 131.042 13.062 131.042 12.806V12.626H130.856C130.532 12.626 130.276 12.642 130.088 12.674C129.904 12.702 129.774 12.754 129.698 12.83C129.626 12.902 129.59 13.002 129.59 13.13C129.59 13.294 129.646 13.428 129.758 13.532C129.874 13.636 130.03 13.688 130.226 13.688ZM132.297 14.066L132.117 13.682C132.297 13.606 132.439 13.5 132.543 13.364C132.647 13.224 132.719 13.032 132.759 12.788C132.803 12.544 132.825 12.224 132.825 11.828V11.084H134.943V14H134.457V11.474H133.281V11.846C133.281 12.302 133.247 12.678 133.179 12.974C133.115 13.27 133.011 13.504 132.867 13.676C132.723 13.848 132.533 13.978 132.297 14.066ZM137.122 14.054C136.838 14.054 136.592 13.992 136.384 13.868C136.176 13.744 136.014 13.57 135.898 13.346C135.786 13.118 135.73 12.85 135.73 12.542C135.73 12.234 135.786 11.968 135.898 11.744C136.014 11.516 136.176 11.34 136.384 11.216C136.592 11.092 136.838 11.03 137.122 11.03C137.402 11.03 137.646 11.092 137.854 11.216C138.066 11.34 138.228 11.516 138.34 11.744C138.456 11.968 138.514 12.234 138.514 12.542C138.514 12.85 138.456 13.118 138.34 13.346C138.228 13.57 138.066 13.744 137.854 13.868C137.646 13.992 137.402 14.054 137.122 14.054ZM137.122 13.664C137.394 13.664 137.612 13.568 137.776 13.376C137.94 13.18 138.022 12.902 138.022 12.542C138.022 12.178 137.94 11.9 137.776 11.708C137.612 11.516 137.394 11.42 137.122 11.42C136.846 11.42 136.626 11.516 136.462 11.708C136.302 11.9 136.222 12.178 136.222 12.542C136.222 12.902 136.302 13.18 136.462 13.376C136.626 13.568 136.846 13.664 137.122 13.664ZM139.302 14V11.084H141.348V11.474H139.788V14H139.302Z" fill="black"/>
<path d="M147.298 14.054C146.906 14.054 146.564 13.966 146.272 13.79C145.984 13.61 145.76 13.358 145.6 13.034C145.444 12.71 145.366 12.326 145.366 11.882C145.366 11.438 145.444 11.054 145.6 10.73C145.756 10.406 145.978 10.156 146.266 9.98C146.558 9.804 146.902 9.716 147.298 9.716C147.698 9.716 148.042 9.804 148.33 9.98C148.622 10.156 148.846 10.406 149.002 10.73C149.162 11.05 149.242 11.432 149.242 11.876C149.242 12.32 149.162 12.706 149.002 13.034C148.842 13.358 148.616 13.61 148.324 13.79C148.036 13.966 147.694 14.054 147.298 14.054ZM147.298 13.616C147.75 13.616 148.1 13.464 148.348 13.16C148.596 12.856 148.72 12.43 148.72 11.882C148.72 11.334 148.596 10.91 148.348 10.61C148.1 10.306 147.75 10.154 147.298 10.154C146.854 10.154 146.508 10.306 146.26 10.61C146.012 10.91 145.888 11.334 145.888 11.882C145.888 12.426 146.012 12.852 146.26 13.16C146.508 13.464 146.854 13.616 147.298 13.616ZM151.621 14V11.084H152.107V12.296H153.697V11.084H154.183V14H153.697V12.692H152.107V14H151.621ZM156.066 14.054C155.866 14.054 155.686 14.016 155.526 13.94C155.37 13.86 155.246 13.752 155.154 13.616C155.062 13.48 155.016 13.328 155.016 13.16C155.016 12.948 155.07 12.78 155.178 12.656C155.29 12.532 155.472 12.444 155.724 12.392C155.98 12.336 156.328 12.308 156.768 12.308H156.96V12.122C156.96 11.874 156.908 11.696 156.804 11.588C156.704 11.476 156.542 11.42 156.318 11.42C156.142 11.42 155.972 11.446 155.808 11.498C155.644 11.546 155.476 11.626 155.304 11.738L155.136 11.384C155.288 11.276 155.472 11.19 155.688 11.126C155.908 11.062 156.118 11.03 156.318 11.03C156.694 11.03 156.972 11.122 157.152 11.306C157.336 11.49 157.428 11.776 157.428 12.164V14H156.972V13.496C156.896 13.668 156.778 13.804 156.618 13.904C156.462 14.004 156.278 14.054 156.066 14.054ZM156.144 13.688C156.384 13.688 156.58 13.606 156.732 13.442C156.884 13.274 156.96 13.062 156.96 12.806V12.626H156.774C156.45 12.626 156.194 12.642 156.006 12.674C155.822 12.702 155.692 12.754 155.616 12.83C155.544 12.902 155.508 13.002 155.508 13.13C155.508 13.294 155.564 13.428 155.676 13.532C155.792 13.636 155.948 13.688 156.144 13.688ZM159.618 14.054C159.326 14.054 159.074 13.992 158.862 13.868C158.65 13.74 158.486 13.562 158.37 13.334C158.258 13.102 158.202 12.832 158.202 12.524C158.202 12.06 158.328 11.696 158.58 11.432C158.832 11.164 159.178 11.03 159.618 11.03C159.798 11.03 159.976 11.062 160.152 11.126C160.328 11.19 160.474 11.28 160.59 11.396L160.422 11.75C160.306 11.638 160.178 11.556 160.038 11.504C159.902 11.452 159.772 11.426 159.648 11.426C159.344 11.426 159.11 11.522 158.946 11.714C158.782 11.902 158.7 12.174 158.7 12.53C158.7 12.878 158.782 13.154 158.946 13.358C159.11 13.558 159.344 13.658 159.648 13.658C159.772 13.658 159.902 13.632 160.038 13.58C160.178 13.528 160.306 13.444 160.422 13.328L160.59 13.682C160.474 13.798 160.326 13.89 160.146 13.958C159.97 14.022 159.794 14.054 159.618 14.054Z" fill="black"/>
<path d="M164.522 14V9.77H165.014V11.654H165.758L167 9.77H167.558L166.244 11.726C166.42 11.786 166.574 11.884 166.706 12.02C166.842 12.152 166.962 12.322 167.066 12.53L167.78 14H167.24L166.658 12.758C166.542 12.514 166.408 12.34 166.256 12.236C166.104 12.132 165.918 12.08 165.698 12.08H165.014V14H164.522ZM169.507 14.054C169.223 14.054 168.977 13.992 168.769 13.868C168.561 13.744 168.399 13.57 168.283 13.346C168.171 13.118 168.115 12.85 168.115 12.542C168.115 12.234 168.171 11.968 168.283 11.744C168.399 11.516 168.561 11.34 168.769 11.216C168.977 11.092 169.223 11.03 169.507 11.03C169.787 11.03 170.031 11.092 170.239 11.216C170.451 11.34 170.613 11.516 170.725 11.744C170.841 11.968 170.899 12.234 170.899 12.542C170.899 12.85 170.841 13.118 170.725 13.346C170.613 13.57 170.451 13.744 170.239 13.868C170.031 13.992 169.787 14.054 169.507 14.054ZM169.507 13.664C169.779 13.664 169.997 13.568 170.161 13.376C170.325 13.18 170.407 12.902 170.407 12.542C170.407 12.178 170.325 11.9 170.161 11.708C169.997 11.516 169.779 11.42 169.507 11.42C169.231 11.42 169.011 11.516 168.847 11.708C168.687 11.9 168.607 12.178 168.607 12.542C168.607 12.902 168.687 13.18 168.847 13.376C169.011 13.568 169.231 13.664 169.507 13.664ZM171.687 14V11.084H172.173V12.296H173.763V11.084H174.249V14H173.763V12.692H172.173V14H171.687ZM175.815 14V11.474H174.759V11.084H177.363V11.474H176.301V14H175.815ZM178.799 14.054C178.599 14.054 178.419 14.016 178.259 13.94C178.103 13.86 177.979 13.752 177.887 13.616C177.795 13.48 177.749 13.328 177.749 13.16C177.749 12.948 177.803 12.78 177.911 12.656C178.023 12.532 178.205 12.444 178.457 12.392C178.713 12.336 179.061 12.308 179.501 12.308H179.693V12.122C179.693 11.874 179.641 11.696 179.537 11.588C179.437 11.476 179.275 11.42 179.051 11.42C178.875 11.42 178.705 11.446 178.541 11.498C178.377 11.546 178.209 11.626 178.037 11.738L177.869 11.384C178.021 11.276 178.205 11.19 178.421 11.126C178.641 11.062 178.851 11.03 179.051 11.03C179.427 11.03 179.705 11.122 179.885 11.306C180.069 11.49 180.161 11.776 180.161 12.164V14H179.705V13.496C179.629 13.668 179.511 13.804 179.351 13.904C179.195 14.004 179.011 14.054 178.799 14.054ZM178.877 13.688C179.117 13.688 179.313 13.606 179.465 13.442C179.617 13.274 179.693 13.062 179.693 12.806V12.626H179.507C179.183 12.626 178.927 12.642 178.739 12.674C178.555 12.702 178.425 12.754 178.349 12.83C178.277 12.902 178.241 13.002 178.241 13.13C178.241 13.294 178.297 13.428 178.409 13.532C178.525 13.636 178.681 13.688 178.877 13.688ZM181.109 14V11.084H181.595V12.302H182.141L183.095 11.084H183.629L182.615 12.398C182.719 12.438 182.813 12.504 182.897 12.596C182.981 12.688 183.075 12.82 183.179 12.992L183.779 14H183.257L182.729 13.118C182.629 12.946 182.533 12.832 182.441 12.776C182.349 12.72 182.219 12.692 182.051 12.692H181.595V14H181.109ZM184.873 14V11.474H183.817V11.084H186.421V11.474H185.359V14H184.873ZM186.933 14V11.084H187.419V12.122H188.301C188.673 12.122 188.955 12.204 189.147 12.368C189.339 12.528 189.435 12.756 189.435 13.052C189.435 13.344 189.335 13.576 189.135 13.748C188.939 13.916 188.661 14 188.301 14H186.933ZM189.867 14V11.084H190.353V14H189.867ZM187.419 13.652H188.253C188.477 13.652 188.651 13.604 188.775 13.508C188.903 13.412 188.967 13.262 188.967 13.058C188.967 12.858 188.905 12.71 188.781 12.614C188.657 12.518 188.481 12.47 188.253 12.47H187.419V13.652Z" fill="black"/>
<path d="M129.448 29.054C129.14 29.054 128.854 29 128.59 28.892C128.326 28.78 128.096 28.626 127.9 28.43C127.704 28.23 127.55 28 127.438 27.74C127.33 27.476 127.276 27.19 127.276 26.882C127.276 26.574 127.33 26.29 127.438 26.03C127.55 25.766 127.704 25.536 127.9 25.34C128.096 25.144 128.326 24.992 128.59 24.884C128.854 24.772 129.14 24.716 129.448 24.716C129.756 24.716 130.04 24.772 130.3 24.884C130.564 24.992 130.794 25.144 130.99 25.34C131.186 25.536 131.338 25.766 131.446 26.03C131.558 26.29 131.614 26.574 131.614 26.882C131.614 27.19 131.558 27.476 131.446 27.74C131.338 28 131.186 28.23 130.99 28.43C130.794 28.626 130.564 28.78 130.3 28.892C130.04 29 129.756 29.054 129.448 29.054ZM129.448 28.79C129.716 28.79 129.964 28.742 130.192 28.646C130.424 28.55 130.624 28.416 130.792 28.244C130.964 28.068 131.098 27.866 131.194 27.638C131.29 27.406 131.338 27.154 131.338 26.882C131.338 26.61 131.29 26.36 131.194 26.132C131.098 25.9 130.964 25.698 130.792 25.526C130.624 25.354 130.424 25.22 130.192 25.124C129.964 25.028 129.716 24.98 129.448 24.98C129.18 24.98 128.93 25.028 128.698 25.124C128.466 25.22 128.264 25.354 128.092 25.526C127.924 25.698 127.792 25.9 127.696 26.132C127.6 26.36 127.552 26.61 127.552 26.882C127.552 27.154 127.6 27.406 127.696 27.638C127.792 27.866 127.924 28.068 128.092 28.244C128.264 28.416 128.466 28.55 128.698 28.646C128.93 28.742 129.18 28.79 129.448 28.79ZM129.526 28.178C129.142 28.178 128.838 28.06 128.614 27.824C128.39 27.584 128.278 27.266 128.278 26.87C128.278 26.474 128.39 26.162 128.614 25.934C128.838 25.706 129.142 25.592 129.526 25.592C129.686 25.592 129.842 25.62 129.994 25.676C130.15 25.732 130.28 25.81 130.384 25.91L130.24 26.222C130.132 26.13 130.018 26.062 129.898 26.018C129.778 25.974 129.66 25.952 129.544 25.952C129.284 25.952 129.08 26.032 128.932 26.192C128.784 26.352 128.71 26.578 128.71 26.87C128.71 27.162 128.784 27.394 128.932 27.566C129.08 27.734 129.284 27.818 129.544 27.818C129.66 27.818 129.778 27.796 129.898 27.752C130.018 27.708 130.132 27.638 130.24 27.542L130.384 27.86C130.28 27.956 130.15 28.034 129.994 28.094C129.838 28.15 129.682 28.178 129.526 28.178ZM135.786 29.054C135.37 29.054 135.014 28.966 134.718 28.79C134.422 28.614 134.194 28.364 134.034 28.04C133.878 27.716 133.8 27.33 133.8 26.882C133.8 26.438 133.878 26.054 134.034 25.73C134.194 25.406 134.422 25.156 134.718 24.98C135.014 24.804 135.37 24.716 135.786 24.716C136.078 24.716 136.346 24.762 136.59 24.854C136.838 24.946 137.048 25.08 137.22 25.256L137.028 25.658C136.844 25.486 136.652 25.362 136.452 25.286C136.256 25.206 136.038 25.166 135.798 25.166C135.322 25.166 134.958 25.316 134.706 25.616C134.454 25.916 134.328 26.338 134.328 26.882C134.328 27.43 134.454 27.854 134.706 28.154C134.958 28.454 135.322 28.604 135.798 28.604C136.038 28.604 136.256 28.566 136.452 28.49C136.652 28.41 136.844 28.284 137.028 28.112L137.22 28.514C137.048 28.686 136.838 28.82 136.59 28.916C136.346 29.008 136.078 29.054 135.786 29.054ZM138.928 29.054C138.644 29.054 138.398 28.992 138.19 28.868C137.982 28.744 137.82 28.57 137.704 28.346C137.592 28.118 137.536 27.85 137.536 27.542C137.536 27.234 137.592 26.968 137.704 26.744C137.82 26.516 137.982 26.34 138.19 26.216C138.398 26.092 138.644 26.03 138.928 26.03C139.208 26.03 139.452 26.092 139.66 26.216C139.872 26.34 140.034 26.516 140.146 26.744C140.262 26.968 140.32 27.234 140.32 27.542C140.32 27.85 140.262 28.118 140.146 28.346C140.034 28.57 139.872 28.744 139.66 28.868C139.452 28.992 139.208 29.054 138.928 29.054ZM138.928 28.664C139.2 28.664 139.418 28.568 139.582 28.376C139.746 28.18 139.828 27.902 139.828 27.542C139.828 27.178 139.746 26.9 139.582 26.708C139.418 26.516 139.2 26.42 138.928 26.42C138.652 26.42 138.432 26.516 138.268 26.708C138.108 26.9 138.028 27.178 138.028 27.542C138.028 27.902 138.108 28.18 138.268 28.376C138.432 28.568 138.652 28.664 138.928 28.664ZM141.05 30.08V26.084H141.524V26.606C141.612 26.426 141.742 26.286 141.914 26.186C142.09 26.082 142.294 26.03 142.526 26.03C142.786 26.03 143.012 26.092 143.204 26.216C143.4 26.336 143.55 26.51 143.654 26.738C143.762 26.962 143.816 27.23 143.816 27.542C143.816 27.85 143.762 28.118 143.654 28.346C143.55 28.57 143.4 28.744 143.204 28.868C143.012 28.992 142.786 29.054 142.526 29.054C142.302 29.054 142.102 29.004 141.926 28.904C141.75 28.804 141.62 28.666 141.536 28.49V30.08H141.05ZM142.424 28.664C142.696 28.664 142.914 28.568 143.078 28.376C143.242 28.18 143.324 27.902 143.324 27.542C143.324 27.178 143.242 26.9 143.078 26.708C142.914 26.516 142.696 26.42 142.424 26.42C142.152 26.42 141.934 26.516 141.77 26.708C141.606 26.9 141.524 27.178 141.524 27.542C141.524 27.902 141.606 28.18 141.77 28.376C141.934 28.568 142.152 28.664 142.424 28.664ZM144.843 30.08L145.341 28.952L144.111 26.084H144.639L145.605 28.448L146.577 26.084H147.087L145.353 30.08H144.843ZM147.589 29V26.084H148.063V26.606C148.219 26.254 148.539 26.06 149.023 26.024L149.197 26.006L149.233 26.426L148.927 26.462C148.651 26.486 148.441 26.574 148.297 26.726C148.153 26.874 148.081 27.078 148.081 27.338V29H147.589ZM149.679 25.358V24.812H150.279V25.358H149.679ZM149.739 29V26.084H150.225V29H149.739ZM152.424 30.134C152.172 30.134 151.934 30.1 151.71 30.032C151.49 29.968 151.294 29.87 151.122 29.738L151.284 29.384C151.464 29.512 151.642 29.604 151.818 29.66C151.998 29.716 152.192 29.744 152.4 29.744C152.976 29.744 153.264 29.448 153.264 28.856V28.34C153.18 28.524 153.048 28.67 152.868 28.778C152.692 28.882 152.49 28.934 152.262 28.934C151.994 28.934 151.762 28.872 151.566 28.748C151.37 28.624 151.218 28.454 151.11 28.238C151.006 28.018 150.954 27.764 150.954 27.476C150.954 27.188 151.006 26.936 151.11 26.72C151.218 26.5 151.37 26.33 151.566 26.21C151.762 26.09 151.994 26.03 152.262 26.03C152.49 26.03 152.692 26.082 152.868 26.186C153.048 26.29 153.18 26.432 153.264 26.612V26.084H153.738V28.79C153.738 29.238 153.626 29.574 153.402 29.798C153.182 30.022 152.856 30.134 152.424 30.134ZM152.352 28.538C152.632 28.538 152.854 28.442 153.018 28.25C153.182 28.058 153.264 27.8 153.264 27.476C153.264 27.152 153.182 26.896 153.018 26.708C152.854 26.516 152.632 26.42 152.352 26.42C152.076 26.42 151.856 26.516 151.692 26.708C151.528 26.896 151.446 27.152 151.446 27.476C151.446 27.8 151.528 28.058 151.692 28.25C151.856 28.442 152.076 28.538 152.352 28.538ZM154.649 29V24.77H155.135V26.564C155.231 26.388 155.365 26.256 155.537 26.168C155.713 26.076 155.909 26.03 156.125 26.03C156.817 26.03 157.163 26.414 157.163 27.182V29H156.677V27.212C156.677 26.94 156.623 26.742 156.515 26.618C156.411 26.49 156.243 26.426 156.011 26.426C155.743 26.426 155.529 26.51 155.369 26.678C155.213 26.842 155.135 27.062 155.135 27.338V29H154.649ZM159.23 29.054C158.886 29.054 158.628 28.964 158.456 28.784C158.284 28.6 158.198 28.336 158.198 27.992V26.462H157.628V26.084H158.198V25.19H158.684V26.084H159.608V26.462H158.684V27.944C158.684 28.172 158.732 28.346 158.828 28.466C158.924 28.582 159.08 28.64 159.296 28.64C159.36 28.64 159.424 28.632 159.488 28.616C159.552 28.6 159.61 28.584 159.662 28.568L159.746 28.94C159.694 28.968 159.618 28.994 159.518 29.018C159.418 29.042 159.322 29.054 159.23 29.054ZM161.141 29.054C160.913 29.054 160.697 29.022 160.493 28.958C160.289 28.894 160.121 28.804 159.989 28.688L160.145 28.346C160.289 28.462 160.447 28.548 160.619 28.604C160.795 28.656 160.973 28.682 161.153 28.682C161.381 28.682 161.553 28.64 161.669 28.556C161.785 28.472 161.843 28.358 161.843 28.214C161.843 28.102 161.805 28.014 161.729 27.95C161.653 27.882 161.533 27.83 161.369 27.794L160.823 27.674C160.327 27.566 160.079 27.31 160.079 26.906C160.079 26.642 160.183 26.43 160.391 26.27C160.603 26.11 160.879 26.03 161.219 26.03C161.419 26.03 161.609 26.062 161.789 26.126C161.973 26.186 162.125 26.276 162.245 26.396L162.083 26.738C161.967 26.63 161.831 26.548 161.675 26.492C161.523 26.432 161.371 26.402 161.219 26.402C160.995 26.402 160.825 26.446 160.709 26.534C160.593 26.622 160.535 26.738 160.535 26.882C160.535 27.106 160.683 27.25 160.979 27.314L161.525 27.428C161.781 27.484 161.975 27.574 162.107 27.698C162.239 27.818 162.305 27.982 162.305 28.19C162.305 28.458 162.199 28.67 161.987 28.826C161.775 28.978 161.493 29.054 161.141 29.054Z" fill="#333333"/>
<line x1="10" y1="19.75" x2="269" y2="19.75" stroke="#BFBFBF" stroke-width="0.5"/>
</svg>
