<svg width="280" height="58" viewBox="0 0 280 58" fill="none" xmlns="http://www.w3.org/2000/svg">
<mask id="path-1-inside-1_13_326" fill="white">
<path d="M0 0H280V58H0V0Z"/>
</mask>
<path d="M0 0H280V58H0V0Z" fill="white"/>
<path d="M0 1H280V-1H0V1Z" fill="#BFBFBF" mask="url(#path-1-inside-1_13_326)"/>
<path d="M12.448 29.054C12.14 29.054 11.854 29 11.59 28.892C11.326 28.78 11.096 28.626 10.9 28.43C10.704 28.23 10.55 28 10.438 27.74C10.33 27.476 10.276 27.19 10.276 26.882C10.276 26.574 10.33 26.29 10.438 26.03C10.55 25.766 10.704 25.536 10.9 25.34C11.096 25.144 11.326 24.992 11.59 24.884C11.854 24.772 12.14 24.716 12.448 24.716C12.756 24.716 13.04 24.772 13.3 24.884C13.564 24.992 13.794 25.144 13.99 25.34C14.186 25.536 14.338 25.766 14.446 26.03C14.558 26.29 14.614 26.574 14.614 26.882C14.614 27.19 14.558 27.476 14.446 27.74C14.338 28 14.186 28.23 13.99 28.43C13.794 28.626 13.564 28.78 13.3 28.892C13.04 29 12.756 29.054 12.448 29.054ZM12.448 28.79C12.716 28.79 12.964 28.742 13.192 28.646C13.424 28.55 13.624 28.416 13.792 28.244C13.964 28.068 14.098 27.866 14.194 27.638C14.29 27.406 14.338 27.154 14.338 26.882C14.338 26.61 14.29 26.36 14.194 26.132C14.098 25.9 13.964 25.698 13.792 25.526C13.624 25.354 13.424 25.22 13.192 25.124C12.964 25.028 12.716 24.98 12.448 24.98C12.18 24.98 11.93 25.028 11.698 25.124C11.466 25.22 11.264 25.354 11.092 25.526C10.924 25.698 10.792 25.9 10.696 26.132C10.6 26.36 10.552 26.61 10.552 26.882C10.552 27.154 10.6 27.406 10.696 27.638C10.792 27.866 10.924 28.068 11.092 28.244C11.264 28.416 11.466 28.55 11.698 28.646C11.93 28.742 12.18 28.79 12.448 28.79ZM12.526 28.178C12.142 28.178 11.838 28.06 11.614 27.824C11.39 27.584 11.278 27.266 11.278 26.87C11.278 26.474 11.39 26.162 11.614 25.934C11.838 25.706 12.142 25.592 12.526 25.592C12.686 25.592 12.842 25.62 12.994 25.676C13.15 25.732 13.28 25.81 13.384 25.91L13.24 26.222C13.132 26.13 13.018 26.062 12.898 26.018C12.778 25.974 12.66 25.952 12.544 25.952C12.284 25.952 12.08 26.032 11.932 26.192C11.784 26.352 11.71 26.578 11.71 26.87C11.71 27.162 11.784 27.394 11.932 27.566C12.08 27.734 12.284 27.818 12.544 27.818C12.66 27.818 12.778 27.796 12.898 27.752C13.018 27.708 13.132 27.638 13.24 27.542L13.384 27.86C13.28 27.956 13.15 28.034 12.994 28.094C12.838 28.15 12.682 28.178 12.526 28.178ZM18.7856 29.054C18.3696 29.054 18.0136 28.966 17.7176 28.79C17.4216 28.614 17.1936 28.364 17.0336 28.04C16.8776 27.716 16.7996 27.33 16.7996 26.882C16.7996 26.438 16.8776 26.054 17.0336 25.73C17.1936 25.406 17.4216 25.156 17.7176 24.98C18.0136 24.804 18.3696 24.716 18.7856 24.716C19.0776 24.716 19.3456 24.762 19.5896 24.854C19.8376 24.946 20.0476 25.08 20.2196 25.256L20.0276 25.658C19.8436 25.486 19.6516 25.362 19.4516 25.286C19.2556 25.206 19.0376 25.166 18.7976 25.166C18.3216 25.166 17.9576 25.316 17.7056 25.616C17.4536 25.916 17.3276 26.338 17.3276 26.882C17.3276 27.43 17.4536 27.854 17.7056 28.154C17.9576 28.454 18.3216 28.604 18.7976 28.604C19.0376 28.604 19.2556 28.566 19.4516 28.49C19.6516 28.41 19.8436 28.284 20.0276 28.112L20.2196 28.514C20.0476 28.686 19.8376 28.82 19.5896 28.916C19.3456 29.008 19.0776 29.054 18.7856 29.054ZM21.9278 29.054C21.6438 29.054 21.3978 28.992 21.1898 28.868C20.9818 28.744 20.8198 28.57 20.7038 28.346C20.5918 28.118 20.5358 27.85 20.5358 27.542C20.5358 27.234 20.5918 26.968 20.7038 26.744C20.8198 26.516 20.9818 26.34 21.1898 26.216C21.3978 26.092 21.6438 26.03 21.9278 26.03C22.2078 26.03 22.4518 26.092 22.6598 26.216C22.8718 26.34 23.0338 26.516 23.1458 26.744C23.2618 26.968 23.3198 27.234 23.3198 27.542C23.3198 27.85 23.2618 28.118 23.1458 28.346C23.0338 28.57 22.8718 28.744 22.6598 28.868C22.4518 28.992 22.2078 29.054 21.9278 29.054ZM21.9278 28.664C22.1998 28.664 22.4178 28.568 22.5818 28.376C22.7458 28.18 22.8278 27.902 22.8278 27.542C22.8278 27.178 22.7458 26.9 22.5818 26.708C22.4178 26.516 22.1998 26.42 21.9278 26.42C21.6518 26.42 21.4318 26.516 21.2678 26.708C21.1078 26.9 21.0278 27.178 21.0278 27.542C21.0278 27.902 21.1078 28.18 21.2678 28.376C21.4318 28.568 21.6518 28.664 21.9278 28.664ZM24.0498 30.08V26.084H24.5238V26.606C24.6118 26.426 24.7418 26.286 24.9138 26.186C25.0898 26.082 25.2938 26.03 25.5258 26.03C25.7858 26.03 26.0118 26.092 26.2038 26.216C26.3998 26.336 26.5498 26.51 26.6538 26.738C26.7618 26.962 26.8158 27.23 26.8158 27.542C26.8158 27.85 26.7618 28.118 26.6538 28.346C26.5498 28.57 26.3998 28.744 26.2038 28.868C26.0118 28.992 25.7858 29.054 25.5258 29.054C25.3018 29.054 25.1018 29.004 24.9258 28.904C24.7498 28.804 24.6198 28.666 24.5358 28.49V30.08H24.0498ZM25.4238 28.664C25.6958 28.664 25.9138 28.568 26.0778 28.376C26.2418 28.18 26.3238 27.902 26.3238 27.542C26.3238 27.178 26.2418 26.9 26.0778 26.708C25.9138 26.516 25.6958 26.42 25.4238 26.42C25.1518 26.42 24.9338 26.516 24.7698 26.708C24.6058 26.9 24.5238 27.178 24.5238 27.542C24.5238 27.902 24.6058 28.18 24.7698 28.376C24.9338 28.568 25.1518 28.664 25.4238 28.664ZM27.8428 30.08L28.3408 28.952L27.1108 26.084H27.6388L28.6048 28.448L29.5768 26.084H30.0868L28.3528 30.08H27.8428ZM30.5888 29V26.084H31.0628V26.606C31.2188 26.254 31.5388 26.06 32.0228 26.024L32.1968 26.006L32.2328 26.426L31.9268 26.462C31.6508 26.486 31.4408 26.574 31.2968 26.726C31.1528 26.874 31.0808 27.078 31.0808 27.338V29H30.5888ZM32.6792 25.358V24.812H33.2792V25.358H32.6792ZM32.7392 29V26.084H33.2252V29H32.7392ZM35.4237 30.134C35.1717 30.134 34.9337 30.1 34.7097 30.032C34.4897 29.968 34.2937 29.87 34.1217 29.738L34.2837 29.384C34.4637 29.512 34.6417 29.604 34.8177 29.66C34.9977 29.716 35.1917 29.744 35.3997 29.744C35.9757 29.744 36.2637 29.448 36.2637 28.856V28.34C36.1797 28.524 36.0477 28.67 35.8677 28.778C35.6917 28.882 35.4897 28.934 35.2617 28.934C34.9937 28.934 34.7617 28.872 34.5657 28.748C34.3697 28.624 34.2177 28.454 34.1097 28.238C34.0057 28.018 33.9537 27.764 33.9537 27.476C33.9537 27.188 34.0057 26.936 34.1097 26.72C34.2177 26.5 34.3697 26.33 34.5657 26.21C34.7617 26.09 34.9937 26.03 35.2617 26.03C35.4897 26.03 35.6917 26.082 35.8677 26.186C36.0477 26.29 36.1797 26.432 36.2637 26.612V26.084H36.7377V28.79C36.7377 29.238 36.6257 29.574 36.4017 29.798C36.1817 30.022 35.8557 30.134 35.4237 30.134ZM35.3517 28.538C35.6317 28.538 35.8537 28.442 36.0177 28.25C36.1817 28.058 36.2637 27.8 36.2637 27.476C36.2637 27.152 36.1817 26.896 36.0177 26.708C35.8537 26.516 35.6317 26.42 35.3517 26.42C35.0757 26.42 34.8557 26.516 34.6917 26.708C34.5277 26.896 34.4457 27.152 34.4457 27.476C34.4457 27.8 34.5277 28.058 34.6917 28.25C34.8557 28.442 35.0757 28.538 35.3517 28.538ZM37.6494 29V24.77H38.1354V26.564C38.2314 26.388 38.3654 26.256 38.5374 26.168C38.7134 26.076 38.9094 26.03 39.1254 26.03C39.8174 26.03 40.1634 26.414 40.1634 27.182V29H39.6774V27.212C39.6774 26.94 39.6234 26.742 39.5154 26.618C39.4114 26.49 39.2434 26.426 39.0114 26.426C38.7434 26.426 38.5294 26.51 38.3694 26.678C38.2134 26.842 38.1354 27.062 38.1354 27.338V29H37.6494ZM42.2295 29.054C41.8855 29.054 41.6275 28.964 41.4555 28.784C41.2835 28.6 41.1975 28.336 41.1975 27.992V26.462H40.6275V26.084H41.1975V25.19H41.6835V26.084H42.6075V26.462H41.6835V27.944C41.6835 28.172 41.7315 28.346 41.8275 28.466C41.9235 28.582 42.0795 28.64 42.2955 28.64C42.3595 28.64 42.4235 28.632 42.4875 28.616C42.5515 28.6 42.6095 28.584 42.6615 28.568L42.7455 28.94C42.6935 28.968 42.6175 28.994 42.5175 29.018C42.4175 29.042 42.3215 29.054 42.2295 29.054ZM44.1412 29.054C43.9132 29.054 43.6972 29.022 43.4932 28.958C43.2892 28.894 43.1212 28.804 42.9892 28.688L43.1452 28.346C43.2892 28.462 43.4472 28.548 43.6192 28.604C43.7952 28.656 43.9732 28.682 44.1532 28.682C44.3812 28.682 44.5532 28.64 44.6692 28.556C44.7852 28.472 44.8432 28.358 44.8432 28.214C44.8432 28.102 44.8052 28.014 44.7292 27.95C44.6532 27.882 44.5332 27.83 44.3692 27.794L43.8232 27.674C43.3272 27.566 43.0792 27.31 43.0792 26.906C43.0792 26.642 43.1832 26.43 43.3912 26.27C43.6032 26.11 43.8792 26.03 44.2192 26.03C44.4192 26.03 44.6092 26.062 44.7892 26.126C44.9732 26.186 45.1252 26.276 45.2452 26.396L45.0832 26.738C44.9672 26.63 44.8312 26.548 44.6752 26.492C44.5232 26.432 44.3712 26.402 44.2192 26.402C43.9952 26.402 43.8252 26.446 43.7092 26.534C43.5932 26.622 43.5352 26.738 43.5352 26.882C43.5352 27.106 43.6832 27.25 43.9792 27.314L44.5252 27.428C44.7812 27.484 44.9752 27.574 45.1072 27.698C45.2392 27.818 45.3052 27.982 45.3052 28.19C45.3052 28.458 45.1992 28.67 44.9872 28.826C44.7752 28.978 44.4932 29.054 44.1412 29.054Z" fill="#333333"/>
<path d="M10.56 17.15L10.17 16.5C10.4367 16.36 10.6733 16.19 10.88 15.99C11.0867 15.79 11.2633 15.5267 11.41 15.2C11.5567 14.8733 11.67 14.46 11.75 13.96C11.83 13.4533 11.87 12.8233 11.87 12.07V9.95H16.54V17H15.71V10.66H12.63V12.28C12.63 13.26 12.55 14.07 12.39 14.71C12.23 15.3433 11.9933 15.8533 11.68 16.24C11.3733 16.6267 11 16.93 10.56 17.15ZM20.2421 17.09C19.7688 17.09 19.3588 16.9867 19.0121 16.78C18.6654 16.5733 18.3954 16.2833 18.2021 15.91C18.0154 15.53 17.9221 15.0833 17.9221 14.57C17.9221 14.0567 18.0154 13.6133 18.2021 13.24C18.3954 12.86 18.6654 12.5667 19.0121 12.36C19.3588 12.1533 19.7688 12.05 20.2421 12.05C20.7088 12.05 21.1154 12.1533 21.4621 12.36C21.8154 12.5667 22.0854 12.86 22.2721 13.24C22.4654 13.6133 22.5621 14.0567 22.5621 14.57C22.5621 15.0833 22.4654 15.53 22.2721 15.91C22.0854 16.2833 21.8154 16.5733 21.4621 16.78C21.1154 16.9867 20.7088 17.09 20.2421 17.09ZM20.2421 16.44C20.6954 16.44 21.0588 16.28 21.3321 15.96C21.6054 15.6333 21.7421 15.17 21.7421 14.57C21.7421 13.9633 21.6054 13.5 21.3321 13.18C21.0588 12.86 20.6954 12.7 20.2421 12.7C19.7821 12.7 19.4154 12.86 19.1421 13.18C18.8754 13.5 18.7421 13.9633 18.7421 14.57C18.7421 15.17 18.8754 15.6333 19.1421 15.96C19.4154 16.28 19.7821 16.44 20.2421 16.44ZM23.8762 17V12.14H27.2862V12.79H24.6862V17H23.8762ZM30.2519 17.09C29.7785 17.09 29.3685 16.9867 29.0219 16.78C28.6752 16.5733 28.4052 16.2833 28.2119 15.91C28.0252 15.53 27.9319 15.0833 27.9319 14.57C27.9319 14.0567 28.0252 13.6133 28.2119 13.24C28.4052 12.86 28.6752 12.5667 29.0219 12.36C29.3685 12.1533 29.7785 12.05 30.2519 12.05C30.7185 12.05 31.1252 12.1533 31.4719 12.36C31.8252 12.5667 32.0952 12.86 32.2819 13.24C32.4752 13.6133 32.5719 14.0567 32.5719 14.57C32.5719 15.0833 32.4752 15.53 32.2819 15.91C32.0952 16.2833 31.8252 16.5733 31.4719 16.78C31.1252 16.9867 30.7185 17.09 30.2519 17.09ZM30.2519 16.44C30.7052 16.44 31.0685 16.28 31.3419 15.96C31.6152 15.6333 31.7519 15.17 31.7519 14.57C31.7519 13.9633 31.6152 13.5 31.3419 13.18C31.0685 12.86 30.7052 12.7 30.2519 12.7C29.7919 12.7 29.4252 12.86 29.1519 13.18C28.8852 13.5 28.7519 13.9633 28.7519 14.57C28.7519 15.17 28.8852 15.6333 29.1519 15.96C29.4252 16.28 29.7919 16.44 30.2519 16.44ZM34.8959 17V12.79H33.1359V12.14H37.4759V12.79H35.7059V17H34.8959ZM38.3293 17V12.14H39.0693V15.9L41.8793 12.14H42.5693V17H41.8293V13.24L39.0193 17H38.3293ZM44.1691 17V12.14H48.4091V17H47.5991V12.79H44.9791V17H44.1691Z" fill="#333333"/>
<path d="M143.696 17V11.36H147.224V11.928H144.352V17H143.696ZM146.619 17.088L146.379 16.576C146.619 16.4747 146.809 16.3333 146.947 16.152C147.086 15.9653 147.182 15.7093 147.235 15.384C147.294 15.0587 147.323 14.632 147.323 14.104V13.112H150.147V17H149.499V13.632H147.931V14.128C147.931 14.736 147.886 15.2373 147.795 15.632C147.71 16.0267 147.571 16.3387 147.379 16.568C147.187 16.7973 146.934 16.9707 146.619 17.088ZM152.661 17.072C152.394 17.072 152.154 17.0213 151.941 16.92C151.733 16.8133 151.568 16.6693 151.445 16.488C151.322 16.3067 151.261 16.104 151.261 15.88C151.261 15.5973 151.333 15.3733 151.477 15.208C151.626 15.0427 151.869 14.9253 152.205 14.856C152.546 14.7813 153.01 14.744 153.597 14.744H153.853V14.496C153.853 14.1653 153.784 13.928 153.645 13.784C153.512 13.6347 153.296 13.56 152.997 13.56C152.762 13.56 152.536 13.5947 152.317 13.664C152.098 13.728 151.874 13.8347 151.645 13.984L151.421 13.512C151.624 13.368 151.869 13.2533 152.157 13.168C152.45 13.0827 152.73 13.04 152.997 13.04C153.498 13.04 153.869 13.1627 154.109 13.408C154.354 13.6533 154.477 14.0347 154.477 14.552V17H153.869V16.328C153.768 16.5573 153.61 16.7387 153.397 16.872C153.189 17.0053 152.944 17.072 152.661 17.072ZM152.765 16.584C153.085 16.584 153.346 16.4747 153.549 16.256C153.752 16.032 153.853 15.7493 153.853 15.408V15.168H153.605C153.173 15.168 152.832 15.1893 152.581 15.232C152.336 15.2693 152.162 15.3387 152.061 15.44C151.965 15.536 151.917 15.6693 151.917 15.84C151.917 16.0587 151.992 16.2373 152.141 16.376C152.296 16.5147 152.504 16.584 152.765 16.584ZM155.742 17V13.112H157.638C158.096 13.112 158.435 13.2 158.654 13.376C158.872 13.5467 158.982 13.8 158.982 14.136C158.982 14.3387 158.923 14.5147 158.806 14.664C158.694 14.8133 158.539 14.9227 158.342 14.992C158.582 15.0507 158.768 15.1627 158.902 15.328C159.04 15.4933 159.11 15.6933 159.11 15.928C159.11 16.2587 158.987 16.52 158.742 16.712C158.496 16.904 158.15 17 157.702 17H155.742ZM156.358 14.8H157.606C157.851 14.8 158.04 14.7467 158.174 14.64C158.307 14.528 158.374 14.3707 158.374 14.168C158.374 13.9707 158.307 13.8187 158.174 13.712C158.04 13.6053 157.851 13.552 157.606 13.552H156.358V14.8ZM156.358 16.56H157.678C157.944 16.56 158.147 16.504 158.286 16.392C158.424 16.28 158.494 16.1147 158.494 15.896C158.494 15.6827 158.424 15.52 158.286 15.408C158.147 15.296 157.944 15.24 157.678 15.24H156.358V16.56ZM160.117 17V13.112H160.765V14.728H162.885V13.112H163.533V17H162.885V15.256H160.765V17H160.117ZM166.044 17.072C165.777 17.072 165.537 17.0213 165.324 16.92C165.116 16.8133 164.951 16.6693 164.828 16.488C164.705 16.3067 164.644 16.104 164.644 15.88C164.644 15.5973 164.716 15.3733 164.86 15.208C165.009 15.0427 165.252 14.9253 165.588 14.856C165.929 14.7813 166.393 14.744 166.98 14.744H167.236V14.496C167.236 14.1653 167.167 13.928 167.028 13.784C166.895 13.6347 166.679 13.56 166.38 13.56C166.145 13.56 165.919 13.5947 165.7 13.664C165.481 13.728 165.257 13.8347 165.028 13.984L164.804 13.512C165.007 13.368 165.252 13.2533 165.54 13.168C165.833 13.0827 166.113 13.04 166.38 13.04C166.881 13.04 167.252 13.1627 167.492 13.408C167.737 13.6533 167.86 14.0347 167.86 14.552V17H167.252V16.328C167.151 16.5573 166.993 16.7387 166.78 16.872C166.572 17.0053 166.327 17.072 166.044 17.072ZM166.148 16.584C166.468 16.584 166.729 16.4747 166.932 16.256C167.135 16.032 167.236 15.7493 167.236 15.408V15.168H166.988C166.556 15.168 166.215 15.1893 165.964 15.232C165.719 15.2693 165.545 15.3387 165.444 15.44C165.348 15.536 165.3 15.6693 165.3 15.84C165.3 16.0587 165.375 16.2373 165.524 16.376C165.679 16.5147 165.887 16.584 166.148 16.584ZM168.804 17L169.404 15.96C169.564 15.6773 169.77 15.4933 170.02 15.408C169.69 15.36 169.434 15.24 169.252 15.048C169.071 14.8507 168.98 14.5947 168.98 14.28C168.98 13.9227 169.098 13.64 169.332 13.432C169.572 13.2187 169.93 13.112 170.404 13.112H172.156V17H171.54V15.52H170.972C170.759 15.52 170.578 15.5733 170.428 15.68C170.284 15.7867 170.167 15.9173 170.076 16.072L169.548 17H168.804ZM170.524 15.048H171.54V13.568H170.524C170.21 13.568 169.978 13.6347 169.828 13.768C169.679 13.896 169.604 14.0747 169.604 14.304C169.604 14.5387 169.679 14.7227 169.828 14.856C169.978 14.984 170.21 15.048 170.524 15.048Z" fill="black"/>
<path d="M143.696 27V21.36H144.352V23.872H145.344L147 21.36H147.744L145.992 23.968C146.227 24.048 146.432 24.1787 146.608 24.36C146.789 24.536 146.949 24.7627 147.088 25.04L148.04 27H147.32L146.544 25.344C146.389 25.0187 146.211 24.7867 146.008 24.648C145.805 24.5093 145.557 24.44 145.264 24.44H144.352V27H143.696ZM149.997 27.072C149.73 27.072 149.49 27.0213 149.277 26.92C149.069 26.8133 148.904 26.6693 148.781 26.488C148.658 26.3067 148.597 26.104 148.597 25.88C148.597 25.5973 148.669 25.3733 148.813 25.208C148.962 25.0427 149.205 24.9253 149.541 24.856C149.882 24.7813 150.346 24.744 150.933 24.744H151.189V24.496C151.189 24.1653 151.12 23.928 150.981 23.784C150.848 23.6347 150.632 23.56 150.333 23.56C150.098 23.56 149.872 23.5947 149.653 23.664C149.434 23.728 149.21 23.8347 148.981 23.984L148.757 23.512C148.96 23.368 149.205 23.2533 149.493 23.168C149.786 23.0827 150.066 23.04 150.333 23.04C150.834 23.04 151.205 23.1627 151.445 23.408C151.69 23.6533 151.813 24.0347 151.813 24.552V27H151.205V26.328C151.104 26.5573 150.946 26.7387 150.733 26.872C150.525 27.0053 150.28 27.072 149.997 27.072ZM150.101 26.584C150.421 26.584 150.682 26.4747 150.885 26.256C151.088 26.032 151.189 25.7493 151.189 25.408V25.168H150.941C150.509 25.168 150.168 25.1893 149.917 25.232C149.672 25.2693 149.498 25.3387 149.397 25.44C149.301 25.536 149.253 25.6693 149.253 25.84C149.253 26.0587 149.328 26.2373 149.477 26.376C149.632 26.5147 149.84 26.584 150.101 26.584ZM153.886 27V23.632H152.478V23.112H155.95V23.632H154.534V27H153.886ZM157.864 27.072C157.598 27.072 157.358 27.0213 157.144 26.92C156.936 26.8133 156.771 26.6693 156.648 26.488C156.526 26.3067 156.464 26.104 156.464 25.88C156.464 25.5973 156.536 25.3733 156.68 25.208C156.83 25.0427 157.072 24.9253 157.408 24.856C157.75 24.7813 158.214 24.744 158.8 24.744H159.056V24.496C159.056 24.1653 158.987 23.928 158.848 23.784C158.715 23.6347 158.499 23.56 158.2 23.56C157.966 23.56 157.739 23.5947 157.52 23.664C157.302 23.728 157.078 23.8347 156.848 23.984L156.624 23.512C156.827 23.368 157.072 23.2533 157.36 23.168C157.654 23.0827 157.934 23.04 158.2 23.04C158.702 23.04 159.072 23.1627 159.312 23.408C159.558 23.6533 159.68 24.0347 159.68 24.552V27H159.072V26.328C158.971 26.5573 158.814 26.7387 158.6 26.872C158.392 27.0053 158.147 27.072 157.864 27.072ZM157.968 26.584C158.288 26.584 158.55 26.4747 158.752 26.256C158.955 26.032 159.056 25.7493 159.056 25.408V25.168H158.808C158.376 25.168 158.035 25.1893 157.784 25.232C157.539 25.2693 157.366 25.3387 157.264 25.44C157.168 25.536 157.12 25.6693 157.12 25.84C157.12 26.0587 157.195 26.2373 157.344 26.376C157.499 26.5147 157.707 26.584 157.968 26.584ZM160.729 27.088L160.489 26.576C160.729 26.4747 160.918 26.3333 161.057 26.152C161.195 25.9653 161.291 25.7093 161.345 25.384C161.403 25.0587 161.433 24.632 161.433 24.104V23.112H164.257V27H163.609V23.632H162.041V24.128C162.041 24.736 161.995 25.2373 161.905 25.632C161.819 26.0267 161.681 26.3387 161.489 26.568C161.297 26.7973 161.043 26.9707 160.729 27.088ZM167.162 27.072C166.784 27.072 166.456 26.9893 166.178 26.824C165.901 26.6587 165.685 26.4267 165.53 26.128C165.381 25.824 165.306 25.4667 165.306 25.056C165.306 24.6453 165.381 24.2907 165.53 23.992C165.685 23.688 165.901 23.4533 166.178 23.288C166.456 23.1227 166.784 23.04 167.162 23.04C167.536 23.04 167.861 23.1227 168.138 23.288C168.421 23.4533 168.637 23.688 168.786 23.992C168.941 24.2907 169.018 24.6453 169.018 25.056C169.018 25.4667 168.941 25.824 168.786 26.128C168.637 26.4267 168.421 26.6587 168.138 26.824C167.861 26.9893 167.536 27.072 167.162 27.072ZM167.162 26.552C167.525 26.552 167.816 26.424 168.034 26.168C168.253 25.9067 168.362 25.536 168.362 25.056C168.362 24.5707 168.253 24.2 168.034 23.944C167.816 23.688 167.525 23.56 167.162 23.56C166.794 23.56 166.501 23.688 166.282 23.944C166.069 24.2 165.962 24.5707 165.962 25.056C165.962 25.536 166.069 25.9067 166.282 26.168C166.501 26.424 166.794 26.552 167.162 26.552ZM170.07 27V23.112H172.798V23.632H170.718V27H170.07Z" fill="black"/>
<path d="M146.064 37.072C145.541 37.072 145.085 36.9547 144.696 36.72C144.312 36.48 144.013 36.144 143.8 35.712C143.592 35.28 143.488 34.768 143.488 34.176C143.488 33.584 143.592 33.072 143.8 32.64C144.008 32.208 144.304 31.8747 144.688 31.64C145.077 31.4053 145.536 31.288 146.064 31.288C146.597 31.288 147.056 31.4053 147.44 31.64C147.829 31.8747 148.128 32.208 148.336 32.64C148.549 33.0667 148.656 33.576 148.656 34.168C148.656 34.76 148.549 35.2747 148.336 35.712C148.123 36.144 147.821 36.48 147.432 36.72C147.048 36.9547 146.592 37.072 146.064 37.072ZM146.064 36.488C146.667 36.488 147.133 36.2853 147.464 35.88C147.795 35.4747 147.96 34.9067 147.96 34.176C147.96 33.4453 147.795 32.88 147.464 32.48C147.133 32.0747 146.667 31.872 146.064 31.872C145.472 31.872 145.011 32.0747 144.68 32.48C144.349 32.88 144.184 33.4453 144.184 34.176C144.184 34.9013 144.349 35.4693 144.68 35.88C145.011 36.2853 145.472 36.488 146.064 36.488ZM151.828 37V33.112H152.476V34.728H154.596V33.112H155.244V37H154.596V35.256H152.476V37H151.828ZM157.755 37.072C157.488 37.072 157.248 37.0213 157.035 36.92C156.827 36.8133 156.661 36.6693 156.539 36.488C156.416 36.3067 156.355 36.104 156.355 35.88C156.355 35.5973 156.427 35.3733 156.571 35.208C156.72 35.0427 156.963 34.9253 157.299 34.856C157.64 34.7813 158.104 34.744 158.691 34.744H158.947V34.496C158.947 34.1653 158.877 33.928 158.739 33.784C158.605 33.6347 158.389 33.56 158.091 33.56C157.856 33.56 157.629 33.5947 157.411 33.664C157.192 33.728 156.968 33.8347 156.739 33.984L156.515 33.512C156.717 33.368 156.963 33.2533 157.251 33.168C157.544 33.0827 157.824 33.04 158.091 33.04C158.592 33.04 158.963 33.1627 159.203 33.408C159.448 33.6533 159.571 34.0347 159.571 34.552V37H158.963V36.328C158.861 36.5573 158.704 36.7387 158.491 36.872C158.283 37.0053 158.037 37.072 157.755 37.072ZM157.859 36.584C158.179 36.584 158.44 36.4747 158.643 36.256C158.845 36.032 158.947 35.7493 158.947 35.408V35.168H158.699C158.267 35.168 157.925 35.1893 157.675 35.232C157.429 35.2693 157.256 35.3387 157.155 35.44C157.059 35.536 157.011 35.6693 157.011 35.84C157.011 36.0587 157.085 36.2373 157.235 36.376C157.389 36.5147 157.597 36.584 157.859 36.584ZM162.491 37.072C162.102 37.072 161.766 36.9893 161.483 36.824C161.201 36.6533 160.982 36.416 160.827 36.112C160.678 35.8027 160.603 35.4427 160.603 35.032C160.603 34.4133 160.771 33.928 161.107 33.576C161.443 33.2187 161.905 33.04 162.491 33.04C162.731 33.04 162.969 33.0827 163.203 33.168C163.438 33.2533 163.633 33.3733 163.787 33.528L163.563 34C163.409 33.8507 163.238 33.7413 163.051 33.672C162.87 33.6027 162.697 33.568 162.531 33.568C162.126 33.568 161.814 33.696 161.595 33.952C161.377 34.2027 161.267 34.5653 161.267 35.04C161.267 35.504 161.377 35.872 161.595 36.144C161.814 36.4107 162.126 36.544 162.531 36.544C162.697 36.544 162.87 36.5093 163.051 36.44C163.238 36.3707 163.409 36.2587 163.563 36.104L163.787 36.576C163.633 36.7307 163.435 36.8533 163.195 36.944C162.961 37.0293 162.726 37.072 162.491 37.072Z" fill="black"/>
<path d="M143.696 47V41.36H144.352V43.872H145.344L147 41.36H147.744L145.992 43.968C146.227 44.048 146.432 44.1787 146.608 44.36C146.789 44.536 146.949 44.7627 147.088 45.04L148.04 47H147.32L146.544 45.344C146.389 45.0187 146.211 44.7867 146.008 44.648C145.805 44.5093 145.557 44.44 145.264 44.44H144.352V47H143.696ZM150.342 47.072C149.963 47.072 149.635 46.9893 149.358 46.824C149.081 46.6587 148.865 46.4267 148.71 46.128C148.561 45.824 148.486 45.4667 148.486 45.056C148.486 44.6453 148.561 44.2907 148.71 43.992C148.865 43.688 149.081 43.4533 149.358 43.288C149.635 43.1227 149.963 43.04 150.342 43.04C150.715 43.04 151.041 43.1227 151.318 43.288C151.601 43.4533 151.817 43.688 151.966 43.992C152.121 44.2907 152.198 44.6453 152.198 45.056C152.198 45.4667 152.121 45.824 151.966 46.128C151.817 46.4267 151.601 46.6587 151.318 46.824C151.041 46.9893 150.715 47.072 150.342 47.072ZM150.342 46.552C150.705 46.552 150.995 46.424 151.214 46.168C151.433 45.9067 151.542 45.536 151.542 45.056C151.542 44.5707 151.433 44.2 151.214 43.944C150.995 43.688 150.705 43.56 150.342 43.56C149.974 43.56 149.681 43.688 149.462 43.944C149.249 44.2 149.142 44.5707 149.142 45.056C149.142 45.536 149.249 45.9067 149.462 46.168C149.681 46.424 149.974 46.552 150.342 46.552ZM153.249 47V43.112H153.897V44.728H156.017V43.112H156.665V47H156.017V45.256H153.897V47H153.249ZM158.753 47V43.632H157.345V43.112H160.817V43.632H159.401V47H158.753ZM162.731 47.072C162.465 47.072 162.225 47.0213 162.011 46.92C161.803 46.8133 161.638 46.6693 161.515 46.488C161.393 46.3067 161.331 46.104 161.331 45.88C161.331 45.5973 161.403 45.3733 161.547 45.208C161.697 45.0427 161.939 44.9253 162.275 44.856C162.617 44.7813 163.081 44.744 163.667 44.744H163.923V44.496C163.923 44.1653 163.854 43.928 163.715 43.784C163.582 43.6347 163.366 43.56 163.067 43.56C162.833 43.56 162.606 43.5947 162.387 43.664C162.169 43.728 161.945 43.8347 161.715 43.984L161.491 43.512C161.694 43.368 161.939 43.2533 162.227 43.168C162.521 43.0827 162.801 43.04 163.067 43.04C163.569 43.04 163.939 43.1627 164.179 43.408C164.425 43.6533 164.547 44.0347 164.547 44.552V47H163.939V46.328C163.838 46.5573 163.681 46.7387 163.467 46.872C163.259 47.0053 163.014 47.072 162.731 47.072ZM162.835 46.584C163.155 46.584 163.417 46.4747 163.619 46.256C163.822 46.032 163.923 45.7493 163.923 45.408V45.168H163.675C163.243 45.168 162.902 45.1893 162.651 45.232C162.406 45.2693 162.233 45.3387 162.131 45.44C162.035 45.536 161.987 45.6693 161.987 45.84C161.987 46.0587 162.062 46.2373 162.211 46.376C162.366 46.5147 162.574 46.584 162.835 46.584ZM165.812 47V43.112H166.46V44.736H167.188L168.46 43.112H169.172L167.82 44.864C167.959 44.9173 168.084 45.0053 168.196 45.128C168.308 45.2507 168.433 45.4267 168.572 45.656L169.372 47H168.676L167.972 45.824C167.839 45.5947 167.711 45.4427 167.588 45.368C167.465 45.2933 167.292 45.256 167.068 45.256H166.46V47H165.812ZM170.831 47V43.632H169.423V43.112H172.895V43.632H171.479V47H170.831ZM173.578 47V43.112H174.226V44.496H175.402C175.898 44.496 176.274 44.6053 176.53 44.824C176.786 45.0373 176.914 45.3413 176.914 45.736C176.914 46.1253 176.78 46.4347 176.514 46.664C176.252 46.888 175.882 47 175.402 47H173.578ZM177.49 47V43.112H178.138V47H177.49ZM174.226 46.536H175.338C175.636 46.536 175.868 46.472 176.034 46.344C176.204 46.216 176.29 46.016 176.29 45.744C176.29 45.4773 176.207 45.28 176.042 45.152C175.876 45.024 175.642 44.96 175.338 44.96H174.226V46.536Z" fill="black"/>
<path d="M210.522 16V11.77H213.192V12.184H211.002V13.648H213.066V14.062H211.002V15.586H213.192V16H210.522ZM213.966 16V13.084H214.44V13.576C214.528 13.4 214.65 13.266 214.806 13.174C214.962 13.078 215.144 13.03 215.352 13.03C215.808 13.03 216.1 13.228 216.228 13.624C216.316 13.44 216.446 13.296 216.618 13.192C216.79 13.084 216.988 13.03 217.212 13.03C217.86 13.03 218.184 13.414 218.184 14.182V16H217.698V14.206C217.698 13.938 217.65 13.742 217.554 13.618C217.462 13.49 217.308 13.426 217.092 13.426C216.856 13.426 216.668 13.51 216.528 13.678C216.388 13.846 216.318 14.07 216.318 14.35V16H215.832V14.206C215.832 13.938 215.784 13.742 215.688 13.618C215.596 13.49 215.442 13.426 215.226 13.426C214.986 13.426 214.796 13.51 214.656 13.678C214.52 13.846 214.452 14.07 214.452 14.35V16H213.966ZM220.011 16.054C219.811 16.054 219.631 16.016 219.471 15.94C219.315 15.86 219.191 15.752 219.099 15.616C219.007 15.48 218.961 15.328 218.961 15.16C218.961 14.948 219.015 14.78 219.123 14.656C219.235 14.532 219.417 14.444 219.669 14.392C219.925 14.336 220.273 14.308 220.713 14.308H220.905V14.122C220.905 13.874 220.853 13.696 220.749 13.588C220.649 13.476 220.487 13.42 220.263 13.42C220.087 13.42 219.917 13.446 219.753 13.498C219.589 13.546 219.421 13.626 219.249 13.738L219.081 13.384C219.233 13.276 219.417 13.19 219.633 13.126C219.853 13.062 220.063 13.03 220.263 13.03C220.639 13.03 220.917 13.122 221.097 13.306C221.281 13.49 221.373 13.776 221.373 14.164V16H220.917V15.496C220.841 15.668 220.723 15.804 220.563 15.904C220.407 16.004 220.223 16.054 220.011 16.054ZM220.089 15.688C220.329 15.688 220.525 15.606 220.677 15.442C220.829 15.274 220.905 15.062 220.905 14.806V14.626H220.719C220.395 14.626 220.139 14.642 219.951 14.674C219.767 14.702 219.637 14.754 219.561 14.83C219.489 14.902 219.453 15.002 219.453 15.13C219.453 15.294 219.509 15.428 219.621 15.532C219.737 15.636 219.893 15.688 220.089 15.688ZM222.214 12.358V11.812H222.814V12.358H222.214ZM222.274 16V13.084H222.76V16H222.274ZM224.563 16.054C224.267 16.054 224.043 15.968 223.891 15.796C223.743 15.62 223.669 15.366 223.669 15.034V11.77H224.155V14.998C224.155 15.426 224.325 15.64 224.665 15.64C224.765 15.64 224.855 15.628 224.935 15.604L224.923 16.012C224.799 16.04 224.679 16.054 224.563 16.054Z" fill="black"/>
<path d="M210.114 27L211.98 22.77H212.4L214.266 27H213.756L213.288 25.92H211.086L210.624 27H210.114ZM212.184 23.346L211.266 25.506H213.114L212.196 23.346H212.184ZM214.533 27.78V26.61H214.839C214.979 26.406 215.079 26.172 215.139 25.908C215.199 25.64 215.229 25.318 215.229 24.942V24.084H217.293V26.61H217.755V27.78H217.335V27H214.947V27.78H214.533ZM215.307 26.61H216.831V24.468H215.661V25.026C215.661 25.326 215.631 25.616 215.571 25.896C215.511 26.176 215.423 26.414 215.307 26.61ZM218.408 28.08V24.084H218.882V24.606C218.97 24.426 219.1 24.286 219.272 24.186C219.448 24.082 219.652 24.03 219.884 24.03C220.144 24.03 220.37 24.092 220.562 24.216C220.758 24.336 220.908 24.51 221.012 24.738C221.12 24.962 221.174 25.23 221.174 25.542C221.174 25.85 221.12 26.118 221.012 26.346C220.908 26.57 220.758 26.744 220.562 26.868C220.37 26.992 220.144 27.054 219.884 27.054C219.66 27.054 219.46 27.004 219.284 26.904C219.108 26.804 218.978 26.666 218.894 26.49V28.08H218.408ZM219.782 26.664C220.054 26.664 220.272 26.568 220.436 26.376C220.6 26.18 220.682 25.902 220.682 25.542C220.682 25.178 220.6 24.9 220.436 24.708C220.272 24.516 220.054 24.42 219.782 24.42C219.51 24.42 219.292 24.516 219.128 24.708C218.964 24.9 218.882 25.178 218.882 25.542C218.882 25.902 218.964 26.18 219.128 26.376C219.292 26.568 219.51 26.664 219.782 26.664ZM223.279 27.054C222.819 27.054 222.455 26.92 222.187 26.652C221.919 26.38 221.785 26.012 221.785 25.548C221.785 25.248 221.845 24.984 221.965 24.756C222.085 24.524 222.249 24.346 222.457 24.222C222.669 24.094 222.913 24.03 223.189 24.03C223.585 24.03 223.895 24.158 224.119 24.414C224.343 24.666 224.455 25.014 224.455 25.458V25.644H222.259C222.275 25.976 222.371 26.23 222.547 26.406C222.723 26.578 222.967 26.664 223.279 26.664C223.455 26.664 223.623 26.638 223.783 26.586C223.943 26.53 224.095 26.44 224.239 26.316L224.407 26.658C224.275 26.782 224.107 26.88 223.903 26.952C223.699 27.02 223.491 27.054 223.279 27.054ZM223.201 24.39C222.925 24.39 222.707 24.476 222.547 24.648C222.387 24.82 222.293 25.046 222.265 25.326H224.035C224.023 25.03 223.945 24.8 223.801 24.636C223.661 24.472 223.461 24.39 223.201 24.39ZM226.452 27.054C226.16 27.054 225.908 26.992 225.696 26.868C225.484 26.74 225.32 26.562 225.204 26.334C225.092 26.102 225.036 25.832 225.036 25.524C225.036 25.06 225.162 24.696 225.414 24.432C225.666 24.164 226.012 24.03 226.452 24.03C226.632 24.03 226.81 24.062 226.986 24.126C227.162 24.19 227.308 24.28 227.424 24.396L227.256 24.75C227.14 24.638 227.012 24.556 226.872 24.504C226.736 24.452 226.606 24.426 226.482 24.426C226.178 24.426 225.944 24.522 225.78 24.714C225.616 24.902 225.534 25.174 225.534 25.53C225.534 25.878 225.616 26.154 225.78 26.358C225.944 26.558 226.178 26.658 226.482 26.658C226.606 26.658 226.736 26.632 226.872 26.58C227.012 26.528 227.14 26.444 227.256 26.328L227.424 26.682C227.308 26.798 227.16 26.89 226.98 26.958C226.804 27.022 226.628 27.054 226.452 27.054Z" fill="black"/>
<path d="M211.56 38V34.196H210.024V33.77H213.594V34.196H212.058V38H211.56ZM214.952 38.054C214.492 38.054 214.128 37.92 213.86 37.652C213.592 37.38 213.458 37.012 213.458 36.548C213.458 36.248 213.518 35.984 213.638 35.756C213.758 35.524 213.922 35.346 214.13 35.222C214.342 35.094 214.586 35.03 214.862 35.03C215.258 35.03 215.568 35.158 215.792 35.414C216.016 35.666 216.128 36.014 216.128 36.458V36.644H213.932C213.948 36.976 214.044 37.23 214.22 37.406C214.396 37.578 214.64 37.664 214.952 37.664C215.128 37.664 215.296 37.638 215.456 37.586C215.616 37.53 215.768 37.44 215.912 37.316L216.08 37.658C215.948 37.782 215.78 37.88 215.576 37.952C215.372 38.02 215.164 38.054 214.952 38.054ZM214.874 35.39C214.598 35.39 214.38 35.476 214.22 35.648C214.06 35.82 213.966 36.046 213.938 36.326H215.708C215.696 36.03 215.618 35.8 215.474 35.636C215.334 35.472 215.134 35.39 214.874 35.39ZM216.722 38.066L216.542 37.682C216.722 37.606 216.864 37.5 216.968 37.364C217.072 37.224 217.144 37.032 217.184 36.788C217.228 36.544 217.25 36.224 217.25 35.828V35.084H219.368V38H218.882V35.474H217.706V35.846C217.706 36.302 217.672 36.678 217.604 36.974C217.54 37.27 217.436 37.504 217.292 37.676C217.148 37.848 216.958 37.978 216.722 38.066ZM221.65 38.054C221.19 38.054 220.826 37.92 220.558 37.652C220.29 37.38 220.156 37.012 220.156 36.548C220.156 36.248 220.216 35.984 220.336 35.756C220.456 35.524 220.62 35.346 220.828 35.222C221.04 35.094 221.284 35.03 221.56 35.03C221.956 35.03 222.266 35.158 222.49 35.414C222.714 35.666 222.826 36.014 222.826 36.458V36.644H220.63C220.646 36.976 220.742 37.23 220.918 37.406C221.094 37.578 221.338 37.664 221.65 37.664C221.826 37.664 221.994 37.638 222.154 37.586C222.314 37.53 222.466 37.44 222.61 37.316L222.778 37.658C222.646 37.782 222.478 37.88 222.274 37.952C222.07 38.02 221.862 38.054 221.65 38.054ZM221.572 35.39C221.296 35.39 221.078 35.476 220.918 35.648C220.758 35.82 220.664 36.046 220.636 36.326H222.406C222.394 36.03 222.316 35.8 222.172 35.636C222.032 35.472 221.832 35.39 221.572 35.39ZM225.244 39.08V37.526C225.172 37.694 225.07 37.824 224.938 37.916C224.806 38.008 224.648 38.054 224.464 38.054C224.252 38.054 224.066 37.992 223.906 37.868C223.75 37.744 223.628 37.57 223.54 37.346C223.452 37.118 223.408 36.85 223.408 36.542C223.408 36.078 223.504 35.71 223.696 35.438C223.888 35.166 224.144 35.03 224.464 35.03C224.648 35.03 224.806 35.076 224.938 35.168C225.07 35.26 225.172 35.39 225.244 35.558V33.77H225.73V35.552C225.802 35.384 225.904 35.256 226.036 35.168C226.168 35.076 226.326 35.03 226.51 35.03C226.826 35.03 227.08 35.166 227.272 35.438C227.468 35.71 227.566 36.078 227.566 36.542C227.566 37.002 227.47 37.37 227.278 37.646C227.086 37.918 226.83 38.054 226.51 38.054C226.326 38.054 226.168 38.008 226.036 37.916C225.904 37.824 225.802 37.696 225.73 37.532V39.08H225.244ZM224.572 37.67C224.784 37.67 224.95 37.574 225.07 37.382C225.19 37.19 225.25 36.91 225.25 36.542C225.25 36.174 225.188 35.894 225.064 35.702C224.944 35.51 224.78 35.414 224.572 35.414C224.364 35.414 224.198 35.51 224.074 35.702C223.954 35.894 223.894 36.174 223.894 36.542C223.894 36.91 223.954 37.19 224.074 37.382C224.198 37.574 224.364 37.67 224.572 37.67ZM226.396 37.67C226.604 37.67 226.77 37.574 226.894 37.382C227.018 37.19 227.08 36.91 227.08 36.542C227.08 36.174 227.018 35.894 226.894 35.702C226.77 35.51 226.604 35.414 226.396 35.414C226.188 35.414 226.024 35.51 225.904 35.702C225.784 35.894 225.724 36.174 225.724 36.542C225.724 36.91 225.782 37.19 225.898 37.382C226.018 37.574 226.184 37.67 226.396 37.67ZM229.569 38.054C229.285 38.054 229.039 37.992 228.831 37.868C228.623 37.744 228.461 37.57 228.345 37.346C228.233 37.118 228.177 36.85 228.177 36.542C228.177 36.234 228.233 35.968 228.345 35.744C228.461 35.516 228.623 35.34 228.831 35.216C229.039 35.092 229.285 35.03 229.569 35.03C229.849 35.03 230.093 35.092 230.301 35.216C230.513 35.34 230.675 35.516 230.787 35.744C230.903 35.968 230.961 36.234 230.961 36.542C230.961 36.85 230.903 37.118 230.787 37.346C230.675 37.57 230.513 37.744 230.301 37.868C230.093 37.992 229.849 38.054 229.569 38.054ZM229.569 37.664C229.841 37.664 230.059 37.568 230.223 37.376C230.387 37.18 230.469 36.902 230.469 36.542C230.469 36.178 230.387 35.9 230.223 35.708C230.059 35.516 229.841 35.42 229.569 35.42C229.293 35.42 229.073 35.516 228.909 35.708C228.749 35.9 228.669 36.178 228.669 36.542C228.669 36.902 228.749 37.18 228.909 37.376C229.073 37.568 229.293 37.664 229.569 37.664ZM231.75 38V35.084H232.236V36.296H233.826V35.084H234.312V38H233.826V36.692H232.236V38H231.75Z" fill="black"/>
</svg>
