<svg width="280" height="58" viewBox="0 0 280 58" fill="none" xmlns="http://www.w3.org/2000/svg">
<mask id="path-1-inside-1_13_326" fill="white">
<path d="M0 0H280V58H0V0Z"/>
</mask>
<path d="M0 0H280V58H0V0Z" fill="white"/>
<path d="M0 1H280V-1H0V1Z" fill="#BFBFBF" mask="url(#path-1-inside-1_13_326)"/>
<path d="M12.448 29.054C12.14 29.054 11.854 29 11.59 28.892C11.326 28.78 11.096 28.626 10.9 28.43C10.704 28.23 10.55 28 10.438 27.74C10.33 27.476 10.276 27.19 10.276 26.882C10.276 26.574 10.33 26.29 10.438 26.03C10.55 25.766 10.704 25.536 10.9 25.34C11.096 25.144 11.326 24.992 11.59 24.884C11.854 24.772 12.14 24.716 12.448 24.716C12.756 24.716 13.04 24.772 13.3 24.884C13.564 24.992 13.794 25.144 13.99 25.34C14.186 25.536 14.338 25.766 14.446 26.03C14.558 26.29 14.614 26.574 14.614 26.882C14.614 27.19 14.558 27.476 14.446 27.74C14.338 28 14.186 28.23 13.99 28.43C13.794 28.626 13.564 28.78 13.3 28.892C13.04 29 12.756 29.054 12.448 29.054ZM12.448 28.79C12.716 28.79 12.964 28.742 13.192 28.646C13.424 28.55 13.624 28.416 13.792 28.244C13.964 28.068 14.098 27.866 14.194 27.638C14.29 27.406 14.338 27.154 14.338 26.882C14.338 26.61 14.29 26.36 14.194 26.132C14.098 25.9 13.964 25.698 13.792 25.526C13.624 25.354 13.424 25.22 13.192 25.124C12.964 25.028 12.716 24.98 12.448 24.98C12.18 24.98 11.93 25.028 11.698 25.124C11.466 25.22 11.264 25.354 11.092 25.526C10.924 25.698 10.792 25.9 10.696 26.132C10.6 26.36 10.552 26.61 10.552 26.882C10.552 27.154 10.6 27.406 10.696 27.638C10.792 27.866 10.924 28.068 11.092 28.244C11.264 28.416 11.466 28.55 11.698 28.646C11.93 28.742 12.18 28.79 12.448 28.79ZM12.526 28.178C12.142 28.178 11.838 28.06 11.614 27.824C11.39 27.584 11.278 27.266 11.278 26.87C11.278 26.474 11.39 26.162 11.614 25.934C11.838 25.706 12.142 25.592 12.526 25.592C12.686 25.592 12.842 25.62 12.994 25.676C13.15 25.732 13.28 25.81 13.384 25.91L13.24 26.222C13.132 26.13 13.018 26.062 12.898 26.018C12.778 25.974 12.66 25.952 12.544 25.952C12.284 25.952 12.08 26.032 11.932 26.192C11.784 26.352 11.71 26.578 11.71 26.87C11.71 27.162 11.784 27.394 11.932 27.566C12.08 27.734 12.284 27.818 12.544 27.818C12.66 27.818 12.778 27.796 12.898 27.752C13.018 27.708 13.132 27.638 13.24 27.542L13.384 27.86C13.28 27.956 13.15 28.034 12.994 28.094C12.838 28.15 12.682 28.178 12.526 28.178ZM18.7856 29.054C18.3696 29.054 18.0136 28.966 17.7176 28.79C17.4216 28.614 17.1936 28.364 17.0336 28.04C16.8776 27.716 16.7996 27.33 16.7996 26.882C16.7996 26.438 16.8776 26.054 17.0336 25.73C17.1936 25.406 17.4216 25.156 17.7176 24.98C18.0136 24.804 18.3696 24.716 18.7856 24.716C19.0776 24.716 19.3456 24.762 19.5896 24.854C19.8376 24.946 20.0476 25.08 20.2196 25.256L20.0276 25.658C19.8436 25.486 19.6516 25.362 19.4516 25.286C19.2556 25.206 19.0376 25.166 18.7976 25.166C18.3216 25.166 17.9576 25.316 17.7056 25.616C17.4536 25.916 17.3276 26.338 17.3276 26.882C17.3276 27.43 17.4536 27.854 17.7056 28.154C17.9576 28.454 18.3216 28.604 18.7976 28.604C19.0376 28.604 19.2556 28.566 19.4516 28.49C19.6516 28.41 19.8436 28.284 20.0276 28.112L20.2196 28.514C20.0476 28.686 19.8376 28.82 19.5896 28.916C19.3456 29.008 19.0776 29.054 18.7856 29.054ZM21.9278 29.054C21.6438 29.054 21.3978 28.992 21.1898 28.868C20.9818 28.744 20.8198 28.57 20.7038 28.346C20.5918 28.118 20.5358 27.85 20.5358 27.542C20.5358 27.234 20.5918 26.968 20.7038 26.744C20.8198 26.516 20.9818 26.34 21.1898 26.216C21.3978 26.092 21.6438 26.03 21.9278 26.03C22.2078 26.03 22.4518 26.092 22.6598 26.216C22.8718 26.34 23.0338 26.516 23.1458 26.744C23.2618 26.968 23.3198 27.234 23.3198 27.542C23.3198 27.85 23.2618 28.118 23.1458 28.346C23.0338 28.57 22.8718 28.744 22.6598 28.868C22.4518 28.992 22.2078 29.054 21.9278 29.054ZM21.9278 28.664C22.1998 28.664 22.4178 28.568 22.5818 28.376C22.7458 28.18 22.8278 27.902 22.8278 27.542C22.8278 27.178 22.7458 26.9 22.5818 26.708C22.4178 26.516 22.1998 26.42 21.9278 26.42C21.6518 26.42 21.4318 26.516 21.2678 26.708C21.1078 26.9 21.0278 27.178 21.0278 27.542C21.0278 27.902 21.1078 28.18 21.2678 28.376C21.4318 28.568 21.6518 28.664 21.9278 28.664ZM24.0498 30.08V26.084H24.5238V26.606C24.6118 26.426 24.7418 26.286 24.9138 26.186C25.0898 26.082 25.2938 26.03 25.5258 26.03C25.7858 26.03 26.0118 26.092 26.2038 26.216C26.3998 26.336 26.5498 26.51 26.6538 26.738C26.7618 26.962 26.8158 27.23 26.8158 27.542C26.8158 27.85 26.7618 28.118 26.6538 28.346C26.5498 28.57 26.3998 28.744 26.2038 28.868C26.0118 28.992 25.7858 29.054 25.5258 29.054C25.3018 29.054 25.1018 29.004 24.9258 28.904C24.7498 28.804 24.6198 28.666 24.5358 28.49V30.08H24.0498ZM25.4238 28.664C25.6958 28.664 25.9138 28.568 26.0778 28.376C26.2418 28.18 26.3238 27.902 26.3238 27.542C26.3238 27.178 26.2418 26.9 26.0778 26.708C25.9138 26.516 25.6958 26.42 25.4238 26.42C25.1518 26.42 24.9338 26.516 24.7698 26.708C24.6058 26.9 24.5238 27.178 24.5238 27.542C24.5238 27.902 24.6058 28.18 24.7698 28.376C24.9338 28.568 25.1518 28.664 25.4238 28.664ZM27.8428 30.08L28.3408 28.952L27.1108 26.084H27.6388L28.6048 28.448L29.5768 26.084H30.0868L28.3528 30.08H27.8428ZM30.5888 29V26.084H31.0628V26.606C31.2188 26.254 31.5388 26.06 32.0228 26.024L32.1968 26.006L32.2328 26.426L31.9268 26.462C31.6508 26.486 31.4408 26.574 31.2968 26.726C31.1528 26.874 31.0808 27.078 31.0808 27.338V29H30.5888ZM32.6792 25.358V24.812H33.2792V25.358H32.6792ZM32.7392 29V26.084H33.2252V29H32.7392ZM35.4237 30.134C35.1717 30.134 34.9337 30.1 34.7097 30.032C34.4897 29.968 34.2937 29.87 34.1217 29.738L34.2837 29.384C34.4637 29.512 34.6417 29.604 34.8177 29.66C34.9977 29.716 35.1917 29.744 35.3997 29.744C35.9757 29.744 36.2637 29.448 36.2637 28.856V28.34C36.1797 28.524 36.0477 28.67 35.8677 28.778C35.6917 28.882 35.4897 28.934 35.2617 28.934C34.9937 28.934 34.7617 28.872 34.5657 28.748C34.3697 28.624 34.2177 28.454 34.1097 28.238C34.0057 28.018 33.9537 27.764 33.9537 27.476C33.9537 27.188 34.0057 26.936 34.1097 26.72C34.2177 26.5 34.3697 26.33 34.5657 26.21C34.7617 26.09 34.9937 26.03 35.2617 26.03C35.4897 26.03 35.6917 26.082 35.8677 26.186C36.0477 26.29 36.1797 26.432 36.2637 26.612V26.084H36.7377V28.79C36.7377 29.238 36.6257 29.574 36.4017 29.798C36.1817 30.022 35.8557 30.134 35.4237 30.134ZM35.3517 28.538C35.6317 28.538 35.8537 28.442 36.0177 28.25C36.1817 28.058 36.2637 27.8 36.2637 27.476C36.2637 27.152 36.1817 26.896 36.0177 26.708C35.8537 26.516 35.6317 26.42 35.3517 26.42C35.0757 26.42 34.8557 26.516 34.6917 26.708C34.5277 26.896 34.4457 27.152 34.4457 27.476C34.4457 27.8 34.5277 28.058 34.6917 28.25C34.8557 28.442 35.0757 28.538 35.3517 28.538ZM37.6494 29V24.77H38.1354V26.564C38.2314 26.388 38.3654 26.256 38.5374 26.168C38.7134 26.076 38.9094 26.03 39.1254 26.03C39.8174 26.03 40.1634 26.414 40.1634 27.182V29H39.6774V27.212C39.6774 26.94 39.6234 26.742 39.5154 26.618C39.4114 26.49 39.2434 26.426 39.0114 26.426C38.7434 26.426 38.5294 26.51 38.3694 26.678C38.2134 26.842 38.1354 27.062 38.1354 27.338V29H37.6494ZM42.2295 29.054C41.8855 29.054 41.6275 28.964 41.4555 28.784C41.2835 28.6 41.1975 28.336 41.1975 27.992V26.462H40.6275V26.084H41.1975V25.19H41.6835V26.084H42.6075V26.462H41.6835V27.944C41.6835 28.172 41.7315 28.346 41.8275 28.466C41.9235 28.582 42.0795 28.64 42.2955 28.64C42.3595 28.64 42.4235 28.632 42.4875 28.616C42.5515 28.6 42.6095 28.584 42.6615 28.568L42.7455 28.94C42.6935 28.968 42.6175 28.994 42.5175 29.018C42.4175 29.042 42.3215 29.054 42.2295 29.054ZM44.1412 29.054C43.9132 29.054 43.6972 29.022 43.4932 28.958C43.2892 28.894 43.1212 28.804 42.9892 28.688L43.1452 28.346C43.2892 28.462 43.4472 28.548 43.6192 28.604C43.7952 28.656 43.9732 28.682 44.1532 28.682C44.3812 28.682 44.5532 28.64 44.6692 28.556C44.7852 28.472 44.8432 28.358 44.8432 28.214C44.8432 28.102 44.8052 28.014 44.7292 27.95C44.6532 27.882 44.5332 27.83 44.3692 27.794L43.8232 27.674C43.3272 27.566 43.0792 27.31 43.0792 26.906C43.0792 26.642 43.1832 26.43 43.3912 26.27C43.6032 26.11 43.8792 26.03 44.2192 26.03C44.4192 26.03 44.6092 26.062 44.7892 26.126C44.9732 26.186 45.1252 26.276 45.2452 26.396L45.0832 26.738C44.9672 26.63 44.8312 26.548 44.6752 26.492C44.5232 26.432 44.3712 26.402 44.2192 26.402C43.9952 26.402 43.8252 26.446 43.7092 26.534C43.5932 26.622 43.5352 26.738 43.5352 26.882C43.5352 27.106 43.6832 27.25 43.9792 27.314L44.5252 27.428C44.7812 27.484 44.9752 27.574 45.1072 27.698C45.2392 27.818 45.3052 27.982 45.3052 28.19C45.3052 28.458 45.1992 28.67 44.9872 28.826C44.7752 28.978 44.4932 29.054 44.1412 29.054Z" fill="#333333"/>
<path d="M10.56 17.15L10.17 16.5C10.4367 16.36 10.6733 16.19 10.88 15.99C11.0867 15.79 11.2633 15.5267 11.41 15.2C11.5567 14.8733 11.67 14.46 11.75 13.96C11.83 13.4533 11.87 12.8233 11.87 12.07V9.95H16.54V17H15.71V10.66H12.63V12.28C12.63 13.26 12.55 14.07 12.39 14.71C12.23 15.3433 11.9933 15.8533 11.68 16.24C11.3733 16.6267 11 16.93 10.56 17.15ZM20.2421 17.09C19.7688 17.09 19.3588 16.9867 19.0121 16.78C18.6654 16.5733 18.3954 16.2833 18.2021 15.91C18.0154 15.53 17.9221 15.0833 17.9221 14.57C17.9221 14.0567 18.0154 13.6133 18.2021 13.24C18.3954 12.86 18.6654 12.5667 19.0121 12.36C19.3588 12.1533 19.7688 12.05 20.2421 12.05C20.7088 12.05 21.1154 12.1533 21.4621 12.36C21.8154 12.5667 22.0854 12.86 22.2721 13.24C22.4654 13.6133 22.5621 14.0567 22.5621 14.57C22.5621 15.0833 22.4654 15.53 22.2721 15.91C22.0854 16.2833 21.8154 16.5733 21.4621 16.78C21.1154 16.9867 20.7088 17.09 20.2421 17.09ZM20.2421 16.44C20.6954 16.44 21.0588 16.28 21.3321 15.96C21.6054 15.6333 21.7421 15.17 21.7421 14.57C21.7421 13.9633 21.6054 13.5 21.3321 13.18C21.0588 12.86 20.6954 12.7 20.2421 12.7C19.7821 12.7 19.4154 12.86 19.1421 13.18C18.8754 13.5 18.7421 13.9633 18.7421 14.57C18.7421 15.17 18.8754 15.6333 19.1421 15.96C19.4154 16.28 19.7821 16.44 20.2421 16.44ZM23.8762 17V12.14H27.2862V12.79H24.6862V17H23.8762ZM30.2519 17.09C29.7785 17.09 29.3685 16.9867 29.0219 16.78C28.6752 16.5733 28.4052 16.2833 28.2119 15.91C28.0252 15.53 27.9319 15.0833 27.9319 14.57C27.9319 14.0567 28.0252 13.6133 28.2119 13.24C28.4052 12.86 28.6752 12.5667 29.0219 12.36C29.3685 12.1533 29.7785 12.05 30.2519 12.05C30.7185 12.05 31.1252 12.1533 31.4719 12.36C31.8252 12.5667 32.0952 12.86 32.2819 13.24C32.4752 13.6133 32.5719 14.0567 32.5719 14.57C32.5719 15.0833 32.4752 15.53 32.2819 15.91C32.0952 16.2833 31.8252 16.5733 31.4719 16.78C31.1252 16.9867 30.7185 17.09 30.2519 17.09ZM30.2519 16.44C30.7052 16.44 31.0685 16.28 31.3419 15.96C31.6152 15.6333 31.7519 15.17 31.7519 14.57C31.7519 13.9633 31.6152 13.5 31.3419 13.18C31.0685 12.86 30.7052 12.7 30.2519 12.7C29.7919 12.7 29.4252 12.86 29.1519 13.18C28.8852 13.5 28.7519 13.9633 28.7519 14.57C28.7519 15.17 28.8852 15.6333 29.1519 15.96C29.4252 16.28 29.7919 16.44 30.2519 16.44ZM34.8959 17V12.79H33.1359V12.14H37.4759V12.79H35.7059V17H34.8959ZM38.3293 17V12.14H39.0693V15.9L41.8793 12.14H42.5693V17H41.8293V13.24L39.0193 17H38.3293ZM44.1691 17V12.14H48.4091V17H47.5991V12.79H44.9791V17H44.1691Z" fill="#333333"/>
<path d="M126.696 17V11.36H130.224V11.928H127.352V17H126.696ZM129.619 17.088L129.379 16.576C129.619 16.4747 129.809 16.3333 129.947 16.152C130.086 15.9653 130.182 15.7093 130.235 15.384C130.294 15.0587 130.323 14.632 130.323 14.104V13.112H133.147V17H132.499V13.632H130.931V14.128C130.931 14.736 130.886 15.2373 130.795 15.632C130.71 16.0267 130.571 16.3387 130.379 16.568C130.187 16.7973 129.934 16.9707 129.619 17.088ZM135.661 17.072C135.394 17.072 135.154 17.0213 134.941 16.92C134.733 16.8133 134.568 16.6693 134.445 16.488C134.322 16.3067 134.261 16.104 134.261 15.88C134.261 15.5973 134.333 15.3733 134.477 15.208C134.626 15.0427 134.869 14.9253 135.205 14.856C135.546 14.7813 136.01 14.744 136.597 14.744H136.853V14.496C136.853 14.1653 136.784 13.928 136.645 13.784C136.512 13.6347 136.296 13.56 135.997 13.56C135.762 13.56 135.536 13.5947 135.317 13.664C135.098 13.728 134.874 13.8347 134.645 13.984L134.421 13.512C134.624 13.368 134.869 13.2533 135.157 13.168C135.45 13.0827 135.73 13.04 135.997 13.04C136.498 13.04 136.869 13.1627 137.109 13.408C137.354 13.6533 137.477 14.0347 137.477 14.552V17H136.869V16.328C136.768 16.5573 136.61 16.7387 136.397 16.872C136.189 17.0053 135.944 17.072 135.661 17.072ZM135.765 16.584C136.085 16.584 136.346 16.4747 136.549 16.256C136.752 16.032 136.853 15.7493 136.853 15.408V15.168H136.605C136.173 15.168 135.832 15.1893 135.581 15.232C135.336 15.2693 135.162 15.3387 135.061 15.44C134.965 15.536 134.917 15.6693 134.917 15.84C134.917 16.0587 134.992 16.2373 135.141 16.376C135.296 16.5147 135.504 16.584 135.765 16.584ZM138.742 17V13.112H140.638C141.096 13.112 141.435 13.2 141.654 13.376C141.872 13.5467 141.982 13.8 141.982 14.136C141.982 14.3387 141.923 14.5147 141.806 14.664C141.694 14.8133 141.539 14.9227 141.342 14.992C141.582 15.0507 141.768 15.1627 141.902 15.328C142.04 15.4933 142.11 15.6933 142.11 15.928C142.11 16.2587 141.987 16.52 141.742 16.712C141.496 16.904 141.15 17 140.702 17H138.742ZM139.358 14.8H140.606C140.851 14.8 141.04 14.7467 141.174 14.64C141.307 14.528 141.374 14.3707 141.374 14.168C141.374 13.9707 141.307 13.8187 141.174 13.712C141.04 13.6053 140.851 13.552 140.606 13.552H139.358V14.8ZM139.358 16.56H140.678C140.944 16.56 141.147 16.504 141.286 16.392C141.424 16.28 141.494 16.1147 141.494 15.896C141.494 15.6827 141.424 15.52 141.286 15.408C141.147 15.296 140.944 15.24 140.678 15.24H139.358V16.56ZM143.117 17V13.112H143.765V14.728H145.885V13.112H146.533V17H145.885V15.256H143.765V17H143.117ZM149.044 17.072C148.777 17.072 148.537 17.0213 148.324 16.92C148.116 16.8133 147.951 16.6693 147.828 16.488C147.705 16.3067 147.644 16.104 147.644 15.88C147.644 15.5973 147.716 15.3733 147.86 15.208C148.009 15.0427 148.252 14.9253 148.588 14.856C148.929 14.7813 149.393 14.744 149.98 14.744H150.236V14.496C150.236 14.1653 150.167 13.928 150.028 13.784C149.895 13.6347 149.679 13.56 149.38 13.56C149.145 13.56 148.919 13.5947 148.7 13.664C148.481 13.728 148.257 13.8347 148.028 13.984L147.804 13.512C148.007 13.368 148.252 13.2533 148.54 13.168C148.833 13.0827 149.113 13.04 149.38 13.04C149.881 13.04 150.252 13.1627 150.492 13.408C150.737 13.6533 150.86 14.0347 150.86 14.552V17H150.252V16.328C150.151 16.5573 149.993 16.7387 149.78 16.872C149.572 17.0053 149.327 17.072 149.044 17.072ZM149.148 16.584C149.468 16.584 149.729 16.4747 149.932 16.256C150.135 16.032 150.236 15.7493 150.236 15.408V15.168H149.988C149.556 15.168 149.215 15.1893 148.964 15.232C148.719 15.2693 148.545 15.3387 148.444 15.44C148.348 15.536 148.3 15.6693 148.3 15.84C148.3 16.0587 148.375 16.2373 148.524 16.376C148.679 16.5147 148.887 16.584 149.148 16.584ZM151.804 17L152.404 15.96C152.564 15.6773 152.77 15.4933 153.02 15.408C152.69 15.36 152.434 15.24 152.252 15.048C152.071 14.8507 151.98 14.5947 151.98 14.28C151.98 13.9227 152.098 13.64 152.332 13.432C152.572 13.2187 152.93 13.112 153.404 13.112H155.156V17H154.54V15.52H153.972C153.759 15.52 153.578 15.5733 153.428 15.68C153.284 15.7867 153.167 15.9173 153.076 16.072L152.548 17H151.804ZM153.524 15.048H154.54V13.568H153.524C153.21 13.568 152.978 13.6347 152.828 13.768C152.679 13.896 152.604 14.0747 152.604 14.304C152.604 14.5387 152.679 14.7227 152.828 14.856C152.978 14.984 153.21 15.048 153.524 15.048Z" fill="black"/>
<path d="M126.696 27V21.36H127.352V23.872H128.344L130 21.36H130.744L128.992 23.968C129.227 24.048 129.432 24.1787 129.608 24.36C129.789 24.536 129.949 24.7627 130.088 25.04L131.04 27H130.32L129.544 25.344C129.389 25.0187 129.211 24.7867 129.008 24.648C128.805 24.5093 128.557 24.44 128.264 24.44H127.352V27H126.696ZM132.997 27.072C132.73 27.072 132.49 27.0213 132.277 26.92C132.069 26.8133 131.904 26.6693 131.781 26.488C131.658 26.3067 131.597 26.104 131.597 25.88C131.597 25.5973 131.669 25.3733 131.813 25.208C131.962 25.0427 132.205 24.9253 132.541 24.856C132.882 24.7813 133.346 24.744 133.933 24.744H134.189V24.496C134.189 24.1653 134.12 23.928 133.981 23.784C133.848 23.6347 133.632 23.56 133.333 23.56C133.098 23.56 132.872 23.5947 132.653 23.664C132.434 23.728 132.21 23.8347 131.981 23.984L131.757 23.512C131.96 23.368 132.205 23.2533 132.493 23.168C132.786 23.0827 133.066 23.04 133.333 23.04C133.834 23.04 134.205 23.1627 134.445 23.408C134.69 23.6533 134.813 24.0347 134.813 24.552V27H134.205V26.328C134.104 26.5573 133.946 26.7387 133.733 26.872C133.525 27.0053 133.28 27.072 132.997 27.072ZM133.101 26.584C133.421 26.584 133.682 26.4747 133.885 26.256C134.088 26.032 134.189 25.7493 134.189 25.408V25.168H133.941C133.509 25.168 133.168 25.1893 132.917 25.232C132.672 25.2693 132.498 25.3387 132.397 25.44C132.301 25.536 132.253 25.6693 132.253 25.84C132.253 26.0587 132.328 26.2373 132.477 26.376C132.632 26.5147 132.84 26.584 133.101 26.584ZM136.886 27V23.632H135.478V23.112H138.95V23.632H137.534V27H136.886ZM140.864 27.072C140.598 27.072 140.358 27.0213 140.144 26.92C139.936 26.8133 139.771 26.6693 139.648 26.488C139.526 26.3067 139.464 26.104 139.464 25.88C139.464 25.5973 139.536 25.3733 139.68 25.208C139.83 25.0427 140.072 24.9253 140.408 24.856C140.75 24.7813 141.214 24.744 141.8 24.744H142.056V24.496C142.056 24.1653 141.987 23.928 141.848 23.784C141.715 23.6347 141.499 23.56 141.2 23.56C140.966 23.56 140.739 23.5947 140.52 23.664C140.302 23.728 140.078 23.8347 139.848 23.984L139.624 23.512C139.827 23.368 140.072 23.2533 140.36 23.168C140.654 23.0827 140.934 23.04 141.2 23.04C141.702 23.04 142.072 23.1627 142.312 23.408C142.558 23.6533 142.68 24.0347 142.68 24.552V27H142.072V26.328C141.971 26.5573 141.814 26.7387 141.6 26.872C141.392 27.0053 141.147 27.072 140.864 27.072ZM140.968 26.584C141.288 26.584 141.55 26.4747 141.752 26.256C141.955 26.032 142.056 25.7493 142.056 25.408V25.168H141.808C141.376 25.168 141.035 25.1893 140.784 25.232C140.539 25.2693 140.366 25.3387 140.264 25.44C140.168 25.536 140.12 25.6693 140.12 25.84C140.12 26.0587 140.195 26.2373 140.344 26.376C140.499 26.5147 140.707 26.584 140.968 26.584ZM143.729 27.088L143.489 26.576C143.729 26.4747 143.918 26.3333 144.057 26.152C144.195 25.9653 144.291 25.7093 144.345 25.384C144.403 25.0587 144.433 24.632 144.433 24.104V23.112H147.257V27H146.609V23.632H145.041V24.128C145.041 24.736 144.995 25.2373 144.905 25.632C144.819 26.0267 144.681 26.3387 144.489 26.568C144.297 26.7973 144.043 26.9707 143.729 27.088ZM150.162 27.072C149.784 27.072 149.456 26.9893 149.178 26.824C148.901 26.6587 148.685 26.4267 148.53 26.128C148.381 25.824 148.306 25.4667 148.306 25.056C148.306 24.6453 148.381 24.2907 148.53 23.992C148.685 23.688 148.901 23.4533 149.178 23.288C149.456 23.1227 149.784 23.04 150.162 23.04C150.536 23.04 150.861 23.1227 151.138 23.288C151.421 23.4533 151.637 23.688 151.786 23.992C151.941 24.2907 152.018 24.6453 152.018 25.056C152.018 25.4667 151.941 25.824 151.786 26.128C151.637 26.4267 151.421 26.6587 151.138 26.824C150.861 26.9893 150.536 27.072 150.162 27.072ZM150.162 26.552C150.525 26.552 150.816 26.424 151.034 26.168C151.253 25.9067 151.362 25.536 151.362 25.056C151.362 24.5707 151.253 24.2 151.034 23.944C150.816 23.688 150.525 23.56 150.162 23.56C149.794 23.56 149.501 23.688 149.282 23.944C149.069 24.2 148.962 24.5707 148.962 25.056C148.962 25.536 149.069 25.9067 149.282 26.168C149.501 26.424 149.794 26.552 150.162 26.552ZM153.07 27V23.112H155.798V23.632H153.718V27H153.07Z" fill="black"/>
<path d="M129.064 37.072C128.541 37.072 128.085 36.9547 127.696 36.72C127.312 36.48 127.013 36.144 126.8 35.712C126.592 35.28 126.488 34.768 126.488 34.176C126.488 33.584 126.592 33.072 126.8 32.64C127.008 32.208 127.304 31.8747 127.688 31.64C128.077 31.4053 128.536 31.288 129.064 31.288C129.597 31.288 130.056 31.4053 130.44 31.64C130.829 31.8747 131.128 32.208 131.336 32.64C131.549 33.0667 131.656 33.576 131.656 34.168C131.656 34.76 131.549 35.2747 131.336 35.712C131.123 36.144 130.821 36.48 130.432 36.72C130.048 36.9547 129.592 37.072 129.064 37.072ZM129.064 36.488C129.667 36.488 130.133 36.2853 130.464 35.88C130.795 35.4747 130.96 34.9067 130.96 34.176C130.96 33.4453 130.795 32.88 130.464 32.48C130.133 32.0747 129.667 31.872 129.064 31.872C128.472 31.872 128.011 32.0747 127.68 32.48C127.349 32.88 127.184 33.4453 127.184 34.176C127.184 34.9013 127.349 35.4693 127.68 35.88C128.011 36.2853 128.472 36.488 129.064 36.488ZM134.828 37V33.112H135.476V34.728H137.596V33.112H138.244V37H137.596V35.256H135.476V37H134.828ZM140.755 37.072C140.488 37.072 140.248 37.0213 140.035 36.92C139.827 36.8133 139.661 36.6693 139.539 36.488C139.416 36.3067 139.355 36.104 139.355 35.88C139.355 35.5973 139.427 35.3733 139.571 35.208C139.72 35.0427 139.963 34.9253 140.299 34.856C140.64 34.7813 141.104 34.744 141.691 34.744H141.947V34.496C141.947 34.1653 141.877 33.928 141.739 33.784C141.605 33.6347 141.389 33.56 141.091 33.56C140.856 33.56 140.629 33.5947 140.411 33.664C140.192 33.728 139.968 33.8347 139.739 33.984L139.515 33.512C139.717 33.368 139.963 33.2533 140.251 33.168C140.544 33.0827 140.824 33.04 141.091 33.04C141.592 33.04 141.963 33.1627 142.203 33.408C142.448 33.6533 142.571 34.0347 142.571 34.552V37H141.963V36.328C141.861 36.5573 141.704 36.7387 141.491 36.872C141.283 37.0053 141.037 37.072 140.755 37.072ZM140.859 36.584C141.179 36.584 141.44 36.4747 141.643 36.256C141.845 36.032 141.947 35.7493 141.947 35.408V35.168H141.699C141.267 35.168 140.925 35.1893 140.675 35.232C140.429 35.2693 140.256 35.3387 140.155 35.44C140.059 35.536 140.011 35.6693 140.011 35.84C140.011 36.0587 140.085 36.2373 140.235 36.376C140.389 36.5147 140.597 36.584 140.859 36.584ZM145.491 37.072C145.102 37.072 144.766 36.9893 144.483 36.824C144.201 36.6533 143.982 36.416 143.827 36.112C143.678 35.8027 143.603 35.4427 143.603 35.032C143.603 34.4133 143.771 33.928 144.107 33.576C144.443 33.2187 144.905 33.04 145.491 33.04C145.731 33.04 145.969 33.0827 146.203 33.168C146.438 33.2533 146.633 33.3733 146.787 33.528L146.563 34C146.409 33.8507 146.238 33.7413 146.051 33.672C145.87 33.6027 145.697 33.568 145.531 33.568C145.126 33.568 144.814 33.696 144.595 33.952C144.377 34.2027 144.267 34.5653 144.267 35.04C144.267 35.504 144.377 35.872 144.595 36.144C144.814 36.4107 145.126 36.544 145.531 36.544C145.697 36.544 145.87 36.5093 146.051 36.44C146.238 36.3707 146.409 36.2587 146.563 36.104L146.787 36.576C146.633 36.7307 146.435 36.8533 146.195 36.944C145.961 37.0293 145.726 37.072 145.491 37.072Z" fill="black"/>
<path d="M126.696 47V41.36H127.352V43.872H128.344L130 41.36H130.744L128.992 43.968C129.227 44.048 129.432 44.1787 129.608 44.36C129.789 44.536 129.949 44.7627 130.088 45.04L131.04 47H130.32L129.544 45.344C129.389 45.0187 129.211 44.7867 129.008 44.648C128.805 44.5093 128.557 44.44 128.264 44.44H127.352V47H126.696ZM133.342 47.072C132.963 47.072 132.635 46.9893 132.358 46.824C132.081 46.6587 131.865 46.4267 131.71 46.128C131.561 45.824 131.486 45.4667 131.486 45.056C131.486 44.6453 131.561 44.2907 131.71 43.992C131.865 43.688 132.081 43.4533 132.358 43.288C132.635 43.1227 132.963 43.04 133.342 43.04C133.715 43.04 134.041 43.1227 134.318 43.288C134.601 43.4533 134.817 43.688 134.966 43.992C135.121 44.2907 135.198 44.6453 135.198 45.056C135.198 45.4667 135.121 45.824 134.966 46.128C134.817 46.4267 134.601 46.6587 134.318 46.824C134.041 46.9893 133.715 47.072 133.342 47.072ZM133.342 46.552C133.705 46.552 133.995 46.424 134.214 46.168C134.433 45.9067 134.542 45.536 134.542 45.056C134.542 44.5707 134.433 44.2 134.214 43.944C133.995 43.688 133.705 43.56 133.342 43.56C132.974 43.56 132.681 43.688 132.462 43.944C132.249 44.2 132.142 44.5707 132.142 45.056C132.142 45.536 132.249 45.9067 132.462 46.168C132.681 46.424 132.974 46.552 133.342 46.552ZM136.249 47V43.112H136.897V44.728H139.017V43.112H139.665V47H139.017V45.256H136.897V47H136.249ZM141.753 47V43.632H140.345V43.112H143.817V43.632H142.401V47H141.753ZM145.731 47.072C145.465 47.072 145.225 47.0213 145.011 46.92C144.803 46.8133 144.638 46.6693 144.515 46.488C144.393 46.3067 144.331 46.104 144.331 45.88C144.331 45.5973 144.403 45.3733 144.547 45.208C144.697 45.0427 144.939 44.9253 145.275 44.856C145.617 44.7813 146.081 44.744 146.667 44.744H146.923V44.496C146.923 44.1653 146.854 43.928 146.715 43.784C146.582 43.6347 146.366 43.56 146.067 43.56C145.833 43.56 145.606 43.5947 145.387 43.664C145.169 43.728 144.945 43.8347 144.715 43.984L144.491 43.512C144.694 43.368 144.939 43.2533 145.227 43.168C145.521 43.0827 145.801 43.04 146.067 43.04C146.569 43.04 146.939 43.1627 147.179 43.408C147.425 43.6533 147.547 44.0347 147.547 44.552V47H146.939V46.328C146.838 46.5573 146.681 46.7387 146.467 46.872C146.259 47.0053 146.014 47.072 145.731 47.072ZM145.835 46.584C146.155 46.584 146.417 46.4747 146.619 46.256C146.822 46.032 146.923 45.7493 146.923 45.408V45.168H146.675C146.243 45.168 145.902 45.1893 145.651 45.232C145.406 45.2693 145.233 45.3387 145.131 45.44C145.035 45.536 144.987 45.6693 144.987 45.84C144.987 46.0587 145.062 46.2373 145.211 46.376C145.366 46.5147 145.574 46.584 145.835 46.584ZM148.812 47V43.112H149.46V44.736H150.188L151.46 43.112H152.172L150.82 44.864C150.959 44.9173 151.084 45.0053 151.196 45.128C151.308 45.2507 151.433 45.4267 151.572 45.656L152.372 47H151.676L150.972 45.824C150.839 45.5947 150.711 45.4427 150.588 45.368C150.465 45.2933 150.292 45.256 150.068 45.256H149.46V47H148.812ZM153.831 47V43.632H152.423V43.112H155.895V43.632H154.479V47H153.831ZM156.578 47V43.112H157.226V44.496H158.402C158.898 44.496 159.274 44.6053 159.53 44.824C159.786 45.0373 159.914 45.3413 159.914 45.736C159.914 46.1253 159.78 46.4347 159.514 46.664C159.252 46.888 158.882 47 158.402 47H156.578ZM160.49 47V43.112H161.138V47H160.49ZM157.226 46.536H158.338C158.636 46.536 158.868 46.472 159.034 46.344C159.204 46.216 159.29 46.016 159.29 45.744C159.29 45.4773 159.207 45.28 159.042 45.152C158.876 45.024 158.642 44.96 158.338 44.96H157.226V46.536Z" fill="black"/>
<path d="M238.522 16V11.77H241.192V12.184H239.002V13.648H241.066V14.062H239.002V15.586H241.192V16H238.522ZM241.966 16V13.084H242.44V13.576C242.528 13.4 242.65 13.266 242.806 13.174C242.962 13.078 243.144 13.03 243.352 13.03C243.808 13.03 244.1 13.228 244.228 13.624C244.316 13.44 244.446 13.296 244.618 13.192C244.79 13.084 244.988 13.03 245.212 13.03C245.86 13.03 246.184 13.414 246.184 14.182V16H245.698V14.206C245.698 13.938 245.65 13.742 245.554 13.618C245.462 13.49 245.308 13.426 245.092 13.426C244.856 13.426 244.668 13.51 244.528 13.678C244.388 13.846 244.318 14.07 244.318 14.35V16H243.832V14.206C243.832 13.938 243.784 13.742 243.688 13.618C243.596 13.49 243.442 13.426 243.226 13.426C242.986 13.426 242.796 13.51 242.656 13.678C242.52 13.846 242.452 14.07 242.452 14.35V16H241.966ZM248.011 16.054C247.811 16.054 247.631 16.016 247.471 15.94C247.315 15.86 247.191 15.752 247.099 15.616C247.007 15.48 246.961 15.328 246.961 15.16C246.961 14.948 247.015 14.78 247.123 14.656C247.235 14.532 247.417 14.444 247.669 14.392C247.925 14.336 248.273 14.308 248.713 14.308H248.905V14.122C248.905 13.874 248.853 13.696 248.749 13.588C248.649 13.476 248.487 13.42 248.263 13.42C248.087 13.42 247.917 13.446 247.753 13.498C247.589 13.546 247.421 13.626 247.249 13.738L247.081 13.384C247.233 13.276 247.417 13.19 247.633 13.126C247.853 13.062 248.063 13.03 248.263 13.03C248.639 13.03 248.917 13.122 249.097 13.306C249.281 13.49 249.373 13.776 249.373 14.164V16H248.917V15.496C248.841 15.668 248.723 15.804 248.563 15.904C248.407 16.004 248.223 16.054 248.011 16.054ZM248.089 15.688C248.329 15.688 248.525 15.606 248.677 15.442C248.829 15.274 248.905 15.062 248.905 14.806V14.626H248.719C248.395 14.626 248.139 14.642 247.951 14.674C247.767 14.702 247.637 14.754 247.561 14.83C247.489 14.902 247.453 15.002 247.453 15.13C247.453 15.294 247.509 15.428 247.621 15.532C247.737 15.636 247.893 15.688 248.089 15.688ZM250.214 12.358V11.812H250.814V12.358H250.214ZM250.274 16V13.084H250.76V16H250.274ZM252.563 16.054C252.267 16.054 252.043 15.968 251.891 15.796C251.743 15.62 251.669 15.366 251.669 15.034V11.77H252.155V14.998C252.155 15.426 252.325 15.64 252.665 15.64C252.765 15.64 252.855 15.628 252.935 15.604L252.923 16.012C252.799 16.04 252.679 16.054 252.563 16.054Z" fill="black"/>
<path d="M238.114 27L239.98 22.77H240.4L242.266 27H241.756L241.288 25.92H239.086L238.624 27H238.114ZM240.184 23.346L239.266 25.506H241.114L240.196 23.346H240.184ZM242.533 27.78V26.61H242.839C242.979 26.406 243.079 26.172 243.139 25.908C243.199 25.64 243.229 25.318 243.229 24.942V24.084H245.293V26.61H245.755V27.78H245.335V27H242.947V27.78H242.533ZM243.307 26.61H244.831V24.468H243.661V25.026C243.661 25.326 243.631 25.616 243.571 25.896C243.511 26.176 243.423 26.414 243.307 26.61ZM246.408 28.08V24.084H246.882V24.606C246.97 24.426 247.1 24.286 247.272 24.186C247.448 24.082 247.652 24.03 247.884 24.03C248.144 24.03 248.37 24.092 248.562 24.216C248.758 24.336 248.908 24.51 249.012 24.738C249.12 24.962 249.174 25.23 249.174 25.542C249.174 25.85 249.12 26.118 249.012 26.346C248.908 26.57 248.758 26.744 248.562 26.868C248.37 26.992 248.144 27.054 247.884 27.054C247.66 27.054 247.46 27.004 247.284 26.904C247.108 26.804 246.978 26.666 246.894 26.49V28.08H246.408ZM247.782 26.664C248.054 26.664 248.272 26.568 248.436 26.376C248.6 26.18 248.682 25.902 248.682 25.542C248.682 25.178 248.6 24.9 248.436 24.708C248.272 24.516 248.054 24.42 247.782 24.42C247.51 24.42 247.292 24.516 247.128 24.708C246.964 24.9 246.882 25.178 246.882 25.542C246.882 25.902 246.964 26.18 247.128 26.376C247.292 26.568 247.51 26.664 247.782 26.664ZM251.279 27.054C250.819 27.054 250.455 26.92 250.187 26.652C249.919 26.38 249.785 26.012 249.785 25.548C249.785 25.248 249.845 24.984 249.965 24.756C250.085 24.524 250.249 24.346 250.457 24.222C250.669 24.094 250.913 24.03 251.189 24.03C251.585 24.03 251.895 24.158 252.119 24.414C252.343 24.666 252.455 25.014 252.455 25.458V25.644H250.259C250.275 25.976 250.371 26.23 250.547 26.406C250.723 26.578 250.967 26.664 251.279 26.664C251.455 26.664 251.623 26.638 251.783 26.586C251.943 26.53 252.095 26.44 252.239 26.316L252.407 26.658C252.275 26.782 252.107 26.88 251.903 26.952C251.699 27.02 251.491 27.054 251.279 27.054ZM251.201 24.39C250.925 24.39 250.707 24.476 250.547 24.648C250.387 24.82 250.293 25.046 250.265 25.326H252.035C252.023 25.03 251.945 24.8 251.801 24.636C251.661 24.472 251.461 24.39 251.201 24.39ZM254.452 27.054C254.16 27.054 253.908 26.992 253.696 26.868C253.484 26.74 253.32 26.562 253.204 26.334C253.092 26.102 253.036 25.832 253.036 25.524C253.036 25.06 253.162 24.696 253.414 24.432C253.666 24.164 254.012 24.03 254.452 24.03C254.632 24.03 254.81 24.062 254.986 24.126C255.162 24.19 255.308 24.28 255.424 24.396L255.256 24.75C255.14 24.638 255.012 24.556 254.872 24.504C254.736 24.452 254.606 24.426 254.482 24.426C254.178 24.426 253.944 24.522 253.78 24.714C253.616 24.902 253.534 25.174 253.534 25.53C253.534 25.878 253.616 26.154 253.78 26.358C253.944 26.558 254.178 26.658 254.482 26.658C254.606 26.658 254.736 26.632 254.872 26.58C255.012 26.528 255.14 26.444 255.256 26.328L255.424 26.682C255.308 26.798 255.16 26.89 254.98 26.958C254.804 27.022 254.628 27.054 254.452 27.054Z" fill="black"/>
<path d="M239.56 38V34.196H238.024V33.77H241.594V34.196H240.058V38H239.56ZM242.952 38.054C242.492 38.054 242.128 37.92 241.86 37.652C241.592 37.38 241.458 37.012 241.458 36.548C241.458 36.248 241.518 35.984 241.638 35.756C241.758 35.524 241.922 35.346 242.13 35.222C242.342 35.094 242.586 35.03 242.862 35.03C243.258 35.03 243.568 35.158 243.792 35.414C244.016 35.666 244.128 36.014 244.128 36.458V36.644H241.932C241.948 36.976 242.044 37.23 242.22 37.406C242.396 37.578 242.64 37.664 242.952 37.664C243.128 37.664 243.296 37.638 243.456 37.586C243.616 37.53 243.768 37.44 243.912 37.316L244.08 37.658C243.948 37.782 243.78 37.88 243.576 37.952C243.372 38.02 243.164 38.054 242.952 38.054ZM242.874 35.39C242.598 35.39 242.38 35.476 242.22 35.648C242.06 35.82 241.966 36.046 241.938 36.326H243.708C243.696 36.03 243.618 35.8 243.474 35.636C243.334 35.472 243.134 35.39 242.874 35.39ZM244.722 38.066L244.542 37.682C244.722 37.606 244.864 37.5 244.968 37.364C245.072 37.224 245.144 37.032 245.184 36.788C245.228 36.544 245.25 36.224 245.25 35.828V35.084H247.368V38H246.882V35.474H245.706V35.846C245.706 36.302 245.672 36.678 245.604 36.974C245.54 37.27 245.436 37.504 245.292 37.676C245.148 37.848 244.958 37.978 244.722 38.066ZM249.65 38.054C249.19 38.054 248.826 37.92 248.558 37.652C248.29 37.38 248.156 37.012 248.156 36.548C248.156 36.248 248.216 35.984 248.336 35.756C248.456 35.524 248.62 35.346 248.828 35.222C249.04 35.094 249.284 35.03 249.56 35.03C249.956 35.03 250.266 35.158 250.49 35.414C250.714 35.666 250.826 36.014 250.826 36.458V36.644H248.63C248.646 36.976 248.742 37.23 248.918 37.406C249.094 37.578 249.338 37.664 249.65 37.664C249.826 37.664 249.994 37.638 250.154 37.586C250.314 37.53 250.466 37.44 250.61 37.316L250.778 37.658C250.646 37.782 250.478 37.88 250.274 37.952C250.07 38.02 249.862 38.054 249.65 38.054ZM249.572 35.39C249.296 35.39 249.078 35.476 248.918 35.648C248.758 35.82 248.664 36.046 248.636 36.326H250.406C250.394 36.03 250.316 35.8 250.172 35.636C250.032 35.472 249.832 35.39 249.572 35.39ZM253.244 39.08V37.526C253.172 37.694 253.07 37.824 252.938 37.916C252.806 38.008 252.648 38.054 252.464 38.054C252.252 38.054 252.066 37.992 251.906 37.868C251.75 37.744 251.628 37.57 251.54 37.346C251.452 37.118 251.408 36.85 251.408 36.542C251.408 36.078 251.504 35.71 251.696 35.438C251.888 35.166 252.144 35.03 252.464 35.03C252.648 35.03 252.806 35.076 252.938 35.168C253.07 35.26 253.172 35.39 253.244 35.558V33.77H253.73V35.552C253.802 35.384 253.904 35.256 254.036 35.168C254.168 35.076 254.326 35.03 254.51 35.03C254.826 35.03 255.08 35.166 255.272 35.438C255.468 35.71 255.566 36.078 255.566 36.542C255.566 37.002 255.47 37.37 255.278 37.646C255.086 37.918 254.83 38.054 254.51 38.054C254.326 38.054 254.168 38.008 254.036 37.916C253.904 37.824 253.802 37.696 253.73 37.532V39.08H253.244ZM252.572 37.67C252.784 37.67 252.95 37.574 253.07 37.382C253.19 37.19 253.25 36.91 253.25 36.542C253.25 36.174 253.188 35.894 253.064 35.702C252.944 35.51 252.78 35.414 252.572 35.414C252.364 35.414 252.198 35.51 252.074 35.702C251.954 35.894 251.894 36.174 251.894 36.542C251.894 36.91 251.954 37.19 252.074 37.382C252.198 37.574 252.364 37.67 252.572 37.67ZM254.396 37.67C254.604 37.67 254.77 37.574 254.894 37.382C255.018 37.19 255.08 36.91 255.08 36.542C255.08 36.174 255.018 35.894 254.894 35.702C254.77 35.51 254.604 35.414 254.396 35.414C254.188 35.414 254.024 35.51 253.904 35.702C253.784 35.894 253.724 36.174 253.724 36.542C253.724 36.91 253.782 37.19 253.898 37.382C254.018 37.574 254.184 37.67 254.396 37.67ZM257.569 38.054C257.285 38.054 257.039 37.992 256.831 37.868C256.623 37.744 256.461 37.57 256.345 37.346C256.233 37.118 256.177 36.85 256.177 36.542C256.177 36.234 256.233 35.968 256.345 35.744C256.461 35.516 256.623 35.34 256.831 35.216C257.039 35.092 257.285 35.03 257.569 35.03C257.849 35.03 258.093 35.092 258.301 35.216C258.513 35.34 258.675 35.516 258.787 35.744C258.903 35.968 258.961 36.234 258.961 36.542C258.961 36.85 258.903 37.118 258.787 37.346C258.675 37.57 258.513 37.744 258.301 37.868C258.093 37.992 257.849 38.054 257.569 38.054ZM257.569 37.664C257.841 37.664 258.059 37.568 258.223 37.376C258.387 37.18 258.469 36.902 258.469 36.542C258.469 36.178 258.387 35.9 258.223 35.708C258.059 35.516 257.841 35.42 257.569 35.42C257.293 35.42 257.073 35.516 256.909 35.708C256.749 35.9 256.669 36.178 256.669 36.542C256.669 36.902 256.749 37.18 256.909 37.376C257.073 37.568 257.293 37.664 257.569 37.664ZM259.75 38V35.084H260.236V36.296H261.826V35.084H262.312V38H261.826V36.692H260.236V38H259.75Z" fill="black"/>
<path d="M253.009 51H252.991C250.79 51 249 49.2095 249 47.0088V46.9912C249 44.7905 250.79 43 252.991 43H253.009C255.21 43 257 44.7905 257 46.9912V47.0088C257 49.2095 255.21 51 253.009 51ZM252.991 43.2708C250.94 43.2708 249.271 44.9397 249.271 46.9912V47.0088C249.271 49.0603 250.94 50.7292 252.991 50.7292H253.009C255.06 50.7292 256.729 49.0603 256.729 47.0088V46.9912C256.729 44.9397 255.06 43.2708 253.009 43.2708H252.991Z" fill="#333333"/>
<path d="M254.196 44.7079H251.804C251.144 44.7079 250.606 45.2454 250.606 45.9061V48.0941C250.606 48.7549 251.144 49.2924 251.804 49.2924H254.196C254.857 49.2924 255.394 48.7549 255.394 48.0941V45.9061C255.394 45.2454 254.857 44.7079 254.196 44.7079ZM251.029 45.9061C251.029 45.4785 251.377 45.1306 251.804 45.1306H254.196C254.624 45.1306 254.972 45.4785 254.972 45.9061V48.0941C254.972 48.5217 254.624 48.8697 254.196 48.8697H251.804C251.377 48.8697 251.029 48.5217 251.029 48.0941V45.9061Z" fill="#333333"/>
<path d="M253 48.1144C253.615 48.1144 254.115 47.6146 254.115 46.9999C254.115 46.3852 253.615 45.8853 253 45.8853C252.385 45.8853 251.886 46.3852 251.886 46.9999C251.886 47.6146 252.385 48.1144 253 48.1144ZM253 46.3083C253.382 46.3083 253.692 46.6186 253.692 47.0001C253.692 47.3817 253.382 47.692 253 47.692C252.619 47.692 252.308 47.3817 252.308 47.0001C252.308 46.6186 252.619 46.3083 253 46.3083Z" fill="#333333"/>
<path d="M254.218 46.0654C254.383 46.0654 254.518 45.9308 254.518 45.765C254.518 45.5993 254.384 45.4647 254.218 45.4647C254.052 45.4647 253.918 45.5993 253.918 45.765C253.918 45.9308 254.052 46.0654 254.218 46.0654Z" fill="#333333"/>
<path d="M242 50.9995C241.785 50.9995 241.569 50.9822 241.359 50.9484C240.431 50.7991 239.581 50.3222 238.965 49.6057C238.343 48.8814 238 47.9559 238 46.9997C238 44.7942 239.794 43 242 43C244.206 43 246 44.7942 246 46.9997C246 47.9707 245.648 48.9072 245.008 49.6364C244.374 50.3588 243.504 50.8292 242.557 50.9613C242.374 50.9868 242.187 50.9997 242 50.9997L242 50.9995ZM242 43.3225C239.972 43.3225 238.322 44.972 238.322 46.9995C238.322 48.815 239.621 50.3416 241.41 50.6296C241.771 50.6877 242.149 50.6918 242.512 50.6412C244.316 50.3897 245.677 48.8241 245.677 46.9995C245.677 44.972 244.027 43.3225 242 43.3225Z" fill="#333333"/>
<path d="M242.534 46.2431V47.0793H243.569L243.405 48.2058H242.534V50.801C242.36 50.8252 242.181 50.8378 242 50.8378C241.79 50.8378 241.585 50.8211 241.385 50.7889V48.2058H240.431V47.0793H241.385V46.0562C241.385 45.4215 241.899 44.9067 242.534 44.9067V44.9072C242.536 44.9072 242.538 44.9067 242.54 44.9067H243.569V45.8809H242.896C242.697 45.8809 242.534 46.043 242.534 46.2429L242.534 46.2431Z" fill="#333333"/>
<path d="M264.009 51H263.991C261.79 51 260 49.2095 260 47.0088V46.9912C260 44.7905 261.79 43 263.991 43H264.009C266.21 43 268 44.7905 268 46.9912V47.0088C268 49.2095 266.21 51 264.009 51ZM263.991 43.2708C261.94 43.2708 260.271 44.9397 260.271 46.9912V47.0088C260.271 49.0603 261.94 50.7292 263.991 50.7292H264.009C266.06 50.7292 267.729 49.0603 267.729 47.0088V46.9912C267.729 44.9397 266.06 43.2708 264.009 43.2708H263.991Z" fill="#333333"/>
<path d="M265.868 45.9313V46.6611C265.741 46.6486 265.575 46.6197 265.392 46.5525C265.152 46.4648 264.974 46.3448 264.857 46.2519V47.7269L264.854 47.7223C264.856 47.7516 264.857 47.7814 264.857 47.8114C264.857 48.5439 264.261 49.1402 263.529 49.1402C262.796 49.1402 262.2 48.5439 262.2 47.8114C262.2 47.0789 262.796 46.4824 263.529 46.4824C263.6 46.4824 263.671 46.4881 263.74 46.4992V47.2184C263.674 47.1948 263.603 47.1821 263.529 47.1821C263.182 47.1821 262.899 47.4643 262.899 47.8114C262.899 48.1586 263.182 48.4407 263.529 48.4407C263.876 48.4407 264.158 48.1583 264.158 47.8114C264.158 47.7984 264.158 47.7854 264.157 47.7724V44.9061H264.886C264.889 44.9678 264.891 45.0301 264.894 45.0919C264.899 45.2134 264.942 45.3302 265.018 45.4257C265.106 45.5381 265.237 45.6686 265.421 45.7729C265.593 45.8701 265.754 45.9121 265.868 45.9319V45.9313Z" fill="#333333"/>
</svg>
