<svg width="25" height="25" viewBox="0 0 25 25" fill="none" xmlns="http://www.w3.org/2000/svg">
<path d="M12.5285 0H12.4715C5.5837 0 0 5.58368 0 12.4715V12.5285C0 19.4163 5.5837 25 12.4715 25H12.5285C19.4163 25 25 19.4163 25 12.5285V12.4715C25 5.58368 19.4163 0 12.5285 0Z" fill="#383D38"/>
<path d="M20.9044 13.4534C20.7144 12.7334 20.3158 12.0581 19.7754 11.5352C20.5988 10.1811 20.5725 8.45829 19.6966 7.20317C19.1877 6.47444 18.4178 5.93928 17.5288 5.69754C16.8106 5.50222 16.0258 5.5101 15.3032 5.71681C14.5421 4.3268 13.0374 3.48859 11.5116 3.6191C10.6261 3.6953 9.77738 4.09469 9.12398 4.74371C8.59583 5.26836 8.21045 5.95154 8.02827 6.68026C6.44557 6.6461 4.96533 7.52898 4.31631 8.91461C3.93881 9.71954 3.86086 10.6541 4.09647 11.5449C4.28653 12.2648 4.68507 12.9401 5.22548 13.463C4.40216 14.8171 4.42843 16.5399 5.3043 17.7951C5.81318 18.5238 6.58307 19.059 7.47208 19.3007C8.1938 19.4969 8.97419 19.4899 9.69766 19.2814C10.4027 20.5689 11.7507 21.3923 13.1723 21.3923C13.2774 21.3923 13.3842 21.3879 13.4884 21.3791C14.3739 21.3029 15.2227 20.9035 15.8761 20.2545C16.4042 19.7299 16.7896 19.0476 16.9726 18.318C17.0033 18.318 17.0348 18.3188 17.0655 18.3188C18.6281 18.3188 20.0487 17.4412 20.6846 16.0827C21.0621 15.2778 21.1401 14.3433 20.9044 13.4525V13.4534ZM13.9947 15.7149L9.8676 18.0973C9.83256 18.1139 9.79751 18.1297 9.76335 18.1445C9.37359 18.311 8.96281 18.395 8.54239 18.395C7.57981 18.395 6.69169 17.9457 6.16704 17.1933C5.54605 16.3026 5.51627 15.0737 6.07945 14.0858L10.479 16.6267L13.9614 14.4904L13.9938 15.7149H13.9947ZM11.5072 14.7611L10.4632 15.4013L6.33695 13.0189C6.30455 12.9962 6.27389 12.9743 6.24411 12.9515C5.10547 12.0975 4.6947 10.5875 5.26927 9.36218C5.72998 8.37858 6.78015 7.73919 7.91791 7.73306V12.8131L11.5081 14.7611H11.5072ZM13.8808 13.2966L12.5004 14.0936L11.1201 13.2966V11.7025L12.5004 10.9055L13.8808 11.7025V13.2966ZM13.4937 10.2381L14.5377 9.59779L18.664 11.9802C18.6964 12.0029 18.727 12.0248 18.7568 12.0476C19.8954 12.9016 20.3053 14.4116 19.7316 15.6369C19.2709 16.6205 18.2208 17.2599 17.083 17.266V12.186L13.4928 10.2381H13.4937ZM11.0062 9.28424L15.1333 6.90186C15.1684 6.88522 15.2034 6.86945 15.2375 6.85456C16.547 6.29576 18.0596 6.69516 18.8339 7.80489C19.4549 8.69565 19.4846 9.9245 18.9215 10.9125L14.522 8.37158L11.0395 10.5078L11.0071 9.28336L11.0062 9.28424ZM10.0454 12.7702L8.96895 12.186V7.42126C8.97245 7.38184 8.97595 7.3433 8.98033 7.30739C9.15112 5.89373 10.253 4.784 11.6018 4.66839C12.6844 4.57555 13.7626 5.16501 14.3372 6.14686L9.93677 8.68601L10.0454 12.7702ZM14.9555 12.2289L16.032 12.8131V17.5779C16.0285 17.6173 16.025 17.6558 16.0206 17.6917C15.8498 19.1054 14.7479 20.2151 13.3991 20.3307C12.3165 20.4244 11.2383 19.8341 10.6637 18.8523L15.0641 16.3131L14.9555 12.2289Z" fill="white"/>
</svg>
