<svg width="111" height="29" viewBox="0 0 111 29" fill="none" xmlns="http://www.w3.org/2000/svg">
<path d="M3.63379 3.62305C3.35124 3.68359 3.07878 3.75423 2.81641 3.83496C2.5944 3.91569 2.34212 4.00651 2.05957 4.10742C1.7972 4.18815 1.54492 4.28906 1.30273 4.41016C1.22201 4.10742 1.14128 3.77441 1.06055 3.41113C1 3.04785 0.989909 2.70475 1.03027 2.38184C1.07064 2.03874 1.18164 1.74609 1.36328 1.50391C1.5651 1.24154 1.89811 1.09017 2.3623 1.0498C2.80632 0.989258 3.32096 0.948893 3.90625 0.928711C4.49154 0.908529 5.09701 0.898438 5.72266 0.898438C6.36849 0.898438 7.02441 0.91862 7.69043 0.958984C8.35645 0.979167 9.01237 1.02962 9.6582 1.11035C9.69857 1.43327 9.72884 1.71582 9.74902 1.95801C9.76921 2.18001 9.7793 2.37174 9.7793 2.5332V3.01758C9.7793 3.13867 9.75911 3.23958 9.71875 3.32031C9.63802 3.52214 9.49674 3.65332 9.29492 3.71387C9.07292 3.65332 8.81055 3.61296 8.50781 3.59277C8.22526 3.55241 7.94271 3.51204 7.66016 3.47168C7.33724 3.43132 7.00423 3.40104 6.66113 3.38086C6.7015 4.08724 6.73177 5.11654 6.75195 6.46875C6.79232 7.80078 6.79232 9.55664 6.75195 11.7363C6.71159 13.9564 6.67122 15.7728 6.63086 17.1855C6.61068 18.5781 6.59049 19.6579 6.57031 20.4248C7.33724 20.4854 7.90234 20.6165 8.26562 20.8184C8.64909 21 8.90137 21.2119 9.02246 21.4541C9.16374 21.7165 9.21419 21.999 9.17383 22.3018C9.15365 22.6045 9.13346 22.8971 9.11328 23.1797C8.77018 23.099 8.37663 23.0384 7.93262 22.998C7.50879 22.9779 7.10514 22.9678 6.72168 22.9678C6.27767 22.9678 5.82357 22.988 5.35938 23.0283C4.83464 23.0687 4.33008 23.1292 3.8457 23.21C3.44206 23.2907 3.03841 23.3916 2.63477 23.5127C2.23112 23.6338 1.92839 23.8053 1.72656 24.0273C1.5651 23.7246 1.44401 23.4017 1.36328 23.0586C1.28255 22.776 1.22201 22.443 1.18164 22.0596C1.14128 21.6761 1.15137 21.2826 1.21191 20.8789C1.43392 20.7982 1.6862 20.7376 1.96875 20.6973C2.2513 20.6367 2.51367 20.5863 2.75586 20.5459C3.03841 20.5055 3.33105 20.4753 3.63379 20.4551C3.67415 19.8092 3.72461 18.9111 3.78516 17.7607C3.8457 16.5902 3.89616 15.026 3.93652 13.0684C3.97689 10.6061 3.95671 8.60807 3.87598 7.07422C3.79525 5.52018 3.71452 4.36979 3.63379 3.62305ZM19.1943 10.8887C19.3558 11.0098 19.4567 11.1813 19.4971 11.4033C19.5374 11.6051 19.5475 11.8171 19.5273 12.0391C19.5273 12.2409 19.5072 12.4427 19.4668 12.6445C19.4264 12.8464 19.4062 13.0078 19.4062 13.1289C19.1641 13.0482 18.7907 12.9977 18.2861 12.9775C17.8018 12.9574 17.3073 12.9372 16.8027 12.917H14.9258C14.2598 12.9574 13.624 13.0078 13.0186 13.0684C12.4938 13.1289 11.9792 13.1995 11.4746 13.2803C10.9701 13.361 10.5866 13.4821 10.3242 13.6436C10.1628 13.5023 10.0518 13.25 9.99121 12.8867C9.93066 12.5033 9.97103 12.0693 10.1123 11.585C10.4554 11.484 10.859 11.3932 11.3232 11.3125C11.7874 11.2318 12.2214 11.1611 12.625 11.1006C13.1094 11.0199 13.5938 10.9492 14.0781 10.8887C15.4102 10.6667 16.5101 10.5456 17.3779 10.5254C18.2458 10.5052 18.8512 10.6263 19.1943 10.8887ZM27.3076 23.6641C26.2178 23.6641 25.2288 23.3916 24.3408 22.8467C23.4528 22.3219 22.696 21.5954 22.0703 20.667C21.4648 19.7386 20.9906 18.6488 20.6475 17.3975C20.3245 16.1462 20.1631 14.7939 20.1631 13.3408C20.1631 11.262 20.4053 9.40527 20.8896 7.77051C21.374 6.13574 22.0098 4.75326 22.7969 3.62305C23.6042 2.49284 24.5124 1.625 25.5215 1.01953C26.5508 0.414062 27.6003 0.111328 28.6699 0.111328C29.679 0.111328 30.5267 0.292969 31.2129 0.65625C31.8991 1.01953 32.444 1.48372 32.8477 2.04883C33.2715 2.61393 33.554 3.23958 33.6953 3.92578C33.8568 4.5918 33.9072 5.22754 33.8467 5.83301C33.7458 7.00358 33.3421 7.95215 32.6357 8.67871C31.9495 9.40527 31.1523 9.76855 30.2441 9.76855C29.9414 9.74837 29.6286 9.69792 29.3057 9.61719C29.0231 9.53646 28.7305 9.41536 28.4277 9.25391C28.125 9.09245 27.8424 8.86035 27.5801 8.55762C28.4277 8.61816 29.0837 8.44661 29.5479 8.04297C30.012 7.63932 30.3551 7.18522 30.5771 6.68066C30.8193 6.09538 30.9606 5.40918 31.001 4.62207C31.001 4.17806 30.9303 3.7946 30.7891 3.47168C30.6478 3.12858 30.4561 2.85612 30.2139 2.6543C29.9919 2.43229 29.7497 2.27083 29.4873 2.16992C29.2249 2.06901 28.9727 2.01855 28.7305 2.01855C28.1855 2.01855 27.5902 2.23047 26.9443 2.6543C26.3187 3.07812 25.7233 3.72396 25.1582 4.5918C24.5931 5.43945 24.1188 6.5293 23.7354 7.86133C23.3721 9.17318 23.1904 10.7373 23.1904 12.5537C23.1904 14.3499 23.3519 15.8232 23.6748 16.9736C23.9977 18.1038 24.3913 18.9919 24.8555 19.6377C25.3197 20.2633 25.804 20.6973 26.3086 20.9395C26.8333 21.1615 27.2773 21.2725 27.6406 21.2725C28.347 21.2119 28.9928 20.9697 29.5781 20.5459C30.0827 20.1826 30.557 19.6074 31.001 18.8203C31.4652 18.013 31.778 16.8626 31.9395 15.3691C32.2018 15.3893 32.4137 15.4499 32.5752 15.5508C32.7568 15.6517 32.9082 15.7526 33.0293 15.8535C33.1504 15.9746 33.2614 16.1159 33.3623 16.2773C33.3825 16.2975 33.3825 16.4993 33.3623 16.8828C33.3421 17.2663 33.2715 17.7305 33.1504 18.2754C33.0293 18.8203 32.8376 19.4056 32.5752 20.0312C32.333 20.6569 31.9798 21.2422 31.5156 21.7871C31.0716 22.332 30.5065 22.776 29.8203 23.1191C29.1341 23.4824 28.2965 23.6641 27.3076 23.6641ZM44.2002 19.4561C44.2406 19.5973 44.3011 19.7285 44.3818 19.8496C44.4424 19.9505 44.5231 20.0514 44.624 20.1523C44.7451 20.2331 44.8864 20.2835 45.0479 20.3037C44.9066 20.5863 44.7653 20.778 44.624 20.8789C44.5433 20.9395 44.4727 20.9798 44.4121 21C44.2305 21.0605 43.958 21.0908 43.5947 21.0908C43.2314 21.0908 42.8783 20.9798 42.5352 20.7578C42.4141 20.6569 42.3031 20.5055 42.2021 20.3037C42.1012 20.1423 42.0104 19.9202 41.9297 19.6377C41.8691 19.335 41.8187 18.9515 41.7783 18.4873C41.4958 19.0928 41.1729 19.5771 40.8096 19.9404C40.4665 20.2835 40.1234 20.5358 39.7803 20.6973C39.3968 20.9193 39.0033 21.0505 38.5996 21.0908C38.0951 21.1312 37.6107 21.0505 37.1465 20.8486C36.7025 20.6266 36.319 20.3037 35.9961 19.8799C35.6934 19.4359 35.4613 18.901 35.2998 18.2754C35.1383 17.6497 35.0879 16.9434 35.1484 16.1562C35.209 15.3288 35.3704 14.5921 35.6328 13.9463C35.8952 13.3005 36.208 12.7253 36.5713 12.2207C36.9346 11.7161 37.318 11.2923 37.7217 10.9492C38.1253 10.5859 38.5088 10.2933 38.8721 10.0713C39.2555 9.8291 39.5785 9.65755 39.8408 9.55664C40.1234 9.43555 40.305 9.36491 40.3857 9.34473C40.6077 9.28418 40.7995 9.264 40.9609 9.28418C41.1224 9.30436 41.2637 9.39518 41.3848 9.55664C41.4251 9.61719 41.4756 9.68783 41.5361 9.76855C41.5765 9.84928 41.627 9.96029 41.6875 10.1016C41.748 10.2227 41.7985 10.3639 41.8389 10.5254C41.3545 10.7474 40.9004 10.9997 40.4766 11.2822C40.0527 11.5446 39.6592 11.8675 39.2959 12.251C38.9528 12.6344 38.6501 13.0986 38.3877 13.6436C38.1253 14.1885 37.9235 14.8545 37.7822 15.6416C37.5804 16.6305 37.6309 17.4277 37.9336 18.0332C38.2565 18.6387 38.6904 18.891 39.2354 18.79C39.5583 18.6891 39.8711 18.4974 40.1738 18.2148C40.4362 17.9727 40.7087 17.6094 40.9912 17.125C41.2939 16.6406 41.5765 15.9746 41.8389 15.127C41.9398 13.916 42.0205 12.9674 42.0811 12.2812C42.1618 11.5749 42.2324 11.04 42.293 10.6768C42.3737 10.2529 42.4342 9.97038 42.4746 9.8291C42.5352 9.72819 42.6562 9.63737 42.8379 9.55664C43.0195 9.45573 43.2214 9.375 43.4434 9.31445C43.6654 9.25391 43.8672 9.22363 44.0488 9.22363C44.2305 9.20345 44.3516 9.20345 44.4121 9.22363C44.4525 9.24382 44.4727 9.49609 44.4727 9.98047C44.4727 10.4447 44.4525 11.04 44.4121 11.7666C44.3919 12.473 44.3617 13.25 44.3213 14.0977C44.2809 14.9251 44.2406 15.7122 44.2002 16.459C44.18 17.2057 44.1598 17.8617 44.1396 18.4268C44.1396 18.9717 44.1598 19.3148 44.2002 19.4561ZM58.1865 7.52832C57.9645 7.48796 57.6618 7.44759 57.2783 7.40723C56.915 7.36686 56.5417 7.33659 56.1582 7.31641C55.7142 7.29622 55.2399 7.28613 54.7354 7.28613C54.2308 7.24577 53.5951 7.24577 52.8281 7.28613C52.0814 7.30632 51.2943 7.31641 50.4668 7.31641C50.4466 7.84115 50.4062 8.37598 50.3457 8.9209C50.3053 9.46582 50.265 10.0007 50.2246 10.5254C50.1237 11.4941 50.0329 12.4831 49.9521 13.4922C49.8916 14.5013 49.8613 15.46 49.8613 16.3682C49.8613 17.2764 49.9118 18.1038 50.0127 18.8506C50.1338 19.5771 50.3457 20.1523 50.6484 20.5762C50.4062 20.7578 50.1439 20.8991 49.8613 21C49.5788 21.0807 49.3265 21.1413 49.1045 21.1816C48.8421 21.2422 48.5798 21.2725 48.3174 21.2725C48.0752 21.2725 47.8734 21.1917 47.7119 21.0303C47.5505 20.8688 47.4596 20.5863 47.4395 20.1826C47.3991 19.4964 47.389 18.8102 47.4092 18.124C47.4495 17.4176 47.4899 16.681 47.5303 15.9141C47.5908 15.1471 47.6514 14.3298 47.7119 13.4619C47.7725 12.5739 47.833 11.6051 47.8936 10.5557C47.9541 9.46582 47.9844 8.40625 47.9844 7.37695C47.2174 7.39714 46.5716 7.40723 46.0469 7.40723C45.5221 7.40723 45.2295 7.39714 45.1689 7.37695C45.1084 7.33659 45.0378 7.24577 44.957 7.10449C44.8763 6.9834 44.7754 6.80176 44.6543 6.55957C44.513 6.31738 44.3415 5.97428 44.1396 5.53027C44.5231 5.53027 44.9469 5.53027 45.4111 5.53027C45.8551 5.53027 46.2689 5.52018 46.6523 5.5C47.0964 5.47982 47.5404 5.45964 47.9844 5.43945C47.9642 5.11654 47.9541 4.77344 47.9541 4.41016C47.9339 4.1276 47.9238 3.81478 47.9238 3.47168C47.9238 3.1084 47.9137 2.77539 47.8936 2.47266C47.8936 2.35156 48.0348 2.21029 48.3174 2.04883C48.6201 1.86719 48.943 1.70573 49.2861 1.56445C49.6292 1.42318 49.9421 1.33236 50.2246 1.29199C50.5273 1.25163 50.6787 1.32227 50.6787 1.50391C50.6787 1.68555 50.6686 2.12956 50.6484 2.83594C50.6484 3.52214 50.6283 4.3597 50.5879 5.34863C50.7897 5.34863 50.9411 5.33854 51.042 5.31836C52.1117 5.27799 52.9694 5.23763 53.6152 5.19727C54.2812 5.13672 54.8262 5.12663 55.25 5.16699C55.6738 5.20736 56.0472 5.30827 56.3701 5.46973C56.693 5.63118 57.0563 5.89355 57.46 6.25684C57.6012 6.37793 57.7223 6.50911 57.8232 6.65039C57.9242 6.77148 58.0049 6.91276 58.0654 7.07422C58.1462 7.21549 58.1865 7.36686 58.1865 7.52832ZM61.8496 19.4561C61.89 19.5973 61.9505 19.7285 62.0312 19.8496C62.0918 19.9505 62.1725 20.0514 62.2734 20.1523C62.3945 20.2331 62.5358 20.2835 62.6973 20.3037C62.556 20.5863 62.4147 20.778 62.2734 20.8789C62.1927 20.9395 62.1221 20.9798 62.0615 21C61.8799 21.0605 61.6074 21.0908 61.2441 21.0908C60.8809 21.0908 60.5277 20.9798 60.1846 20.7578C60.0635 20.6569 59.9525 20.5055 59.8516 20.3037C59.7507 20.1423 59.6598 19.9202 59.5791 19.6377C59.5186 19.335 59.4681 18.9515 59.4277 18.4873C59.1452 19.0928 58.8223 19.5771 58.459 19.9404C58.1159 20.2835 57.7728 20.5358 57.4297 20.6973C57.0462 20.9193 56.6527 21.0505 56.249 21.0908C55.7445 21.1312 55.2601 21.0505 54.7959 20.8486C54.3519 20.6266 53.9684 20.3037 53.6455 19.8799C53.3428 19.4359 53.1107 18.901 52.9492 18.2754C52.7878 17.6497 52.7373 16.9434 52.7979 16.1562C52.8584 15.3288 53.0199 14.5921 53.2822 13.9463C53.5446 13.3005 53.8574 12.7253 54.2207 12.2207C54.584 11.7161 54.9674 11.2923 55.3711 10.9492C55.7747 10.5859 56.1582 10.2933 56.5215 10.0713C56.9049 9.8291 57.2279 9.65755 57.4902 9.55664C57.7728 9.43555 57.9544 9.36491 58.0352 9.34473C58.2572 9.28418 58.4489 9.264 58.6104 9.28418C58.7718 9.30436 58.9131 9.39518 59.0342 9.55664C59.0745 9.61719 59.125 9.68783 59.1855 9.76855C59.2259 9.84928 59.2764 9.96029 59.3369 10.1016C59.3975 10.2227 59.4479 10.3639 59.4883 10.5254C59.0039 10.7474 58.5498 10.9997 58.126 11.2822C57.7021 11.5446 57.3086 11.8675 56.9453 12.251C56.6022 12.6344 56.2995 13.0986 56.0371 13.6436C55.7747 14.1885 55.5729 14.8545 55.4316 15.6416C55.2298 16.6305 55.2803 17.4277 55.583 18.0332C55.9059 18.6387 56.3398 18.891 56.8848 18.79C57.2077 18.6891 57.5205 18.4974 57.8232 18.2148C58.0856 17.9727 58.3581 17.6094 58.6406 17.125C58.9434 16.6406 59.2259 15.9746 59.4883 15.127C59.5892 13.916 59.6699 12.9674 59.7305 12.2812C59.8112 11.5749 59.8818 11.04 59.9424 10.6768C60.0231 10.2529 60.0837 9.97038 60.124 9.8291C60.1846 9.72819 60.3057 9.63737 60.4873 9.55664C60.6689 9.45573 60.8708 9.375 61.0928 9.31445C61.3148 9.25391 61.5166 9.22363 61.6982 9.22363C61.8799 9.20345 62.001 9.20345 62.0615 9.22363C62.1019 9.24382 62.1221 9.49609 62.1221 9.98047C62.1221 10.4447 62.1019 11.04 62.0615 11.7666C62.0413 12.473 62.0111 13.25 61.9707 14.0977C61.9303 14.9251 61.89 15.7122 61.8496 16.459C61.8294 17.2057 61.8092 17.8617 61.7891 18.4268C61.7891 18.9717 61.8092 19.3148 61.8496 19.4561ZM68.3887 1.38281C68.3483 2.10938 68.2777 2.94694 68.1768 3.89551C68.0758 4.84408 67.9648 5.86328 67.8438 6.95312C67.7428 8.04297 67.6318 9.18327 67.5107 10.374C67.4098 11.5648 67.319 12.7656 67.2383 13.9766C67.1576 15.1875 67.1172 16.1764 67.1172 16.9434C67.1374 17.6901 67.1878 18.3057 67.2686 18.79C67.3493 19.2744 67.4603 19.6579 67.6016 19.9404C67.7428 20.223 67.9245 20.4954 68.1465 20.7578C67.8841 20.9193 67.6419 21.0404 67.4199 21.1211C67.1979 21.2018 67.0062 21.2624 66.8447 21.3027C66.6429 21.3633 66.4613 21.3936 66.2998 21.3936C65.9971 21.3936 65.7347 21.2523 65.5127 20.9697C65.2907 20.667 65.109 20.2835 64.9678 19.8193C64.8467 19.3551 64.7458 18.8405 64.665 18.2754C64.6045 17.6901 64.5742 17.1149 64.5742 16.5498C64.5742 15.9443 64.5944 15.248 64.6348 14.4609C64.6751 13.6536 64.7155 12.806 64.7559 11.918C64.8164 11.0098 64.877 10.0713 64.9375 9.10254C64.998 8.11361 65.0485 7.13477 65.0889 6.16602C65.1292 5.41927 65.1696 4.74316 65.21 4.1377C65.2503 3.61296 65.2806 3.13867 65.3008 2.71484C65.321 2.27083 65.3109 2.00846 65.2705 1.92773C65.3916 1.76628 65.543 1.64518 65.7246 1.56445C65.9062 1.48372 66.0778 1.41309 66.2393 1.35254C66.4411 1.29199 66.6429 1.24154 66.8447 1.20117H67.4199C67.5814 1.20117 67.7529 1.22135 67.9346 1.26172C68.1162 1.2819 68.2676 1.32227 68.3887 1.38281ZM78.167 15.793C78.1266 16.5801 77.9854 17.3066 77.7432 17.9727C77.5212 18.6387 77.2083 19.224 76.8047 19.7285C76.401 20.2129 75.9167 20.5964 75.3516 20.8789C74.8066 21.1615 74.2012 21.3128 73.5352 21.333C72.9499 21.3532 72.3949 21.2119 71.8701 20.9092C71.3656 20.6064 70.9215 20.1826 70.5381 19.6377C70.1546 19.0928 69.862 18.4469 69.6602 17.7002C69.4785 16.9333 69.4281 16.1058 69.5088 15.2178C69.5693 14.1885 69.7611 13.3105 70.084 12.584C70.4069 11.8372 70.75 11.2217 71.1133 10.7373C71.4766 10.2529 71.8096 9.89974 72.1123 9.67773C72.4352 9.43555 72.637 9.29427 72.7178 9.25391C72.859 9.19336 72.9902 9.18327 73.1113 9.22363C73.2324 9.24382 73.3636 9.27409 73.5049 9.31445C73.5452 9.33464 73.5856 9.38509 73.626 9.46582C73.7067 9.6071 73.7572 9.86947 73.7773 10.2529C73.8783 10.0309 74.0094 9.84928 74.1709 9.70801C74.3324 9.56673 74.4938 9.46582 74.6553 9.40527C74.8571 9.32454 75.0589 9.27409 75.2607 9.25391C75.402 9.23372 75.6442 9.34473 75.9873 9.58691C76.3506 9.8291 76.6937 10.2126 77.0166 10.7373C77.3597 11.262 77.6523 11.9482 77.8945 12.7959C78.1367 13.6234 78.2275 14.6224 78.167 15.793ZM76.1084 15.4297C76.1286 14.9453 76.1084 14.4609 76.0479 13.9766C76.0075 13.472 75.9268 13.0179 75.8057 12.6143C75.7048 12.1904 75.5736 11.8574 75.4121 11.6152C75.2507 11.3529 75.0892 11.2217 74.9277 11.2217C74.7461 11.262 74.5443 11.3529 74.3223 11.4941C74.1406 11.6152 73.9388 11.807 73.7168 12.0693C73.4948 12.3317 73.2829 12.7051 73.0811 13.1895C73.0609 13.1289 73.0407 13.0179 73.0205 12.8564C73.0003 12.7152 72.9801 12.5335 72.96 12.3115C72.96 12.0693 72.9801 11.7464 73.0205 11.3428C72.738 11.6859 72.516 12.0895 72.3545 12.5537C72.2132 13.0179 72.1022 13.4619 72.0215 13.8857C71.9408 14.3903 71.8802 14.8949 71.8398 15.3994C71.8197 15.9443 71.8398 16.4792 71.9004 17.0039C71.9811 17.5286 72.1022 17.9928 72.2637 18.3965C72.4453 18.8001 72.6572 19.123 72.8994 19.3652C73.1416 19.6074 73.4342 19.7184 73.7773 19.6982C74.1204 19.6781 74.4232 19.5368 74.6855 19.2744C74.9479 19.012 75.18 18.679 75.3818 18.2754C75.5837 17.8717 75.7451 17.4176 75.8662 16.9131C75.9873 16.4085 76.068 15.9141 76.1084 15.4297ZM83.1318 21.2725C82.708 21.2725 82.2741 21.1615 81.8301 20.9395C81.3861 20.7174 80.9723 20.3844 80.5889 19.9404C80.2054 19.4762 79.8926 18.9111 79.6504 18.2451C79.4082 17.5589 79.2871 16.7617 79.2871 15.8535C79.2871 14.5215 79.4587 13.4215 79.8018 12.5537C80.1449 11.6657 80.5586 10.9593 81.043 10.4346C81.5475 9.88965 82.0924 9.50618 82.6777 9.28418C83.263 9.06217 83.7979 8.95117 84.2822 8.95117C84.7868 8.95117 85.2005 9.04199 85.5234 9.22363C85.8665 9.38509 86.1491 9.57682 86.3711 9.79883V9.22363C86.4922 9.12272 86.6234 9.0319 86.7646 8.95117C86.9261 8.87044 87.0876 8.8099 87.249 8.76953C87.4105 8.70898 87.582 8.67871 87.7637 8.67871H88.2178C88.3389 8.69889 88.46 8.71908 88.5811 8.73926C88.7223 8.75944 88.8232 8.8099 88.8838 8.89062C88.7627 11.5345 88.6618 13.6738 88.5811 15.3086C88.5003 16.9434 88.4398 18.2148 88.3994 19.123C88.3389 20.1927 88.2985 20.9697 88.2783 21.4541C88.238 22.3018 88.127 23.1393 87.9453 23.9668C87.7637 24.8145 87.4811 25.5713 87.0977 26.2373C86.7142 26.9033 86.2096 27.4382 85.584 27.8418C84.9583 28.2454 84.1914 28.4473 83.2832 28.4473C82.4961 28.4473 81.8604 28.2959 81.376 27.9932C80.9118 27.6904 80.5485 27.3171 80.2861 26.873C80.0439 26.429 79.8825 25.9548 79.8018 25.4502C79.721 24.9658 79.6807 24.5218 79.6807 24.1182C79.6807 24.0173 79.7311 23.8659 79.832 23.6641C79.9531 23.4622 80.1146 23.2503 80.3164 23.0283C80.5384 22.8265 80.8109 22.6449 81.1338 22.4834C81.4567 22.3219 81.82 22.221 82.2236 22.1807C82.042 22.7256 81.931 23.2201 81.8906 23.6641C81.8503 23.9062 81.8402 24.1484 81.8604 24.3906C81.8604 25.0566 81.9915 25.6117 82.2539 26.0557C82.5163 26.4997 82.9199 26.7217 83.4648 26.7217C84.0501 26.7217 84.5244 26.4694 84.8877 25.9648C85.251 25.4805 85.5234 24.8851 85.7051 24.1787C85.9069 23.4925 86.0381 22.766 86.0986 21.999C86.1794 21.2523 86.2197 20.6165 86.2197 20.0918V19.2139C86.0986 19.4359 85.9473 19.668 85.7656 19.9102C85.6042 20.1523 85.4023 20.3743 85.1602 20.5762C84.918 20.778 84.6253 20.9395 84.2822 21.0605C83.9593 21.2018 83.5758 21.2725 83.1318 21.2725ZM84.373 10.6768C84.0299 10.6768 83.6969 10.8281 83.374 11.1309C83.0713 11.4336 82.7988 11.8372 82.5566 12.3418C82.3145 12.8262 82.1227 13.3812 81.9814 14.0068C81.8402 14.6325 81.7695 15.2581 81.7695 15.8838C81.7695 16.2874 81.7897 16.7012 81.8301 17.125C81.8906 17.5488 81.9915 17.9424 82.1328 18.3057C82.2943 18.6488 82.4961 18.9313 82.7383 19.1533C82.9805 19.3753 83.3034 19.4863 83.707 19.4863C84.0098 19.4661 84.2923 19.3451 84.5547 19.123C84.7767 18.9414 84.9987 18.6488 85.2207 18.2451C85.4629 17.8415 85.6546 17.2663 85.7959 16.5195C85.9574 16.681 86.0785 16.8324 86.1592 16.9736C86.2601 17.1149 86.3408 17.2461 86.4014 17.3672C86.4215 17.2057 86.4316 17.014 86.4316 16.792C86.4518 16.57 86.4619 16.3177 86.4619 16.0352C86.4619 15.4902 86.4316 14.9049 86.3711 14.2793C86.3105 13.6335 86.1995 13.0482 86.0381 12.5234C85.8968 11.9987 85.6849 11.5648 85.4023 11.2217C85.14 10.8584 84.7969 10.6768 84.373 10.6768ZM97.6328 9.73828C97.6328 9.51628 97.764 9.35482 98.0264 9.25391C98.3089 9.13281 98.6016 9.07227 98.9043 9.07227C99.2272 9.07227 99.5199 9.13281 99.7822 9.25391C100.045 9.35482 100.166 9.49609 100.146 9.67773C100.125 9.81901 100.105 10.1016 100.085 10.5254C100.065 10.929 100.035 11.4134 99.9941 11.9785C99.974 12.5436 99.9437 13.1491 99.9033 13.7949C99.863 14.4408 99.8226 15.0765 99.7822 15.7021C99.762 16.3076 99.7419 16.8727 99.7217 17.3975C99.7217 17.9222 99.7217 18.3258 99.7217 18.6084C99.7217 18.9717 99.7419 19.3047 99.7822 19.6074C99.8226 19.8698 99.873 20.1322 99.9336 20.3945C99.9941 20.6367 100.085 20.8083 100.206 20.9092C100.045 20.9697 99.873 21.0101 99.6914 21.0303C99.5299 21.0505 99.3786 21.0706 99.2373 21.0908C99.0758 21.111 98.9144 21.1211 98.7529 21.1211C98.4098 21.1211 98.1172 21.0505 97.875 20.9092C97.653 20.7679 97.542 20.4753 97.542 20.0312C97.542 19.8092 97.5521 19.4863 97.5723 19.0625C97.6126 18.6387 97.653 18.1846 97.6934 17.7002C97.5521 18.124 97.3805 18.5579 97.1787 19.002C96.9769 19.446 96.7246 19.8395 96.4219 20.1826C96.1393 20.5257 95.8164 20.8083 95.4531 21.0303C95.0898 21.2523 94.6761 21.3633 94.2119 21.3633C93.6872 21.3633 93.2028 21.2523 92.7588 21.0303C92.335 20.8083 91.9616 20.4954 91.6387 20.0918C91.3158 19.668 91.0736 19.1533 90.9121 18.5479C90.7507 17.9424 90.6901 17.2461 90.7305 16.459C90.7305 15.8535 90.7406 15.2077 90.7607 14.5215C90.7809 13.9362 90.8112 13.2601 90.8516 12.4932C90.8919 11.7262 90.9626 10.929 91.0635 10.1016C91.0837 10.0208 91.2249 9.91992 91.4873 9.79883C91.7497 9.67773 92.0423 9.57682 92.3652 9.49609C92.6882 9.41536 93.001 9.38509 93.3037 9.40527C93.6064 9.42546 93.8285 9.54655 93.9697 9.76855C93.8688 10.1318 93.7679 10.5658 93.667 11.0703C93.5661 11.5547 93.4753 12.0592 93.3945 12.584C93.3138 13.1087 93.2533 13.6234 93.2129 14.1279C93.1725 14.6325 93.1523 15.0967 93.1523 15.5205C93.1523 15.904 93.1725 16.3278 93.2129 16.792C93.2533 17.236 93.3239 17.6598 93.4248 18.0635C93.5459 18.4469 93.7074 18.7699 93.9092 19.0322C94.1312 19.2946 94.4137 19.4258 94.7568 19.4258C95.1403 19.4258 95.4733 19.2643 95.7559 18.9414C96.0586 18.5983 96.3109 18.1644 96.5127 17.6396C96.7145 17.1149 96.8861 16.5195 97.0273 15.8535C97.1686 15.1673 97.2796 14.4912 97.3604 13.8252C97.4613 13.1592 97.5218 12.5234 97.542 11.918C97.5824 11.2923 97.6126 10.7676 97.6328 10.3438V9.73828ZM106.321 21.333C104.909 21.333 103.819 20.8587 103.052 19.9102C102.285 18.9616 101.901 17.7204 101.901 16.1865C101.901 15.1169 102.053 14.1178 102.355 13.1895C102.678 12.2409 103.102 11.4235 103.627 10.7373C104.152 10.0511 104.757 9.51628 105.443 9.13281C106.15 8.72917 106.886 8.52734 107.653 8.52734C108.4 8.52734 109.036 8.7998 109.561 9.34473C110.085 9.86947 110.348 10.6263 110.348 11.6152C110.348 12.2611 110.206 12.9069 109.924 13.5527C109.641 14.1784 109.268 14.7435 108.804 15.248C108.36 15.7324 107.865 16.126 107.32 16.4287C106.775 16.7314 106.251 16.8828 105.746 16.8828C105.423 16.8828 105.151 16.8424 104.929 16.7617C104.707 16.681 104.505 16.5599 104.323 16.3984C104.384 17.5488 104.636 18.3561 105.08 18.8203C105.524 19.2643 106.099 19.4863 106.806 19.4863C107.29 19.4863 107.714 19.3854 108.077 19.1836C108.461 18.9818 108.784 18.7497 109.046 18.4873C109.308 18.2249 109.52 17.9626 109.682 17.7002C109.843 17.4176 109.954 17.2057 110.015 17.0645C110.075 16.9434 110.176 16.8828 110.317 16.8828C110.479 16.8828 110.56 17.0039 110.56 17.2461C110.56 17.4681 110.479 17.8112 110.317 18.2754C110.176 18.7194 109.934 19.1735 109.591 19.6377C109.248 20.0817 108.804 20.4753 108.259 20.8184C107.734 21.1615 107.088 21.333 106.321 21.333ZM107.714 9.8291C107.593 9.8291 107.361 9.96029 107.018 10.2227C106.695 10.4648 106.341 10.8281 105.958 11.3125C105.595 11.7969 105.252 12.3822 104.929 13.0684C104.626 13.7344 104.434 14.4912 104.354 15.3389C105.564 15.0563 106.523 14.6123 107.229 14.0068C107.936 13.4014 108.289 12.5133 108.289 11.3428C108.289 10.7575 108.218 10.3639 108.077 10.1621C107.936 9.9401 107.815 9.8291 107.714 9.8291Z" fill="#926B6A"/>
</svg>
