<svg width="17" height="15" viewBox="0 0 17 15" fill="none" xmlns="http://www.w3.org/2000/svg">
<path d="M8.25 2.6625C9.62905 2.65791 10.9814 3.04259 12.1516 3.77229C13.3218 4.502 14.2623 5.54712 14.865 6.7875C14.4299 7.68357 13.8146 8.48019 13.0575 9.1275L14.115 10.185C15.1575 9.2625 15.9825 8.1075 16.5 6.7875C15.2025 3.495 12 1.1625 8.25 1.1625C7.2975 1.1625 6.3825 1.3125 5.52 1.59L6.7575 2.8275C7.245 2.73 7.74 2.6625 8.25 2.6625ZM7.4475 3.5175L9 5.07C9.4275 5.2575 9.7725 5.6025 9.96 6.03L11.5125 7.5825C11.5725 7.3275 11.6175 7.0575 11.6175 6.78C11.625 4.92 10.11 3.4125 8.25 3.4125C7.9725 3.4125 7.71 3.45 7.4475 3.5175ZM0.7575 1.065L2.7675 3.075C1.5303 4.04342 0.574751 5.32525 0 6.7875C1.2975 10.08 4.5 12.4125 8.25 12.4125C9.39 12.4125 10.485 12.195 11.49 11.7975L14.055 14.3625L15.1125 13.305L1.815 0L0.7575 1.065ZM6.3825 6.69L8.34 8.6475C8.31 8.655 8.28 8.6625 8.25 8.6625C7.75272 8.6625 7.27581 8.46496 6.92417 8.11333C6.57254 7.76169 6.375 7.28478 6.375 6.7875C6.375 6.75 6.3825 6.7275 6.3825 6.69ZM3.8325 4.14L5.145 5.4525C4.96718 5.87514 4.87539 6.32898 4.875 6.7875C4.87597 7.34552 5.01508 7.89461 5.2799 8.38579C5.54473 8.87696 5.92703 9.29494 6.3927 9.60241C6.85836 9.90988 7.39291 10.0973 7.94862 10.1479C8.50434 10.1985 9.06395 10.1108 9.5775 9.8925L10.3125 10.6275C9.6525 10.8075 8.9625 10.9125 8.25 10.9125C6.87095 10.9171 5.51859 10.5324 4.34841 9.80271C3.17822 9.073 2.23771 8.02788 1.635 6.7875C2.16 5.715 2.925 4.83 3.8325 4.14Z" fill="#926B6A"/>
</svg>
