<svg width="280" height="50" viewBox="0 0 280 50" fill="none" xmlns="http://www.w3.org/2000/svg">
<mask id="path-1-inside-1_11_183" fill="white">
<path d="M0 0H280V50H0V0Z"/>
</mask>
<path d="M0 0H280V50H0V0Z" fill="white"/>
<path d="M280 49H0V51H280V49Z" fill="#BFBFBF" mask="url(#path-1-inside-1_11_183)"/>
<path d="M10.56 28.15L10.17 27.5C10.4367 27.36 10.6733 27.19 10.88 26.99C11.0867 26.79 11.2633 26.5267 11.41 26.2C11.5567 25.8733 11.67 25.46 11.75 24.96C11.83 24.4533 11.87 23.8233 11.87 23.07V20.95H16.54V28H15.71V21.66H12.63V23.28C12.63 24.26 12.55 25.07 12.39 25.71C12.23 26.3433 11.9933 26.8533 11.68 27.24C11.3733 27.6267 11 27.93 10.56 28.15ZM20.2421 28.09C19.7688 28.09 19.3588 27.9867 19.0121 27.78C18.6654 27.5733 18.3954 27.2833 18.2021 26.91C18.0154 26.53 17.9221 26.0833 17.9221 25.57C17.9221 25.0567 18.0154 24.6133 18.2021 24.24C18.3954 23.86 18.6654 23.5667 19.0121 23.36C19.3588 23.1533 19.7688 23.05 20.2421 23.05C20.7088 23.05 21.1154 23.1533 21.4621 23.36C21.8154 23.5667 22.0854 23.86 22.2721 24.24C22.4654 24.6133 22.5621 25.0567 22.5621 25.57C22.5621 26.0833 22.4654 26.53 22.2721 26.91C22.0854 27.2833 21.8154 27.5733 21.4621 27.78C21.1154 27.9867 20.7088 28.09 20.2421 28.09ZM20.2421 27.44C20.6954 27.44 21.0588 27.28 21.3321 26.96C21.6054 26.6333 21.7421 26.17 21.7421 25.57C21.7421 24.9633 21.6054 24.5 21.3321 24.18C21.0588 23.86 20.6954 23.7 20.2421 23.7C19.7821 23.7 19.4154 23.86 19.1421 24.18C18.8754 24.5 18.7421 24.9633 18.7421 25.57C18.7421 26.17 18.8754 26.6333 19.1421 26.96C19.4154 27.28 19.7821 27.44 20.2421 27.44ZM23.8762 28V23.14H27.2862V23.79H24.6862V28H23.8762ZM30.2519 28.09C29.7785 28.09 29.3685 27.9867 29.0219 27.78C28.6752 27.5733 28.4052 27.2833 28.2119 26.91C28.0252 26.53 27.9319 26.0833 27.9319 25.57C27.9319 25.0567 28.0252 24.6133 28.2119 24.24C28.4052 23.86 28.6752 23.5667 29.0219 23.36C29.3685 23.1533 29.7785 23.05 30.2519 23.05C30.7185 23.05 31.1252 23.1533 31.4719 23.36C31.8252 23.5667 32.0952 23.86 32.2819 24.24C32.4752 24.6133 32.5719 25.0567 32.5719 25.57C32.5719 26.0833 32.4752 26.53 32.2819 26.91C32.0952 27.2833 31.8252 27.5733 31.4719 27.78C31.1252 27.9867 30.7185 28.09 30.2519 28.09ZM30.2519 27.44C30.7052 27.44 31.0685 27.28 31.3419 26.96C31.6152 26.6333 31.7519 26.17 31.7519 25.57C31.7519 24.9633 31.6152 24.5 31.3419 24.18C31.0685 23.86 30.7052 23.7 30.2519 23.7C29.7919 23.7 29.4252 23.86 29.1519 24.18C28.8852 24.5 28.7519 24.9633 28.7519 25.57C28.7519 26.17 28.8852 26.6333 29.1519 26.96C29.4252 27.28 29.7919 27.44 30.2519 27.44ZM34.8959 28V23.79H33.1359V23.14H37.4759V23.79H35.7059V28H34.8959ZM38.3293 28V23.14H39.0693V26.9L41.8793 23.14H42.5693V28H41.8293V24.24L39.0193 28H38.3293ZM44.1691 28V23.14H48.4091V28H47.5991V23.79H44.9791V28H44.1691Z" fill="#333333"/>
<path d="M54.696 39V33.36H58.224V33.928H55.352V39H54.696ZM57.6193 39.088L57.3793 38.576C57.6193 38.4747 57.8086 38.3333 57.9473 38.152C58.086 37.9653 58.182 37.7093 58.2353 37.384C58.294 37.0587 58.3233 36.632 58.3233 36.104V35.112H61.1473V39H60.4993V35.632H58.9313V36.128C58.9313 36.736 58.886 37.2373 58.7953 37.632C58.71 38.0267 58.5713 38.3387 58.3793 38.568C58.1873 38.7973 57.934 38.9707 57.6193 39.088ZM63.6611 39.072C63.3944 39.072 63.1544 39.0213 62.9411 38.92C62.7331 38.8133 62.5677 38.6693 62.4451 38.488C62.3224 38.3067 62.2611 38.104 62.2611 37.88C62.2611 37.5973 62.3331 37.3733 62.4771 37.208C62.6264 37.0427 62.8691 36.9253 63.2051 36.856C63.5464 36.7813 64.0104 36.744 64.5971 36.744H64.8531V36.496C64.8531 36.1653 64.7837 35.928 64.6451 35.784C64.5117 35.6347 64.2957 35.56 63.9971 35.56C63.7624 35.56 63.5357 35.5947 63.3171 35.664C63.0984 35.728 62.8744 35.8347 62.6451 35.984L62.4211 35.512C62.6237 35.368 62.8691 35.2533 63.1571 35.168C63.4504 35.0827 63.7304 35.04 63.9971 35.04C64.4984 35.04 64.8691 35.1627 65.1091 35.408C65.3544 35.6533 65.4771 36.0347 65.4771 36.552V39H64.8691V38.328C64.7677 38.5573 64.6104 38.7387 64.3971 38.872C64.1891 39.0053 63.9437 39.072 63.6611 39.072ZM63.7651 38.584C64.0851 38.584 64.3464 38.4747 64.5491 38.256C64.7517 38.032 64.8531 37.7493 64.8531 37.408V37.168H64.6051C64.1731 37.168 63.8317 37.1893 63.5811 37.232C63.3357 37.2693 63.1624 37.3387 63.0611 37.44C62.9651 37.536 62.9171 37.6693 62.9171 37.84C62.9171 38.0587 62.9917 38.2373 63.1411 38.376C63.2957 38.5147 63.5037 38.584 63.7651 38.584ZM66.7416 39V35.112H68.6376C69.0962 35.112 69.4349 35.2 69.6536 35.376C69.8722 35.5467 69.9816 35.8 69.9816 36.136C69.9816 36.3387 69.9229 36.5147 69.8056 36.664C69.6936 36.8133 69.5389 36.9227 69.3416 36.992C69.5816 37.0507 69.7682 37.1627 69.9016 37.328C70.0402 37.4933 70.1096 37.6933 70.1096 37.928C70.1096 38.2587 69.9869 38.52 69.7416 38.712C69.4962 38.904 69.1496 39 68.7016 39H66.7416ZM67.3576 36.8H68.6056C68.8509 36.8 69.0402 36.7467 69.1736 36.64C69.3069 36.528 69.3736 36.3707 69.3736 36.168C69.3736 35.9707 69.3069 35.8187 69.1736 35.712C69.0402 35.6053 68.8509 35.552 68.6056 35.552H67.3576V36.8ZM67.3576 38.56H68.6776C68.9442 38.56 69.1469 38.504 69.2856 38.392C69.4242 38.28 69.4936 38.1147 69.4936 37.896C69.4936 37.6827 69.4242 37.52 69.2856 37.408C69.1469 37.296 68.9442 37.24 68.6776 37.24H67.3576V38.56ZM71.1166 39V35.112H71.7646V36.728H73.8846V35.112H74.5326V39H73.8846V37.256H71.7646V39H71.1166ZM77.0439 39.072C76.7772 39.072 76.5372 39.0213 76.3239 38.92C76.1159 38.8133 75.9505 38.6693 75.8279 38.488C75.7052 38.3067 75.6439 38.104 75.6439 37.88C75.6439 37.5973 75.7159 37.3733 75.8599 37.208C76.0092 37.0427 76.2519 36.9253 76.5879 36.856C76.9292 36.7813 77.3932 36.744 77.9799 36.744H78.2359V36.496C78.2359 36.1653 78.1665 35.928 78.0279 35.784C77.8945 35.6347 77.6785 35.56 77.3799 35.56C77.1452 35.56 76.9185 35.5947 76.6999 35.664C76.4812 35.728 76.2572 35.8347 76.0279 35.984L75.8039 35.512C76.0065 35.368 76.2519 35.2533 76.5399 35.168C76.8332 35.0827 77.1132 35.04 77.3799 35.04C77.8812 35.04 78.2519 35.1627 78.4919 35.408C78.7372 35.6533 78.8599 36.0347 78.8599 36.552V39H78.2519V38.328C78.1505 38.5573 77.9932 38.7387 77.7799 38.872C77.5719 39.0053 77.3265 39.072 77.0439 39.072ZM77.1479 38.584C77.4679 38.584 77.7292 38.4747 77.9319 38.256C78.1345 38.032 78.2359 37.7493 78.2359 37.408V37.168H77.9879C77.5559 37.168 77.2145 37.1893 76.9639 37.232C76.7185 37.2693 76.5452 37.3387 76.4439 37.44C76.3479 37.536 76.2999 37.6693 76.2999 37.84C76.2999 38.0587 76.3745 38.2373 76.5239 38.376C76.6785 38.5147 76.8865 38.584 77.1479 38.584ZM79.8044 39L80.4044 37.96C80.5644 37.6773 80.7697 37.4933 81.0204 37.408C80.6897 37.36 80.4337 37.24 80.2524 37.048C80.071 36.8507 79.9804 36.5947 79.9804 36.28C79.9804 35.9227 80.0977 35.64 80.3324 35.432C80.5724 35.2187 80.9297 35.112 81.4044 35.112H83.1564V39H82.5404V37.52H81.9724C81.759 37.52 81.5777 37.5733 81.4284 37.68C81.2844 37.7867 81.167 37.9173 81.0764 38.072L80.5484 39H79.8044ZM81.5244 37.048H82.5404V35.568H81.5244C81.2097 35.568 80.9777 35.6347 80.8284 35.768C80.679 35.896 80.6044 36.0747 80.6044 36.304C80.6044 36.5387 80.679 36.7227 80.8284 36.856C80.9777 36.984 81.2097 37.048 81.5244 37.048Z" fill="black"/>
<path d="M117.696 39V33.36H118.352V35.872H119.344L121 33.36H121.744L119.992 35.968C120.227 36.048 120.432 36.1787 120.608 36.36C120.789 36.536 120.949 36.7627 121.088 37.04L122.04 39H121.32L120.544 37.344C120.389 37.0187 120.211 36.7867 120.008 36.648C119.805 36.5093 119.557 36.44 119.264 36.44H118.352V39H117.696ZM123.997 39.072C123.73 39.072 123.49 39.0213 123.277 38.92C123.069 38.8133 122.904 38.6693 122.781 38.488C122.658 38.3067 122.597 38.104 122.597 37.88C122.597 37.5973 122.669 37.3733 122.813 37.208C122.962 37.0427 123.205 36.9253 123.541 36.856C123.882 36.7813 124.346 36.744 124.933 36.744H125.189V36.496C125.189 36.1653 125.12 35.928 124.981 35.784C124.848 35.6347 124.632 35.56 124.333 35.56C124.098 35.56 123.872 35.5947 123.653 35.664C123.434 35.728 123.21 35.8347 122.981 35.984L122.757 35.512C122.96 35.368 123.205 35.2533 123.493 35.168C123.786 35.0827 124.066 35.04 124.333 35.04C124.834 35.04 125.205 35.1627 125.445 35.408C125.69 35.6533 125.813 36.0347 125.813 36.552V39H125.205V38.328C125.104 38.5573 124.946 38.7387 124.733 38.872C124.525 39.0053 124.28 39.072 123.997 39.072ZM124.101 38.584C124.421 38.584 124.682 38.4747 124.885 38.256C125.088 38.032 125.189 37.7493 125.189 37.408V37.168H124.941C124.509 37.168 124.168 37.1893 123.917 37.232C123.672 37.2693 123.498 37.3387 123.397 37.44C123.301 37.536 123.253 37.6693 123.253 37.84C123.253 38.0587 123.328 38.2373 123.477 38.376C123.632 38.5147 123.84 38.584 124.101 38.584ZM127.886 39V35.632H126.478V35.112H129.95V35.632H128.534V39H127.886ZM131.864 39.072C131.598 39.072 131.358 39.0213 131.144 38.92C130.936 38.8133 130.771 38.6693 130.648 38.488C130.526 38.3067 130.464 38.104 130.464 37.88C130.464 37.5973 130.536 37.3733 130.68 37.208C130.83 37.0427 131.072 36.9253 131.408 36.856C131.75 36.7813 132.214 36.744 132.8 36.744H133.056V36.496C133.056 36.1653 132.987 35.928 132.848 35.784C132.715 35.6347 132.499 35.56 132.2 35.56C131.966 35.56 131.739 35.5947 131.52 35.664C131.302 35.728 131.078 35.8347 130.848 35.984L130.624 35.512C130.827 35.368 131.072 35.2533 131.36 35.168C131.654 35.0827 131.934 35.04 132.2 35.04C132.702 35.04 133.072 35.1627 133.312 35.408C133.558 35.6533 133.68 36.0347 133.68 36.552V39H133.072V38.328C132.971 38.5573 132.814 38.7387 132.6 38.872C132.392 39.0053 132.147 39.072 131.864 39.072ZM131.968 38.584C132.288 38.584 132.55 38.4747 132.752 38.256C132.955 38.032 133.056 37.7493 133.056 37.408V37.168H132.808C132.376 37.168 132.035 37.1893 131.784 37.232C131.539 37.2693 131.366 37.3387 131.264 37.44C131.168 37.536 131.12 37.6693 131.12 37.84C131.12 38.0587 131.195 38.2373 131.344 38.376C131.499 38.5147 131.707 38.584 131.968 38.584ZM134.729 39.088L134.489 38.576C134.729 38.4747 134.918 38.3333 135.057 38.152C135.195 37.9653 135.291 37.7093 135.345 37.384C135.403 37.0587 135.433 36.632 135.433 36.104V35.112H138.257V39H137.609V35.632H136.041V36.128C136.041 36.736 135.995 37.2373 135.905 37.632C135.819 38.0267 135.681 38.3387 135.489 38.568C135.297 38.7973 135.043 38.9707 134.729 39.088ZM141.162 39.072C140.784 39.072 140.456 38.9893 140.178 38.824C139.901 38.6587 139.685 38.4267 139.53 38.128C139.381 37.824 139.306 37.4667 139.306 37.056C139.306 36.6453 139.381 36.2907 139.53 35.992C139.685 35.688 139.901 35.4533 140.178 35.288C140.456 35.1227 140.784 35.04 141.162 35.04C141.536 35.04 141.861 35.1227 142.138 35.288C142.421 35.4533 142.637 35.688 142.786 35.992C142.941 36.2907 143.018 36.6453 143.018 37.056C143.018 37.4667 142.941 37.824 142.786 38.128C142.637 38.4267 142.421 38.6587 142.138 38.824C141.861 38.9893 141.536 39.072 141.162 39.072ZM141.162 38.552C141.525 38.552 141.816 38.424 142.034 38.168C142.253 37.9067 142.362 37.536 142.362 37.056C142.362 36.5707 142.253 36.2 142.034 35.944C141.816 35.688 141.525 35.56 141.162 35.56C140.794 35.56 140.501 35.688 140.282 35.944C140.069 36.2 139.962 36.5707 139.962 37.056C139.962 37.536 140.069 37.9067 140.282 38.168C140.501 38.424 140.794 38.552 141.162 38.552ZM144.07 39V35.112H146.798V35.632H144.718V39H144.07Z" fill="black"/>
<path d="M183.064 39.072C182.541 39.072 182.085 38.9547 181.696 38.72C181.312 38.48 181.013 38.144 180.8 37.712C180.592 37.28 180.488 36.768 180.488 36.176C180.488 35.584 180.592 35.072 180.8 34.64C181.008 34.208 181.304 33.8747 181.688 33.64C182.077 33.4053 182.536 33.288 183.064 33.288C183.597 33.288 184.056 33.4053 184.44 33.64C184.829 33.8747 185.128 34.208 185.336 34.64C185.549 35.0667 185.656 35.576 185.656 36.168C185.656 36.76 185.549 37.2747 185.336 37.712C185.123 38.144 184.821 38.48 184.432 38.72C184.048 38.9547 183.592 39.072 183.064 39.072ZM183.064 38.488C183.667 38.488 184.133 38.2853 184.464 37.88C184.795 37.4747 184.96 36.9067 184.96 36.176C184.96 35.4453 184.795 34.88 184.464 34.48C184.133 34.0747 183.667 33.872 183.064 33.872C182.472 33.872 182.011 34.0747 181.68 34.48C181.349 34.88 181.184 35.4453 181.184 36.176C181.184 36.9013 181.349 37.4693 181.68 37.88C182.011 38.2853 182.472 38.488 183.064 38.488ZM188.828 39V35.112H189.476V36.728H191.596V35.112H192.244V39H191.596V37.256H189.476V39H188.828ZM194.755 39.072C194.488 39.072 194.248 39.0213 194.035 38.92C193.827 38.8133 193.661 38.6693 193.539 38.488C193.416 38.3067 193.355 38.104 193.355 37.88C193.355 37.5973 193.427 37.3733 193.571 37.208C193.72 37.0427 193.963 36.9253 194.299 36.856C194.64 36.7813 195.104 36.744 195.691 36.744H195.947V36.496C195.947 36.1653 195.877 35.928 195.739 35.784C195.605 35.6347 195.389 35.56 195.091 35.56C194.856 35.56 194.629 35.5947 194.411 35.664C194.192 35.728 193.968 35.8347 193.739 35.984L193.515 35.512C193.717 35.368 193.963 35.2533 194.251 35.168C194.544 35.0827 194.824 35.04 195.091 35.04C195.592 35.04 195.963 35.1627 196.203 35.408C196.448 35.6533 196.571 36.0347 196.571 36.552V39H195.963V38.328C195.861 38.5573 195.704 38.7387 195.491 38.872C195.283 39.0053 195.037 39.072 194.755 39.072ZM194.859 38.584C195.179 38.584 195.44 38.4747 195.643 38.256C195.845 38.032 195.947 37.7493 195.947 37.408V37.168H195.699C195.267 37.168 194.925 37.1893 194.675 37.232C194.429 37.2693 194.256 37.3387 194.155 37.44C194.059 37.536 194.011 37.6693 194.011 37.84C194.011 38.0587 194.085 38.2373 194.235 38.376C194.389 38.5147 194.597 38.584 194.859 38.584ZM199.491 39.072C199.102 39.072 198.766 38.9893 198.483 38.824C198.201 38.6533 197.982 38.416 197.827 38.112C197.678 37.8027 197.603 37.4427 197.603 37.032C197.603 36.4133 197.771 35.928 198.107 35.576C198.443 35.2187 198.905 35.04 199.491 35.04C199.731 35.04 199.969 35.0827 200.203 35.168C200.438 35.2533 200.633 35.3733 200.787 35.528L200.563 36C200.409 35.8507 200.238 35.7413 200.051 35.672C199.87 35.6027 199.697 35.568 199.531 35.568C199.126 35.568 198.814 35.696 198.595 35.952C198.377 36.2027 198.267 36.5653 198.267 37.04C198.267 37.504 198.377 37.872 198.595 38.144C198.814 38.4107 199.126 38.544 199.531 38.544C199.697 38.544 199.87 38.5093 200.051 38.44C200.238 38.3707 200.409 38.2587 200.563 38.104L200.787 38.576C200.633 38.7307 200.435 38.8533 200.195 38.944C199.961 39.0293 199.726 39.072 199.491 39.072Z" fill="black"/>
<path d="M234.696 39V33.36H235.352V35.872H236.344L238 33.36H238.744L236.992 35.968C237.227 36.048 237.432 36.1787 237.608 36.36C237.789 36.536 237.949 36.7627 238.088 37.04L239.04 39H238.32L237.544 37.344C237.389 37.0187 237.211 36.7867 237.008 36.648C236.805 36.5093 236.557 36.44 236.264 36.44H235.352V39H234.696ZM241.342 39.072C240.963 39.072 240.635 38.9893 240.358 38.824C240.081 38.6587 239.865 38.4267 239.71 38.128C239.561 37.824 239.486 37.4667 239.486 37.056C239.486 36.6453 239.561 36.2907 239.71 35.992C239.865 35.688 240.081 35.4533 240.358 35.288C240.635 35.1227 240.963 35.04 241.342 35.04C241.715 35.04 242.041 35.1227 242.318 35.288C242.601 35.4533 242.817 35.688 242.966 35.992C243.121 36.2907 243.198 36.6453 243.198 37.056C243.198 37.4667 243.121 37.824 242.966 38.128C242.817 38.4267 242.601 38.6587 242.318 38.824C242.041 38.9893 241.715 39.072 241.342 39.072ZM241.342 38.552C241.705 38.552 241.995 38.424 242.214 38.168C242.433 37.9067 242.542 37.536 242.542 37.056C242.542 36.5707 242.433 36.2 242.214 35.944C241.995 35.688 241.705 35.56 241.342 35.56C240.974 35.56 240.681 35.688 240.462 35.944C240.249 36.2 240.142 36.5707 240.142 37.056C240.142 37.536 240.249 37.9067 240.462 38.168C240.681 38.424 240.974 38.552 241.342 38.552ZM244.249 39V35.112H244.897V36.728H247.017V35.112H247.665V39H247.017V37.256H244.897V39H244.249ZM249.753 39V35.632H248.345V35.112H251.817V35.632H250.401V39H249.753ZM253.731 39.072C253.465 39.072 253.225 39.0213 253.011 38.92C252.803 38.8133 252.638 38.6693 252.515 38.488C252.393 38.3067 252.331 38.104 252.331 37.88C252.331 37.5973 252.403 37.3733 252.547 37.208C252.697 37.0427 252.939 36.9253 253.275 36.856C253.617 36.7813 254.081 36.744 254.667 36.744H254.923V36.496C254.923 36.1653 254.854 35.928 254.715 35.784C254.582 35.6347 254.366 35.56 254.067 35.56C253.833 35.56 253.606 35.5947 253.387 35.664C253.169 35.728 252.945 35.8347 252.715 35.984L252.491 35.512C252.694 35.368 252.939 35.2533 253.227 35.168C253.521 35.0827 253.801 35.04 254.067 35.04C254.569 35.04 254.939 35.1627 255.179 35.408C255.425 35.6533 255.547 36.0347 255.547 36.552V39H254.939V38.328C254.838 38.5573 254.681 38.7387 254.467 38.872C254.259 39.0053 254.014 39.072 253.731 39.072ZM253.835 38.584C254.155 38.584 254.417 38.4747 254.619 38.256C254.822 38.032 254.923 37.7493 254.923 37.408V37.168H254.675C254.243 37.168 253.902 37.1893 253.651 37.232C253.406 37.2693 253.233 37.3387 253.131 37.44C253.035 37.536 252.987 37.6693 252.987 37.84C252.987 38.0587 253.062 38.2373 253.211 38.376C253.366 38.5147 253.574 38.584 253.835 38.584ZM256.812 39V35.112H257.46V36.736H258.188L259.46 35.112H260.172L258.82 36.864C258.959 36.9173 259.084 37.0053 259.196 37.128C259.308 37.2507 259.433 37.4267 259.572 37.656L260.372 39H259.676L258.972 37.824C258.839 37.5947 258.711 37.4427 258.588 37.368C258.465 37.2933 258.292 37.256 258.068 37.256H257.46V39H256.812ZM261.831 39V35.632H260.423V35.112H263.895V35.632H262.479V39H261.831ZM264.578 39V35.112H265.226V36.496H266.402C266.898 36.496 267.274 36.6053 267.53 36.824C267.786 37.0373 267.914 37.3413 267.914 37.736C267.914 38.1253 267.78 38.4347 267.514 38.664C267.252 38.888 266.882 39 266.402 39H264.578ZM268.49 39V35.112H269.138V39H268.49ZM265.226 38.536H266.338C266.636 38.536 266.868 38.472 267.034 38.344C267.204 38.216 267.29 38.016 267.29 37.744C267.29 37.4773 267.207 37.28 267.042 37.152C266.876 37.024 266.642 36.96 266.338 36.96H265.226V38.536Z" fill="black"/>
<path d="M54.522 19V14.77H57.192V15.184H55.002V16.648H57.066V17.062H55.002V18.586H57.192V19H54.522ZM57.966 19V16.084H58.44V16.576C58.528 16.4 58.65 16.266 58.806 16.174C58.962 16.078 59.144 16.03 59.352 16.03C59.808 16.03 60.1 16.228 60.228 16.624C60.316 16.44 60.446 16.296 60.618 16.192C60.79 16.084 60.988 16.03 61.212 16.03C61.86 16.03 62.184 16.414 62.184 17.182V19H61.698V17.206C61.698 16.938 61.65 16.742 61.554 16.618C61.462 16.49 61.308 16.426 61.092 16.426C60.856 16.426 60.668 16.51 60.528 16.678C60.388 16.846 60.318 17.07 60.318 17.35V19H59.832V17.206C59.832 16.938 59.784 16.742 59.688 16.618C59.596 16.49 59.442 16.426 59.226 16.426C58.986 16.426 58.796 16.51 58.656 16.678C58.52 16.846 58.452 17.07 58.452 17.35V19H57.966ZM64.0107 19.054C63.8107 19.054 63.6307 19.016 63.4707 18.94C63.3147 18.86 63.1907 18.752 63.0987 18.616C63.0067 18.48 62.9607 18.328 62.9607 18.16C62.9607 17.948 63.0147 17.78 63.1227 17.656C63.2347 17.532 63.4167 17.444 63.6687 17.392C63.9247 17.336 64.2727 17.308 64.7127 17.308H64.9047V17.122C64.9047 16.874 64.8527 16.696 64.7487 16.588C64.6487 16.476 64.4867 16.42 64.2627 16.42C64.0867 16.42 63.9167 16.446 63.7527 16.498C63.5887 16.546 63.4207 16.626 63.2487 16.738L63.0807 16.384C63.2327 16.276 63.4167 16.19 63.6327 16.126C63.8527 16.062 64.0627 16.03 64.2627 16.03C64.6387 16.03 64.9167 16.122 65.0967 16.306C65.2807 16.49 65.3727 16.776 65.3727 17.164V19H64.9167V18.496C64.8407 18.668 64.7227 18.804 64.5627 18.904C64.4067 19.004 64.2227 19.054 64.0107 19.054ZM64.0887 18.688C64.3287 18.688 64.5247 18.606 64.6767 18.442C64.8287 18.274 64.9047 18.062 64.9047 17.806V17.626H64.7187C64.3947 17.626 64.1387 17.642 63.9507 17.674C63.7667 17.702 63.6367 17.754 63.5607 17.83C63.4887 17.902 63.4527 18.002 63.4527 18.13C63.4527 18.294 63.5087 18.428 63.6207 18.532C63.7367 18.636 63.8927 18.688 64.0887 18.688ZM66.2144 15.358V14.812H66.8144V15.358H66.2144ZM66.2744 19V16.084H66.7604V19H66.2744ZM68.5629 19.054C68.2669 19.054 68.0429 18.968 67.8909 18.796C67.7429 18.62 67.6689 18.366 67.6689 18.034V14.77H68.1549V17.998C68.1549 18.426 68.3249 18.64 68.6649 18.64C68.7649 18.64 68.8549 18.628 68.9349 18.604L68.9229 19.012C68.7989 19.04 68.6789 19.054 68.5629 19.054Z" fill="black"/>
<path d="M148.114 19L149.98 14.77H150.4L152.266 19H151.756L151.288 17.92H149.086L148.624 19H148.114ZM150.184 15.346L149.266 17.506H151.114L150.196 15.346H150.184ZM152.533 19.78V18.61H152.839C152.979 18.406 153.079 18.172 153.139 17.908C153.199 17.64 153.229 17.318 153.229 16.942V16.084H155.293V18.61H155.755V19.78H155.335V19H152.947V19.78H152.533ZM153.307 18.61H154.831V16.468H153.661V17.026C153.661 17.326 153.631 17.616 153.571 17.896C153.511 18.176 153.423 18.414 153.307 18.61ZM156.408 20.08V16.084H156.882V16.606C156.97 16.426 157.1 16.286 157.272 16.186C157.448 16.082 157.652 16.03 157.884 16.03C158.144 16.03 158.37 16.092 158.562 16.216C158.758 16.336 158.908 16.51 159.012 16.738C159.12 16.962 159.174 17.23 159.174 17.542C159.174 17.85 159.12 18.118 159.012 18.346C158.908 18.57 158.758 18.744 158.562 18.868C158.37 18.992 158.144 19.054 157.884 19.054C157.66 19.054 157.46 19.004 157.284 18.904C157.108 18.804 156.978 18.666 156.894 18.49V20.08H156.408ZM157.782 18.664C158.054 18.664 158.272 18.568 158.436 18.376C158.6 18.18 158.682 17.902 158.682 17.542C158.682 17.178 158.6 16.9 158.436 16.708C158.272 16.516 158.054 16.42 157.782 16.42C157.51 16.42 157.292 16.516 157.128 16.708C156.964 16.9 156.882 17.178 156.882 17.542C156.882 17.902 156.964 18.18 157.128 18.376C157.292 18.568 157.51 18.664 157.782 18.664ZM161.279 19.054C160.819 19.054 160.455 18.92 160.187 18.652C159.919 18.38 159.785 18.012 159.785 17.548C159.785 17.248 159.845 16.984 159.965 16.756C160.085 16.524 160.249 16.346 160.457 16.222C160.669 16.094 160.913 16.03 161.189 16.03C161.585 16.03 161.895 16.158 162.119 16.414C162.343 16.666 162.455 17.014 162.455 17.458V17.644H160.259C160.275 17.976 160.371 18.23 160.547 18.406C160.723 18.578 160.967 18.664 161.279 18.664C161.455 18.664 161.623 18.638 161.783 18.586C161.943 18.53 162.095 18.44 162.239 18.316L162.407 18.658C162.275 18.782 162.107 18.88 161.903 18.952C161.699 19.02 161.491 19.054 161.279 19.054ZM161.201 16.39C160.925 16.39 160.707 16.476 160.547 16.648C160.387 16.82 160.293 17.046 160.265 17.326H162.035C162.023 17.03 161.945 16.8 161.801 16.636C161.661 16.472 161.461 16.39 161.201 16.39ZM164.452 19.054C164.16 19.054 163.908 18.992 163.696 18.868C163.484 18.74 163.32 18.562 163.204 18.334C163.092 18.102 163.036 17.832 163.036 17.524C163.036 17.06 163.162 16.696 163.414 16.432C163.666 16.164 164.012 16.03 164.452 16.03C164.632 16.03 164.81 16.062 164.986 16.126C165.162 16.19 165.308 16.28 165.424 16.396L165.256 16.75C165.14 16.638 165.012 16.556 164.872 16.504C164.736 16.452 164.606 16.426 164.482 16.426C164.178 16.426 163.944 16.522 163.78 16.714C163.616 16.902 163.534 17.174 163.534 17.53C163.534 17.878 163.616 18.154 163.78 18.358C163.944 18.558 164.178 18.658 164.482 18.658C164.606 18.658 164.736 18.632 164.872 18.58C165.012 18.528 165.14 18.444 165.256 18.328L165.424 18.682C165.308 18.798 165.16 18.89 164.98 18.958C164.804 19.022 164.628 19.054 164.452 19.054Z" fill="black"/>
<path d="M246.56 19V15.196H245.024V14.77H248.594V15.196H247.058V19H246.56ZM249.952 19.054C249.492 19.054 249.128 18.92 248.86 18.652C248.592 18.38 248.458 18.012 248.458 17.548C248.458 17.248 248.518 16.984 248.638 16.756C248.758 16.524 248.922 16.346 249.13 16.222C249.342 16.094 249.586 16.03 249.862 16.03C250.258 16.03 250.568 16.158 250.792 16.414C251.016 16.666 251.128 17.014 251.128 17.458V17.644H248.932C248.948 17.976 249.044 18.23 249.22 18.406C249.396 18.578 249.64 18.664 249.952 18.664C250.128 18.664 250.296 18.638 250.456 18.586C250.616 18.53 250.768 18.44 250.912 18.316L251.08 18.658C250.948 18.782 250.78 18.88 250.576 18.952C250.372 19.02 250.164 19.054 249.952 19.054ZM249.874 16.39C249.598 16.39 249.38 16.476 249.22 16.648C249.06 16.82 248.966 17.046 248.938 17.326H250.708C250.696 17.03 250.618 16.8 250.474 16.636C250.334 16.472 250.134 16.39 249.874 16.39ZM251.722 19.066L251.542 18.682C251.722 18.606 251.864 18.5 251.968 18.364C252.072 18.224 252.144 18.032 252.184 17.788C252.228 17.544 252.25 17.224 252.25 16.828V16.084H254.368V19H253.882V16.474H252.706V16.846C252.706 17.302 252.672 17.678 252.604 17.974C252.54 18.27 252.436 18.504 252.292 18.676C252.148 18.848 251.958 18.978 251.722 19.066ZM256.65 19.054C256.19 19.054 255.826 18.92 255.558 18.652C255.29 18.38 255.156 18.012 255.156 17.548C255.156 17.248 255.216 16.984 255.336 16.756C255.456 16.524 255.62 16.346 255.828 16.222C256.04 16.094 256.284 16.03 256.56 16.03C256.956 16.03 257.266 16.158 257.49 16.414C257.714 16.666 257.826 17.014 257.826 17.458V17.644H255.63C255.646 17.976 255.742 18.23 255.918 18.406C256.094 18.578 256.338 18.664 256.65 18.664C256.826 18.664 256.994 18.638 257.154 18.586C257.314 18.53 257.466 18.44 257.61 18.316L257.778 18.658C257.646 18.782 257.478 18.88 257.274 18.952C257.07 19.02 256.862 19.054 256.65 19.054ZM256.572 16.39C256.296 16.39 256.078 16.476 255.918 16.648C255.758 16.82 255.664 17.046 255.636 17.326H257.406C257.394 17.03 257.316 16.8 257.172 16.636C257.032 16.472 256.832 16.39 256.572 16.39ZM260.244 20.08V18.526C260.172 18.694 260.07 18.824 259.938 18.916C259.806 19.008 259.648 19.054 259.464 19.054C259.252 19.054 259.066 18.992 258.906 18.868C258.75 18.744 258.628 18.57 258.54 18.346C258.452 18.118 258.408 17.85 258.408 17.542C258.408 17.078 258.504 16.71 258.696 16.438C258.888 16.166 259.144 16.03 259.464 16.03C259.648 16.03 259.806 16.076 259.938 16.168C260.07 16.26 260.172 16.39 260.244 16.558V14.77H260.73V16.552C260.802 16.384 260.904 16.256 261.036 16.168C261.168 16.076 261.326 16.03 261.51 16.03C261.826 16.03 262.08 16.166 262.272 16.438C262.468 16.71 262.566 17.078 262.566 17.542C262.566 18.002 262.47 18.37 262.278 18.646C262.086 18.918 261.83 19.054 261.51 19.054C261.326 19.054 261.168 19.008 261.036 18.916C260.904 18.824 260.802 18.696 260.73 18.532V20.08H260.244ZM259.572 18.67C259.784 18.67 259.95 18.574 260.07 18.382C260.19 18.19 260.25 17.91 260.25 17.542C260.25 17.174 260.188 16.894 260.064 16.702C259.944 16.51 259.78 16.414 259.572 16.414C259.364 16.414 259.198 16.51 259.074 16.702C258.954 16.894 258.894 17.174 258.894 17.542C258.894 17.91 258.954 18.19 259.074 18.382C259.198 18.574 259.364 18.67 259.572 18.67ZM261.396 18.67C261.604 18.67 261.77 18.574 261.894 18.382C262.018 18.19 262.08 17.91 262.08 17.542C262.08 17.174 262.018 16.894 261.894 16.702C261.77 16.51 261.604 16.414 261.396 16.414C261.188 16.414 261.024 16.51 260.904 16.702C260.784 16.894 260.724 17.174 260.724 17.542C260.724 17.91 260.782 18.19 260.898 18.382C261.018 18.574 261.184 18.67 261.396 18.67ZM264.569 19.054C264.285 19.054 264.039 18.992 263.831 18.868C263.623 18.744 263.461 18.57 263.345 18.346C263.233 18.118 263.177 17.85 263.177 17.542C263.177 17.234 263.233 16.968 263.345 16.744C263.461 16.516 263.623 16.34 263.831 16.216C264.039 16.092 264.285 16.03 264.569 16.03C264.849 16.03 265.093 16.092 265.301 16.216C265.513 16.34 265.675 16.516 265.787 16.744C265.903 16.968 265.961 17.234 265.961 17.542C265.961 17.85 265.903 18.118 265.787 18.346C265.675 18.57 265.513 18.744 265.301 18.868C265.093 18.992 264.849 19.054 264.569 19.054ZM264.569 18.664C264.841 18.664 265.059 18.568 265.223 18.376C265.387 18.18 265.469 17.902 265.469 17.542C265.469 17.178 265.387 16.9 265.223 16.708C265.059 16.516 264.841 16.42 264.569 16.42C264.293 16.42 264.073 16.516 263.909 16.708C263.749 16.9 263.669 17.178 263.669 17.542C263.669 17.902 263.749 18.18 263.909 18.376C264.073 18.568 264.293 18.664 264.569 18.664ZM266.75 19V16.084H267.236V17.296H268.826V16.084H269.312V19H268.826V17.692H267.236V19H266.75Z" fill="black"/>
<line x1="56" y1="25.5" x2="280" y2="25.5" stroke="#BFBFBF"/>
</svg>
