<svg width="280" height="50" viewBox="0 0 280 50" fill="none" xmlns="http://www.w3.org/2000/svg">
<mask id="path-1-inside-1_11_182" fill="white">
<path d="M0 0H280V50H0V0Z"/>
</mask>
<path d="M0 0H280V50H0V0Z" fill="white"/>
<path d="M280 49H0V51H280V49Z" fill="#BFBFBF" mask="url(#path-1-inside-1_11_182)"/>
<path d="M10.56 27.15L10.17 26.5C10.4367 26.36 10.6733 26.19 10.88 25.99C11.0867 25.79 11.2633 25.5267 11.41 25.2C11.5567 24.8733 11.67 24.46 11.75 23.96C11.83 23.4533 11.87 22.8233 11.87 22.07V19.95H16.54V27H15.71V20.66H12.63V22.28C12.63 23.26 12.55 24.07 12.39 24.71C12.23 25.3433 11.9933 25.8533 11.68 26.24C11.3733 26.6267 11 26.93 10.56 27.15ZM20.2421 27.09C19.7688 27.09 19.3588 26.9867 19.0121 26.78C18.6654 26.5733 18.3954 26.2833 18.2021 25.91C18.0154 25.53 17.9221 25.0833 17.9221 24.57C17.9221 24.0567 18.0154 23.6133 18.2021 23.24C18.3954 22.86 18.6654 22.5667 19.0121 22.36C19.3588 22.1533 19.7688 22.05 20.2421 22.05C20.7088 22.05 21.1154 22.1533 21.4621 22.36C21.8154 22.5667 22.0854 22.86 22.2721 23.24C22.4654 23.6133 22.5621 24.0567 22.5621 24.57C22.5621 25.0833 22.4654 25.53 22.2721 25.91C22.0854 26.2833 21.8154 26.5733 21.4621 26.78C21.1154 26.9867 20.7088 27.09 20.2421 27.09ZM20.2421 26.44C20.6954 26.44 21.0588 26.28 21.3321 25.96C21.6054 25.6333 21.7421 25.17 21.7421 24.57C21.7421 23.9633 21.6054 23.5 21.3321 23.18C21.0588 22.86 20.6954 22.7 20.2421 22.7C19.7821 22.7 19.4154 22.86 19.1421 23.18C18.8754 23.5 18.7421 23.9633 18.7421 24.57C18.7421 25.17 18.8754 25.6333 19.1421 25.96C19.4154 26.28 19.7821 26.44 20.2421 26.44ZM23.8762 27V22.14H27.2862V22.79H24.6862V27H23.8762ZM30.2519 27.09C29.7785 27.09 29.3685 26.9867 29.0219 26.78C28.6752 26.5733 28.4052 26.2833 28.2119 25.91C28.0252 25.53 27.9319 25.0833 27.9319 24.57C27.9319 24.0567 28.0252 23.6133 28.2119 23.24C28.4052 22.86 28.6752 22.5667 29.0219 22.36C29.3685 22.1533 29.7785 22.05 30.2519 22.05C30.7185 22.05 31.1252 22.1533 31.4719 22.36C31.8252 22.5667 32.0952 22.86 32.2819 23.24C32.4752 23.6133 32.5719 24.0567 32.5719 24.57C32.5719 25.0833 32.4752 25.53 32.2819 25.91C32.0952 26.2833 31.8252 26.5733 31.4719 26.78C31.1252 26.9867 30.7185 27.09 30.2519 27.09ZM30.2519 26.44C30.7052 26.44 31.0685 26.28 31.3419 25.96C31.6152 25.6333 31.7519 25.17 31.7519 24.57C31.7519 23.9633 31.6152 23.5 31.3419 23.18C31.0685 22.86 30.7052 22.7 30.2519 22.7C29.7919 22.7 29.4252 22.86 29.1519 23.18C28.8852 23.5 28.7519 23.9633 28.7519 24.57C28.7519 25.17 28.8852 25.6333 29.1519 25.96C29.4252 26.28 29.7919 26.44 30.2519 26.44ZM34.8959 27V22.79H33.1359V22.14H37.4759V22.79H35.7059V27H34.8959ZM38.3293 27V22.14H39.0693V25.9L41.8793 22.14H42.5693V27H41.8293V23.24L39.0193 27H38.3293ZM44.1691 27V22.14H48.4091V27H47.5991V22.79H44.9791V27H44.1691Z" fill="#333333"/>
<path d="M82.696 28V22.36H86.224V22.928H83.352V28H82.696ZM85.6193 28.088L85.3793 27.576C85.6193 27.4747 85.8086 27.3333 85.9473 27.152C86.086 26.9653 86.182 26.7093 86.2353 26.384C86.294 26.0587 86.3233 25.632 86.3233 25.104V24.112H89.1473V28H88.4993V24.632H86.9313V25.128C86.9313 25.736 86.886 26.2373 86.7953 26.632C86.71 27.0267 86.5713 27.3387 86.3793 27.568C86.1873 27.7973 85.934 27.9707 85.6193 28.088ZM91.6611 28.072C91.3944 28.072 91.1544 28.0213 90.9411 27.92C90.7331 27.8133 90.5677 27.6693 90.4451 27.488C90.3224 27.3067 90.2611 27.104 90.2611 26.88C90.2611 26.5973 90.3331 26.3733 90.4771 26.208C90.6264 26.0427 90.8691 25.9253 91.2051 25.856C91.5464 25.7813 92.0104 25.744 92.5971 25.744H92.8531V25.496C92.8531 25.1653 92.7837 24.928 92.6451 24.784C92.5117 24.6347 92.2957 24.56 91.9971 24.56C91.7624 24.56 91.5357 24.5947 91.3171 24.664C91.0984 24.728 90.8744 24.8347 90.6451 24.984L90.4211 24.512C90.6237 24.368 90.8691 24.2533 91.1571 24.168C91.4504 24.0827 91.7304 24.04 91.9971 24.04C92.4984 24.04 92.8691 24.1627 93.1091 24.408C93.3544 24.6533 93.4771 25.0347 93.4771 25.552V28H92.8691V27.328C92.7677 27.5573 92.6104 27.7387 92.3971 27.872C92.1891 28.0053 91.9437 28.072 91.6611 28.072ZM91.7651 27.584C92.0851 27.584 92.3464 27.4747 92.5491 27.256C92.7517 27.032 92.8531 26.7493 92.8531 26.408V26.168H92.6051C92.1731 26.168 91.8317 26.1893 91.5811 26.232C91.3357 26.2693 91.1624 26.3387 91.0611 26.44C90.9651 26.536 90.9171 26.6693 90.9171 26.84C90.9171 27.0587 90.9917 27.2373 91.1411 27.376C91.2957 27.5147 91.5037 27.584 91.7651 27.584ZM94.7416 28V24.112H96.6376C97.0962 24.112 97.4349 24.2 97.6536 24.376C97.8722 24.5467 97.9816 24.8 97.9816 25.136C97.9816 25.3387 97.9229 25.5147 97.8056 25.664C97.6936 25.8133 97.5389 25.9227 97.3416 25.992C97.5816 26.0507 97.7682 26.1627 97.9016 26.328C98.0402 26.4933 98.1096 26.6933 98.1096 26.928C98.1096 27.2587 97.9869 27.52 97.7416 27.712C97.4962 27.904 97.1496 28 96.7016 28H94.7416ZM95.3576 25.8H96.6056C96.8509 25.8 97.0402 25.7467 97.1736 25.64C97.3069 25.528 97.3736 25.3707 97.3736 25.168C97.3736 24.9707 97.3069 24.8187 97.1736 24.712C97.0402 24.6053 96.8509 24.552 96.6056 24.552H95.3576V25.8ZM95.3576 27.56H96.6776C96.9442 27.56 97.1469 27.504 97.2856 27.392C97.4242 27.28 97.4936 27.1147 97.4936 26.896C97.4936 26.6827 97.4242 26.52 97.2856 26.408C97.1469 26.296 96.9442 26.24 96.6776 26.24H95.3576V27.56ZM99.1166 28V24.112H99.7646V25.728H101.885V24.112H102.533V28H101.885V26.256H99.7646V28H99.1166ZM105.044 28.072C104.777 28.072 104.537 28.0213 104.324 27.92C104.116 27.8133 103.951 27.6693 103.828 27.488C103.705 27.3067 103.644 27.104 103.644 26.88C103.644 26.5973 103.716 26.3733 103.86 26.208C104.009 26.0427 104.252 25.9253 104.588 25.856C104.929 25.7813 105.393 25.744 105.98 25.744H106.236V25.496C106.236 25.1653 106.167 24.928 106.028 24.784C105.895 24.6347 105.679 24.56 105.38 24.56C105.145 24.56 104.919 24.5947 104.7 24.664C104.481 24.728 104.257 24.8347 104.028 24.984L103.804 24.512C104.007 24.368 104.252 24.2533 104.54 24.168C104.833 24.0827 105.113 24.04 105.38 24.04C105.881 24.04 106.252 24.1627 106.492 24.408C106.737 24.6533 106.86 25.0347 106.86 25.552V28H106.252V27.328C106.151 27.5573 105.993 27.7387 105.78 27.872C105.572 28.0053 105.327 28.072 105.044 28.072ZM105.148 27.584C105.468 27.584 105.729 27.4747 105.932 27.256C106.135 27.032 106.236 26.7493 106.236 26.408V26.168H105.988C105.556 26.168 105.215 26.1893 104.964 26.232C104.719 26.2693 104.545 26.3387 104.444 26.44C104.348 26.536 104.3 26.6693 104.3 26.84C104.3 27.0587 104.375 27.2373 104.524 27.376C104.679 27.5147 104.887 27.584 105.148 27.584ZM107.804 28L108.404 26.96C108.564 26.6773 108.77 26.4933 109.02 26.408C108.69 26.36 108.434 26.24 108.252 26.048C108.071 25.8507 107.98 25.5947 107.98 25.28C107.98 24.9227 108.098 24.64 108.332 24.432C108.572 24.2187 108.93 24.112 109.404 24.112H111.156V28H110.54V26.52H109.972C109.759 26.52 109.578 26.5733 109.428 26.68C109.284 26.7867 109.167 26.9173 109.076 27.072L108.548 28H107.804ZM109.524 26.048H110.54V24.568H109.524C109.21 24.568 108.978 24.6347 108.828 24.768C108.679 24.896 108.604 25.0747 108.604 25.304C108.604 25.5387 108.679 25.7227 108.828 25.856C108.978 25.984 109.21 26.048 109.524 26.048Z" fill="black"/>
<path d="M117.696 28V22.36H118.352V24.872H119.344L121 22.36H121.744L119.992 24.968C120.227 25.048 120.432 25.1787 120.608 25.36C120.789 25.536 120.949 25.7627 121.088 26.04L122.04 28H121.32L120.544 26.344C120.389 26.0187 120.211 25.7867 120.008 25.648C119.805 25.5093 119.557 25.44 119.264 25.44H118.352V28H117.696ZM123.997 28.072C123.73 28.072 123.49 28.0213 123.277 27.92C123.069 27.8133 122.904 27.6693 122.781 27.488C122.658 27.3067 122.597 27.104 122.597 26.88C122.597 26.5973 122.669 26.3733 122.813 26.208C122.962 26.0427 123.205 25.9253 123.541 25.856C123.882 25.7813 124.346 25.744 124.933 25.744H125.189V25.496C125.189 25.1653 125.12 24.928 124.981 24.784C124.848 24.6347 124.632 24.56 124.333 24.56C124.098 24.56 123.872 24.5947 123.653 24.664C123.434 24.728 123.21 24.8347 122.981 24.984L122.757 24.512C122.96 24.368 123.205 24.2533 123.493 24.168C123.786 24.0827 124.066 24.04 124.333 24.04C124.834 24.04 125.205 24.1627 125.445 24.408C125.69 24.6533 125.813 25.0347 125.813 25.552V28H125.205V27.328C125.104 27.5573 124.946 27.7387 124.733 27.872C124.525 28.0053 124.28 28.072 123.997 28.072ZM124.101 27.584C124.421 27.584 124.682 27.4747 124.885 27.256C125.088 27.032 125.189 26.7493 125.189 26.408V26.168H124.941C124.509 26.168 124.168 26.1893 123.917 26.232C123.672 26.2693 123.498 26.3387 123.397 26.44C123.301 26.536 123.253 26.6693 123.253 26.84C123.253 27.0587 123.328 27.2373 123.477 27.376C123.632 27.5147 123.84 27.584 124.101 27.584ZM127.886 28V24.632H126.478V24.112H129.95V24.632H128.534V28H127.886ZM131.864 28.072C131.598 28.072 131.358 28.0213 131.144 27.92C130.936 27.8133 130.771 27.6693 130.648 27.488C130.526 27.3067 130.464 27.104 130.464 26.88C130.464 26.5973 130.536 26.3733 130.68 26.208C130.83 26.0427 131.072 25.9253 131.408 25.856C131.75 25.7813 132.214 25.744 132.8 25.744H133.056V25.496C133.056 25.1653 132.987 24.928 132.848 24.784C132.715 24.6347 132.499 24.56 132.2 24.56C131.966 24.56 131.739 24.5947 131.52 24.664C131.302 24.728 131.078 24.8347 130.848 24.984L130.624 24.512C130.827 24.368 131.072 24.2533 131.36 24.168C131.654 24.0827 131.934 24.04 132.2 24.04C132.702 24.04 133.072 24.1627 133.312 24.408C133.558 24.6533 133.68 25.0347 133.68 25.552V28H133.072V27.328C132.971 27.5573 132.814 27.7387 132.6 27.872C132.392 28.0053 132.147 28.072 131.864 28.072ZM131.968 27.584C132.288 27.584 132.55 27.4747 132.752 27.256C132.955 27.032 133.056 26.7493 133.056 26.408V26.168H132.808C132.376 26.168 132.035 26.1893 131.784 26.232C131.539 26.2693 131.366 26.3387 131.264 26.44C131.168 26.536 131.12 26.6693 131.12 26.84C131.12 27.0587 131.195 27.2373 131.344 27.376C131.499 27.5147 131.707 27.584 131.968 27.584ZM134.729 28.088L134.489 27.576C134.729 27.4747 134.918 27.3333 135.057 27.152C135.195 26.9653 135.291 26.7093 135.345 26.384C135.403 26.0587 135.433 25.632 135.433 25.104V24.112H138.257V28H137.609V24.632H136.041V25.128C136.041 25.736 135.995 26.2373 135.905 26.632C135.819 27.0267 135.681 27.3387 135.489 27.568C135.297 27.7973 135.043 27.9707 134.729 28.088ZM141.162 28.072C140.784 28.072 140.456 27.9893 140.178 27.824C139.901 27.6587 139.685 27.4267 139.53 27.128C139.381 26.824 139.306 26.4667 139.306 26.056C139.306 25.6453 139.381 25.2907 139.53 24.992C139.685 24.688 139.901 24.4533 140.178 24.288C140.456 24.1227 140.784 24.04 141.162 24.04C141.536 24.04 141.861 24.1227 142.138 24.288C142.421 24.4533 142.637 24.688 142.786 24.992C142.941 25.2907 143.018 25.6453 143.018 26.056C143.018 26.4667 142.941 26.824 142.786 27.128C142.637 27.4267 142.421 27.6587 142.138 27.824C141.861 27.9893 141.536 28.072 141.162 28.072ZM141.162 27.552C141.525 27.552 141.816 27.424 142.034 27.168C142.253 26.9067 142.362 26.536 142.362 26.056C142.362 25.5707 142.253 25.2 142.034 24.944C141.816 24.688 141.525 24.56 141.162 24.56C140.794 24.56 140.501 24.688 140.282 24.944C140.069 25.2 139.962 25.5707 139.962 26.056C139.962 26.536 140.069 26.9067 140.282 27.168C140.501 27.424 140.794 27.552 141.162 27.552ZM144.07 28V24.112H146.798V24.632H144.718V28H144.07Z" fill="black"/>
<path d="M155.064 28.072C154.541 28.072 154.085 27.9547 153.696 27.72C153.312 27.48 153.013 27.144 152.8 26.712C152.592 26.28 152.488 25.768 152.488 25.176C152.488 24.584 152.592 24.072 152.8 23.64C153.008 23.208 153.304 22.8747 153.688 22.64C154.077 22.4053 154.536 22.288 155.064 22.288C155.597 22.288 156.056 22.4053 156.44 22.64C156.829 22.8747 157.128 23.208 157.336 23.64C157.549 24.0667 157.656 24.576 157.656 25.168C157.656 25.76 157.549 26.2747 157.336 26.712C157.123 27.144 156.821 27.48 156.432 27.72C156.048 27.9547 155.592 28.072 155.064 28.072ZM155.064 27.488C155.667 27.488 156.133 27.2853 156.464 26.88C156.795 26.4747 156.96 25.9067 156.96 25.176C156.96 24.4453 156.795 23.88 156.464 23.48C156.133 23.0747 155.667 22.872 155.064 22.872C154.472 22.872 154.011 23.0747 153.68 23.48C153.349 23.88 153.184 24.4453 153.184 25.176C153.184 25.9013 153.349 26.4693 153.68 26.88C154.011 27.2853 154.472 27.488 155.064 27.488ZM160.828 28V24.112H161.476V25.728H163.596V24.112H164.244V28H163.596V26.256H161.476V28H160.828ZM166.755 28.072C166.488 28.072 166.248 28.0213 166.035 27.92C165.827 27.8133 165.661 27.6693 165.539 27.488C165.416 27.3067 165.355 27.104 165.355 26.88C165.355 26.5973 165.427 26.3733 165.571 26.208C165.72 26.0427 165.963 25.9253 166.299 25.856C166.64 25.7813 167.104 25.744 167.691 25.744H167.947V25.496C167.947 25.1653 167.877 24.928 167.739 24.784C167.605 24.6347 167.389 24.56 167.091 24.56C166.856 24.56 166.629 24.5947 166.411 24.664C166.192 24.728 165.968 24.8347 165.739 24.984L165.515 24.512C165.717 24.368 165.963 24.2533 166.251 24.168C166.544 24.0827 166.824 24.04 167.091 24.04C167.592 24.04 167.963 24.1627 168.203 24.408C168.448 24.6533 168.571 25.0347 168.571 25.552V28H167.963V27.328C167.861 27.5573 167.704 27.7387 167.491 27.872C167.283 28.0053 167.037 28.072 166.755 28.072ZM166.859 27.584C167.179 27.584 167.44 27.4747 167.643 27.256C167.845 27.032 167.947 26.7493 167.947 26.408V26.168H167.699C167.267 26.168 166.925 26.1893 166.675 26.232C166.429 26.2693 166.256 26.3387 166.155 26.44C166.059 26.536 166.011 26.6693 166.011 26.84C166.011 27.0587 166.085 27.2373 166.235 27.376C166.389 27.5147 166.597 27.584 166.859 27.584ZM171.491 28.072C171.102 28.072 170.766 27.9893 170.483 27.824C170.201 27.6533 169.982 27.416 169.827 27.112C169.678 26.8027 169.603 26.4427 169.603 26.032C169.603 25.4133 169.771 24.928 170.107 24.576C170.443 24.2187 170.905 24.04 171.491 24.04C171.731 24.04 171.969 24.0827 172.203 24.168C172.438 24.2533 172.633 24.3733 172.787 24.528L172.563 25C172.409 24.8507 172.238 24.7413 172.051 24.672C171.87 24.6027 171.697 24.568 171.531 24.568C171.126 24.568 170.814 24.696 170.595 24.952C170.377 25.2027 170.267 25.5653 170.267 26.04C170.267 26.504 170.377 26.872 170.595 27.144C170.814 27.4107 171.126 27.544 171.531 27.544C171.697 27.544 171.87 27.5093 172.051 27.44C172.238 27.3707 172.409 27.2587 172.563 27.104L172.787 27.576C172.633 27.7307 172.435 27.8533 172.195 27.944C171.961 28.0293 171.726 28.072 171.491 28.072Z" fill="black"/>
<path d="M178.696 28V22.36H179.352V24.872H180.344L182 22.36H182.744L180.992 24.968C181.227 25.048 181.432 25.1787 181.608 25.36C181.789 25.536 181.949 25.7627 182.088 26.04L183.04 28H182.32L181.544 26.344C181.389 26.0187 181.211 25.7867 181.008 25.648C180.805 25.5093 180.557 25.44 180.264 25.44H179.352V28H178.696ZM185.342 28.072C184.963 28.072 184.635 27.9893 184.358 27.824C184.081 27.6587 183.865 27.4267 183.71 27.128C183.561 26.824 183.486 26.4667 183.486 26.056C183.486 25.6453 183.561 25.2907 183.71 24.992C183.865 24.688 184.081 24.4533 184.358 24.288C184.635 24.1227 184.963 24.04 185.342 24.04C185.715 24.04 186.041 24.1227 186.318 24.288C186.601 24.4533 186.817 24.688 186.966 24.992C187.121 25.2907 187.198 25.6453 187.198 26.056C187.198 26.4667 187.121 26.824 186.966 27.128C186.817 27.4267 186.601 27.6587 186.318 27.824C186.041 27.9893 185.715 28.072 185.342 28.072ZM185.342 27.552C185.705 27.552 185.995 27.424 186.214 27.168C186.433 26.9067 186.542 26.536 186.542 26.056C186.542 25.5707 186.433 25.2 186.214 24.944C185.995 24.688 185.705 24.56 185.342 24.56C184.974 24.56 184.681 24.688 184.462 24.944C184.249 25.2 184.142 25.5707 184.142 26.056C184.142 26.536 184.249 26.9067 184.462 27.168C184.681 27.424 184.974 27.552 185.342 27.552ZM188.249 28V24.112H188.897V25.728H191.017V24.112H191.665V28H191.017V26.256H188.897V28H188.249ZM193.753 28V24.632H192.345V24.112H195.817V24.632H194.401V28H193.753ZM197.731 28.072C197.465 28.072 197.225 28.0213 197.011 27.92C196.803 27.8133 196.638 27.6693 196.515 27.488C196.393 27.3067 196.331 27.104 196.331 26.88C196.331 26.5973 196.403 26.3733 196.547 26.208C196.697 26.0427 196.939 25.9253 197.275 25.856C197.617 25.7813 198.081 25.744 198.667 25.744H198.923V25.496C198.923 25.1653 198.854 24.928 198.715 24.784C198.582 24.6347 198.366 24.56 198.067 24.56C197.833 24.56 197.606 24.5947 197.387 24.664C197.169 24.728 196.945 24.8347 196.715 24.984L196.491 24.512C196.694 24.368 196.939 24.2533 197.227 24.168C197.521 24.0827 197.801 24.04 198.067 24.04C198.569 24.04 198.939 24.1627 199.179 24.408C199.425 24.6533 199.547 25.0347 199.547 25.552V28H198.939V27.328C198.838 27.5573 198.681 27.7387 198.467 27.872C198.259 28.0053 198.014 28.072 197.731 28.072ZM197.835 27.584C198.155 27.584 198.417 27.4747 198.619 27.256C198.822 27.032 198.923 26.7493 198.923 26.408V26.168H198.675C198.243 26.168 197.902 26.1893 197.651 26.232C197.406 26.2693 197.233 26.3387 197.131 26.44C197.035 26.536 196.987 26.6693 196.987 26.84C196.987 27.0587 197.062 27.2373 197.211 27.376C197.366 27.5147 197.574 27.584 197.835 27.584ZM200.812 28V24.112H201.46V25.736H202.188L203.46 24.112H204.172L202.82 25.864C202.959 25.9173 203.084 26.0053 203.196 26.128C203.308 26.2507 203.433 26.4267 203.572 26.656L204.372 28H203.676L202.972 26.824C202.839 26.5947 202.711 26.4427 202.588 26.368C202.465 26.2933 202.292 26.256 202.068 26.256H201.46V28H200.812ZM205.831 28V24.632H204.423V24.112H207.895V24.632H206.479V28H205.831ZM208.578 28V24.112H209.226V25.496H210.402C210.898 25.496 211.274 25.6053 211.53 25.824C211.786 26.0373 211.914 26.3413 211.914 26.736C211.914 27.1253 211.78 27.4347 211.514 27.664C211.252 27.888 210.882 28 210.402 28H208.578ZM212.49 28V24.112H213.138V28H212.49ZM209.226 27.536H210.338C210.636 27.536 210.868 27.472 211.034 27.344C211.204 27.216 211.29 27.016 211.29 26.744C211.29 26.4773 211.207 26.28 211.042 26.152C210.876 26.024 210.642 25.96 210.338 25.96H209.226V27.536Z" fill="black"/>
<path d="M245.522 16V11.77H248.192V12.184H246.002V13.648H248.066V14.062H246.002V15.586H248.192V16H245.522ZM248.966 16V13.084H249.44V13.576C249.528 13.4 249.65 13.266 249.806 13.174C249.962 13.078 250.144 13.03 250.352 13.03C250.808 13.03 251.1 13.228 251.228 13.624C251.316 13.44 251.446 13.296 251.618 13.192C251.79 13.084 251.988 13.03 252.212 13.03C252.86 13.03 253.184 13.414 253.184 14.182V16H252.698V14.206C252.698 13.938 252.65 13.742 252.554 13.618C252.462 13.49 252.308 13.426 252.092 13.426C251.856 13.426 251.668 13.51 251.528 13.678C251.388 13.846 251.318 14.07 251.318 14.35V16H250.832V14.206C250.832 13.938 250.784 13.742 250.688 13.618C250.596 13.49 250.442 13.426 250.226 13.426C249.986 13.426 249.796 13.51 249.656 13.678C249.52 13.846 249.452 14.07 249.452 14.35V16H248.966ZM255.011 16.054C254.811 16.054 254.631 16.016 254.471 15.94C254.315 15.86 254.191 15.752 254.099 15.616C254.007 15.48 253.961 15.328 253.961 15.16C253.961 14.948 254.015 14.78 254.123 14.656C254.235 14.532 254.417 14.444 254.669 14.392C254.925 14.336 255.273 14.308 255.713 14.308H255.905V14.122C255.905 13.874 255.853 13.696 255.749 13.588C255.649 13.476 255.487 13.42 255.263 13.42C255.087 13.42 254.917 13.446 254.753 13.498C254.589 13.546 254.421 13.626 254.249 13.738L254.081 13.384C254.233 13.276 254.417 13.19 254.633 13.126C254.853 13.062 255.063 13.03 255.263 13.03C255.639 13.03 255.917 13.122 256.097 13.306C256.281 13.49 256.373 13.776 256.373 14.164V16H255.917V15.496C255.841 15.668 255.723 15.804 255.563 15.904C255.407 16.004 255.223 16.054 255.011 16.054ZM255.089 15.688C255.329 15.688 255.525 15.606 255.677 15.442C255.829 15.274 255.905 15.062 255.905 14.806V14.626H255.719C255.395 14.626 255.139 14.642 254.951 14.674C254.767 14.702 254.637 14.754 254.561 14.83C254.489 14.902 254.453 15.002 254.453 15.13C254.453 15.294 254.509 15.428 254.621 15.532C254.737 15.636 254.893 15.688 255.089 15.688ZM257.214 12.358V11.812H257.814V12.358H257.214ZM257.274 16V13.084H257.76V16H257.274ZM259.563 16.054C259.267 16.054 259.043 15.968 258.891 15.796C258.743 15.62 258.669 15.366 258.669 15.034V11.77H259.155V14.998C259.155 15.426 259.325 15.64 259.665 15.64C259.765 15.64 259.855 15.628 259.935 15.604L259.923 16.012C259.799 16.04 259.679 16.054 259.563 16.054Z" fill="black"/>
<path d="M245.114 27L246.98 22.77H247.4L249.266 27H248.756L248.288 25.92H246.086L245.624 27H245.114ZM247.184 23.346L246.266 25.506H248.114L247.196 23.346H247.184ZM249.533 27.78V26.61H249.839C249.979 26.406 250.079 26.172 250.139 25.908C250.199 25.64 250.229 25.318 250.229 24.942V24.084H252.293V26.61H252.755V27.78H252.335V27H249.947V27.78H249.533ZM250.307 26.61H251.831V24.468H250.661V25.026C250.661 25.326 250.631 25.616 250.571 25.896C250.511 26.176 250.423 26.414 250.307 26.61ZM253.408 28.08V24.084H253.882V24.606C253.97 24.426 254.1 24.286 254.272 24.186C254.448 24.082 254.652 24.03 254.884 24.03C255.144 24.03 255.37 24.092 255.562 24.216C255.758 24.336 255.908 24.51 256.012 24.738C256.12 24.962 256.174 25.23 256.174 25.542C256.174 25.85 256.12 26.118 256.012 26.346C255.908 26.57 255.758 26.744 255.562 26.868C255.37 26.992 255.144 27.054 254.884 27.054C254.66 27.054 254.46 27.004 254.284 26.904C254.108 26.804 253.978 26.666 253.894 26.49V28.08H253.408ZM254.782 26.664C255.054 26.664 255.272 26.568 255.436 26.376C255.6 26.18 255.682 25.902 255.682 25.542C255.682 25.178 255.6 24.9 255.436 24.708C255.272 24.516 255.054 24.42 254.782 24.42C254.51 24.42 254.292 24.516 254.128 24.708C253.964 24.9 253.882 25.178 253.882 25.542C253.882 25.902 253.964 26.18 254.128 26.376C254.292 26.568 254.51 26.664 254.782 26.664ZM258.279 27.054C257.819 27.054 257.455 26.92 257.187 26.652C256.919 26.38 256.785 26.012 256.785 25.548C256.785 25.248 256.845 24.984 256.965 24.756C257.085 24.524 257.249 24.346 257.457 24.222C257.669 24.094 257.913 24.03 258.189 24.03C258.585 24.03 258.895 24.158 259.119 24.414C259.343 24.666 259.455 25.014 259.455 25.458V25.644H257.259C257.275 25.976 257.371 26.23 257.547 26.406C257.723 26.578 257.967 26.664 258.279 26.664C258.455 26.664 258.623 26.638 258.783 26.586C258.943 26.53 259.095 26.44 259.239 26.316L259.407 26.658C259.275 26.782 259.107 26.88 258.903 26.952C258.699 27.02 258.491 27.054 258.279 27.054ZM258.201 24.39C257.925 24.39 257.707 24.476 257.547 24.648C257.387 24.82 257.293 25.046 257.265 25.326H259.035C259.023 25.03 258.945 24.8 258.801 24.636C258.661 24.472 258.461 24.39 258.201 24.39ZM261.452 27.054C261.16 27.054 260.908 26.992 260.696 26.868C260.484 26.74 260.32 26.562 260.204 26.334C260.092 26.102 260.036 25.832 260.036 25.524C260.036 25.06 260.162 24.696 260.414 24.432C260.666 24.164 261.012 24.03 261.452 24.03C261.632 24.03 261.81 24.062 261.986 24.126C262.162 24.19 262.308 24.28 262.424 24.396L262.256 24.75C262.14 24.638 262.012 24.556 261.872 24.504C261.736 24.452 261.606 24.426 261.482 24.426C261.178 24.426 260.944 24.522 260.78 24.714C260.616 24.902 260.534 25.174 260.534 25.53C260.534 25.878 260.616 26.154 260.78 26.358C260.944 26.558 261.178 26.658 261.482 26.658C261.606 26.658 261.736 26.632 261.872 26.58C262.012 26.528 262.14 26.444 262.256 26.328L262.424 26.682C262.308 26.798 262.16 26.89 261.98 26.958C261.804 27.022 261.628 27.054 261.452 27.054Z" fill="black"/>
<path d="M246.56 38V34.196H245.024V33.77H248.594V34.196H247.058V38H246.56ZM249.952 38.054C249.492 38.054 249.128 37.92 248.86 37.652C248.592 37.38 248.458 37.012 248.458 36.548C248.458 36.248 248.518 35.984 248.638 35.756C248.758 35.524 248.922 35.346 249.13 35.222C249.342 35.094 249.586 35.03 249.862 35.03C250.258 35.03 250.568 35.158 250.792 35.414C251.016 35.666 251.128 36.014 251.128 36.458V36.644H248.932C248.948 36.976 249.044 37.23 249.22 37.406C249.396 37.578 249.64 37.664 249.952 37.664C250.128 37.664 250.296 37.638 250.456 37.586C250.616 37.53 250.768 37.44 250.912 37.316L251.08 37.658C250.948 37.782 250.78 37.88 250.576 37.952C250.372 38.02 250.164 38.054 249.952 38.054ZM249.874 35.39C249.598 35.39 249.38 35.476 249.22 35.648C249.06 35.82 248.966 36.046 248.938 36.326H250.708C250.696 36.03 250.618 35.8 250.474 35.636C250.334 35.472 250.134 35.39 249.874 35.39ZM251.722 38.066L251.542 37.682C251.722 37.606 251.864 37.5 251.968 37.364C252.072 37.224 252.144 37.032 252.184 36.788C252.228 36.544 252.25 36.224 252.25 35.828V35.084H254.368V38H253.882V35.474H252.706V35.846C252.706 36.302 252.672 36.678 252.604 36.974C252.54 37.27 252.436 37.504 252.292 37.676C252.148 37.848 251.958 37.978 251.722 38.066ZM256.65 38.054C256.19 38.054 255.826 37.92 255.558 37.652C255.29 37.38 255.156 37.012 255.156 36.548C255.156 36.248 255.216 35.984 255.336 35.756C255.456 35.524 255.62 35.346 255.828 35.222C256.04 35.094 256.284 35.03 256.56 35.03C256.956 35.03 257.266 35.158 257.49 35.414C257.714 35.666 257.826 36.014 257.826 36.458V36.644H255.63C255.646 36.976 255.742 37.23 255.918 37.406C256.094 37.578 256.338 37.664 256.65 37.664C256.826 37.664 256.994 37.638 257.154 37.586C257.314 37.53 257.466 37.44 257.61 37.316L257.778 37.658C257.646 37.782 257.478 37.88 257.274 37.952C257.07 38.02 256.862 38.054 256.65 38.054ZM256.572 35.39C256.296 35.39 256.078 35.476 255.918 35.648C255.758 35.82 255.664 36.046 255.636 36.326H257.406C257.394 36.03 257.316 35.8 257.172 35.636C257.032 35.472 256.832 35.39 256.572 35.39ZM260.244 39.08V37.526C260.172 37.694 260.07 37.824 259.938 37.916C259.806 38.008 259.648 38.054 259.464 38.054C259.252 38.054 259.066 37.992 258.906 37.868C258.75 37.744 258.628 37.57 258.54 37.346C258.452 37.118 258.408 36.85 258.408 36.542C258.408 36.078 258.504 35.71 258.696 35.438C258.888 35.166 259.144 35.03 259.464 35.03C259.648 35.03 259.806 35.076 259.938 35.168C260.07 35.26 260.172 35.39 260.244 35.558V33.77H260.73V35.552C260.802 35.384 260.904 35.256 261.036 35.168C261.168 35.076 261.326 35.03 261.51 35.03C261.826 35.03 262.08 35.166 262.272 35.438C262.468 35.71 262.566 36.078 262.566 36.542C262.566 37.002 262.47 37.37 262.278 37.646C262.086 37.918 261.83 38.054 261.51 38.054C261.326 38.054 261.168 38.008 261.036 37.916C260.904 37.824 260.802 37.696 260.73 37.532V39.08H260.244ZM259.572 37.67C259.784 37.67 259.95 37.574 260.07 37.382C260.19 37.19 260.25 36.91 260.25 36.542C260.25 36.174 260.188 35.894 260.064 35.702C259.944 35.51 259.78 35.414 259.572 35.414C259.364 35.414 259.198 35.51 259.074 35.702C258.954 35.894 258.894 36.174 258.894 36.542C258.894 36.91 258.954 37.19 259.074 37.382C259.198 37.574 259.364 37.67 259.572 37.67ZM261.396 37.67C261.604 37.67 261.77 37.574 261.894 37.382C262.018 37.19 262.08 36.91 262.08 36.542C262.08 36.174 262.018 35.894 261.894 35.702C261.77 35.51 261.604 35.414 261.396 35.414C261.188 35.414 261.024 35.51 260.904 35.702C260.784 35.894 260.724 36.174 260.724 36.542C260.724 36.91 260.782 37.19 260.898 37.382C261.018 37.574 261.184 37.67 261.396 37.67ZM264.569 38.054C264.285 38.054 264.039 37.992 263.831 37.868C263.623 37.744 263.461 37.57 263.345 37.346C263.233 37.118 263.177 36.85 263.177 36.542C263.177 36.234 263.233 35.968 263.345 35.744C263.461 35.516 263.623 35.34 263.831 35.216C264.039 35.092 264.285 35.03 264.569 35.03C264.849 35.03 265.093 35.092 265.301 35.216C265.513 35.34 265.675 35.516 265.787 35.744C265.903 35.968 265.961 36.234 265.961 36.542C265.961 36.85 265.903 37.118 265.787 37.346C265.675 37.57 265.513 37.744 265.301 37.868C265.093 37.992 264.849 38.054 264.569 38.054ZM264.569 37.664C264.841 37.664 265.059 37.568 265.223 37.376C265.387 37.18 265.469 36.902 265.469 36.542C265.469 36.178 265.387 35.9 265.223 35.708C265.059 35.516 264.841 35.42 264.569 35.42C264.293 35.42 264.073 35.516 263.909 35.708C263.749 35.9 263.669 36.178 263.669 36.542C263.669 36.902 263.749 37.18 263.909 37.376C264.073 37.568 264.293 37.664 264.569 37.664ZM266.75 38V35.084H267.236V36.296H268.826V35.084H269.312V38H268.826V36.692H267.236V38H266.75Z" fill="black"/>
</svg>
