<svg width="280" height="50" viewBox="0 0 280 50" fill="none" xmlns="http://www.w3.org/2000/svg">
<mask id="path-1-inside-1_11_183" fill="white">
<path d="M0 0H280V50H0V0Z"/>
</mask>
<path d="M0 0H280V50H0V0Z" fill="white"/>
<path d="M280 49H0V51H280V49Z" fill="#BFBFBF" mask="url(#path-1-inside-1_11_183)"/>
<path d="M10.325 26.075L10.1 25.73C10.2433 25.65 10.3667 25.555 10.47 25.445C10.5767 25.335 10.6633 25.1967 10.73 25.03C10.8 24.8633 10.8517 24.6583 10.885 24.415C10.9183 24.1717 10.935 23.88 10.935 23.54V22.475H13.38V26H12.915V22.89H11.375V23.655C11.375 23.9983 11.3533 24.3017 11.31 24.565C11.27 24.825 11.2067 25.0517 11.12 25.245C11.0333 25.4383 10.9233 25.6033 10.79 25.74C10.6567 25.8733 10.5017 25.985 10.325 26.075ZM15.5553 26.045C15.2986 26.045 15.0753 25.9917 14.8853 25.885C14.6986 25.775 14.5536 25.6233 14.4503 25.43C14.3503 25.2367 14.3003 25.01 14.3003 24.75C14.3003 24.4933 14.3503 24.2683 14.4503 24.075C14.5536 23.8817 14.6986 23.7317 14.8853 23.625C15.0753 23.5183 15.2986 23.465 15.5553 23.465C15.8153 23.465 16.037 23.5183 16.2203 23.625C16.407 23.7317 16.552 23.8817 16.6553 24.075C16.7586 24.2683 16.8103 24.4933 16.8103 24.75C16.8103 25.01 16.7586 25.2367 16.6553 25.43C16.5553 25.6233 16.412 25.775 16.2253 25.885C16.0386 25.9917 15.8153 26.045 15.5553 26.045ZM15.5503 25.64C15.8003 25.64 15.997 25.5583 16.1403 25.395C16.2836 25.2317 16.3553 25.0167 16.3553 24.75C16.3553 24.48 16.2836 24.265 16.1403 24.105C16.0003 23.945 15.8053 23.865 15.5553 23.865C15.3053 23.865 15.1086 23.945 14.9653 24.105C14.8253 24.265 14.7553 24.48 14.7553 24.75C14.7553 25.0167 14.8253 25.2317 14.9653 25.395C15.1086 25.5583 15.3036 25.64 15.5503 25.64ZM17.6632 26V23.51H19.5282V23.9H18.1232V26H17.6632ZM21.2731 26.045C21.0164 26.045 20.7931 25.9917 20.6031 25.885C20.4164 25.775 20.2714 25.6233 20.1681 25.43C20.0681 25.2367 20.0181 25.01 20.0181 24.75C20.0181 24.4933 20.0681 24.2683 20.1681 24.075C20.2714 23.8817 20.4164 23.7317 20.6031 23.625C20.7931 23.5183 21.0164 23.465 21.2731 23.465C21.5331 23.465 21.7548 23.5183 21.9381 23.625C22.1248 23.7317 22.2698 23.8817 22.3731 24.075C22.4764 24.2683 22.5281 24.4933 22.5281 24.75C22.5281 25.01 22.4764 25.2367 22.3731 25.43C22.2731 25.6233 22.1298 25.775 21.9431 25.885C21.7564 25.9917 21.5331 26.045 21.2731 26.045ZM21.2681 25.64C21.5181 25.64 21.7148 25.5583 21.8581 25.395C22.0014 25.2317 22.0731 25.0167 22.0731 24.75C22.0731 24.48 22.0014 24.265 21.8581 24.105C21.7181 23.945 21.5231 23.865 21.2731 23.865C21.0231 23.865 20.8264 23.945 20.6831 24.105C20.5431 24.265 20.4731 24.48 20.4731 24.75C20.4731 25.0167 20.5431 25.2317 20.6831 25.395C20.8264 25.5583 21.0214 25.64 21.2681 25.64ZM23.946 26V23.9H22.986V23.51H25.371V23.9H24.411V26H23.946ZM25.9884 26V23.51H26.4334V25.37H26.4584L27.8534 23.51H28.3134V26H27.8634V24.135H27.8384L26.4434 26H25.9884ZM29.3185 26V23.51H31.6385V26H31.1735V23.9H29.7785V26H29.3185Z" fill="#333333"/>
<path d="M59.832 39V33.36H63.472V33.992H60.544V39H59.832ZM63.0591 39.088L62.7951 38.544C62.9924 38.4587 63.1551 38.352 63.2831 38.224C63.4164 38.096 63.5177 37.936 63.5871 37.744C63.6617 37.552 63.7124 37.32 63.7391 37.048C63.7711 36.7707 63.7871 36.448 63.7871 36.08V35.048H66.8031V39H66.0911V35.64H64.4511V36.096C64.4511 36.5227 64.4271 36.9013 64.3791 37.232C64.3364 37.5627 64.2617 37.8507 64.1551 38.096C64.0537 38.336 63.9124 38.5387 63.7311 38.704C63.5497 38.8693 63.3257 38.9973 63.0591 39.088ZM69.6189 39.072C69.3362 39.072 69.0829 39.0213 68.8589 38.92C68.6349 38.8133 68.4589 38.6693 68.3309 38.488C68.2029 38.3067 68.1389 38.104 68.1389 37.88C68.1389 37.576 68.2242 37.3387 68.3949 37.168C68.5655 36.992 68.8269 36.8667 69.1789 36.792C69.5362 36.7173 69.9922 36.68 70.5469 36.68H71.1149V37.168H70.5789C70.2695 37.168 70.0055 37.1787 69.7869 37.2C69.5682 37.216 69.3895 37.2507 69.2509 37.304C69.1122 37.352 69.0109 37.4187 68.9469 37.504C68.8829 37.5893 68.8509 37.7013 68.8509 37.84C68.8509 38.0533 68.9335 38.2187 69.0989 38.336C69.2695 38.4533 69.4855 38.512 69.7469 38.512C69.9762 38.512 70.1842 38.4613 70.3709 38.36C70.5629 38.2533 70.7149 38.112 70.8269 37.936C70.9442 37.76 71.0029 37.5653 71.0029 37.352V36.448C71.0029 36.1333 70.9149 35.9067 70.7389 35.768C70.5629 35.624 70.3015 35.552 69.9549 35.552C69.7202 35.552 69.4855 35.584 69.2509 35.648C69.0215 35.712 68.7842 35.8187 68.5389 35.968L68.3069 35.44C68.4722 35.3387 68.6482 35.256 68.8349 35.192C69.0215 35.1227 69.2162 35.0693 69.4189 35.032C69.6215 34.9947 69.8242 34.976 70.0269 34.976C70.3682 34.976 70.6615 35.0293 70.9069 35.136C71.1575 35.2427 71.3495 35.408 71.4829 35.632C71.6215 35.856 71.6909 36.1493 71.6909 36.512V39H71.0669V38.136C70.9922 38.3013 70.8882 38.456 70.7549 38.6C70.6215 38.744 70.4589 38.8587 70.2669 38.944C70.0802 39.0293 69.8642 39.072 69.6189 39.072ZM73.1817 39V35.048H75.2777C75.603 35.048 75.8697 35.088 76.0777 35.168C76.291 35.248 76.4484 35.3653 76.5497 35.52C76.651 35.6693 76.7017 35.8587 76.7017 36.088C76.7017 36.3013 76.6377 36.4853 76.5097 36.64C76.3817 36.7947 76.2057 36.9013 75.9817 36.96V36.952C76.1684 36.984 76.3257 37.0453 76.4537 37.136C76.5817 37.2213 76.6777 37.3307 76.7417 37.464C76.811 37.592 76.8457 37.7387 76.8457 37.904C76.8457 38.2453 76.715 38.5147 76.4537 38.712C76.1924 38.904 75.8244 39 75.3497 39H73.1817ZM73.8697 38.504H75.3017C75.5737 38.504 75.7844 38.4533 75.9337 38.352C76.083 38.2507 76.1577 38.0933 76.1577 37.88C76.1577 37.6667 76.0804 37.5067 75.9257 37.4C75.7764 37.2933 75.5684 37.24 75.3017 37.24H73.8697V38.504ZM73.8697 36.752H75.2297C75.475 36.752 75.667 36.6987 75.8057 36.592C75.9497 36.48 76.0217 36.3253 76.0217 36.128C76.0217 35.9307 75.9497 35.784 75.8057 35.688C75.667 35.5867 75.475 35.536 75.2297 35.536H73.8697V36.752ZM78.0801 39V35.048H78.7921V36.664H81.0241V35.048H81.7361V39H81.0241V37.256H78.7921V39H78.0801ZM84.5486 39.072C84.2659 39.072 84.0126 39.0213 83.7886 38.92C83.5646 38.8133 83.3886 38.6693 83.2606 38.488C83.1326 38.3067 83.0686 38.104 83.0686 37.88C83.0686 37.576 83.1539 37.3387 83.3246 37.168C83.4952 36.992 83.7566 36.8667 84.1086 36.792C84.4659 36.7173 84.9219 36.68 85.4766 36.68H86.0446V37.168H85.5086C85.1992 37.168 84.9352 37.1787 84.7166 37.2C84.4979 37.216 84.3192 37.2507 84.1806 37.304C84.0419 37.352 83.9406 37.4187 83.8766 37.504C83.8126 37.5893 83.7806 37.7013 83.7806 37.84C83.7806 38.0533 83.8632 38.2187 84.0286 38.336C84.1992 38.4533 84.4152 38.512 84.6766 38.512C84.9059 38.512 85.1139 38.4613 85.3006 38.36C85.4926 38.2533 85.6446 38.112 85.7566 37.936C85.8739 37.76 85.9326 37.5653 85.9326 37.352V36.448C85.9326 36.1333 85.8446 35.9067 85.6686 35.768C85.4926 35.624 85.2312 35.552 84.8846 35.552C84.6499 35.552 84.4152 35.584 84.1806 35.648C83.9512 35.712 83.7139 35.8187 83.4686 35.968L83.2366 35.44C83.4019 35.3387 83.5779 35.256 83.7646 35.192C83.9512 35.1227 84.1459 35.0693 84.3486 35.032C84.5512 34.9947 84.7539 34.976 84.9566 34.976C85.2979 34.976 85.5912 35.0293 85.8366 35.136C86.0872 35.2427 86.2792 35.408 86.4126 35.632C86.5512 35.856 86.6206 36.1493 86.6206 36.512V39H85.9966V38.136C85.9219 38.3013 85.8179 38.456 85.6846 38.6C85.5512 38.744 85.3886 38.8587 85.1966 38.944C85.0099 39.0293 84.7939 39.072 84.5486 39.072ZM87.7754 39L88.4074 37.944C88.5087 37.7787 88.626 37.6453 88.7594 37.544C88.8927 37.4427 89.0287 37.392 89.1674 37.392H89.2234C88.994 37.3813 88.7807 37.3333 88.5834 37.248C88.3914 37.1627 88.2394 37.0373 88.1274 36.872C88.0154 36.7013 87.9594 36.4907 87.9594 36.24C87.9594 35.8773 88.0847 35.5893 88.3354 35.376C88.5914 35.1573 88.9727 35.048 89.4794 35.048H91.4394V39H90.7434V37.528H90.0714C89.8527 37.528 89.666 37.5787 89.5114 37.68C89.3567 37.776 89.2314 37.904 89.1354 38.064L88.5834 39H87.7754ZM89.6154 37H90.7514V35.576H89.6154C89.2847 35.576 89.0394 35.6373 88.8794 35.76C88.7247 35.8827 88.6474 36.056 88.6474 36.28C88.6474 36.5093 88.7247 36.688 88.8794 36.816C89.0394 36.9387 89.2847 37 89.6154 37Z" fill="black"/>
<path d="M120.832 39V33.36H121.544V35.832H122.704L122.512 35.976L124.232 33.36H125.048L123.216 36.096L122.928 35.864C123.147 35.8853 123.344 35.9467 123.52 36.048C123.696 36.144 123.856 36.2747 124 36.44C124.149 36.6053 124.277 36.8027 124.384 37.032L125.344 39H124.552L123.768 37.352C123.624 37.0427 123.453 36.8187 123.256 36.68C123.064 36.536 122.816 36.464 122.512 36.464H121.544V39H120.832ZM127.556 39.072C127.274 39.072 127.02 39.0213 126.796 38.92C126.572 38.8133 126.396 38.6693 126.268 38.488C126.14 38.3067 126.076 38.104 126.076 37.88C126.076 37.576 126.162 37.3387 126.332 37.168C126.503 36.992 126.764 36.8667 127.116 36.792C127.474 36.7173 127.93 36.68 128.484 36.68H129.052V37.168H128.516C128.207 37.168 127.943 37.1787 127.724 37.2C127.506 37.216 127.327 37.2507 127.188 37.304C127.05 37.352 126.948 37.4187 126.884 37.504C126.82 37.5893 126.788 37.7013 126.788 37.84C126.788 38.0533 126.871 38.2187 127.036 38.336C127.207 38.4533 127.423 38.512 127.684 38.512C127.914 38.512 128.122 38.4613 128.308 38.36C128.5 38.2533 128.652 38.112 128.764 37.936C128.882 37.76 128.94 37.5653 128.94 37.352V36.448C128.94 36.1333 128.852 35.9067 128.676 35.768C128.5 35.624 128.239 35.552 127.892 35.552C127.658 35.552 127.423 35.584 127.188 35.648C126.959 35.712 126.722 35.8187 126.476 35.968L126.244 35.44C126.41 35.3387 126.586 35.256 126.772 35.192C126.959 35.1227 127.154 35.0693 127.356 35.032C127.559 34.9947 127.762 34.976 127.964 34.976C128.306 34.976 128.599 35.0293 128.844 35.136C129.095 35.2427 129.287 35.408 129.42 35.632C129.559 35.856 129.628 36.1493 129.628 36.512V39H129.004V38.136C128.93 38.3013 128.826 38.456 128.692 38.6C128.559 38.744 128.396 38.8587 128.204 38.944C128.018 39.0293 127.802 39.072 127.556 39.072ZM131.991 39V35.64H130.495V35.048H134.199V35.64H132.703V39H131.991ZM136.4 39.072C136.117 39.072 135.864 39.0213 135.64 38.92C135.416 38.8133 135.24 38.6693 135.112 38.488C134.984 38.3067 134.92 38.104 134.92 37.88C134.92 37.576 135.005 37.3387 135.176 37.168C135.347 36.992 135.608 36.8667 135.96 36.792C136.317 36.7173 136.773 36.68 137.328 36.68H137.896V37.168H137.36C137.051 37.168 136.787 37.1787 136.568 37.2C136.349 37.216 136.171 37.2507 136.032 37.304C135.893 37.352 135.792 37.4187 135.728 37.504C135.664 37.5893 135.632 37.7013 135.632 37.84C135.632 38.0533 135.715 38.2187 135.88 38.336C136.051 38.4533 136.267 38.512 136.528 38.512C136.757 38.512 136.965 38.4613 137.152 38.36C137.344 38.2533 137.496 38.112 137.608 37.936C137.725 37.76 137.784 37.5653 137.784 37.352V36.448C137.784 36.1333 137.696 35.9067 137.52 35.768C137.344 35.624 137.083 35.552 136.736 35.552C136.501 35.552 136.267 35.584 136.032 35.648C135.803 35.712 135.565 35.8187 135.32 35.968L135.088 35.44C135.253 35.3387 135.429 35.256 135.616 35.192C135.803 35.1227 135.997 35.0693 136.2 35.032C136.403 34.9947 136.605 34.976 136.808 34.976C137.149 34.976 137.443 35.0293 137.688 35.136C137.939 35.2427 138.131 35.408 138.264 35.632C138.403 35.856 138.472 36.1493 138.472 36.512V39H137.848V38.136C137.773 38.3013 137.669 38.456 137.536 38.6C137.403 38.744 137.24 38.8587 137.048 38.944C136.861 39.0293 136.645 39.072 136.4 39.072ZM139.731 39.088L139.467 38.544C139.664 38.4587 139.827 38.352 139.955 38.224C140.088 38.096 140.19 37.936 140.259 37.744C140.334 37.552 140.384 37.32 140.411 37.048C140.443 36.7707 140.459 36.448 140.459 36.08V35.048H143.475V39H142.763V35.64H141.123V36.096C141.123 36.5227 141.099 36.9013 141.051 37.232C141.008 37.5627 140.934 37.8507 140.827 38.096C140.726 38.336 140.584 38.5387 140.403 38.704C140.222 38.8693 139.998 38.9973 139.731 39.088ZM146.691 39.072C146.291 39.072 145.944 38.9867 145.651 38.816C145.357 38.6453 145.131 38.408 144.971 38.104C144.811 37.7947 144.731 37.432 144.731 37.016C144.731 36.6053 144.811 36.248 144.971 35.944C145.131 35.6347 145.357 35.3973 145.651 35.232C145.944 35.0613 146.291 34.976 146.691 34.976C147.091 34.976 147.435 35.0613 147.723 35.232C148.016 35.3973 148.243 35.6347 148.403 35.944C148.563 36.248 148.643 36.6053 148.643 37.016C148.643 37.432 148.563 37.7947 148.403 38.104C148.248 38.408 148.024 38.6453 147.731 38.816C147.437 38.9867 147.091 39.072 146.691 39.072ZM146.683 38.472C147.072 38.472 147.379 38.3413 147.603 38.08C147.827 37.8187 147.939 37.464 147.939 37.016C147.939 36.568 147.827 36.216 147.603 35.96C147.384 35.704 147.08 35.576 146.691 35.576C146.301 35.576 145.995 35.704 145.771 35.96C145.547 36.216 145.435 36.568 145.435 37.016C145.435 37.464 145.547 37.8187 145.771 38.08C146 38.3413 146.304 38.472 146.683 38.472ZM149.908 39V35.048H152.804V35.64H150.62V39H149.908Z" fill="black"/>
<path d="M183.224 39.072C182.819 39.072 182.453 39.0053 182.128 38.872C181.808 38.7387 181.533 38.5467 181.304 38.296C181.08 38.0453 180.907 37.7413 180.784 37.384C180.661 37.0267 180.6 36.624 180.6 36.176C180.6 35.728 180.659 35.328 180.776 34.976C180.899 34.6187 181.075 34.3147 181.304 34.064C181.533 33.8133 181.808 33.6213 182.128 33.488C182.453 33.3547 182.819 33.288 183.224 33.288C183.629 33.288 183.992 33.3547 184.312 33.488C184.637 33.6213 184.915 33.8133 185.144 34.064C185.373 34.3093 185.547 34.6107 185.664 34.968C185.787 35.3253 185.848 35.7253 185.848 36.168C185.848 36.6213 185.787 37.0267 185.664 37.384C185.541 37.7413 185.365 38.0453 185.136 38.296C184.912 38.5467 184.637 38.7387 184.312 38.872C183.992 39.0053 183.629 39.072 183.224 39.072ZM183.224 38.432C183.624 38.432 183.963 38.3467 184.24 38.176C184.517 38 184.731 37.744 184.88 37.408C185.029 37.072 185.104 36.6613 185.104 36.176C185.104 35.6853 185.029 35.2747 184.88 34.944C184.736 34.6133 184.523 34.3627 184.24 34.192C183.963 34.016 183.624 33.928 183.224 33.928C182.829 33.928 182.491 34.016 182.208 34.192C181.931 34.3627 181.717 34.6133 181.568 34.944C181.419 35.2747 181.344 35.6853 181.344 36.176C181.344 36.6613 181.419 37.072 181.568 37.408C181.717 37.7387 181.931 37.992 182.208 38.168C182.491 38.344 182.829 38.432 183.224 38.432ZM189.432 39V35.048H190.144V36.664H192.376V35.048H193.088V39H192.376V37.256H190.144V39H189.432ZM195.9 39.072C195.617 39.072 195.364 39.0213 195.14 38.92C194.916 38.8133 194.74 38.6693 194.612 38.488C194.484 38.3067 194.42 38.104 194.42 37.88C194.42 37.576 194.505 37.3387 194.676 37.168C194.847 36.992 195.108 36.8667 195.46 36.792C195.817 36.7173 196.273 36.68 196.828 36.68H197.396V37.168H196.86C196.551 37.168 196.287 37.1787 196.068 37.2C195.849 37.216 195.671 37.2507 195.532 37.304C195.393 37.352 195.292 37.4187 195.228 37.504C195.164 37.5893 195.132 37.7013 195.132 37.84C195.132 38.0533 195.215 38.2187 195.38 38.336C195.551 38.4533 195.767 38.512 196.028 38.512C196.257 38.512 196.465 38.4613 196.652 38.36C196.844 38.2533 196.996 38.112 197.108 37.936C197.225 37.76 197.284 37.5653 197.284 37.352V36.448C197.284 36.1333 197.196 35.9067 197.02 35.768C196.844 35.624 196.583 35.552 196.236 35.552C196.001 35.552 195.767 35.584 195.532 35.648C195.303 35.712 195.065 35.8187 194.82 35.968L194.588 35.44C194.753 35.3387 194.929 35.256 195.116 35.192C195.303 35.1227 195.497 35.0693 195.7 35.032C195.903 34.9947 196.105 34.976 196.308 34.976C196.649 34.976 196.943 35.0293 197.188 35.136C197.439 35.2427 197.631 35.408 197.764 35.632C197.903 35.856 197.972 36.1493 197.972 36.512V39H197.348V38.136C197.273 38.3013 197.169 38.456 197.036 38.6C196.903 38.744 196.74 38.8587 196.548 38.944C196.361 39.0293 196.145 39.072 195.9 39.072ZM201.223 39.072C200.818 39.072 200.466 38.9867 200.167 38.816C199.868 38.6453 199.636 38.408 199.471 38.104C199.306 37.7947 199.223 37.432 199.223 37.016C199.223 36.6 199.306 36.24 199.471 35.936C199.636 35.6267 199.868 35.3893 200.167 35.224C200.471 35.0587 200.826 34.976 201.231 34.976C201.503 34.976 201.762 35.0213 202.007 35.112C202.252 35.2027 202.455 35.3253 202.615 35.48L202.367 36.008C202.212 35.8693 202.039 35.7653 201.847 35.696C201.655 35.6213 201.468 35.584 201.287 35.584C200.871 35.584 200.543 35.7093 200.303 35.96C200.063 36.2107 199.943 36.5653 199.943 37.024C199.943 37.4773 200.063 37.832 200.303 38.088C200.543 38.3387 200.868 38.464 201.279 38.464C201.466 38.464 201.652 38.4293 201.839 38.36C202.031 38.2853 202.202 38.1813 202.351 38.048L202.599 38.576C202.444 38.7307 202.244 38.8533 201.999 38.944C201.754 39.0293 201.495 39.072 201.223 39.072Z" fill="black"/>
<path d="M230.832 39V33.36H231.544V35.832H232.704L232.512 35.976L234.232 33.36H235.048L233.216 36.096L232.928 35.864C233.147 35.8853 233.344 35.9467 233.52 36.048C233.696 36.144 233.856 36.2747 234 36.44C234.149 36.6053 234.277 36.8027 234.384 37.032L235.344 39H234.552L233.768 37.352C233.624 37.0427 233.453 36.8187 233.256 36.68C233.064 36.536 232.816 36.464 232.512 36.464H231.544V39H230.832ZM237.91 39.072C237.51 39.072 237.163 38.9867 236.87 38.816C236.576 38.6453 236.35 38.408 236.19 38.104C236.03 37.7947 235.95 37.432 235.95 37.016C235.95 36.6053 236.03 36.248 236.19 35.944C236.35 35.6347 236.576 35.3973 236.87 35.232C237.163 35.0613 237.51 34.976 237.91 34.976C238.31 34.976 238.654 35.0613 238.942 35.232C239.235 35.3973 239.462 35.6347 239.622 35.944C239.782 36.248 239.862 36.6053 239.862 37.016C239.862 37.432 239.782 37.7947 239.622 38.104C239.467 38.408 239.243 38.6453 238.95 38.816C238.656 38.9867 238.31 39.072 237.91 39.072ZM237.902 38.472C238.291 38.472 238.598 38.3413 238.822 38.08C239.046 37.8187 239.158 37.464 239.158 37.016C239.158 36.568 239.046 36.216 238.822 35.96C238.603 35.704 238.299 35.576 237.91 35.576C237.52 35.576 237.214 35.704 236.99 35.96C236.766 36.216 236.654 36.568 236.654 37.016C236.654 37.464 236.766 37.8187 236.99 38.08C237.219 38.3413 237.523 38.472 237.902 38.472ZM241.127 39V35.048H241.839V36.664H244.071V35.048H244.783V39H244.071V37.256H241.839V39H241.127ZM247.147 39V35.64H245.651V35.048H249.355V35.64H247.859V39H247.147ZM251.556 39.072C251.274 39.072 251.02 39.0213 250.796 38.92C250.572 38.8133 250.396 38.6693 250.268 38.488C250.14 38.3067 250.076 38.104 250.076 37.88C250.076 37.576 250.162 37.3387 250.332 37.168C250.503 36.992 250.764 36.8667 251.116 36.792C251.474 36.7173 251.93 36.68 252.484 36.68H253.052V37.168H252.516C252.207 37.168 251.943 37.1787 251.724 37.2C251.506 37.216 251.327 37.2507 251.188 37.304C251.05 37.352 250.948 37.4187 250.884 37.504C250.82 37.5893 250.788 37.7013 250.788 37.84C250.788 38.0533 250.871 38.2187 251.036 38.336C251.207 38.4533 251.423 38.512 251.684 38.512C251.914 38.512 252.122 38.4613 252.308 38.36C252.5 38.2533 252.652 38.112 252.764 37.936C252.882 37.76 252.94 37.5653 252.94 37.352V36.448C252.94 36.1333 252.852 35.9067 252.676 35.768C252.5 35.624 252.239 35.552 251.892 35.552C251.658 35.552 251.423 35.584 251.188 35.648C250.959 35.712 250.722 35.8187 250.476 35.968L250.244 35.44C250.41 35.3387 250.586 35.256 250.772 35.192C250.959 35.1227 251.154 35.0693 251.356 35.032C251.559 34.9947 251.762 34.976 251.964 34.976C252.306 34.976 252.599 35.0293 252.844 35.136C253.095 35.2427 253.287 35.408 253.42 35.632C253.559 35.856 253.628 36.1493 253.628 36.512V39H253.004V38.136C252.93 38.3013 252.826 38.456 252.692 38.6C252.559 38.744 252.396 38.8587 252.204 38.944C252.018 39.0293 251.802 39.072 251.556 39.072ZM255.119 39V35.048H255.831V36.68H256.583L257.911 35.048H258.695L257.135 36.968L256.999 36.784C257.159 36.8 257.295 36.84 257.407 36.904C257.525 36.9627 257.634 37.0507 257.735 37.168C257.837 37.2853 257.946 37.4373 258.063 37.624L258.903 39H258.135L257.415 37.832C257.33 37.6933 257.247 37.5813 257.167 37.496C257.087 37.4107 256.994 37.3493 256.887 37.312C256.781 37.2693 256.645 37.248 256.479 37.248H255.831V39H255.119ZM260.632 39V35.64H259.136V35.048H262.84V35.64H261.344V39H260.632ZM263.721 39V35.048H264.433V36.408H265.713C266.241 36.408 266.638 36.52 266.905 36.744C267.177 36.968 267.313 37.2853 267.313 37.696C267.313 37.9573 267.249 38.1867 267.121 38.384C266.998 38.5813 266.817 38.7333 266.577 38.84C266.337 38.9467 266.049 39 265.713 39H263.721ZM264.433 38.464H265.617C265.931 38.464 266.174 38.4053 266.345 38.288C266.521 38.1653 266.609 37.968 266.609 37.696C266.609 37.424 266.521 37.2293 266.345 37.112C266.174 36.9947 265.931 36.936 265.617 36.936H264.433V38.464ZM268.033 39V35.048H268.745V39H268.033Z" fill="black"/>
<line x1="60" y1="24.5" x2="270" y2="24.5" stroke="#BFBFBF"/>
<path d="M59.522 16V11.77H62.192V12.184H60.002V13.648H62.066V14.062H60.002V15.586H62.192V16H59.522ZM62.966 16V13.084H63.44V13.576C63.528 13.4 63.65 13.266 63.806 13.174C63.962 13.078 64.144 13.03 64.352 13.03C64.808 13.03 65.1 13.228 65.228 13.624C65.316 13.44 65.446 13.296 65.618 13.192C65.79 13.084 65.988 13.03 66.212 13.03C66.86 13.03 67.184 13.414 67.184 14.182V16H66.698V14.206C66.698 13.938 66.65 13.742 66.554 13.618C66.462 13.49 66.308 13.426 66.092 13.426C65.856 13.426 65.668 13.51 65.528 13.678C65.388 13.846 65.318 14.07 65.318 14.35V16H64.832V14.206C64.832 13.938 64.784 13.742 64.688 13.618C64.596 13.49 64.442 13.426 64.226 13.426C63.986 13.426 63.796 13.51 63.656 13.678C63.52 13.846 63.452 14.07 63.452 14.35V16H62.966ZM69.0107 16.054C68.8107 16.054 68.6307 16.016 68.4707 15.94C68.3147 15.86 68.1907 15.752 68.0987 15.616C68.0067 15.48 67.9607 15.328 67.9607 15.16C67.9607 14.948 68.0147 14.78 68.1227 14.656C68.2347 14.532 68.4167 14.444 68.6687 14.392C68.9247 14.336 69.2727 14.308 69.7127 14.308H69.9047V14.122C69.9047 13.874 69.8527 13.696 69.7487 13.588C69.6487 13.476 69.4867 13.42 69.2627 13.42C69.0867 13.42 68.9167 13.446 68.7527 13.498C68.5887 13.546 68.4207 13.626 68.2487 13.738L68.0807 13.384C68.2327 13.276 68.4167 13.19 68.6327 13.126C68.8527 13.062 69.0627 13.03 69.2627 13.03C69.6387 13.03 69.9167 13.122 70.0967 13.306C70.2807 13.49 70.3727 13.776 70.3727 14.164V16H69.9167V15.496C69.8407 15.668 69.7227 15.804 69.5627 15.904C69.4067 16.004 69.2227 16.054 69.0107 16.054ZM69.0887 15.688C69.3287 15.688 69.5247 15.606 69.6767 15.442C69.8287 15.274 69.9047 15.062 69.9047 14.806V14.626H69.7187C69.3947 14.626 69.1387 14.642 68.9507 14.674C68.7667 14.702 68.6367 14.754 68.5607 14.83C68.4887 14.902 68.4527 15.002 68.4527 15.13C68.4527 15.294 68.5087 15.428 68.6207 15.532C68.7367 15.636 68.8927 15.688 69.0887 15.688ZM71.2144 12.358V11.812H71.8144V12.358H71.2144ZM71.2744 16V13.084H71.7604V16H71.2744ZM73.5629 16.054C73.2669 16.054 73.0429 15.968 72.8909 15.796C72.7429 15.62 72.6689 15.366 72.6689 15.034V11.77H73.1549V14.998C73.1549 15.426 73.3249 15.64 73.6649 15.64C73.7649 15.64 73.8549 15.628 73.9349 15.604L73.9229 16.012C73.7989 16.04 73.6789 16.054 73.5629 16.054Z" fill="black"/>
<path d="M125.114 16L126.98 11.77H127.4L129.266 16H128.756L128.288 14.92H126.086L125.624 16H125.114ZM127.184 12.346L126.266 14.506H128.114L127.196 12.346H127.184ZM129.533 16.78V15.61H129.839C129.979 15.406 130.079 15.172 130.139 14.908C130.199 14.64 130.229 14.318 130.229 13.942V13.084H132.293V15.61H132.755V16.78H132.335V16H129.947V16.78H129.533ZM130.307 15.61H131.831V13.468H130.661V14.026C130.661 14.326 130.631 14.616 130.571 14.896C130.511 15.176 130.423 15.414 130.307 15.61ZM133.408 17.08V13.084H133.882V13.606C133.97 13.426 134.1 13.286 134.272 13.186C134.448 13.082 134.652 13.03 134.884 13.03C135.144 13.03 135.37 13.092 135.562 13.216C135.758 13.336 135.908 13.51 136.012 13.738C136.12 13.962 136.174 14.23 136.174 14.542C136.174 14.85 136.12 15.118 136.012 15.346C135.908 15.57 135.758 15.744 135.562 15.868C135.37 15.992 135.144 16.054 134.884 16.054C134.66 16.054 134.46 16.004 134.284 15.904C134.108 15.804 133.978 15.666 133.894 15.49V17.08H133.408ZM134.782 15.664C135.054 15.664 135.272 15.568 135.436 15.376C135.6 15.18 135.682 14.902 135.682 14.542C135.682 14.178 135.6 13.9 135.436 13.708C135.272 13.516 135.054 13.42 134.782 13.42C134.51 13.42 134.292 13.516 134.128 13.708C133.964 13.9 133.882 14.178 133.882 14.542C133.882 14.902 133.964 15.18 134.128 15.376C134.292 15.568 134.51 15.664 134.782 15.664ZM138.279 16.054C137.819 16.054 137.455 15.92 137.187 15.652C136.919 15.38 136.785 15.012 136.785 14.548C136.785 14.248 136.845 13.984 136.965 13.756C137.085 13.524 137.249 13.346 137.457 13.222C137.669 13.094 137.913 13.03 138.189 13.03C138.585 13.03 138.895 13.158 139.119 13.414C139.343 13.666 139.455 14.014 139.455 14.458V14.644H137.259C137.275 14.976 137.371 15.23 137.547 15.406C137.723 15.578 137.967 15.664 138.279 15.664C138.455 15.664 138.623 15.638 138.783 15.586C138.943 15.53 139.095 15.44 139.239 15.316L139.407 15.658C139.275 15.782 139.107 15.88 138.903 15.952C138.699 16.02 138.491 16.054 138.279 16.054ZM138.201 13.39C137.925 13.39 137.707 13.476 137.547 13.648C137.387 13.82 137.293 14.046 137.265 14.326H139.035C139.023 14.03 138.945 13.8 138.801 13.636C138.661 13.472 138.461 13.39 138.201 13.39ZM141.452 16.054C141.16 16.054 140.908 15.992 140.696 15.868C140.484 15.74 140.32 15.562 140.204 15.334C140.092 15.102 140.036 14.832 140.036 14.524C140.036 14.06 140.162 13.696 140.414 13.432C140.666 13.164 141.012 13.03 141.452 13.03C141.632 13.03 141.81 13.062 141.986 13.126C142.162 13.19 142.308 13.28 142.424 13.396L142.256 13.75C142.14 13.638 142.012 13.556 141.872 13.504C141.736 13.452 141.606 13.426 141.482 13.426C141.178 13.426 140.944 13.522 140.78 13.714C140.616 13.902 140.534 14.174 140.534 14.53C140.534 14.878 140.616 15.154 140.78 15.358C140.944 15.558 141.178 15.658 141.482 15.658C141.606 15.658 141.736 15.632 141.872 15.58C142.012 15.528 142.14 15.444 142.256 15.328L142.424 15.682C142.308 15.798 142.16 15.89 141.98 15.958C141.804 16.022 141.628 16.054 141.452 16.054Z" fill="black"/>
<path d="M196.56 16V12.196H195.024V11.77H198.594V12.196H197.058V16H196.56ZM199.952 16.054C199.492 16.054 199.128 15.92 198.86 15.652C198.592 15.38 198.458 15.012 198.458 14.548C198.458 14.248 198.518 13.984 198.638 13.756C198.758 13.524 198.922 13.346 199.13 13.222C199.342 13.094 199.586 13.03 199.862 13.03C200.258 13.03 200.568 13.158 200.792 13.414C201.016 13.666 201.128 14.014 201.128 14.458V14.644H198.932C198.948 14.976 199.044 15.23 199.22 15.406C199.396 15.578 199.64 15.664 199.952 15.664C200.128 15.664 200.296 15.638 200.456 15.586C200.616 15.53 200.768 15.44 200.912 15.316L201.08 15.658C200.948 15.782 200.78 15.88 200.576 15.952C200.372 16.02 200.164 16.054 199.952 16.054ZM199.874 13.39C199.598 13.39 199.38 13.476 199.22 13.648C199.06 13.82 198.966 14.046 198.938 14.326H200.708C200.696 14.03 200.618 13.8 200.474 13.636C200.334 13.472 200.134 13.39 199.874 13.39ZM201.722 16.066L201.542 15.682C201.722 15.606 201.864 15.5 201.968 15.364C202.072 15.224 202.144 15.032 202.184 14.788C202.228 14.544 202.25 14.224 202.25 13.828V13.084H204.368V16H203.882V13.474H202.706V13.846C202.706 14.302 202.672 14.678 202.604 14.974C202.54 15.27 202.436 15.504 202.292 15.676C202.148 15.848 201.958 15.978 201.722 16.066ZM206.65 16.054C206.19 16.054 205.826 15.92 205.558 15.652C205.29 15.38 205.156 15.012 205.156 14.548C205.156 14.248 205.216 13.984 205.336 13.756C205.456 13.524 205.62 13.346 205.828 13.222C206.04 13.094 206.284 13.03 206.56 13.03C206.956 13.03 207.266 13.158 207.49 13.414C207.714 13.666 207.826 14.014 207.826 14.458V14.644H205.63C205.646 14.976 205.742 15.23 205.918 15.406C206.094 15.578 206.338 15.664 206.65 15.664C206.826 15.664 206.994 15.638 207.154 15.586C207.314 15.53 207.466 15.44 207.61 15.316L207.778 15.658C207.646 15.782 207.478 15.88 207.274 15.952C207.07 16.02 206.862 16.054 206.65 16.054ZM206.572 13.39C206.296 13.39 206.078 13.476 205.918 13.648C205.758 13.82 205.664 14.046 205.636 14.326H207.406C207.394 14.03 207.316 13.8 207.172 13.636C207.032 13.472 206.832 13.39 206.572 13.39ZM210.244 17.08V15.526C210.172 15.694 210.07 15.824 209.938 15.916C209.806 16.008 209.648 16.054 209.464 16.054C209.252 16.054 209.066 15.992 208.906 15.868C208.75 15.744 208.628 15.57 208.54 15.346C208.452 15.118 208.408 14.85 208.408 14.542C208.408 14.078 208.504 13.71 208.696 13.438C208.888 13.166 209.144 13.03 209.464 13.03C209.648 13.03 209.806 13.076 209.938 13.168C210.07 13.26 210.172 13.39 210.244 13.558V11.77H210.73V13.552C210.802 13.384 210.904 13.256 211.036 13.168C211.168 13.076 211.326 13.03 211.51 13.03C211.826 13.03 212.08 13.166 212.272 13.438C212.468 13.71 212.566 14.078 212.566 14.542C212.566 15.002 212.47 15.37 212.278 15.646C212.086 15.918 211.83 16.054 211.51 16.054C211.326 16.054 211.168 16.008 211.036 15.916C210.904 15.824 210.802 15.696 210.73 15.532V17.08H210.244ZM209.572 15.67C209.784 15.67 209.95 15.574 210.07 15.382C210.19 15.19 210.25 14.91 210.25 14.542C210.25 14.174 210.188 13.894 210.064 13.702C209.944 13.51 209.78 13.414 209.572 13.414C209.364 13.414 209.198 13.51 209.074 13.702C208.954 13.894 208.894 14.174 208.894 14.542C208.894 14.91 208.954 15.19 209.074 15.382C209.198 15.574 209.364 15.67 209.572 15.67ZM211.396 15.67C211.604 15.67 211.77 15.574 211.894 15.382C212.018 15.19 212.08 14.91 212.08 14.542C212.08 14.174 212.018 13.894 211.894 13.702C211.77 13.51 211.604 13.414 211.396 13.414C211.188 13.414 211.024 13.51 210.904 13.702C210.784 13.894 210.724 14.174 210.724 14.542C210.724 14.91 210.782 15.19 210.898 15.382C211.018 15.574 211.184 15.67 211.396 15.67ZM214.569 16.054C214.285 16.054 214.039 15.992 213.831 15.868C213.623 15.744 213.461 15.57 213.345 15.346C213.233 15.118 213.177 14.85 213.177 14.542C213.177 14.234 213.233 13.968 213.345 13.744C213.461 13.516 213.623 13.34 213.831 13.216C214.039 13.092 214.285 13.03 214.569 13.03C214.849 13.03 215.093 13.092 215.301 13.216C215.513 13.34 215.675 13.516 215.787 13.744C215.903 13.968 215.961 14.234 215.961 14.542C215.961 14.85 215.903 15.118 215.787 15.346C215.675 15.57 215.513 15.744 215.301 15.868C215.093 15.992 214.849 16.054 214.569 16.054ZM214.569 15.664C214.841 15.664 215.059 15.568 215.223 15.376C215.387 15.18 215.469 14.902 215.469 14.542C215.469 14.178 215.387 13.9 215.223 13.708C215.059 13.516 214.841 13.42 214.569 13.42C214.293 13.42 214.073 13.516 213.909 13.708C213.749 13.9 213.669 14.178 213.669 14.542C213.669 14.902 213.749 15.18 213.909 15.376C214.073 15.568 214.293 15.664 214.569 15.664ZM216.75 16V13.084H217.236V14.296H218.826V13.084H219.312V16H218.826V14.692H217.236V16H216.75Z" fill="black"/>
<path d="M255.009 18H254.991C252.79 18 251 16.2095 251 14.0088V13.9912C251 11.7905 252.79 10 254.991 10H255.009C257.21 10 259 11.7905 259 13.9912V14.0088C259 16.2095 257.21 18 255.009 18ZM254.991 10.2708C252.94 10.2708 251.271 11.9397 251.271 13.9912V14.0088C251.271 16.0603 252.94 17.7292 254.991 17.7292H255.009C257.06 17.7292 258.729 16.0603 258.729 14.0088V13.9912C258.729 11.9397 257.06 10.2708 255.009 10.2708H254.991Z" fill="#333333"/>
<path d="M256.196 11.7079H253.804C253.144 11.7079 252.606 12.2454 252.606 12.9061V15.0941C252.606 15.7549 253.144 16.2924 253.804 16.2924H256.196C256.857 16.2924 257.394 15.7549 257.394 15.0941V12.9061C257.394 12.2454 256.857 11.7079 256.196 11.7079ZM253.029 12.9061C253.029 12.4785 253.377 12.1306 253.804 12.1306H256.196C256.624 12.1306 256.972 12.4785 256.972 12.9061V15.0941C256.972 15.5217 256.624 15.8697 256.196 15.8697H253.804C253.377 15.8697 253.029 15.5217 253.029 15.0941V12.9061Z" fill="#333333"/>
<path d="M255 15.1144C255.615 15.1144 256.115 14.6146 256.115 13.9999C256.115 13.3852 255.615 12.8853 255 12.8853C254.385 12.8853 253.886 13.3852 253.886 13.9999C253.886 14.6146 254.385 15.1144 255 15.1144ZM255 13.3083C255.382 13.3083 255.692 13.6186 255.692 14.0001C255.692 14.3817 255.382 14.692 255 14.692C254.619 14.692 254.308 14.3817 254.308 14.0001C254.308 13.6186 254.619 13.3083 255 13.3083Z" fill="#333333"/>
<path d="M256.218 13.0654C256.383 13.0654 256.518 12.9308 256.518 12.765C256.518 12.5993 256.384 12.4647 256.218 12.4647C256.052 12.4647 255.918 12.5993 255.918 12.765C255.918 12.9308 256.052 13.0654 256.218 13.0654Z" fill="#333333"/>
<path d="M244 17.9995C243.785 17.9995 243.569 17.9822 243.359 17.9484C242.431 17.7991 241.581 17.3222 240.965 16.6057C240.343 15.8814 240 14.9559 240 13.9997C240 11.7942 241.794 10 244 10C246.206 10 248 11.7942 248 13.9997C248 14.9707 247.648 15.9072 247.008 16.6364C246.374 17.3588 245.504 17.8292 244.557 17.9613C244.374 17.9868 244.187 17.9997 244 17.9997L244 17.9995ZM244 10.3225C241.972 10.3225 240.322 11.972 240.322 13.9995C240.322 15.815 241.621 17.3416 243.41 17.6296C243.771 17.6877 244.149 17.6918 244.512 17.6412C246.316 17.3897 247.677 15.8241 247.677 13.9995C247.677 11.972 246.027 10.3225 244 10.3225Z" fill="#333333"/>
<path d="M244.534 13.2431V14.0793H245.569L245.405 15.2058H244.534V17.801C244.36 17.8252 244.181 17.8378 244 17.8378C243.79 17.8378 243.585 17.8211 243.385 17.7889V15.2058H242.431V14.0793H243.385V13.0562C243.385 12.4215 243.899 11.9067 244.534 11.9067V11.9072C244.536 11.9072 244.538 11.9067 244.54 11.9067H245.569V12.8809H244.896C244.697 12.8809 244.534 13.043 244.534 13.2429L244.534 13.2431Z" fill="#333333"/>
<path d="M266.009 18H265.991C263.79 18 262 16.2095 262 14.0088V13.9912C262 11.7905 263.79 10 265.991 10H266.009C268.21 10 270 11.7905 270 13.9912V14.0088C270 16.2095 268.21 18 266.009 18ZM265.991 10.2708C263.94 10.2708 262.271 11.9397 262.271 13.9912V14.0088C262.271 16.0603 263.94 17.7292 265.991 17.7292H266.009C268.06 17.7292 269.729 16.0603 269.729 14.0088V13.9912C269.729 11.9397 268.06 10.2708 266.009 10.2708H265.991Z" fill="#333333"/>
<path d="M267.868 12.9313V13.6611C267.741 13.6486 267.575 13.6197 267.392 13.5525C267.152 13.4648 266.974 13.3448 266.857 13.2519V14.7269L266.854 14.7223C266.856 14.7516 266.857 14.7814 266.857 14.8114C266.857 15.5439 266.261 16.1402 265.529 16.1402C264.796 16.1402 264.2 15.5439 264.2 14.8114C264.2 14.0789 264.796 13.4824 265.529 13.4824C265.6 13.4824 265.671 13.4881 265.74 13.4992V14.2184C265.674 14.1948 265.603 14.1821 265.529 14.1821C265.182 14.1821 264.899 14.4643 264.899 14.8114C264.899 15.1586 265.182 15.4407 265.529 15.4407C265.876 15.4407 266.158 15.1583 266.158 14.8114C266.158 14.7984 266.158 14.7854 266.157 14.7724V11.9061H266.886C266.889 11.9678 266.891 12.0301 266.894 12.0919C266.899 12.2134 266.942 12.3302 267.018 12.4257C267.106 12.5381 267.237 12.6686 267.421 12.7729C267.593 12.8701 267.754 12.9121 267.868 12.9319V12.9313Z" fill="#333333"/>
</svg>
