<svg width="280" height="60" viewBox="0 0 280 60" fill="none" xmlns="http://www.w3.org/2000/svg">
<mask id="path-1-inside-1_11_182" fill="white">
<path d="M0 0H280V60H0V0Z"/>
</mask>
<path d="M0 0H280V60H0V0Z" fill="white"/>
<path d="M280 59H0V61H280V59Z" fill="#BFBFBF" mask="url(#path-1-inside-1_11_182)"/>
<path d="M10.325 32.075L10.1 31.73C10.2433 31.65 10.3667 31.555 10.47 31.445C10.5767 31.335 10.6633 31.1967 10.73 31.03C10.8 30.8633 10.8517 30.6583 10.885 30.415C10.9183 30.1717 10.935 29.88 10.935 29.54V28.475H13.38V32H12.915V28.89H11.375V29.655C11.375 29.9983 11.3533 30.3017 11.31 30.565C11.27 30.825 11.2067 31.0517 11.12 31.245C11.0333 31.4383 10.9233 31.6033 10.79 31.74C10.6567 31.8733 10.5017 31.985 10.325 32.075ZM15.5553 32.045C15.2986 32.045 15.0753 31.9917 14.8853 31.885C14.6986 31.775 14.5536 31.6233 14.4503 31.43C14.3503 31.2367 14.3003 31.01 14.3003 30.75C14.3003 30.4933 14.3503 30.2683 14.4503 30.075C14.5536 29.8817 14.6986 29.7317 14.8853 29.625C15.0753 29.5183 15.2986 29.465 15.5553 29.465C15.8153 29.465 16.037 29.5183 16.2203 29.625C16.407 29.7317 16.552 29.8817 16.6553 30.075C16.7586 30.2683 16.8103 30.4933 16.8103 30.75C16.8103 31.01 16.7586 31.2367 16.6553 31.43C16.5553 31.6233 16.412 31.775 16.2253 31.885C16.0386 31.9917 15.8153 32.045 15.5553 32.045ZM15.5503 31.64C15.8003 31.64 15.997 31.5583 16.1403 31.395C16.2836 31.2317 16.3553 31.0167 16.3553 30.75C16.3553 30.48 16.2836 30.265 16.1403 30.105C16.0003 29.945 15.8053 29.865 15.5553 29.865C15.3053 29.865 15.1086 29.945 14.9653 30.105C14.8253 30.265 14.7553 30.48 14.7553 30.75C14.7553 31.0167 14.8253 31.2317 14.9653 31.395C15.1086 31.5583 15.3036 31.64 15.5503 31.64ZM17.6632 32V29.51H19.5282V29.9H18.1232V32H17.6632ZM21.2731 32.045C21.0164 32.045 20.7931 31.9917 20.6031 31.885C20.4164 31.775 20.2714 31.6233 20.1681 31.43C20.0681 31.2367 20.0181 31.01 20.0181 30.75C20.0181 30.4933 20.0681 30.2683 20.1681 30.075C20.2714 29.8817 20.4164 29.7317 20.6031 29.625C20.7931 29.5183 21.0164 29.465 21.2731 29.465C21.5331 29.465 21.7548 29.5183 21.9381 29.625C22.1248 29.7317 22.2698 29.8817 22.3731 30.075C22.4764 30.2683 22.5281 30.4933 22.5281 30.75C22.5281 31.01 22.4764 31.2367 22.3731 31.43C22.2731 31.6233 22.1298 31.775 21.9431 31.885C21.7564 31.9917 21.5331 32.045 21.2731 32.045ZM21.2681 31.64C21.5181 31.64 21.7148 31.5583 21.8581 31.395C22.0014 31.2317 22.0731 31.0167 22.0731 30.75C22.0731 30.48 22.0014 30.265 21.8581 30.105C21.7181 29.945 21.5231 29.865 21.2731 29.865C21.0231 29.865 20.8264 29.945 20.6831 30.105C20.5431 30.265 20.4731 30.48 20.4731 30.75C20.4731 31.0167 20.5431 31.2317 20.6831 31.395C20.8264 31.5583 21.0214 31.64 21.2681 31.64ZM23.946 32V29.9H22.986V29.51H25.371V29.9H24.411V32H23.946ZM25.9884 32V29.51H26.4334V31.37H26.4584L27.8534 29.51H28.3134V32H27.8634V30.135H27.8384L26.4434 32H25.9884ZM29.3185 32V29.51H31.6385V32H31.1735V29.9H29.7785V32H29.3185Z" fill="#333333"/>
<path d="M54.832 33V27.36H58.472V27.992H55.544V33H54.832ZM58.0591 33.088L57.7951 32.544C57.9924 32.4587 58.1551 32.352 58.2831 32.224C58.4164 32.096 58.5177 31.936 58.5871 31.744C58.6617 31.552 58.7124 31.32 58.7391 31.048C58.7711 30.7707 58.7871 30.448 58.7871 30.08V29.048H61.8031V33H61.0911V29.64H59.4511V30.096C59.4511 30.5227 59.4271 30.9013 59.3791 31.232C59.3364 31.5627 59.2617 31.8507 59.1551 32.096C59.0537 32.336 58.9124 32.5387 58.7311 32.704C58.5497 32.8693 58.3257 32.9973 58.0591 33.088ZM64.6189 33.072C64.3362 33.072 64.0829 33.0213 63.8589 32.92C63.6349 32.8133 63.4589 32.6693 63.3309 32.488C63.2029 32.3067 63.1389 32.104 63.1389 31.88C63.1389 31.576 63.2242 31.3387 63.3949 31.168C63.5655 30.992 63.8269 30.8667 64.1789 30.792C64.5362 30.7173 64.9922 30.68 65.5469 30.68H66.1149V31.168H65.5789C65.2695 31.168 65.0055 31.1787 64.7869 31.2C64.5682 31.216 64.3895 31.2507 64.2509 31.304C64.1122 31.352 64.0109 31.4187 63.9469 31.504C63.8829 31.5893 63.8509 31.7013 63.8509 31.84C63.8509 32.0533 63.9335 32.2187 64.0989 32.336C64.2695 32.4533 64.4855 32.512 64.7469 32.512C64.9762 32.512 65.1842 32.4613 65.3709 32.36C65.5629 32.2533 65.7149 32.112 65.8269 31.936C65.9442 31.76 66.0029 31.5653 66.0029 31.352V30.448C66.0029 30.1333 65.9149 29.9067 65.7389 29.768C65.5629 29.624 65.3015 29.552 64.9549 29.552C64.7202 29.552 64.4855 29.584 64.2509 29.648C64.0215 29.712 63.7842 29.8187 63.5389 29.968L63.3069 29.44C63.4722 29.3387 63.6482 29.256 63.8349 29.192C64.0215 29.1227 64.2162 29.0693 64.4189 29.032C64.6215 28.9947 64.8242 28.976 65.0269 28.976C65.3682 28.976 65.6615 29.0293 65.9069 29.136C66.1575 29.2427 66.3495 29.408 66.4829 29.632C66.6215 29.856 66.6909 30.1493 66.6909 30.512V33H66.0669V32.136C65.9922 32.3013 65.8882 32.456 65.7549 32.6C65.6215 32.744 65.4589 32.8587 65.2669 32.944C65.0802 33.0293 64.8642 33.072 64.6189 33.072ZM68.1817 33V29.048H70.2777C70.603 29.048 70.8697 29.088 71.0777 29.168C71.291 29.248 71.4484 29.3653 71.5497 29.52C71.651 29.6693 71.7017 29.8587 71.7017 30.088C71.7017 30.3013 71.6377 30.4853 71.5097 30.64C71.3817 30.7947 71.2057 30.9013 70.9817 30.96V30.952C71.1684 30.984 71.3257 31.0453 71.4537 31.136C71.5817 31.2213 71.6777 31.3307 71.7417 31.464C71.811 31.592 71.8457 31.7387 71.8457 31.904C71.8457 32.2453 71.715 32.5147 71.4537 32.712C71.1924 32.904 70.8244 33 70.3497 33H68.1817ZM68.8697 32.504H70.3017C70.5737 32.504 70.7844 32.4533 70.9337 32.352C71.083 32.2507 71.1577 32.0933 71.1577 31.88C71.1577 31.6667 71.0804 31.5067 70.9257 31.4C70.7764 31.2933 70.5684 31.24 70.3017 31.24H68.8697V32.504ZM68.8697 30.752H70.2297C70.475 30.752 70.667 30.6987 70.8057 30.592C70.9497 30.48 71.0217 30.3253 71.0217 30.128C71.0217 29.9307 70.9497 29.784 70.8057 29.688C70.667 29.5867 70.475 29.536 70.2297 29.536H68.8697V30.752ZM73.0801 33V29.048H73.7921V30.664H76.0241V29.048H76.7361V33H76.0241V31.256H73.7921V33H73.0801ZM79.5486 33.072C79.2659 33.072 79.0126 33.0213 78.7886 32.92C78.5646 32.8133 78.3886 32.6693 78.2606 32.488C78.1326 32.3067 78.0686 32.104 78.0686 31.88C78.0686 31.576 78.1539 31.3387 78.3246 31.168C78.4952 30.992 78.7566 30.8667 79.1086 30.792C79.4659 30.7173 79.9219 30.68 80.4766 30.68H81.0446V31.168H80.5086C80.1992 31.168 79.9352 31.1787 79.7166 31.2C79.4979 31.216 79.3192 31.2507 79.1806 31.304C79.0419 31.352 78.9406 31.4187 78.8766 31.504C78.8126 31.5893 78.7806 31.7013 78.7806 31.84C78.7806 32.0533 78.8632 32.2187 79.0286 32.336C79.1992 32.4533 79.4152 32.512 79.6766 32.512C79.9059 32.512 80.1139 32.4613 80.3006 32.36C80.4926 32.2533 80.6446 32.112 80.7566 31.936C80.8739 31.76 80.9326 31.5653 80.9326 31.352V30.448C80.9326 30.1333 80.8446 29.9067 80.6686 29.768C80.4926 29.624 80.2312 29.552 79.8846 29.552C79.6499 29.552 79.4152 29.584 79.1806 29.648C78.9512 29.712 78.7139 29.8187 78.4686 29.968L78.2366 29.44C78.4019 29.3387 78.5779 29.256 78.7646 29.192C78.9512 29.1227 79.1459 29.0693 79.3486 29.032C79.5512 28.9947 79.7539 28.976 79.9566 28.976C80.2979 28.976 80.5912 29.0293 80.8366 29.136C81.0872 29.2427 81.2792 29.408 81.4126 29.632C81.5512 29.856 81.6206 30.1493 81.6206 30.512V33H80.9966V32.136C80.9219 32.3013 80.8179 32.456 80.6846 32.6C80.5512 32.744 80.3886 32.8587 80.1966 32.944C80.0099 33.0293 79.7939 33.072 79.5486 33.072ZM82.7754 33L83.4074 31.944C83.5087 31.7787 83.626 31.6453 83.7594 31.544C83.8927 31.4427 84.0287 31.392 84.1674 31.392H84.2234C83.994 31.3813 83.7807 31.3333 83.5834 31.248C83.3914 31.1627 83.2394 31.0373 83.1274 30.872C83.0154 30.7013 82.9594 30.4907 82.9594 30.24C82.9594 29.8773 83.0847 29.5893 83.3354 29.376C83.5914 29.1573 83.9727 29.048 84.4794 29.048H86.4394V33H85.7434V31.528H85.0714C84.8527 31.528 84.666 31.5787 84.5114 31.68C84.3567 31.776 84.2314 31.904 84.1354 32.064L83.5834 33H82.7754ZM84.6154 31H85.7514V29.576H84.6154C84.2847 29.576 84.0394 29.6373 83.8794 29.76C83.7247 29.8827 83.6474 30.056 83.6474 30.28C83.6474 30.5093 83.7247 30.688 83.8794 30.816C84.0394 30.9387 84.2847 31 84.6154 31Z" fill="black"/>
<path d="M97.832 33V27.36H98.544V29.832H99.704L99.512 29.976L101.232 27.36H102.048L100.216 30.096L99.928 29.864C100.147 29.8853 100.344 29.9467 100.52 30.048C100.696 30.144 100.856 30.2747 101 30.44C101.149 30.6053 101.277 30.8027 101.384 31.032L102.344 33H101.552L100.768 31.352C100.624 31.0427 100.453 30.8187 100.256 30.68C100.064 30.536 99.816 30.464 99.512 30.464H98.544V33H97.832ZM104.556 33.072C104.274 33.072 104.02 33.0213 103.796 32.92C103.572 32.8133 103.396 32.6693 103.268 32.488C103.14 32.3067 103.076 32.104 103.076 31.88C103.076 31.576 103.162 31.3387 103.332 31.168C103.503 30.992 103.764 30.8667 104.116 30.792C104.474 30.7173 104.93 30.68 105.484 30.68H106.052V31.168H105.516C105.207 31.168 104.943 31.1787 104.724 31.2C104.506 31.216 104.327 31.2507 104.188 31.304C104.05 31.352 103.948 31.4187 103.884 31.504C103.82 31.5893 103.788 31.7013 103.788 31.84C103.788 32.0533 103.871 32.2187 104.036 32.336C104.207 32.4533 104.423 32.512 104.684 32.512C104.914 32.512 105.122 32.4613 105.308 32.36C105.5 32.2533 105.652 32.112 105.764 31.936C105.882 31.76 105.94 31.5653 105.94 31.352V30.448C105.94 30.1333 105.852 29.9067 105.676 29.768C105.5 29.624 105.239 29.552 104.892 29.552C104.658 29.552 104.423 29.584 104.188 29.648C103.959 29.712 103.722 29.8187 103.476 29.968L103.244 29.44C103.41 29.3387 103.586 29.256 103.772 29.192C103.959 29.1227 104.154 29.0693 104.356 29.032C104.559 28.9947 104.762 28.976 104.964 28.976C105.306 28.976 105.599 29.0293 105.844 29.136C106.095 29.2427 106.287 29.408 106.42 29.632C106.559 29.856 106.628 30.1493 106.628 30.512V33H106.004V32.136C105.93 32.3013 105.826 32.456 105.692 32.6C105.559 32.744 105.396 32.8587 105.204 32.944C105.018 33.0293 104.802 33.072 104.556 33.072ZM108.991 33V29.64H107.495V29.048H111.199V29.64H109.703V33H108.991ZM113.4 33.072C113.117 33.072 112.864 33.0213 112.64 32.92C112.416 32.8133 112.24 32.6693 112.112 32.488C111.984 32.3067 111.92 32.104 111.92 31.88C111.92 31.576 112.005 31.3387 112.176 31.168C112.347 30.992 112.608 30.8667 112.96 30.792C113.317 30.7173 113.773 30.68 114.328 30.68H114.896V31.168H114.36C114.051 31.168 113.787 31.1787 113.568 31.2C113.349 31.216 113.171 31.2507 113.032 31.304C112.893 31.352 112.792 31.4187 112.728 31.504C112.664 31.5893 112.632 31.7013 112.632 31.84C112.632 32.0533 112.715 32.2187 112.88 32.336C113.051 32.4533 113.267 32.512 113.528 32.512C113.757 32.512 113.965 32.4613 114.152 32.36C114.344 32.2533 114.496 32.112 114.608 31.936C114.725 31.76 114.784 31.5653 114.784 31.352V30.448C114.784 30.1333 114.696 29.9067 114.52 29.768C114.344 29.624 114.083 29.552 113.736 29.552C113.501 29.552 113.267 29.584 113.032 29.648C112.803 29.712 112.565 29.8187 112.32 29.968L112.088 29.44C112.253 29.3387 112.429 29.256 112.616 29.192C112.803 29.1227 112.997 29.0693 113.2 29.032C113.403 28.9947 113.605 28.976 113.808 28.976C114.149 28.976 114.443 29.0293 114.688 29.136C114.939 29.2427 115.131 29.408 115.264 29.632C115.403 29.856 115.472 30.1493 115.472 30.512V33H114.848V32.136C114.773 32.3013 114.669 32.456 114.536 32.6C114.403 32.744 114.24 32.8587 114.048 32.944C113.861 33.0293 113.645 33.072 113.4 33.072ZM116.731 33.088L116.467 32.544C116.664 32.4587 116.827 32.352 116.955 32.224C117.088 32.096 117.19 31.936 117.259 31.744C117.334 31.552 117.384 31.32 117.411 31.048C117.443 30.7707 117.459 30.448 117.459 30.08V29.048H120.475V33H119.763V29.64H118.123V30.096C118.123 30.5227 118.099 30.9013 118.051 31.232C118.008 31.5627 117.934 31.8507 117.827 32.096C117.726 32.336 117.584 32.5387 117.403 32.704C117.222 32.8693 116.998 32.9973 116.731 33.088ZM123.691 33.072C123.291 33.072 122.944 32.9867 122.651 32.816C122.357 32.6453 122.131 32.408 121.971 32.104C121.811 31.7947 121.731 31.432 121.731 31.016C121.731 30.6053 121.811 30.248 121.971 29.944C122.131 29.6347 122.357 29.3973 122.651 29.232C122.944 29.0613 123.291 28.976 123.691 28.976C124.091 28.976 124.435 29.0613 124.723 29.232C125.016 29.3973 125.243 29.6347 125.403 29.944C125.563 30.248 125.643 30.6053 125.643 31.016C125.643 31.432 125.563 31.7947 125.403 32.104C125.248 32.408 125.024 32.6453 124.731 32.816C124.437 32.9867 124.091 33.072 123.691 33.072ZM123.683 32.472C124.072 32.472 124.379 32.3413 124.603 32.08C124.827 31.8187 124.939 31.464 124.939 31.016C124.939 30.568 124.827 30.216 124.603 29.96C124.384 29.704 124.08 29.576 123.691 29.576C123.301 29.576 122.995 29.704 122.771 29.96C122.547 30.216 122.435 30.568 122.435 31.016C122.435 31.464 122.547 31.8187 122.771 32.08C123 32.3413 123.304 32.472 123.683 32.472ZM126.908 33V29.048H129.804V29.64H127.62V33H126.908Z" fill="black"/>
<path d="M142.224 33.072C141.819 33.072 141.453 33.0053 141.128 32.872C140.808 32.7387 140.533 32.5467 140.304 32.296C140.08 32.0453 139.907 31.7413 139.784 31.384C139.661 31.0267 139.6 30.624 139.6 30.176C139.6 29.728 139.659 29.328 139.776 28.976C139.899 28.6187 140.075 28.3147 140.304 28.064C140.533 27.8133 140.808 27.6213 141.128 27.488C141.453 27.3547 141.819 27.288 142.224 27.288C142.629 27.288 142.992 27.3547 143.312 27.488C143.637 27.6213 143.915 27.8133 144.144 28.064C144.373 28.3093 144.547 28.6107 144.664 28.968C144.787 29.3253 144.848 29.7253 144.848 30.168C144.848 30.6213 144.787 31.0267 144.664 31.384C144.541 31.7413 144.365 32.0453 144.136 32.296C143.912 32.5467 143.637 32.7387 143.312 32.872C142.992 33.0053 142.629 33.072 142.224 33.072ZM142.224 32.432C142.624 32.432 142.963 32.3467 143.24 32.176C143.517 32 143.731 31.744 143.88 31.408C144.029 31.072 144.104 30.6613 144.104 30.176C144.104 29.6853 144.029 29.2747 143.88 28.944C143.736 28.6133 143.523 28.3627 143.24 28.192C142.963 28.016 142.624 27.928 142.224 27.928C141.829 27.928 141.491 28.016 141.208 28.192C140.931 28.3627 140.717 28.6133 140.568 28.944C140.419 29.2747 140.344 29.6853 140.344 30.176C140.344 30.6613 140.419 31.072 140.568 31.408C140.717 31.7387 140.931 31.992 141.208 32.168C141.491 32.344 141.829 32.432 142.224 32.432ZM148.432 33V29.048H149.144V30.664H151.376V29.048H152.088V33H151.376V31.256H149.144V33H148.432ZM154.9 33.072C154.617 33.072 154.364 33.0213 154.14 32.92C153.916 32.8133 153.74 32.6693 153.612 32.488C153.484 32.3067 153.42 32.104 153.42 31.88C153.42 31.576 153.505 31.3387 153.676 31.168C153.847 30.992 154.108 30.8667 154.46 30.792C154.817 30.7173 155.273 30.68 155.828 30.68H156.396V31.168H155.86C155.551 31.168 155.287 31.1787 155.068 31.2C154.849 31.216 154.671 31.2507 154.532 31.304C154.393 31.352 154.292 31.4187 154.228 31.504C154.164 31.5893 154.132 31.7013 154.132 31.84C154.132 32.0533 154.215 32.2187 154.38 32.336C154.551 32.4533 154.767 32.512 155.028 32.512C155.257 32.512 155.465 32.4613 155.652 32.36C155.844 32.2533 155.996 32.112 156.108 31.936C156.225 31.76 156.284 31.5653 156.284 31.352V30.448C156.284 30.1333 156.196 29.9067 156.02 29.768C155.844 29.624 155.583 29.552 155.236 29.552C155.001 29.552 154.767 29.584 154.532 29.648C154.303 29.712 154.065 29.8187 153.82 29.968L153.588 29.44C153.753 29.3387 153.929 29.256 154.116 29.192C154.303 29.1227 154.497 29.0693 154.7 29.032C154.903 28.9947 155.105 28.976 155.308 28.976C155.649 28.976 155.943 29.0293 156.188 29.136C156.439 29.2427 156.631 29.408 156.764 29.632C156.903 29.856 156.972 30.1493 156.972 30.512V33H156.348V32.136C156.273 32.3013 156.169 32.456 156.036 32.6C155.903 32.744 155.74 32.8587 155.548 32.944C155.361 33.0293 155.145 33.072 154.9 33.072ZM160.223 33.072C159.818 33.072 159.466 32.9867 159.167 32.816C158.868 32.6453 158.636 32.408 158.471 32.104C158.306 31.7947 158.223 31.432 158.223 31.016C158.223 30.6 158.306 30.24 158.471 29.936C158.636 29.6267 158.868 29.3893 159.167 29.224C159.471 29.0587 159.826 28.976 160.231 28.976C160.503 28.976 160.762 29.0213 161.007 29.112C161.252 29.2027 161.455 29.3253 161.615 29.48L161.367 30.008C161.212 29.8693 161.039 29.7653 160.847 29.696C160.655 29.6213 160.468 29.584 160.287 29.584C159.871 29.584 159.543 29.7093 159.303 29.96C159.063 30.2107 158.943 30.5653 158.943 31.024C158.943 31.4773 159.063 31.832 159.303 32.088C159.543 32.3387 159.868 32.464 160.279 32.464C160.466 32.464 160.652 32.4293 160.839 32.36C161.031 32.2853 161.202 32.1813 161.351 32.048L161.599 32.576C161.444 32.7307 161.244 32.8533 160.999 32.944C160.754 33.0293 160.495 33.072 160.223 33.072Z" fill="black"/>
<path d="M180.832 33V27.36H181.544V29.832H182.704L182.512 29.976L184.232 27.36H185.048L183.216 30.096L182.928 29.864C183.147 29.8853 183.344 29.9467 183.52 30.048C183.696 30.144 183.856 30.2747 184 30.44C184.149 30.6053 184.277 30.8027 184.384 31.032L185.344 33H184.552L183.768 31.352C183.624 31.0427 183.453 30.8187 183.256 30.68C183.064 30.536 182.816 30.464 182.512 30.464H181.544V33H180.832ZM187.91 33.072C187.51 33.072 187.163 32.9867 186.87 32.816C186.576 32.6453 186.35 32.408 186.19 32.104C186.03 31.7947 185.95 31.432 185.95 31.016C185.95 30.6053 186.03 30.248 186.19 29.944C186.35 29.6347 186.576 29.3973 186.87 29.232C187.163 29.0613 187.51 28.976 187.91 28.976C188.31 28.976 188.654 29.0613 188.942 29.232C189.235 29.3973 189.462 29.6347 189.622 29.944C189.782 30.248 189.862 30.6053 189.862 31.016C189.862 31.432 189.782 31.7947 189.622 32.104C189.467 32.408 189.243 32.6453 188.95 32.816C188.656 32.9867 188.31 33.072 187.91 33.072ZM187.902 32.472C188.291 32.472 188.598 32.3413 188.822 32.08C189.046 31.8187 189.158 31.464 189.158 31.016C189.158 30.568 189.046 30.216 188.822 29.96C188.603 29.704 188.299 29.576 187.91 29.576C187.52 29.576 187.214 29.704 186.99 29.96C186.766 30.216 186.654 30.568 186.654 31.016C186.654 31.464 186.766 31.8187 186.99 32.08C187.219 32.3413 187.523 32.472 187.902 32.472ZM191.127 33V29.048H191.839V30.664H194.071V29.048H194.783V33H194.071V31.256H191.839V33H191.127ZM197.147 33V29.64H195.651V29.048H199.355V29.64H197.859V33H197.147ZM201.556 33.072C201.274 33.072 201.02 33.0213 200.796 32.92C200.572 32.8133 200.396 32.6693 200.268 32.488C200.14 32.3067 200.076 32.104 200.076 31.88C200.076 31.576 200.162 31.3387 200.332 31.168C200.503 30.992 200.764 30.8667 201.116 30.792C201.474 30.7173 201.93 30.68 202.484 30.68H203.052V31.168H202.516C202.207 31.168 201.943 31.1787 201.724 31.2C201.506 31.216 201.327 31.2507 201.188 31.304C201.05 31.352 200.948 31.4187 200.884 31.504C200.82 31.5893 200.788 31.7013 200.788 31.84C200.788 32.0533 200.871 32.2187 201.036 32.336C201.207 32.4533 201.423 32.512 201.684 32.512C201.914 32.512 202.122 32.4613 202.308 32.36C202.5 32.2533 202.652 32.112 202.764 31.936C202.882 31.76 202.94 31.5653 202.94 31.352V30.448C202.94 30.1333 202.852 29.9067 202.676 29.768C202.5 29.624 202.239 29.552 201.892 29.552C201.658 29.552 201.423 29.584 201.188 29.648C200.959 29.712 200.722 29.8187 200.476 29.968L200.244 29.44C200.41 29.3387 200.586 29.256 200.772 29.192C200.959 29.1227 201.154 29.0693 201.356 29.032C201.559 28.9947 201.762 28.976 201.964 28.976C202.306 28.976 202.599 29.0293 202.844 29.136C203.095 29.2427 203.287 29.408 203.42 29.632C203.559 29.856 203.628 30.1493 203.628 30.512V33H203.004V32.136C202.93 32.3013 202.826 32.456 202.692 32.6C202.559 32.744 202.396 32.8587 202.204 32.944C202.018 33.0293 201.802 33.072 201.556 33.072ZM205.119 33V29.048H205.831V30.68H206.583L207.911 29.048H208.695L207.135 30.968L206.999 30.784C207.159 30.8 207.295 30.84 207.407 30.904C207.525 30.9627 207.634 31.0507 207.735 31.168C207.837 31.2853 207.946 31.4373 208.063 31.624L208.903 33H208.135L207.415 31.832C207.33 31.6933 207.247 31.5813 207.167 31.496C207.087 31.4107 206.994 31.3493 206.887 31.312C206.781 31.2693 206.645 31.248 206.479 31.248H205.831V33H205.119ZM210.632 33V29.64H209.136V29.048H212.84V29.64H211.344V33H210.632ZM213.721 33V29.048H214.433V30.408H215.713C216.241 30.408 216.638 30.52 216.905 30.744C217.177 30.968 217.313 31.2853 217.313 31.696C217.313 31.9573 217.249 32.1867 217.121 32.384C216.998 32.5813 216.817 32.7333 216.577 32.84C216.337 32.9467 216.049 33 215.713 33H213.721ZM214.433 32.464H215.617C215.931 32.464 216.174 32.4053 216.345 32.288C216.521 32.1653 216.609 31.968 216.609 31.696C216.609 31.424 216.521 31.2293 216.345 31.112C216.174 30.9947 215.931 30.936 215.617 30.936H214.433V32.464ZM218.033 33V29.048H218.745V33H218.033Z" fill="black"/>
<path d="M238.672 16V11.77H241.474V12.262H239.23V13.612H241.348V14.104H239.23V15.508H241.474V16H238.672ZM242.578 16V13.012H243.07V13.654H243.106C243.158 13.534 243.232 13.422 243.328 13.318C243.424 13.21 243.54 13.124 243.676 13.06C243.812 12.992 243.962 12.958 244.126 12.958C244.39 12.958 244.608 13.026 244.78 13.162C244.956 13.294 245.064 13.454 245.104 13.642H245.134C245.214 13.458 245.338 13.298 245.506 13.162C245.678 13.026 245.9 12.958 246.172 12.958C246.4 12.958 246.594 13.002 246.754 13.09C246.918 13.178 247.042 13.312 247.126 13.492C247.214 13.668 247.258 13.894 247.258 14.17V16H246.706V14.212C246.706 13.96 246.66 13.768 246.568 13.636C246.476 13.504 246.306 13.438 246.058 13.438C245.874 13.438 245.716 13.48 245.584 13.564C245.452 13.644 245.352 13.752 245.284 13.888C245.22 14.024 245.188 14.174 245.188 14.338V16H244.642V14.212C244.642 13.968 244.586 13.778 244.474 13.642C244.362 13.506 244.204 13.438 244 13.438C243.82 13.438 243.664 13.484 243.532 13.576C243.4 13.668 243.298 13.782 243.226 13.918C243.158 14.054 243.124 14.188 243.124 14.32V16H242.578ZM249.428 16.054C249.212 16.054 249.018 16.016 248.846 15.94C248.674 15.86 248.538 15.752 248.438 15.616C248.342 15.48 248.294 15.326 248.294 15.154C248.294 14.926 248.362 14.746 248.498 14.614C248.638 14.478 248.844 14.382 249.116 14.326C249.388 14.266 249.724 14.236 250.124 14.236H250.628V14.626H250.16C249.936 14.626 249.74 14.634 249.572 14.65C249.408 14.662 249.272 14.686 249.164 14.722C249.06 14.758 248.98 14.808 248.924 14.872C248.872 14.936 248.846 15.02 248.846 15.124C248.846 15.288 248.912 15.41 249.044 15.49C249.176 15.57 249.34 15.61 249.536 15.61C249.716 15.61 249.88 15.57 250.028 15.49C250.18 15.41 250.302 15.304 250.394 15.172C250.49 15.04 250.538 14.898 250.538 14.746V14.068C250.538 13.836 250.464 13.67 250.316 13.57C250.168 13.466 249.958 13.414 249.686 13.414C249.506 13.414 249.326 13.438 249.146 13.486C248.97 13.53 248.786 13.608 248.594 13.72L248.42 13.306C248.552 13.23 248.69 13.166 248.834 13.114C248.982 13.062 249.134 13.024 249.29 13C249.446 12.972 249.602 12.958 249.758 12.958C250.018 12.958 250.248 12.998 250.448 13.078C250.648 13.158 250.804 13.284 250.916 13.456C251.028 13.624 251.084 13.844 251.084 14.116V16H250.61V15.364H250.574C250.51 15.48 250.426 15.592 250.322 15.7C250.218 15.804 250.092 15.89 249.944 15.958C249.796 16.022 249.624 16.054 249.428 16.054ZM252.156 12.304V11.686H252.834V12.304H252.156ZM252.222 16V13.012H252.78V16H252.222ZM254.822 16.054C254.542 16.054 254.322 15.972 254.162 15.808C254.006 15.644 253.928 15.416 253.928 15.124V11.77H254.486V15.064C254.486 15.176 254.502 15.272 254.534 15.352C254.57 15.432 254.62 15.494 254.684 15.538C254.748 15.578 254.826 15.598 254.918 15.598C254.978 15.598 255.036 15.594 255.092 15.586C255.152 15.578 255.214 15.566 255.278 15.55L255.302 15.982C255.23 16.006 255.156 16.024 255.08 16.036C255.008 16.048 254.922 16.054 254.822 16.054Z" fill="black"/>
<path d="M238.234 27L240.094 22.77H240.598L242.458 27H241.87L241.354 25.794L241.636 25.986H239.056L239.326 25.794L238.81 27H238.234ZM240.328 23.406L239.386 25.62L239.236 25.5H241.456L241.294 25.62L240.358 23.406H240.328ZM242.969 27.798V26.532H243.305C243.409 26.392 243.491 26.244 243.551 26.088C243.611 25.932 243.653 25.756 243.677 25.56C243.705 25.364 243.719 25.14 243.719 24.888V24.012H246.041V26.532H246.539V27.798H246.053V27H243.455V27.798H242.969ZM243.857 26.538H245.507V24.468H244.217V24.984C244.213 25.296 244.185 25.582 244.133 25.842C244.081 26.102 243.989 26.334 243.857 26.538ZM247.436 28.08V24.006H247.928V24.642H247.964C248.064 24.422 248.208 24.254 248.396 24.138C248.588 24.018 248.812 23.958 249.068 23.958C249.348 23.958 249.592 24.024 249.8 24.156C250.008 24.284 250.17 24.464 250.286 24.696C250.402 24.928 250.46 25.198 250.46 25.506C250.46 25.806 250.402 26.074 250.286 26.31C250.174 26.542 250.014 26.724 249.806 26.856C249.598 26.988 249.352 27.054 249.068 27.054C248.82 27.054 248.606 26.998 248.426 26.886C248.25 26.77 248.116 26.612 248.024 26.412H247.994V28.08H247.436ZM248.942 26.592C249.242 26.592 249.476 26.492 249.644 26.292C249.816 26.092 249.902 25.828 249.902 25.5C249.902 25.172 249.818 24.91 249.65 24.714C249.482 24.518 249.248 24.42 248.948 24.42C248.644 24.42 248.408 24.518 248.24 24.714C248.072 24.91 247.988 25.172 247.988 25.5C247.988 25.828 248.072 26.092 248.24 26.292C248.412 26.492 248.646 26.592 248.942 26.592ZM252.961 27.054C252.617 27.054 252.321 26.994 252.073 26.874C251.825 26.75 251.635 26.572 251.503 26.34C251.371 26.108 251.305 25.828 251.305 25.5C251.305 25.204 251.363 24.94 251.479 24.708C251.599 24.476 251.771 24.294 251.995 24.162C252.223 24.026 252.495 23.958 252.811 23.958C253.115 23.958 253.371 24.022 253.579 24.15C253.791 24.278 253.949 24.458 254.053 24.69C254.161 24.918 254.215 25.19 254.215 25.506V25.668H251.719V25.272H253.855L253.735 25.41C253.735 25.078 253.653 24.826 253.489 24.654C253.329 24.478 253.103 24.39 252.811 24.39C252.627 24.39 252.461 24.432 252.313 24.516C252.169 24.596 252.053 24.712 251.965 24.864C251.881 25.016 251.839 25.202 251.839 25.422V25.494C251.839 25.738 251.885 25.942 251.977 26.106C252.069 26.266 252.199 26.388 252.367 26.472C252.539 26.552 252.741 26.592 252.973 26.592C253.133 26.592 253.299 26.572 253.471 26.532C253.647 26.492 253.809 26.412 253.957 26.292L254.149 26.694C253.989 26.822 253.801 26.914 253.585 26.97C253.373 27.026 253.165 27.054 252.961 27.054ZM256.609 27.054C256.297 27.054 256.025 26.992 255.793 26.868C255.565 26.74 255.387 26.56 255.259 26.328C255.131 26.096 255.067 25.824 255.067 25.512C255.067 25.192 255.131 24.916 255.259 24.684C255.387 24.452 255.567 24.274 255.799 24.15C256.031 24.022 256.303 23.958 256.615 23.958C256.831 23.958 257.033 23.994 257.221 24.066C257.409 24.134 257.563 24.226 257.683 24.342L257.491 24.762C257.375 24.662 257.243 24.584 257.095 24.528C256.951 24.472 256.807 24.444 256.663 24.444C256.343 24.444 256.089 24.538 255.901 24.726C255.717 24.91 255.625 25.172 255.625 25.512C255.625 25.848 255.717 26.108 255.901 26.292C256.089 26.476 256.341 26.568 256.657 26.568C256.801 26.568 256.945 26.54 257.089 26.484C257.233 26.428 257.359 26.356 257.467 26.268L257.665 26.682C257.549 26.794 257.399 26.884 257.215 26.952C257.031 27.02 256.829 27.054 256.609 27.054Z" fill="black"/>
<path d="M239.698 38V34.268H238.18V33.77H241.774V34.268H240.256V38H239.698ZM243.58 38.054C243.236 38.054 242.94 37.994 242.692 37.874C242.444 37.75 242.254 37.572 242.122 37.34C241.99 37.108 241.924 36.828 241.924 36.5C241.924 36.204 241.982 35.94 242.098 35.708C242.218 35.476 242.39 35.294 242.614 35.162C242.842 35.026 243.114 34.958 243.43 34.958C243.734 34.958 243.99 35.022 244.198 35.15C244.41 35.278 244.568 35.458 244.672 35.69C244.78 35.918 244.834 36.19 244.834 36.506V36.668H242.338V36.272H244.474L244.354 36.41C244.354 36.078 244.272 35.826 244.108 35.654C243.948 35.478 243.722 35.39 243.43 35.39C243.246 35.39 243.08 35.432 242.932 35.516C242.788 35.596 242.672 35.712 242.584 35.864C242.5 36.016 242.458 36.202 242.458 36.422V36.494C242.458 36.738 242.504 36.942 242.596 37.106C242.688 37.266 242.818 37.388 242.986 37.472C243.158 37.552 243.36 37.592 243.592 37.592C243.752 37.592 243.918 37.572 244.09 37.532C244.266 37.492 244.428 37.412 244.576 37.292L244.768 37.694C244.608 37.822 244.42 37.914 244.204 37.97C243.992 38.026 243.784 38.054 243.58 38.054ZM245.68 38.066L245.476 37.64C245.636 37.58 245.766 37.5 245.866 37.4C245.966 37.3 246.042 37.178 246.094 37.034C246.15 36.886 246.188 36.71 246.208 36.506C246.232 36.302 246.244 36.066 246.244 35.798V35.012H248.572V38H248.014V35.48H246.76V35.81C246.76 36.122 246.744 36.402 246.712 36.65C246.68 36.894 246.624 37.11 246.544 37.298C246.464 37.482 246.354 37.638 246.214 37.766C246.074 37.894 245.896 37.994 245.68 38.066ZM251.256 38.054C250.912 38.054 250.616 37.994 250.368 37.874C250.12 37.75 249.93 37.572 249.798 37.34C249.666 37.108 249.6 36.828 249.6 36.5C249.6 36.204 249.658 35.94 249.774 35.708C249.894 35.476 250.066 35.294 250.29 35.162C250.518 35.026 250.79 34.958 251.106 34.958C251.41 34.958 251.666 35.022 251.874 35.15C252.086 35.278 252.244 35.458 252.348 35.69C252.456 35.918 252.51 36.19 252.51 36.506V36.668H250.014V36.272H252.15L252.03 36.41C252.03 36.078 251.948 35.826 251.784 35.654C251.624 35.478 251.398 35.39 251.106 35.39C250.922 35.39 250.756 35.432 250.608 35.516C250.464 35.596 250.348 35.712 250.26 35.864C250.176 36.016 250.134 36.202 250.134 36.422V36.494C250.134 36.738 250.18 36.942 250.272 37.106C250.364 37.266 250.494 37.388 250.662 37.472C250.834 37.552 251.036 37.592 251.268 37.592C251.428 37.592 251.594 37.572 251.766 37.532C251.942 37.492 252.104 37.412 252.252 37.292L252.444 37.694C252.284 37.822 252.096 37.914 251.88 37.97C251.668 38.026 251.46 38.054 251.256 38.054ZM255.564 39.08L255.576 37.478H255.552C255.484 37.642 255.364 37.78 255.192 37.892C255.024 38 254.832 38.054 254.616 38.054C254.368 38.054 254.15 37.99 253.962 37.862C253.774 37.734 253.626 37.556 253.518 37.328C253.414 37.096 253.362 36.822 253.362 36.506C253.362 36.186 253.414 35.91 253.518 35.678C253.626 35.446 253.774 35.268 253.962 35.144C254.15 35.02 254.368 34.958 254.616 34.958C254.832 34.958 255.024 35.012 255.192 35.12C255.364 35.228 255.484 35.364 255.552 35.528H255.582L255.564 33.944H256.122L256.104 35.528H256.134C256.202 35.364 256.32 35.228 256.488 35.12C256.66 35.012 256.852 34.958 257.064 34.958C257.312 34.958 257.53 35.022 257.718 35.15C257.906 35.274 258.052 35.452 258.156 35.684C258.264 35.916 258.318 36.19 258.318 36.506C258.318 36.818 258.264 37.09 258.156 37.322C258.052 37.554 257.906 37.734 257.718 37.862C257.53 37.99 257.312 38.054 257.064 38.054C256.848 38.054 256.656 38 256.488 37.892C256.32 37.78 256.202 37.642 256.134 37.478H256.104L256.122 39.08H255.564ZM254.742 37.592C254.89 37.592 255.026 37.552 255.15 37.472C255.278 37.392 255.378 37.272 255.45 37.112C255.526 36.948 255.564 36.744 255.564 36.5C255.564 36.256 255.526 36.054 255.45 35.894C255.374 35.734 255.274 35.616 255.15 35.54C255.026 35.46 254.89 35.42 254.742 35.42C254.498 35.42 254.3 35.508 254.148 35.684C253.996 35.86 253.92 36.132 253.92 36.5C253.92 36.868 253.996 37.142 254.148 37.322C254.3 37.502 254.498 37.592 254.742 37.592ZM256.938 37.592C257.182 37.592 257.38 37.502 257.532 37.322C257.684 37.142 257.76 36.868 257.76 36.5C257.76 36.132 257.684 35.86 257.532 35.684C257.38 35.508 257.182 35.42 256.938 35.42C256.79 35.42 256.654 35.46 256.53 35.54C256.406 35.616 256.306 35.734 256.23 35.894C256.154 36.05 256.116 36.252 256.116 36.5C256.116 36.748 256.154 36.952 256.23 37.112C256.306 37.272 256.406 37.392 256.53 37.472C256.654 37.552 256.79 37.592 256.938 37.592ZM260.674 38.054C260.366 38.054 260.098 37.99 259.87 37.862C259.646 37.73 259.472 37.548 259.348 37.316C259.228 37.084 259.168 36.812 259.168 36.5C259.168 36.192 259.228 35.922 259.348 35.69C259.472 35.458 259.646 35.278 259.87 35.15C260.098 35.022 260.366 34.958 260.674 34.958C260.986 34.958 261.252 35.022 261.472 35.15C261.696 35.278 261.87 35.458 261.994 35.69C262.118 35.922 262.18 36.192 262.18 36.5C262.18 36.812 262.118 37.084 261.994 37.316C261.874 37.548 261.702 37.73 261.478 37.862C261.254 37.99 260.986 38.054 260.674 38.054ZM260.668 37.568C260.968 37.568 261.204 37.47 261.376 37.274C261.548 37.078 261.634 36.82 261.634 36.5C261.634 36.176 261.548 35.918 261.376 35.726C261.208 35.534 260.974 35.438 260.674 35.438C260.374 35.438 260.138 35.534 259.966 35.726C259.798 35.918 259.714 36.176 259.714 36.5C259.714 36.82 259.798 37.078 259.966 37.274C260.138 37.47 260.372 37.568 260.668 37.568ZM263.204 38V35.012H263.756V36.224H265.472V35.012H266.03V38H265.472V36.692H263.756V38H263.204Z" fill="black"/>
<path d="M253.009 51H252.991C250.79 51 249 49.2095 249 47.0088V46.9912C249 44.7905 250.79 43 252.991 43H253.009C255.21 43 257 44.7905 257 46.9912V47.0088C257 49.2095 255.21 51 253.009 51ZM252.991 43.2708C250.94 43.2708 249.271 44.9397 249.271 46.9912V47.0088C249.271 49.0603 250.94 50.7292 252.991 50.7292H253.009C255.06 50.7292 256.729 49.0603 256.729 47.0088V46.9912C256.729 44.9397 255.06 43.2708 253.009 43.2708H252.991Z" fill="#333333"/>
<path d="M254.196 44.7079H251.804C251.144 44.7079 250.606 45.2454 250.606 45.9061V48.0941C250.606 48.7549 251.144 49.2924 251.804 49.2924H254.196C254.857 49.2924 255.394 48.7549 255.394 48.0941V45.9061C255.394 45.2454 254.857 44.7079 254.196 44.7079ZM251.029 45.9061C251.029 45.4785 251.377 45.1306 251.804 45.1306H254.196C254.624 45.1306 254.972 45.4785 254.972 45.9061V48.0941C254.972 48.5217 254.624 48.8697 254.196 48.8697H251.804C251.377 48.8697 251.029 48.5217 251.029 48.0941V45.9061Z" fill="#333333"/>
<path d="M253 48.1144C253.615 48.1144 254.115 47.6146 254.115 46.9999C254.115 46.3852 253.615 45.8853 253 45.8853C252.385 45.8853 251.886 46.3852 251.886 46.9999C251.886 47.6146 252.385 48.1144 253 48.1144ZM253 46.3083C253.382 46.3083 253.692 46.6186 253.692 47.0001C253.692 47.3817 253.382 47.692 253 47.692C252.619 47.692 252.308 47.3817 252.308 47.0001C252.308 46.6186 252.619 46.3083 253 46.3083Z" fill="#333333"/>
<path d="M254.218 46.0654C254.383 46.0654 254.518 45.9308 254.518 45.765C254.518 45.5993 254.384 45.4647 254.218 45.4647C254.052 45.4647 253.918 45.5993 253.918 45.765C253.918 45.9308 254.052 46.0654 254.218 46.0654Z" fill="#333333"/>
<path d="M242 50.9995C241.785 50.9995 241.569 50.9822 241.359 50.9484C240.431 50.7991 239.581 50.3222 238.965 49.6057C238.343 48.8814 238 47.9559 238 46.9997C238 44.7942 239.794 43 242 43C244.206 43 246 44.7942 246 46.9997C246 47.9707 245.648 48.9072 245.008 49.6364C244.374 50.3588 243.504 50.8292 242.557 50.9613C242.374 50.9868 242.187 50.9997 242 50.9997L242 50.9995ZM242 43.3225C239.972 43.3225 238.322 44.972 238.322 46.9995C238.322 48.815 239.621 50.3416 241.41 50.6296C241.771 50.6877 242.149 50.6918 242.512 50.6412C244.316 50.3897 245.677 48.8241 245.677 46.9995C245.677 44.972 244.027 43.3225 242 43.3225Z" fill="#333333"/>
<path d="M242.534 46.2431V47.0793H243.569L243.405 48.2058H242.534V50.801C242.36 50.8252 242.181 50.8378 242 50.8378C241.79 50.8378 241.585 50.8211 241.385 50.7889V48.2058H240.431V47.0793H241.385V46.0562C241.385 45.4215 241.899 44.9067 242.534 44.9067V44.9072C242.536 44.9072 242.538 44.9067 242.54 44.9067H243.569V45.8809H242.896C242.697 45.8809 242.534 46.043 242.534 46.2429L242.534 46.2431Z" fill="#333333"/>
<path d="M264.009 51H263.991C261.79 51 260 49.2095 260 47.0088V46.9912C260 44.7905 261.79 43 263.991 43H264.009C266.21 43 268 44.7905 268 46.9912V47.0088C268 49.2095 266.21 51 264.009 51ZM263.991 43.2708C261.94 43.2708 260.271 44.9397 260.271 46.9912V47.0088C260.271 49.0603 261.94 50.7292 263.991 50.7292H264.009C266.06 50.7292 267.729 49.0603 267.729 47.0088V46.9912C267.729 44.9397 266.06 43.2708 264.009 43.2708H263.991Z" fill="#333333"/>
<path d="M265.868 45.9313V46.6611C265.741 46.6486 265.575 46.6197 265.392 46.5525C265.152 46.4648 264.974 46.3448 264.857 46.2519V47.7269L264.854 47.7223C264.856 47.7516 264.857 47.7814 264.857 47.8114C264.857 48.5439 264.261 49.1402 263.529 49.1402C262.796 49.1402 262.2 48.5439 262.2 47.8114C262.2 47.0789 262.796 46.4824 263.529 46.4824C263.6 46.4824 263.671 46.4881 263.74 46.4992V47.2184C263.674 47.1948 263.603 47.1821 263.529 47.1821C263.182 47.1821 262.899 47.4643 262.899 47.8114C262.899 48.1586 263.182 48.4407 263.529 48.4407C263.876 48.4407 264.158 48.1583 264.158 47.8114C264.158 47.7984 264.158 47.7854 264.157 47.7724V44.9061H264.886C264.889 44.9678 264.891 45.0301 264.894 45.0919C264.899 45.2134 264.942 45.3302 265.018 45.4257C265.106 45.5381 265.237 45.6686 265.421 45.7729C265.593 45.8701 265.754 45.9121 265.868 45.9319V45.9313Z" fill="#333333"/>
</svg>
