<svg width="25" height="25" viewBox="0 0 25 25" fill="none" xmlns="http://www.w3.org/2000/svg">
<path d="M12.5285 0H12.4715C5.5837 0 0 5.58369 0 12.4715V12.5285C0 19.4163 5.5837 25 12.4715 25H12.5285C19.4163 25 25 19.4163 25 12.5285V12.4715C25 5.58369 19.4163 0 12.5285 0Z" fill="#007EBB"/>
<path d="M5.96207 8.31027C5.63274 8.00459 5.46896 7.62621 5.46896 7.17601C5.46896 6.72582 5.63362 6.3308 5.96207 6.02425C6.2914 5.71857 6.71532 5.56529 7.23471 5.56529C7.7541 5.56529 8.16139 5.71857 8.48984 6.02425C8.81917 6.32993 8.98295 6.71443 8.98295 7.17601C8.98295 7.6376 8.81829 8.00459 8.48984 8.31027C8.16051 8.61595 7.74272 8.76922 7.23471 8.76922C6.72671 8.76922 6.2914 8.61595 5.96207 8.31027ZM8.70618 10.0638V19.4356H5.74485V10.0638H8.70618Z" fill="#FEFFFC"/>
<path d="M18.5641 10.9887C19.2096 11.6894 19.5319 12.6511 19.5319 13.8756V19.2692H16.7195V14.2557C16.7195 13.6382 16.5592 13.1582 16.2395 12.8166C15.9199 12.475 15.4889 12.3034 14.9494 12.3034C14.4099 12.3034 13.9789 12.4742 13.6592 12.8166C13.3395 13.1582 13.1792 13.6382 13.1792 14.2557V19.2692H10.3502V10.0366H13.1792V11.2611C13.4656 10.8529 13.8519 10.5306 14.3372 10.2932C14.8224 10.0559 15.3681 9.93764 15.975 9.93764C17.0559 9.93764 17.9194 10.288 18.5641 10.9887Z" fill="#FEFFFC"/>
</svg>
