<svg width="25" height="25" viewBox="0 0 25 25" fill="none" xmlns="http://www.w3.org/2000/svg">
<path d="M12.5275 25H12.4725C5.59524 25 0 19.4048 0 12.5275V12.4725C0 5.59523 5.59524 0 12.4725 0H12.5275C19.4048 0 25 5.59523 25 12.4725V12.5275C25 19.4048 19.4048 25 12.5275 25ZM12.4725 0.846224C6.06151 0.846224 0.846224 6.0615 0.846224 12.4725V12.5275C0.846224 18.9385 6.06151 24.1538 12.4725 24.1538H12.5275C18.9385 24.1538 24.1538 18.9385 24.1538 12.5275V12.4725C24.1538 6.0615 18.9385 0.846224 12.5275 0.846224H12.4725Z" fill="#0EA982"/>
<path d="M20.6199 13.4211C20.4363 12.7255 20.0513 12.0731 19.5292 11.5679C20.3246 10.2588 20.2992 8.5951 19.453 7.38246C18.9613 6.6784 18.2175 6.16136 17.3586 5.92781C16.6647 5.7391 15.9065 5.74671 15.2083 5.94642C14.473 4.60346 13.0192 3.79362 11.545 3.91971C10.6895 3.99333 9.86952 4.37922 9.23824 5.00627C8.72797 5.51316 8.35563 6.17321 8.17961 6.87727C6.65049 6.84426 5.22036 7.69726 4.59331 9.03599C4.22858 9.81366 4.15327 10.7166 4.3809 11.5772C4.56453 12.2728 4.94958 12.9252 5.4717 13.4304C4.67625 14.7395 4.70162 16.4032 5.54785 17.6158C6.0395 18.3199 6.78334 18.837 7.64225 19.0705C8.33954 19.2601 9.09352 19.2533 9.7925 19.0519C10.4737 20.2958 11.7761 21.0913 13.1495 21.0913C13.251 21.0913 13.3543 21.0871 13.455 21.0786C14.3105 21.005 15.1305 20.6191 15.7618 19.992C16.272 19.4852 16.6444 18.8251 16.8212 18.121C16.8509 18.121 16.8813 18.1219 16.9109 18.1219C18.4206 18.1219 19.7932 17.274 20.4075 15.9615C20.7723 15.1838 20.8476 14.2809 20.6199 13.4203V13.4211ZM13.9441 15.6061L9.95668 17.9078C9.92283 17.9239 9.88897 17.9391 9.85597 17.9535C9.4794 18.1143 9.08252 18.1955 8.67634 18.1955C7.74634 18.1955 6.88827 17.7614 6.38139 17.0345C5.78141 16.1739 5.75264 14.9866 6.29676 14.0321L10.5473 16.487L13.9119 14.423L13.9432 15.6061H13.9441ZM11.5408 14.6845L10.5321 15.3031L6.54555 13.0014C6.51424 12.9794 6.48462 12.9582 6.45584 12.9362C5.35575 12.1112 4.95888 10.6523 5.51401 9.4684C5.95912 8.51809 6.97374 7.90035 8.07299 7.89443V12.8025L11.5417 14.6845H11.5408ZM13.8341 13.2696L12.5004 14.0397L11.1668 13.2696V11.7295L12.5004 10.9595L13.8341 11.7295V13.2696ZM13.46 10.3146L14.4687 9.69603L18.4553 11.9978C18.4866 12.0198 18.5162 12.0409 18.545 12.0629C19.6451 12.888 20.0411 14.3469 19.4868 15.5308C19.0417 16.4811 18.0271 17.0988 16.9279 17.1047V12.1966L13.4592 10.3146H13.46ZM11.0568 9.39309L15.0442 7.09136C15.078 7.07529 15.1119 7.06005 15.1449 7.04567C16.41 6.50577 17.8714 6.89165 18.6195 7.96382C19.2194 8.82442 19.2482 10.0117 18.7041 10.9662L14.4535 8.51132L11.0889 10.5753L11.0576 9.39224L11.0568 9.39309ZM10.1285 12.7611L9.08846 12.1966V7.59317C9.09184 7.55509 9.09522 7.51785 9.09945 7.48316C9.26446 6.11735 10.329 5.0452 11.6322 4.93349C12.6781 4.84379 13.7198 5.41329 14.275 6.36191L10.0235 8.81512L10.1285 12.7611ZM14.8724 12.2381L15.9124 12.8025V17.406C15.909 17.4441 15.9056 17.4813 15.9014 17.516C15.7364 18.8818 14.6718 19.954 13.3686 20.0657C12.3227 20.1562 11.281 19.5867 10.7259 18.6372L14.9773 16.184L14.8724 12.2381Z" fill="#0EA982"/>
</svg>
