<svg width="25" height="18" viewBox="0 0 25 18" fill="none" xmlns="http://www.w3.org/2000/svg">
<path d="M20.2941 7.35294C20.4412 6.91177 20.5882 6.47059 20.5882 5.88235C20.5882 2.64706 17.9412 0 14.7059 0C12.5 0 10.4412 1.32353 9.55882 3.23529C9.11765 3.08824 8.52941 2.94118 8.08823 2.94118C6.02941 2.94118 4.41176 4.55882 4.41176 6.61765C4.41176 6.91177 4.41176 7.20588 4.55882 7.35294C1.91176 7.79412 0 9.85294 0 12.5C0 15.2941 2.35294 17.6471 5.14706 17.6471H19.8529C22.6471 17.6471 25 15.2941 25 12.5C25 9.85294 22.9412 7.64706 20.2941 7.35294ZM11.0294 16.0294L6.32353 11.3235L8.38235 9.26471L11.0294 11.9118L16.6176 6.32353L18.6765 8.38235L11.0294 16.0294Z" fill="#926B6A"/>
</svg>
