<svg width="25" height="25" viewBox="0 0 25 25" fill="none" xmlns="http://www.w3.org/2000/svg">
<path d="M12.5285 0H12.4715C5.5837 0 0 5.5837 0 12.4715V12.5285C0 19.4163 5.5837 25 12.4715 25H12.5285C19.4163 25 25 19.4163 25 12.5285V12.4715C25 5.5837 19.4163 0 12.5285 0Z" fill="black"/>
<path d="M18.8382 9.928V12.2885C18.4257 12.2482 17.8897 12.1545 17.2967 11.9372C16.5224 11.6535 15.9461 11.2655 15.5686 10.965V15.7359L15.559 15.721C15.5651 15.8156 15.5686 15.912 15.5686 16.0092C15.5686 18.3784 13.6408 20.3071 11.2707 20.3071C8.9006 20.3071 6.9728 18.3784 6.9728 16.0092C6.9728 13.6399 8.9006 11.7104 11.2707 11.7104C11.5028 11.7104 11.7305 11.7288 11.953 11.7647V14.091C11.7393 14.0148 11.5098 13.9736 11.2707 13.9736C10.1487 13.9736 9.23518 14.8863 9.23518 16.0092C9.23518 17.132 10.1487 18.0447 11.2707 18.0447C12.3927 18.0447 13.3062 17.1312 13.3062 16.0092C13.3062 15.9671 13.3054 15.9251 13.3027 15.883V6.61195H15.6614C15.6702 6.81165 15.6781 7.0131 15.6869 7.2128C15.7026 7.60606 15.8428 7.98356 16.0871 8.29275C16.3735 8.65623 16.7966 9.0784 17.3904 9.41561C17.9466 9.73093 18.4686 9.86581 18.8382 9.92975V9.928Z" fill="#FF004F"/>
<path d="M18.0272 8.01247V10.3729C17.6146 10.3327 17.0786 10.2389 16.4856 10.0217C15.7114 9.73794 15.1351 9.34992 14.7576 9.0495V13.8204L14.7479 13.8055C14.754 13.9001 14.7576 13.9964 14.7576 14.0936C14.7576 16.4629 12.8298 18.3915 10.4597 18.3915C8.08955 18.3915 6.16175 16.4629 6.16175 14.0936C6.16175 11.7244 8.08955 9.79487 10.4597 9.79487C10.6918 9.79487 10.9195 9.81326 11.142 9.84917V12.1755C10.9282 12.0993 10.6988 12.0581 10.4597 12.0581C9.33766 12.0581 8.42412 12.9708 8.42412 14.0936C8.42412 15.2165 9.33766 16.1292 10.4597 16.1292C11.5816 16.1292 12.4952 15.2156 12.4952 14.0936C12.4952 14.0516 12.4943 14.0096 12.4917 13.9675V4.69642H14.8504C14.8592 4.89612 14.867 5.09757 14.8758 5.29727C14.8916 5.69053 15.0317 6.06804 15.2761 6.37722C15.5625 6.7407 15.9855 7.16287 16.5794 7.50008C17.1355 7.81452 17.6576 7.95028 18.0272 8.01422V8.01247Z" fill="#00F7EF"/>
<path d="M18.5431 9.04425V11.4047C18.1305 11.3644 17.5945 11.2707 17.0015 11.0535C16.2273 10.7697 15.6509 10.3817 15.2734 10.0813V14.8521L15.2638 14.8373C15.2699 14.9319 15.2734 15.0282 15.2734 15.1254C15.2734 17.4947 13.3456 19.4233 10.9755 19.4233C8.60543 19.4233 6.67764 17.4947 6.67764 15.1254C6.67764 12.7562 8.60543 10.8266 10.9755 10.8266C11.2076 10.8266 11.4354 10.845 11.6578 10.8809V13.2073C11.4441 13.1311 11.2146 13.0899 10.9755 13.0899C9.85355 13.0899 8.94001 14.0026 8.94001 15.1254C8.94001 16.2483 9.85355 17.1609 10.9755 17.1609C12.0975 17.1609 13.0111 16.2474 13.0111 15.1254C13.0111 15.0834 13.0102 15.0413 13.0076 14.9993V5.7282H15.3663C15.375 5.9279 15.3829 6.12935 15.3917 6.32904C15.4074 6.72231 15.5476 7.09981 15.792 7.409C16.0784 7.77248 16.5014 8.19465 17.0952 8.53186C17.6514 8.8463 18.1734 8.98206 18.5431 9.046V9.04425Z" fill="white"/>
</svg>
