<svg width="18" height="12" viewBox="0 0 18 12" fill="none" xmlns="http://www.w3.org/2000/svg">
<path d="M9 9C9.9375 9 10.7345 8.672 11.391 8.016C12.0475 7.36 12.3755 6.563 12.375 5.625C12.3745 4.687 12.0465 3.89025 11.391 3.23475C10.7355 2.57925 9.9385 2.251 9 2.25C8.0615 2.249 7.26475 2.57725 6.60975 3.23475C5.95475 3.89225 5.6265 4.689 5.625 5.625C5.6235 6.561 5.95175 7.358 6.60975 8.016C7.26775 8.674 8.0645 9.002 9 9ZM9 7.65C8.4375 7.65 7.9595 7.453 7.566 7.059C7.1725 6.665 6.9755 6.187 6.975 5.625C6.9745 5.063 7.1715 4.585 7.566 4.191C7.9605 3.797 8.4385 3.6 9 3.6C9.5615 3.6 10.0398 3.797 10.4348 4.191C10.8298 4.585 11.0265 5.063 11.025 5.625C11.0235 6.187 10.8268 6.66525 10.4348 7.05975C10.0428 7.45425 9.5645 7.651 9 7.65ZM9 11.25C7.175 11.25 5.5125 10.7408 4.0125 9.72225C2.5125 8.70375 1.425 7.338 0.75 5.625C1.425 3.9125 2.5125 2.547 4.0125 1.5285C5.5125 0.51 7.175 0.000500368 9 3.67647e-07C10.825 -0.000499632 12.4875 0.509 13.9875 1.5285C15.4875 2.548 16.575 3.9135 17.25 5.625C16.575 7.3375 15.4875 8.70325 13.9875 9.72225C12.4875 10.7413 10.825 11.2505 9 11.25ZM9 9.75C10.4125 9.75 11.7095 9.37825 12.891 8.63475C14.0725 7.89125 14.9755 6.888 15.6 5.625C14.975 4.3625 14.0718 3.3595 12.8903 2.616C11.7088 1.8725 10.412 1.5005 9 1.5C7.588 1.4995 6.29125 1.8715 5.10975 2.616C3.92825 3.3605 3.025 4.3635 2.4 5.625C3.025 6.8875 3.92825 7.89075 5.10975 8.63475C6.29125 9.37875 7.588 9.7505 9 9.75Z" fill="#926B6A"/>
</svg>
