<svg width="25" height="25" viewBox="0 0 25 25" fill="none" xmlns="http://www.w3.org/2000/svg">
<path d="M25 12.5C25 5.59644 19.4036 0 12.5 0C5.59645 0 0 5.59644 0 12.5C0 19.4036 5.59645 25 12.5 25C19.4036 25 25 19.4036 25 12.5Z" fill="#FF0209"/>
<path d="M17.8062 18.0363C17.4338 18.0767 17.0526 18.0838 16.6872 18.0829C13.8369 18.0802 10.9866 18.0776 8.13716 18.0759C7.24035 18.0759 6.26361 18.0469 5.57058 17.4768C4.78972 16.833 4.62722 15.7166 4.56398 14.7065C4.47614 13.3221 4.46911 11.9335 4.54114 10.5483C4.58067 9.78761 4.65006 9.0085 4.97769 8.31986C5.21309 7.82534 5.60572 7.38089 6.10814 7.14725C6.69225 6.87583 7.3036 6.92414 7.9325 6.92326C9.43802 6.92151 10.9435 6.92063 12.4491 6.91887C14.0143 6.91712 15.5804 6.91624 17.1457 6.91448C17.8853 6.91448 18.6793 6.92941 19.2827 7.35718C20.0618 7.90879 20.2735 8.95843 20.371 9.90795C20.5511 11.6568 20.5537 13.424 20.3781 15.1729C20.3052 15.894 20.1839 16.6564 19.7087 17.2036C19.2379 17.7465 18.5396 17.9555 17.8071 18.0354L17.8062 18.0363Z" fill="white"/>
<path d="M15.049 12.5L10.8012 10.0467V14.9524L15.049 12.5Z" fill="#FF0209"/>
</svg>
