<svg width="25" height="25" viewBox="0 0 25 25" fill="none" xmlns="http://www.w3.org/2000/svg">
<path d="M24.9982 12.5C24.9982 18.8131 20.3186 24.0322 14.2394 24.8791C13.671 24.958 13.0894 24.9991 12.4991 24.9991C11.8177 24.9991 11.1486 24.9448 10.497 24.8397C4.54561 23.8816 0 18.7211 0 12.5C0 5.59662 5.59662 0 12.5 0C19.4034 0 25 5.59662 25 12.5H24.9982Z" fill="#1877F7"/>
<path d="M14.2394 10.0371V12.7601H17.6079L17.0745 16.4282H14.2394L14.2394 24.8791C13.671 24.958 13.0894 24.9991 12.4991 24.9991C11.8177 24.9991 11.1486 24.9448 10.497 24.8397L10.497 16.4282H7.39034V12.7601H10.497V9.42843C10.497 7.36145 12.1724 5.68509 14.2403 5.68509V5.68684C14.2464 5.68684 14.2517 5.68509 14.2578 5.68509H17.6088V8.85738H15.4192C14.7684 8.85738 14.2403 9.38551 14.2403 10.0363L14.2394 10.0371Z" fill="white"/>
</svg>
