<svg width="25" height="25" viewBox="0 0 25 25" fill="none" xmlns="http://www.w3.org/2000/svg">
<path d="M12.5275 25H12.4725C5.59524 25 0 19.4048 0 12.5275V12.4725C0 5.59525 5.59524 0 12.4725 0H12.5275C19.4048 0 25 5.59525 25 12.4725V12.5275C25 19.4048 19.4048 25 12.5275 25ZM12.4725 0.846224C6.06151 0.846224 0.846224 6.06151 0.846224 12.4725V12.5275C0.846224 18.9385 6.06151 24.1538 12.4725 24.1538H12.5275C18.9385 24.1538 24.1538 18.9385 24.1538 12.5275V12.4725C24.1538 6.06151 18.9385 0.846224 12.5275 0.846224H12.4725Z" fill="url(#paint0_linear_322_532)"/>
<path d="M19.662 11.859C19.3371 8.19316 16.2492 5.30921 12.5004 5.30921C8.53501 5.30921 5.30836 8.53586 5.30836 12.4996C5.30836 13.9551 5.74417 15.3116 6.49138 16.4447L5.59523 18.4308C5.35914 18.9529 5.7797 19.5334 6.34921 19.4733L9.68588 19.1179C10.5507 19.4869 11.5019 19.6908 12.5004 19.6908C12.7543 19.6908 13.0065 19.6773 13.2536 19.6519C13.482 19.6273 13.7063 19.5926 13.928 19.5486C17.1987 18.8869 19.6713 15.9979 19.6908 12.541V12.4996C19.6908 12.2846 19.6815 12.0689 19.662 11.859ZM16.4946 10.8808L14.1861 14.4417C14.016 14.704 13.6581 14.7666 13.4093 14.5771L11.2683 12.9549C11.2023 12.9049 11.1101 12.9066 11.0458 12.9591L9.0419 14.594C8.71949 14.8572 8.27861 14.4611 8.50455 14.1125L10.7174 10.6997C10.8875 10.4373 11.2446 10.3747 11.4943 10.5634L12.7797 11.5383L13.5963 12.156C13.6623 12.2068 13.7545 12.2051 13.8188 12.1518L15.9564 10.3993C16.2788 10.1352 16.7214 10.5313 16.4946 10.8808Z" fill="url(#paint1_linear_322_532)"/>
<defs>
<linearGradient id="paint0_linear_322_532" x1="3.65738" y1="21.3426" x2="21.3426" y2="3.6574" gradientUnits="userSpaceOnUse">
<stop stop-color="#0498FA"/>
<stop offset="0.34" stop-color="#5C5EFE"/>
<stop offset="0.73" stop-color="#F44E90"/>
<stop offset="1" stop-color="#FA8679"/>
</linearGradient>
<linearGradient id="paint1_linear_322_532" x1="5.7433" y1="19.2567" x2="17.582" y2="7.41715" gradientUnits="userSpaceOnUse">
<stop stop-color="#0498FA"/>
<stop offset="0.34" stop-color="#5C5EFE"/>
<stop offset="0.73" stop-color="#F44E90"/>
<stop offset="1" stop-color="#FA8679"/>
</linearGradient>
</defs>
</svg>
