<svg width="25" height="25" viewBox="0 0 25 25" fill="none" xmlns="http://www.w3.org/2000/svg">
<path d="M12.5285 0H12.4715C5.5837 0 0 5.5837 0 12.4715V12.5285C0 19.4163 5.5837 25 12.4715 25H12.5285C19.4163 25 25 19.4163 25 12.5285V12.4715C25 5.5837 19.4163 0 12.5285 0Z" fill="url(#paint0_linear_319_377)"/>
<path d="M16.3683 5.08618H8.6326C6.49547 5.08618 4.75687 6.82478 4.75687 8.96191V16.039C4.75687 18.1761 6.49547 19.9147 8.6326 19.9147H16.3683C18.5054 19.9147 20.244 18.1761 20.244 16.039V8.96191C20.244 6.82478 18.5054 5.08618 16.3683 5.08618ZM6.1241 8.96191C6.1241 7.57891 7.2496 6.45342 8.6326 6.45342H16.3683C17.7513 6.45342 18.8768 7.57891 18.8768 8.96191V16.039C18.8768 17.422 17.7513 18.5474 16.3683 18.5474H8.6326C7.2496 18.5474 6.1241 17.422 6.1241 16.039V8.96191Z" fill="white"/>
<path d="M12.5005 16.1046C14.4878 16.1046 16.1055 14.4878 16.1055 12.4996C16.1055 10.5113 14.4887 8.89447 12.5005 8.89447C10.5122 8.89447 8.89536 10.5113 8.89536 12.4996C8.89536 14.4878 10.5122 16.1046 12.5005 16.1046ZM12.5005 10.2626C13.7346 10.2626 14.7383 11.2663 14.7383 12.5004C14.7383 13.7345 13.7346 14.7383 12.5005 14.7383C11.2664 14.7383 10.2626 13.7345 10.2626 12.5004C10.2626 11.2663 11.2664 10.2626 12.5005 10.2626Z" fill="white"/>
<path d="M16.4392 9.47692C16.9744 9.47692 17.4106 9.04161 17.4106 8.50558C17.4106 7.96955 16.9753 7.53424 16.4392 7.53424C15.9032 7.53424 15.4679 7.96955 15.4679 8.50558C15.4679 9.04161 15.9032 9.47692 16.4392 9.47692Z" fill="white"/>
<defs>
<linearGradient id="paint0_linear_319_377" x1="3.65238" y1="21.3476" x2="21.3476" y2="3.65326" gradientUnits="userSpaceOnUse">
<stop stop-color="#FAAD4F"/>
<stop offset="0.35" stop-color="#DD2A7B"/>
<stop offset="0.62" stop-color="#9537B0"/>
<stop offset="1" stop-color="#515BD4"/>
</linearGradient>
</defs>
</svg>
