<svg width="25" height="25" viewBox="0 0 25 25" fill="none" xmlns="http://www.w3.org/2000/svg">
<path d="M12.5275 25H12.4725C5.59524 25 0 19.4048 0 12.5275V12.4725C0 5.59524 5.59524 0 12.4725 0H12.5275C19.4048 0 25 5.59524 25 12.4725V12.5275C25 19.4048 19.4048 25 12.5275 25ZM12.4725 0.846224C6.0615 0.846224 0.846224 6.06151 0.846224 12.4725V12.5275C0.846224 18.9385 6.0615 24.1538 12.4725 24.1538H12.5275C18.9385 24.1538 24.1538 18.9385 24.1538 12.5275V12.4725C24.1538 6.06151 18.9385 0.846224 12.5275 0.846224H12.4725Z" fill="url(#paint0_linear_319_491)"/>
<path d="M16.2374 5.33713H8.76351C6.69872 5.33713 5.01896 7.01689 5.01896 9.08167V15.9192C5.01896 17.984 6.69872 19.6637 8.76351 19.6637H16.2374C18.3021 19.6637 19.9819 17.984 19.9819 15.9192V9.08167C19.9819 7.01689 18.3021 5.33713 16.2374 5.33713ZM6.33992 9.08167C6.33992 7.74549 7.42732 6.65809 8.76351 6.65809H16.2374C17.5735 6.65809 18.6609 7.74549 18.6609 9.08167V15.9192C18.6609 17.2554 17.5735 18.3428 16.2374 18.3428H8.76351C7.42732 18.3428 6.33992 17.2554 6.33992 15.9192V9.08167Z" fill="url(#paint1_linear_319_491)"/>
<path d="M12.5004 15.9826C14.4205 15.9826 15.9835 14.4205 15.9835 12.4996C15.9835 10.5786 14.4214 9.01652 12.5004 9.01652C10.5795 9.01652 9.01738 10.5786 9.01738 12.4996C9.01738 14.4205 10.5795 15.9826 12.5004 15.9826ZM12.5004 10.3383C13.6928 10.3383 14.6625 11.3081 14.6625 12.5004C14.6625 13.6928 13.6928 14.6625 12.5004 14.6625C11.3081 14.6625 10.3383 13.6928 10.3383 12.5004C10.3383 11.3081 11.3081 10.3383 12.5004 10.3383Z" fill="url(#paint2_linear_319_491)"/>
<path d="M16.3059 9.57925C16.823 9.57925 17.2444 9.15868 17.2444 8.64079C17.2444 8.12291 16.8238 7.70233 16.3059 7.70233C15.788 7.70233 15.3674 8.12291 15.3674 8.64079C15.3674 9.15868 15.788 9.57925 16.3059 9.57925Z" fill="url(#paint3_linear_319_491)"/>
<defs>
<linearGradient id="paint0_linear_319_491" x1="3.65738" y1="21.3426" x2="21.3426" y2="3.65738" gradientUnits="userSpaceOnUse">
<stop stop-color="#FAAD4F"/>
<stop offset="0.35" stop-color="#DD2A7B"/>
<stop offset="0.62" stop-color="#9537B0"/>
<stop offset="1" stop-color="#515BD4"/>
</linearGradient>
<linearGradient id="paint1_linear_319_491" x1="2.09959" y1="23.3609" x2="23.8024" y2="2.58112" gradientUnits="userSpaceOnUse">
<stop stop-color="#FAAD4F"/>
<stop offset="0.35" stop-color="#DD2A7B"/>
<stop offset="0.62" stop-color="#9537B0"/>
<stop offset="1" stop-color="#515BD4"/>
</linearGradient>
<linearGradient id="paint2_linear_319_491" x1="3.66557" y1="21.3344" x2="21.3314" y2="3.66861" gradientUnits="userSpaceOnUse">
<stop stop-color="#FAAD4F"/>
<stop offset="0.35" stop-color="#DD2A7B"/>
<stop offset="0.62" stop-color="#9537B0"/>
<stop offset="1" stop-color="#515BD4"/>
</linearGradient>
<linearGradient id="paint3_linear_319_491" x1="15.6425" y1="9.30422" x2="16.9693" y2="7.97735" gradientUnits="userSpaceOnUse">
<stop stop-color="#FAAD4F"/>
<stop offset="0.35" stop-color="#DD2A7B"/>
<stop offset="0.62" stop-color="#9537B0"/>
<stop offset="1" stop-color="#515BD4"/>
</linearGradient>
</defs>
</svg>
