<svg width="25" height="25" viewBox="0 0 25 25" fill="none" xmlns="http://www.w3.org/2000/svg">
<path d="M12.5275 25H12.4725C5.59524 25 0 19.4048 0 12.5275V12.4725C0 5.59524 5.59524 0 12.4725 0H12.5275C19.4048 0 25 5.59524 25 12.4725V12.5275C25 19.4048 19.4048 25 12.5275 25ZM12.4725 0.846224C6.06151 0.846224 0.846224 6.06151 0.846224 12.4725V12.5275C0.846224 18.9385 6.06151 24.1538 12.4725 24.1538H12.5275C18.9385 24.1538 24.1538 18.9385 24.1538 12.5275V12.4725C24.1538 6.06151 18.9385 0.846224 12.5275 0.846224H12.4725Z" fill="#007EBB"/>
<path d="M6.18335 8.45125C5.86517 8.15592 5.70694 7.79035 5.70694 7.35539C5.70694 6.92043 5.86602 6.53877 6.18335 6.2426C6.50153 5.94726 6.91111 5.79918 7.41292 5.79918C7.91473 5.79918 8.30823 5.94726 8.62556 6.2426C8.94374 6.53793 9.10198 6.90943 9.10198 7.35539C9.10198 7.80135 8.9429 8.15592 8.62556 8.45125C8.30738 8.74658 7.90373 8.89467 7.41292 8.89467C6.92211 8.89467 6.50153 8.74658 6.18335 8.45125ZM8.83458 10.1454V19.2H5.97349V10.1454H8.83458Z" fill="#007EBB"/>
<path d="M18.3588 11.0398C18.9825 11.7168 19.2939 12.646 19.2939 13.829V19.04H16.5767V14.1963C16.5767 13.5997 16.4218 13.1359 16.1129 12.8059C15.8041 12.4759 15.3877 12.31 14.8665 12.31C14.3452 12.31 13.9288 12.475 13.62 12.8059C13.3111 13.1359 13.1562 13.5997 13.1562 14.1963V19.04H10.4229V10.12H13.1562V11.303C13.4329 10.9087 13.8061 10.5973 14.275 10.3679C14.7438 10.1386 15.271 10.0244 15.8574 10.0244C16.9016 10.0244 17.736 10.3629 18.3588 11.0398Z" fill="#007EBB"/>
</svg>
