<svg width="25" height="25" viewBox="0 0 25 25" fill="none" xmlns="http://www.w3.org/2000/svg">
<path d="M12.5285 0H12.4715C5.58369 0 0 5.5837 0 12.4715V12.5285C0 19.4163 5.58369 25 12.4715 25H12.5285C19.4163 25 25 19.4163 25 12.5285V12.4715C25 5.5837 19.4163 0 12.5285 0Z" fill="#00B0F2"/>
<path d="M4.72076 12.0739C4.7558 12.0564 4.79085 12.0397 4.82501 12.024C5.41885 11.7489 6.02057 11.4914 6.62142 11.2339C6.65383 11.2339 6.70812 11.1963 6.73878 11.184C6.7852 11.1639 6.83163 11.1446 6.87805 11.1244L7.14519 11.0097C7.32387 10.9335 7.50166 10.8573 7.68034 10.7811C8.03682 10.6287 8.39329 10.4763 8.74977 10.323C9.46273 10.0182 10.1766 9.71254 10.8895 9.40774C11.6025 9.10294 12.3163 8.79726 13.0293 8.49245C13.7423 8.18765 14.4561 7.88197 15.169 7.57717C15.882 7.27236 16.5959 6.96669 17.3088 6.66188C17.4673 6.59356 17.639 6.49196 17.8089 6.46218C17.9517 6.43678 18.0909 6.38773 18.2346 6.36058C18.507 6.30891 18.8074 6.28788 19.0684 6.40087C19.1586 6.44028 19.2418 6.49546 19.311 6.56466C19.6421 6.89223 19.5957 7.43002 19.5256 7.89073C19.0378 11.1017 18.5499 14.3135 18.0612 17.5244C17.9946 17.965 17.9035 18.4485 17.5558 18.727C17.2615 18.9626 16.8428 18.9889 16.4793 18.889C16.1159 18.7883 15.7953 18.5772 15.4809 18.3697C14.1767 17.506 12.8716 16.6424 11.5675 15.7788C11.2574 15.5739 10.9123 15.3059 10.9158 14.9336C10.9176 14.7094 11.0516 14.5097 11.1882 14.3319C12.3216 12.8534 13.9568 11.8374 15.1734 10.4273C15.3451 10.2284 15.48 9.86932 15.2444 9.75458C15.1042 9.68627 14.9431 9.77911 14.8152 9.86757C13.2071 10.9843 11.5999 12.1019 9.99178 13.2187C9.46713 13.583 8.91708 13.9579 8.2847 14.0472C7.71889 14.1278 7.14958 13.9702 6.60216 13.809C6.1432 13.6741 5.6851 13.5357 5.22877 13.393C4.98616 13.3176 4.73566 13.2362 4.54822 13.0654C4.36078 12.8946 4.25307 12.6073 4.36605 12.3796C4.437 12.2368 4.57451 12.1466 4.71903 12.073L4.72076 12.0739Z" fill="#FEFFFC"/>
</svg>
