<svg width="25" height="25" viewBox="0 0 25 25" fill="none" xmlns="http://www.w3.org/2000/svg">
<path d="M12.5275 25H12.4725C5.59523 25 0 19.4048 0 12.5275V12.4725C0 5.59524 5.59523 0 12.4725 0H12.5275C19.4048 0 25 5.59524 25 12.4725V12.5275C25 19.4048 19.4048 25 12.5275 25ZM12.4725 0.846224C6.0615 0.846224 0.846224 6.06151 0.846224 12.4725V12.5275C0.846224 18.9385 6.0615 24.1538 12.4725 24.1538H12.5275C18.9385 24.1538 24.1538 18.9385 24.1538 12.5275V12.4725C24.1538 6.06151 18.9385 0.846224 12.5275 0.846224H12.4725Z" fill="#00B0F2"/>
<path d="M4.99778 12.0875C5.03163 12.0705 5.0655 12.0545 5.0985 12.0392C5.67224 11.7735 6.2536 11.5247 6.83411 11.2759C6.86542 11.2759 6.91787 11.2395 6.94749 11.2277C6.99234 11.2082 7.0372 11.1896 7.08205 11.1702C7.16836 11.1329 7.25468 11.0965 7.34015 11.0593C7.51278 10.9857 7.68455 10.9121 7.85718 10.8384C8.20159 10.6912 8.546 10.544 8.89042 10.3959C9.57924 10.1014 10.2689 9.80605 10.9578 9.51157C11.6466 9.21708 12.3363 8.92174 13.0251 8.62726C13.7139 8.33277 14.4036 8.03744 15.0924 7.74296C15.7812 7.44847 16.4709 7.15314 17.1597 6.85866C17.3129 6.79265 17.4788 6.69449 17.6429 6.66571C17.7809 6.64117 17.9154 6.59378 18.0542 6.56755C18.3174 6.51762 18.6076 6.49731 18.8598 6.60647C18.947 6.64455 19.0273 6.69786 19.0942 6.76472C19.4141 7.0812 19.3692 7.60079 19.3015 8.0459C18.8302 11.1482 18.3588 14.2513 17.8866 17.3535C17.8223 17.7792 17.7343 18.2463 17.3984 18.5154C17.114 18.743 16.7095 18.7684 16.3583 18.6719C16.0072 18.5746 15.6975 18.3707 15.3937 18.1701C14.1336 17.3358 12.8728 16.5014 11.6127 15.667C11.3132 15.469 10.9798 15.21 10.9831 14.8504C10.9848 14.6338 11.1143 14.4408 11.2463 14.269C12.3413 12.8406 13.9212 11.859 15.0966 10.4966C15.2625 10.3045 15.3928 9.95752 15.1652 9.84667C15.0298 9.78066 14.8741 9.87037 14.7505 9.95583C13.1969 11.0348 11.644 12.1146 10.0904 13.1935C9.58349 13.5455 9.05206 13.9077 8.44109 13.994C7.89443 14.0719 7.34438 13.9195 6.81549 13.7638C6.37207 13.6335 5.92948 13.4998 5.4886 13.3619C5.25419 13.2891 5.01217 13.2104 4.83108 13.0454C4.64999 12.8804 4.54592 12.6028 4.65508 12.3828C4.72362 12.2449 4.85648 12.1577 4.99611 12.0866L4.99778 12.0875Z" fill="#00B0F2"/>
</svg>
