<svg width="25" height="25" viewBox="0 0 25 25" fill="none" xmlns="http://www.w3.org/2000/svg">
<path d="M18.6237 10.087V12.3676C18.2251 12.3286 17.7072 12.2381 17.1343 12.0282C16.3863 11.7541 15.8295 11.3792 15.4647 11.0889V15.6983L15.4554 15.6839C15.4614 15.7753 15.4647 15.8684 15.4647 15.9623C15.4647 18.2514 13.6022 20.1147 11.3123 20.1147C9.02243 20.1147 7.15989 18.2514 7.15989 15.9623C7.15989 13.6733 9.02243 11.8091 11.3123 11.8091C11.5366 11.8091 11.7566 11.8268 11.9715 11.8615V14.1091C11.765 14.0355 11.5433 13.9957 11.3123 13.9957C10.2283 13.9957 9.34569 14.8775 9.34569 15.9623C9.34569 17.0472 10.2283 17.9289 11.3123 17.9289C12.3963 17.9289 13.2789 17.0463 13.2789 15.9623C13.2789 15.9217 13.2781 15.8811 13.2756 15.8405V6.88318H15.5544C15.5629 7.07612 15.5705 7.27075 15.579 7.46369C15.5942 7.84365 15.7296 8.20838 15.9657 8.50709C16.2424 8.85828 16.6511 9.26615 17.2249 9.59195C17.7622 9.89574 18.2666 10.0269 18.6237 10.0887V10.087Z" fill="#FF004F"/>
<path d="M17.8401 8.23545V10.5152C17.4415 10.4763 16.9236 10.3857 16.3507 10.1758C15.6027 9.90167 15.0459 9.52679 14.6811 9.23654V13.8459L14.6718 13.8315C14.6778 13.9229 14.6811 14.016 14.6811 14.1099C14.6811 16.399 12.8186 18.2624 10.5287 18.2624C8.23884 18.2624 6.3763 16.399 6.3763 14.1099C6.3763 11.8209 8.23884 9.95668 10.5287 9.95668C10.753 9.95668 10.973 9.97445 11.1879 10.0091V12.2567C10.9814 12.1831 10.7597 12.1433 10.5287 12.1433C9.44471 12.1433 8.56209 13.0251 8.56209 14.1099C8.56209 15.1948 9.44471 16.0766 10.5287 16.0766C11.6127 16.0766 12.4953 15.194 12.4953 14.1099C12.4953 14.0693 12.4945 14.0287 12.492 13.9881V5.0308H14.7708C14.7793 5.22374 14.7869 5.41837 14.7954 5.61131C14.8106 5.99126 14.946 6.35599 15.1821 6.65471C15.4588 7.00589 15.8675 7.41377 16.4413 7.73956C16.9786 8.04336 17.483 8.17452 17.8401 8.2363V8.23545Z" fill="#00F7EF"/>
<path d="M18.3385 9.2323V11.5129C17.9399 11.474 17.4221 11.3834 16.8492 11.1735C16.1011 10.8994 15.5443 10.5245 15.1796 10.2342V14.8436L15.1703 14.8292C15.1762 14.9206 15.1796 15.0137 15.1796 15.1076C15.1796 17.3967 13.317 19.2601 11.0271 19.2601C8.73726 19.2601 6.87472 17.3967 6.87472 15.1076C6.87472 12.8186 8.73726 10.9544 11.0271 10.9544C11.2514 10.9544 11.4714 10.9721 11.6864 11.0068V13.2544C11.4799 13.1808 11.2582 13.141 11.0271 13.141C9.94313 13.141 9.06052 14.0228 9.06052 15.1076C9.06052 16.1925 9.94313 17.0743 11.0271 17.0743C12.1112 17.0743 12.9938 16.1917 12.9938 15.1076C12.9938 15.067 12.9929 15.0264 12.9904 14.9858V6.0285H15.2693C15.2777 6.22144 15.2853 6.41607 15.2938 6.60901C15.309 6.98896 15.4444 7.35368 15.6805 7.6524C15.9572 8.00358 16.366 8.41147 16.9397 8.73727C17.4771 9.04106 17.9814 9.17222 18.3385 9.234V9.2323Z" fill="black"/>
<path d="M12.5275 25H12.4725C5.59523 25 0 19.4048 0 12.5275V12.4725C0 5.59524 5.59523 0 12.4725 0H12.5275C19.4048 0 25 5.59524 25 12.4725V12.5275C25 19.4048 19.4048 25 12.5275 25ZM12.4725 0.846224C6.0615 0.846224 0.846224 6.0615 0.846224 12.4725V12.5275C0.846224 18.9385 6.0615 24.1538 12.4725 24.1538H12.5275C18.9385 24.1538 24.1538 18.9385 24.1538 12.5275V12.4725C24.1538 6.0615 18.9385 0.846224 12.5275 0.846224H12.4725Z" fill="black"/>
</svg>
