<svg width="25" height="25" viewBox="0 0 25 25" fill="none" xmlns="http://www.w3.org/2000/svg">
<path d="M12.5285 0H12.4715C5.5837 0 0 5.5837 0 12.4715V12.5285C0 19.4163 5.5837 25 12.4715 25H12.5285C19.4163 25 25 19.4163 25 12.5285V12.4715C25 5.5837 19.4163 0 12.5285 0Z" fill="#2188F7"/>
<path d="M19.7999 7.97481C19.4575 8.32078 18.9828 8.53537 18.4564 8.53537C18.3889 8.53537 18.3232 8.53186 18.2575 8.52486C18.8067 8.19553 19.2306 7.67964 19.4417 7.06478C19.4417 7.06478 19.4426 7.06478 19.4426 7.0639C19.4724 6.98157 19.4969 6.89837 19.5162 6.81253C19.0817 7.27674 18.4879 7.59118 17.8214 7.6665C17.7189 7.67877 17.6146 7.6849 17.5104 7.6849C17.4771 7.6849 17.4447 7.68402 17.4132 7.68227C17.1881 7.44578 16.9192 7.24959 16.6214 7.10594C16.2895 6.94391 15.9181 6.84844 15.5266 6.83618C15.4942 6.83443 15.4626 6.83355 15.4293 6.83355C15.0974 6.83355 14.7786 6.89223 14.4843 7.00084C14.409 7.02799 14.3354 7.05865 14.2636 7.09368C13.3308 7.53074 12.6852 8.47931 12.6852 9.57765C12.6852 9.80275 12.7124 10.0226 12.7641 10.2319C12.4785 10.2205 12.1956 10.1934 11.918 10.1514C11.8286 10.1373 11.7402 10.1216 11.6517 10.1049C10.944 9.97355 10.2687 9.74757 9.64159 9.43927C9.08015 9.16512 8.55726 8.82616 8.08079 8.43202C7.68052 8.10181 7.3144 7.73395 6.98683 7.33104C6.97281 7.3144 6.95879 7.29601 6.94478 7.27937C6.92551 7.30827 6.90799 7.33805 6.89223 7.36871C6.66362 7.76898 6.534 8.23144 6.534 8.72543C6.534 8.74032 6.534 8.75696 6.53487 8.77185C6.54013 9.14147 6.61895 9.49357 6.75909 9.81414C6.81865 9.95603 6.89136 10.09 6.97456 10.2179C7.21981 10.5954 7.55439 10.9099 7.95029 11.1271C7.96868 11.1385 7.98619 11.1481 8.00546 11.1569C7.97743 11.1621 7.94765 11.1674 7.91874 11.17C7.83729 11.1805 7.75408 11.1858 7.67 11.1858C7.24871 11.1858 6.8572 11.0544 6.53663 10.8302C6.53488 10.8538 6.53487 10.8774 6.53487 10.902C6.53487 11.6859 6.86333 12.3927 7.38973 12.8911C7.79963 13.2817 8.32953 13.5454 8.91812 13.6216C8.70616 13.6995 8.47755 13.7407 8.23844 13.7407C7.98006 13.7407 7.73306 13.6916 7.50709 13.6014C7.8443 14.6971 8.84892 15.5003 10.0471 15.5371C9.31576 16.2973 8.2875 16.7694 7.15061 16.7694C6.44379 16.7694 5.77899 16.5864 5.20267 16.2667C6.58742 17.4649 8.3926 18.1883 10.3677 18.1883C14.7322 18.1883 18.2698 14.6507 18.2698 10.2862C18.2698 10.0462 18.2593 9.80801 18.2374 9.57328C18.9591 9.28862 19.5319 8.70529 19.8026 7.97481H19.7999Z" fill="white"/>
</svg>
