<svg width="25" height="25" viewBox="0 0 25 25" fill="none" xmlns="http://www.w3.org/2000/svg">
<path d="M12.5275 25H12.4725C5.59524 25 0 19.4048 0 12.5275V12.4725C0 5.59524 5.59524 0 12.4725 0H12.5275C19.4048 0 25 5.59524 25 12.4725V12.5275C25 19.4048 19.4048 25 12.5275 25ZM12.4725 0.846224C6.06151 0.846224 0.846224 6.06151 0.846224 12.4725V12.5275C0.846224 18.9385 6.06151 24.1538 12.4725 24.1538H12.5275C18.9385 24.1538 24.1538 18.9385 24.1538 12.5275V12.4725C24.1538 6.06151 18.9385 0.846224 12.5275 0.846224H12.4725Z" fill="#2188F7"/>
<path d="M19.5529 8.12799C19.222 8.46225 18.7633 8.66956 18.2547 8.66956C18.1896 8.66956 18.1261 8.66618 18.0627 8.65941C18.5932 8.34123 19.0028 7.84281 19.2067 7.24876C19.2067 7.24876 19.2076 7.24876 19.2076 7.24791C19.2364 7.16837 19.2601 7.08798 19.2787 7.00505C18.8589 7.45355 18.2852 7.75734 17.6412 7.83012C17.5422 7.84196 17.4415 7.84788 17.3408 7.84788C17.3087 7.84788 17.2774 7.84703 17.2469 7.84534C17.0294 7.61686 16.7696 7.42731 16.4819 7.28853C16.1612 7.13198 15.8024 7.03974 15.4241 7.0279C15.3928 7.0262 15.3623 7.02536 15.3302 7.02536C15.0095 7.02536 14.7015 7.08205 14.4171 7.18698C14.3443 7.21321 14.2733 7.24283 14.2039 7.27668C13.3026 7.69895 12.679 8.61541 12.679 9.67657C12.679 9.89405 12.7052 10.1065 12.7551 10.3087C12.4793 10.2977 12.2059 10.2715 11.9377 10.2309C11.8514 10.2173 11.7659 10.2021 11.6804 10.186C10.9967 10.0591 10.3442 9.84074 9.73834 9.54287C9.19591 9.278 8.69072 8.95052 8.23038 8.56971C7.84365 8.25069 7.48993 7.89527 7.17344 7.506C7.1599 7.48993 7.14636 7.47216 7.13282 7.45608C7.1142 7.48401 7.09728 7.51278 7.08205 7.5424C6.86118 7.92912 6.73594 8.37593 6.73594 8.8532C6.73594 8.86758 6.73594 8.88366 6.73679 8.89805C6.74187 9.25516 6.81802 9.59534 6.95342 9.90506C7.01096 10.0421 7.0812 10.1716 7.1616 10.2952C7.39854 10.6599 7.7218 10.9637 8.10429 11.1735C8.12206 11.1845 8.13898 11.1939 8.15759 11.2023C8.13051 11.2074 8.10174 11.2125 8.07382 11.215C7.99512 11.2252 7.91473 11.2302 7.83349 11.2302C7.42646 11.2302 7.0482 11.1033 6.73848 10.8867C6.73679 10.9095 6.73679 10.9324 6.73679 10.9561C6.73679 11.7134 7.05412 12.3963 7.56271 12.8778C7.95874 13.2553 8.4707 13.51 9.03936 13.5836C8.83458 13.6589 8.61371 13.6987 8.38269 13.6987C8.13305 13.6987 7.89442 13.6513 7.6761 13.5641C8.00189 14.6228 8.97251 15.3987 10.1301 15.4343C9.42355 16.1688 8.43009 16.6249 7.33169 16.6249C6.64878 16.6249 6.00649 16.4481 5.44968 16.1392C6.78756 17.2968 8.53163 17.9958 10.4399 17.9958C14.6566 17.9958 18.0745 14.5779 18.0745 10.3612C18.0745 10.1293 18.0643 9.89914 18.0432 9.67235C18.7405 9.39732 19.2939 8.83374 19.5554 8.12799H19.5529Z" fill="#2188F7"/>
</svg>
