<svg width="25" height="25" viewBox="0 0 25 25" fill="none" xmlns="http://www.w3.org/2000/svg">
<path d="M12.5285 0H12.4715C5.5837 0 0 5.5837 0 12.4715V12.5285C0 19.4163 5.5837 25 12.4715 25H12.5285C19.4163 25 25 19.4163 25 12.5285V12.4715C25 5.5837 19.4163 0 12.5285 0Z" fill="#00E510"/>
<path d="M14.9362 16.1563C11.7367 16.1563 9.13359 13.5524 9.13271 10.3528C9.13359 9.54175 9.794 8.88221 10.6033 8.88221C10.6865 8.88221 10.7688 8.88922 10.8477 8.90324C11.0211 8.93214 11.1858 8.99082 11.3373 9.07929C11.3592 9.09242 11.3741 9.11344 11.3776 9.13797L11.7157 11.269C11.72 11.2944 11.7122 11.3189 11.6955 11.3373C11.509 11.544 11.2707 11.6929 11.0053 11.7673L10.8775 11.8032L10.9256 11.9267C11.3618 13.0373 12.2499 13.9246 13.3614 14.3625L13.4849 14.4116L13.5208 14.2837C13.5953 14.0183 13.7442 13.7801 13.9509 13.5935C13.9658 13.5795 13.9859 13.5725 14.0061 13.5725C14.0104 13.5725 14.0148 13.5725 14.0201 13.5734L16.1511 13.9115C16.1765 13.9158 16.1975 13.9299 16.2106 13.9518C16.2982 14.1033 16.3569 14.2688 16.3867 14.4422C16.4007 14.5193 16.4068 14.6008 16.4068 14.6857C16.4068 15.4959 15.7473 16.1555 14.9362 16.1563Z" fill="#FDFDFD"/>
<path d="M20.6101 11.798C20.4376 9.8483 19.5442 8.03963 18.0946 6.70567C16.6363 5.36384 14.7444 4.6246 12.7658 4.6246C8.42325 4.6246 4.89 8.15787 4.89 12.5004C4.89 13.9579 5.29201 15.3777 6.05314 16.6144L4.35571 20.3719L9.79049 19.7929C10.7356 20.1801 11.7358 20.3763 12.7649 20.3763C13.0356 20.3763 13.3132 20.3623 13.5918 20.3334C13.837 20.3071 14.0849 20.2685 14.3284 20.2195C17.965 19.4846 20.6198 16.2571 20.6408 12.5425V12.5004C20.6408 12.264 20.6303 12.0275 20.6093 11.798H20.6101ZM9.99983 18.1437L6.99296 18.4642L7.89073 16.4751L7.71117 16.2343C7.69804 16.2168 7.6849 16.1992 7.67001 16.1791C6.89048 15.1027 6.47882 13.8309 6.47882 12.5013C6.47882 9.03461 9.29913 6.21431 12.7658 6.21431C16.0136 6.21431 18.7664 8.74821 19.0318 11.9828C19.0458 12.1562 19.0537 12.3305 19.0537 12.5022C19.0537 12.5512 19.0528 12.5994 19.052 12.6511C18.9854 15.5511 16.9595 18.014 14.1252 18.6412C13.9088 18.6893 13.6872 18.7261 13.4665 18.7498C13.237 18.7761 13.0014 18.7892 12.7676 18.7892C11.9346 18.7892 11.1253 18.628 10.3607 18.3092C10.2757 18.2751 10.1925 18.2383 10.1146 18.2006L10.0007 18.1454L9.99983 18.1437Z" fill="#FDFDFD"/>
</svg>
