<svg width="25" height="25" viewBox="0 0 25 25" fill="none" xmlns="http://www.w3.org/2000/svg">
<path d="M12.5275 25H12.4725C5.59523 25 0 19.4048 0 12.5275V12.4725C0 5.59524 5.59523 0 12.4725 0H12.5275C19.4048 0 25 5.59524 25 12.4725V12.5275C25 19.4048 19.4048 25 12.5275 25ZM12.4725 0.846224C6.0615 0.846224 0.846224 6.0615 0.846224 12.4725V12.5275C0.846224 18.9385 6.0615 24.1538 12.4725 24.1538H12.5275C18.9385 24.1538 24.1538 18.9385 24.1538 12.5275V12.4725C24.1538 6.0615 18.9385 0.846224 12.5275 0.846224H12.4725Z" fill="#00E510"/>
<path d="M14.8538 16.0326C11.7625 16.0326 9.24754 13.5167 9.24669 10.4255C9.24754 9.64187 9.88559 9.00467 10.6675 9.00467C10.7479 9.00467 10.8274 9.01144 10.9036 9.02498C11.0711 9.05291 11.2302 9.10961 11.3766 9.19508C11.3978 9.20777 11.4122 9.22807 11.4156 9.25177L11.7422 11.3106C11.7464 11.3343 11.7388 11.3589 11.7227 11.3766C11.5425 11.5763 11.3123 11.7202 11.0559 11.7921L10.9324 11.8268L10.9789 11.9462C11.4003 13.0192 12.2584 13.8764 13.3323 14.2995L13.4516 14.3469L13.4863 14.2233C13.5582 13.9669 13.7021 13.7368 13.9018 13.5565C13.9162 13.543 13.9356 13.5362 13.9551 13.5362C13.9593 13.5362 13.9635 13.5362 13.9686 13.537L16.0275 13.8637C16.052 13.8679 16.0723 13.8815 16.085 13.9026C16.1697 14.049 16.2264 14.209 16.2551 14.3765C16.2687 14.451 16.2746 14.5297 16.2746 14.6118C16.2746 15.3945 15.6374 16.0317 14.8538 16.0326Z" fill="#00E510"/>
<path d="M20.3356 11.8217C20.1689 9.93805 19.3058 8.1906 17.9053 6.9018C16.4963 5.60538 14.6684 4.89118 12.7568 4.89118C8.56125 4.89118 5.14759 8.30484 5.14759 12.5004C5.14759 13.9085 5.536 15.2803 6.27137 16.4751L4.63138 20.1054L9.88221 19.5461C10.7953 19.9201 11.7617 20.1097 12.756 20.1097C13.0175 20.1097 13.2857 20.0961 13.5548 20.0682C13.7918 20.0428 14.0312 20.0056 14.2665 19.9582C17.78 19.2482 20.3449 16.1299 20.3652 12.541V12.5004C20.3652 12.2719 20.3551 12.0435 20.3348 11.8226L20.3356 11.8217ZM10.0845 17.9526L7.17937 18.2624L8.04675 16.3406L7.87327 16.1079C7.86058 16.091 7.84789 16.074 7.8335 16.0546C7.08036 15.0146 6.68263 13.7858 6.68263 12.5013C6.68263 9.15191 9.40747 6.42707 12.7568 6.42707C15.8946 6.42707 18.5543 8.87519 18.8107 12.0003C18.8243 12.1679 18.8319 12.3363 18.8319 12.5021C18.8319 12.5495 18.831 12.596 18.8302 12.646C18.7659 15.4478 16.8085 17.8274 14.0702 18.4333C13.8612 18.4798 13.6471 18.5154 13.4338 18.5382C13.2121 18.5636 12.9845 18.5763 12.7585 18.5763C11.9538 18.5763 11.1719 18.4206 10.4331 18.1126C10.351 18.0796 10.2706 18.044 10.1953 18.0077L10.0853 17.9543L10.0845 17.9526Z" fill="#00E510"/>
</svg>
