<svg width="25" height="25" viewBox="0 0 25 25" fill="none" xmlns="http://www.w3.org/2000/svg">
<path d="M12.5 25C5.60723 25 0 19.3928 0 12.5C0 5.60722 5.60723 0 12.5 0C19.3928 0 25 5.60722 25 12.5C25 19.3928 19.3928 25 12.5 25ZM12.5 0.848551C6.07563 0.848551 0.848551 6.07562 0.848551 12.5C0.848551 18.9244 6.07563 24.1515 12.5 24.1515C18.9244 24.1515 24.1514 18.9244 24.1514 12.5C24.1514 6.07562 18.9244 0.848551 12.5 0.848551Z" fill="#FF0209"/>
<path d="M20.1039 9.99762C20.0088 9.08033 19.8043 8.06631 19.0517 7.53342C18.4687 7.12018 17.7025 7.10491 16.9871 7.10576C15.475 7.10661 13.9621 7.1083 12.4499 7.10915C10.9955 7.11085 9.5411 7.1117 8.08669 7.1134C7.47913 7.11424 6.88853 7.06673 6.32425 7.32978C5.83972 7.55549 5.46042 7.98486 5.23216 8.46259C4.91565 9.12701 4.84947 9.87967 4.81128 10.6145C4.74085 11.9527 4.74849 13.2942 4.8325 14.6316C4.89444 15.6074 5.05142 16.6859 5.80578 17.3079C6.47444 17.8586 7.41803 17.8857 8.28525 17.8866C11.0379 17.8891 13.7915 17.8917 16.545 17.8934C16.898 17.8942 17.2663 17.8874 17.6261 17.8484C18.3338 17.772 19.0084 17.5692 19.4632 17.0448C19.9223 16.5162 20.0402 15.7805 20.1098 15.0838C20.2795 13.3935 20.2778 11.6871 20.1039 9.99762ZM10.8581 14.8692V10.13L14.9617 12.4991L10.8581 14.8692Z" fill="#FF0209"/>
</svg>
